<svg width="112" height="150" viewBox="0 0 112 150" fill="none" xmlns="http://www.w3.org/2000/svg">
<g filter="url(#filter0_d_653_172)">
<mask id="mask0_653_172" style="mask-type:luminance" maskUnits="userSpaceOnUse" x="19" y="6" width="77" height="105">
<path d="M39.163 6.54689L19.4347 52.7129L23.3072 89.766L56.2463 110.844H63.9925L95.53 88.3656L95.8075 15.6586L39.163 6.54689Z" fill="white"/>
</mask>
<g mask="url(#mask0_653_172)">
<path d="M102.29 88.4689H9.30225V149.108H102.29V88.4689Z" fill="url(#paint0_linear_653_172)"/>
<path d="M61.1345 115.062L80.9226 86.9765C87.7315 88.0408 103.647 88.3806 105.179 88.891C106.712 89.4026 76.0294 107.19 61.1345 115.062Z" fill="url(#paint1_linear_653_172)"/>
<path d="M59.2748 115.062L39.4867 86.9765C32.6779 88.0408 16.7622 88.3806 15.2299 88.891C13.6989 89.4026 44.3811 107.19 59.2748 115.062Z" fill="url(#paint2_linear_653_172)"/>
</g>
<path d="M18.5347 37.1184L9.20648 55.2235C8.70982 56.1808 8.65752 57.2625 9.06456 58.2384L12.4702 66.6791C12.8063 67.5306 13.481 68.2749 14.3498 68.7716L24.8644 74.7826C25.4146 75.1025 26.0532 75.3154 26.7092 75.4212L28.1107 75.634C29.2447 75.8108 30.4335 75.634 31.4268 75.1199L38.8568 71.3433C39.956 70.7931 40.7539 69.8882 41.0726 68.8251L45.311 54.8513C45.5774 53.9651 45.489 53.0066 45.0633 52.1738L37.2598 36.7462C36.4445 35.1317 35.4698 33.572 34.3346 32.082L32.277 29.3871C30.3974 26.9212 26.1951 26.8689 24.2445 29.2975C23.1977 30.592 22.1695 31.8866 21.1239 33.1812C20.077 34.4757 19.2617 35.7528 18.5522 37.1358L18.5347 37.1184Z" fill="url(#paint3_linear_653_172)"/>
<path d="M39.6897 55.826C39.6897 55.6667 39.6362 55.5422 39.5478 55.4003C39.3872 55.1526 39.1569 54.9397 38.8731 54.8862C38.5718 54.8152 38.2706 54.8339 38.0042 54.9932C36.6574 55.8086 35.3093 56.6426 33.9612 57.4927C32.6318 58.3267 31.3011 59.1782 29.9717 60.0296C29.8124 60.1354 29.6519 60.2424 29.4926 60.3308V40.7008C29.4926 40.1145 28.9784 39.5295 28.3586 39.5656C27.7374 39.6004 27.2233 40.0622 27.2233 40.7008V49.9918C26.9395 49.7266 26.6557 49.4602 26.3545 49.1939C25.645 48.5379 24.918 47.8644 24.2085 47.2085C23.8002 46.8363 23.4105 46.4628 23.0023 46.0907C22.7894 45.8965 22.5056 45.7546 22.2044 45.7546C22.045 45.7546 21.9032 45.7894 21.7613 45.8604C21.6194 45.9139 21.4949 45.9849 21.3891 46.0907C21.1937 46.3035 21.0343 46.5873 21.0518 46.8885C21.0518 47.191 21.1588 47.4923 21.3891 47.6864C22.0986 48.3424 22.8256 49.0171 23.5351 49.6731C24.2433 50.3291 24.9715 51.0025 25.6798 51.6585L26.886 52.7763C26.9744 52.8647 27.0988 52.9356 27.2059 52.9892V62.122C27.2059 62.122 27.2059 62.1395 27.2059 62.1569C27.1523 62.3162 27.1523 62.4581 27.1872 62.6175C27.1872 62.6884 27.1872 62.7419 27.2233 62.8129V66.8385C26.2661 66.2709 25.3076 65.7033 24.3504 65.1356C22.879 64.2494 21.4065 63.3631 19.9526 62.4581C19.1373 61.944 18.3033 61.4474 17.4879 60.9333C17.3635 60.8449 17.2216 60.8088 17.0623 60.7914C16.9029 60.7565 16.7611 60.7565 16.6005 60.8088C16.4586 60.8449 16.3179 60.9159 16.2108 61.0042C16.0863 61.0926 15.998 61.1822 15.927 61.3241C15.7851 61.5893 15.7142 61.9092 15.8212 62.193C15.9096 62.4768 16.0864 62.7071 16.3353 62.8664C17.7892 63.7888 19.2605 64.6925 20.733 65.58C22.2044 66.4663 23.6769 67.3526 25.1482 68.2388C25.8403 68.6471 26.5138 69.0554 27.2059 69.445V89.5194C27.2059 90.1045 27.72 90.6895 28.3399 90.6534C28.961 90.6186 29.4751 90.1567 29.4751 89.5194V63.0257C30.5929 62.2988 31.7095 61.5719 32.8447 60.8449C34.1741 59.9935 35.5048 59.1607 36.8516 58.3267C37.6147 57.8662 38.3764 57.3869 39.122 56.9264C39.3698 56.7845 39.5652 56.5355 39.6362 56.2517C39.6897 56.0924 39.6897 55.9505 39.6536 55.7911L39.6897 55.826Z" fill="#905D25"/>
<path d="M89.412 17.3104C89.412 20.6439 86.7171 23.3401 83.3836 23.3401C80.0501 23.3401 77.3539 20.6439 77.3539 17.3104C77.3539 17.0092 77.3713 16.708 77.4248 16.4055C77.4423 16.2636 77.4784 16.1229 77.5133 15.981C77.5133 15.9101 77.5493 15.8391 77.5668 15.7682C77.6029 15.6263 77.6551 15.4844 77.6912 15.3599C77.7622 15.1645 77.8332 14.9877 77.9216 14.8097C78.4892 13.5512 79.4999 12.5231 80.7409 11.9193C80.8119 11.8845 80.8654 11.8484 80.9364 11.831C80.9538 11.831 80.9899 11.8135 81.0073 11.7961C83.5429 10.5899 82.8334 9.18832 83.3475 9.09995C83.3661 9.09995 83.3836 9.09995 83.401 9.09995C83.4184 9.09995 83.4371 9.09995 83.4545 9.09995C83.4719 9.09995 83.4894 9.09995 83.5081 9.09995C83.9512 9.27795 83.3475 10.6435 85.8831 11.8135C87.2673 12.4521 88.3664 13.5687 88.9689 14.9703C89.005 15.0761 89.0572 15.1831 89.0933 15.2889C89.1282 15.3773 89.1468 15.4483 89.1817 15.5366C89.2178 15.6076 89.2352 15.6972 89.2527 15.7856C89.2701 15.8566 89.2888 15.9275 89.3062 15.9985C89.3411 16.1404 89.3597 16.2823 89.3946 16.4242C89.412 16.5661 89.4306 16.7254 89.4481 16.8673C89.4481 17.0266 89.4481 17.1685 89.4481 17.3279L89.412 17.3104Z" fill="url(#paint4_linear_653_172)"/>
<path d="M92.3559 89.5544H74.3926C73.3645 89.5544 72.5305 88.6682 72.6189 87.64L76.7515 32.5079L77.9041 17.1337C77.9751 16.2113 78.7543 15.4844 79.6767 15.4844H87.0544C87.9942 15.4844 88.7561 16.2113 88.827 17.1337L94.111 87.64C94.182 88.6682 93.3667 89.5544 92.3385 89.5544H92.3559Z" fill="url(#paint5_linear_653_172)"/>
<path d="M90.3169 16.601V18.5341C90.3169 18.9598 90.0692 19.332 89.7145 19.5274C89.5552 19.6158 89.3771 19.6519 89.2004 19.6519H77.5493C76.9294 19.6519 76.4327 19.1552 76.4327 18.5341V16.601C76.4327 16.2649 76.5921 15.9624 76.8223 15.7495C77.0178 15.5902 77.2655 15.4844 77.5493 15.4844H89.2004C89.8203 15.4844 90.3169 15.9811 90.3169 16.601Z" fill="url(#paint6_linear_653_172)"/>
<path d="M89.7306 19.5273C89.5713 19.6157 89.3932 19.6518 89.2165 19.6518H77.5655C76.9456 19.6518 76.4489 19.1551 76.4489 18.534V16.6008C76.4489 16.2647 76.6082 15.9623 76.8385 15.7494C77.6189 17.5232 79.3031 18.7294 81.2362 18.8713L89.7131 19.5273H89.7306Z" fill="#852F1B"/>
<path opacity="0.82" d="M88.9863 89.5543H74.41C73.3806 89.5543 72.5478 88.6668 72.6362 87.6386L77.105 28.8892L88.9863 89.5543Z" fill="url(#paint7_linear_653_172)"/>
<path d="M92.0908 28.9615L90.9904 35.4517V35.5227C90.8846 36.0368 90.4414 36.4089 89.9274 36.4089H76.8573C76.3432 36.4089 75.9001 36.0368 75.8117 35.5227L74.6939 28.9615C74.6229 28.5532 74.8009 28.1636 75.1022 27.9321C75.2802 27.7902 75.493 27.7192 75.7408 27.7192H91.044C91.7 27.7192 92.214 28.3229 92.0908 28.9615Z" fill="url(#paint8_linear_653_172)"/>
<path d="M90.9731 35.4518V35.5227C90.8661 36.0368 90.4229 36.409 89.9088 36.409H76.84C76.3246 36.409 75.8815 36.0368 75.7931 35.5227L74.6753 28.9615C74.6056 28.5532 74.7824 28.1624 75.0836 27.9321L75.5093 28.8196C77.1586 32.2415 80.4921 34.5468 84.27 34.8841L90.9731 35.4692V35.4518Z" fill="#852F1B"/>
<path d="M87.5287 14.4735C87.8523 13.9134 87.5163 13.1142 86.7781 12.6885C86.04 12.2628 85.1798 12.3711 84.8562 12.9313C84.5338 13.4902 84.8699 14.2893 85.6081 14.7163C86.345 15.142 87.2063 15.0337 87.5287 14.4735Z" fill="#F1F4F7"/>
<path d="M81.3085 69.3916H31.178C30.2767 69.3916 29.546 70.1223 29.546 71.0235V87.9225C29.546 88.8238 30.2767 89.5544 31.178 89.5544H81.3085C82.2097 89.5544 82.9404 88.8238 82.9404 87.9225V71.0235C82.9404 70.1223 82.2097 69.3916 81.3085 69.3916Z" fill="url(#paint9_linear_653_172)"/>
<path opacity="0.69" d="M75.8827 89.5544H31.1605C30.2556 89.5544 29.5287 88.8274 29.5287 87.9225V71.0048C29.5287 70.1011 30.2556 69.3742 31.1605 69.3742H32.4726L33.5717 77.6195C34.1928 82.2476 37.8985 85.83 42.544 86.2906L75.9001 89.5544H75.8827Z" fill="url(#paint10_linear_653_172)"/>
<path d="M87.3371 72.5844H25.1136C24.6169 72.5844 24.404 71.9458 24.8111 71.662L36.8705 62.8665L39.4235 61.0043L47.8816 54.834H64.569L75.5803 62.8665L87.6396 71.662C88.0466 71.9458 87.8338 72.5844 87.3371 72.5844Z" fill="url(#paint11_linear_653_172)"/>
<path opacity="0.37" d="M79.7478 72.4063L76.006 72.6018H25.1136C24.6169 72.6018 24.404 71.9632 24.8111 71.6794L36.8705 62.8838L39.4235 61.0217L35.8061 64.4983C33.2519 66.9443 34.9199 71.2711 38.4662 71.3607L79.7478 72.4063Z" fill="#852F1B"/>
<path d="M78.8962 62.8839H33.5717C33.075 62.8839 32.8621 62.2279 33.2878 61.9441L43.4128 55.0643L45.2402 53.822L48.9807 51.2864H63.5395L69.0899 55.0643L79.2161 61.9441C79.6418 62.2279 79.4289 62.8839 78.9323 62.8839H78.8962Z" fill="url(#paint12_linear_653_172)"/>
<path opacity="0.37" d="M73.7367 62.7233L70.1716 62.8652H33.5717C33.075 62.8652 32.8621 62.2092 33.2878 61.9254L43.4128 55.0456L45.2402 53.8045L43.5199 55.3642C41.0017 57.6347 42.5265 61.8196 45.931 61.9254L73.7715 62.7233H73.7367Z" fill="#852F1B"/>
<path d="M69.0537 50.4536H43.394V54.8514H69.0537V50.4536Z" fill="url(#paint13_linear_653_172)"/>
<path d="M62.2635 40.2752C62.2635 43.6087 59.5686 46.3036 56.2351 46.3036C52.9004 46.3036 50.2054 43.6087 50.2054 40.2752C50.2054 39.9727 50.2229 39.6715 50.2764 39.3702C50.2938 39.2283 50.33 39.0864 50.3648 38.9445C50.3648 38.8736 50.4009 38.8026 50.4183 38.7317C50.4532 38.5898 50.5067 38.4478 50.5428 38.3234C50.6137 38.1292 50.6847 37.9512 50.7731 37.7744C51.3407 36.5147 52.3514 35.4865 53.5925 34.8841C53.6634 34.848 53.717 34.8131 53.788 34.7957C53.8054 34.7957 53.8402 34.777 53.8588 34.7596C56.3944 33.5534 55.6849 32.153 56.199 32.0647C56.2164 32.0647 56.2351 32.0647 56.2526 32.0647C56.27 32.0647 56.2874 32.0647 56.3061 32.0647C56.3235 32.0647 56.341 32.0647 56.3584 32.0647C56.8028 32.2414 56.1991 33.6069 58.7347 34.777C60.1189 35.4156 61.2179 36.5334 61.8204 37.9338C61.8565 38.0408 61.9088 38.1466 61.9449 38.2524C61.9798 38.3421 61.9984 38.413 62.0333 38.5014C62.0694 38.5723 62.0868 38.6607 62.1042 38.7491C62.1217 38.82 62.1404 38.891 62.1578 38.9619C62.1926 39.1038 62.2113 39.2457 62.2461 39.3876C62.2636 39.5295 62.2822 39.6889 62.2996 39.8308C62.2996 39.9914 62.2996 40.1333 62.2996 40.2926L62.2635 40.2752Z" fill="url(#paint14_linear_653_172)"/>
<path d="M75.1544 51.7482H37.3134C36.7806 51.7482 36.6039 51.0387 37.0645 50.7897L45.6471 46.0907L48.9097 41.9232L50.1869 40.2926H62.2449L66.802 46.0907L75.3859 50.7897C75.8465 51.0387 75.6685 51.7482 75.137 51.7482H75.1544Z" fill="url(#paint15_linear_653_172)"/>
<path opacity="0.37" d="M75.5091 51.4993C75.5091 51.4993 73.5586 51.5876 70.4915 51.7295H37.3134C36.7806 51.7295 36.6039 51.0213 37.0645 50.7723L45.6471 46.0733L48.9097 41.9058L47.1545 45.1684C46.1264 47.0841 47.4023 49.4068 49.5657 49.5661L75.4918 51.4818L75.5091 51.4993Z" fill="#852F1B"/>
<mask id="mask1_653_172" style="mask-type:luminance" maskUnits="userSpaceOnUse" x="29" y="69" width="54" height="21">
<path d="M82.9404 69.3916H29.546V89.5544H82.9404V69.3916Z" fill="white"/>
</mask>
<g mask="url(#mask1_653_172)">
<path d="M58.1322 79.925V79.7656C58.1322 78.72 57.282 77.8686 56.2351 77.8686C55.1895 77.8686 54.3381 78.72 54.3381 79.7656V79.925H53.6634C52.4224 79.925 51.4116 80.9357 51.4116 82.178V91.4515H61.0238V82.178C61.0238 80.9357 60.013 79.925 58.7708 79.925H58.0973H58.1322Z" stroke="#FEBB12" stroke-width="0.924157" stroke-linejoin="round"/>
<path d="M31.3199 79.925V79.7657C31.3199 78.7201 30.4697 77.8687 29.4228 77.8687C28.376 77.8687 27.5258 78.7201 27.5258 79.7657V79.925H26.8512C25.6101 79.925 24.5994 80.9358 24.5994 82.1781V91.4516H34.2102V82.1781C34.2102 80.9358 33.1995 79.925 31.9584 79.925H31.2851H31.3199Z" stroke="#FEBB12" stroke-width="0.924157" stroke-linejoin="round"/>
<path d="M84.8201 79.925V79.7656C84.8201 78.72 83.9686 77.8686 82.923 77.8686C81.8761 77.8686 81.0247 78.72 81.0247 79.7656V79.925H80.3513C79.1103 79.925 78.0995 80.9357 78.0995 82.178V91.4515H87.7104V82.178C87.7104 80.9357 86.6997 79.925 85.4586 79.925H84.7852H84.8201Z" stroke="#FEBB12" stroke-width="0.924157" stroke-linejoin="round"/>
</g>
<path d="M60.3305 38.6445C60.9878 38.1341 60.9741 37.0176 60.3007 36.1512C59.6273 35.2861 58.5493 34.9986 57.8921 35.5089C57.2348 36.0205 57.2472 37.1371 57.9206 38.0022C58.594 38.8686 59.6733 39.1561 60.3305 38.6445Z" fill="#F1F4F7"/>
</g>
<defs>
<filter id="filter0_d_653_172" x="0.880544" y="0.198745" width="110.751" height="125.48" filterUnits="userSpaceOnUse" color-interpolation-filters="sRGB">
<feFlood flood-opacity="0" result="BackgroundImageFix"/>
<feColorMatrix in="SourceAlpha" type="matrix" values="0 0 0 0 0 0 0 0 0 0 0 0 0 0 0 0 0 0 127 0" result="hardAlpha"/>
<feOffset dx="3.95608" dy="2.96706"/>
<feGaussianBlur stdDeviation="5.93413"/>
<feColorMatrix type="matrix" values="0 0 0 0 0 0 0 0 0 0 0 0 0 0 0 0 0 0 0.1 0"/>
<feBlend mode="normal" in2="BackgroundImageFix" result="effect1_dropShadow_653_172"/>
<feBlend mode="normal" in="SourceGraphic" in2="effect1_dropShadow_653_172" result="shape"/>
</filter>
<linearGradient id="paint0_linear_653_172" x1="55.7969" y1="88.4689" x2="55.7969" y2="149.108" gradientUnits="userSpaceOnUse">
<stop stop-color="#7B6D2C"/>
<stop offset="1" stop-color="#665B29"/>
</linearGradient>
<linearGradient id="paint1_linear_653_172" x1="82.5483" y1="86.9765" x2="82.5483" y2="115.062" gradientUnits="userSpaceOnUse">
<stop stop-color="#524620"/>
<stop offset="1" stop-color="#7B3325" stop-opacity="0"/>
</linearGradient>
<linearGradient id="paint2_linear_653_172" x1="37.8623" y1="86.9765" x2="37.8623" y2="115.062" gradientUnits="userSpaceOnUse">
<stop stop-color="#524620"/>
<stop offset="1" stop-color="#7B3325" stop-opacity="0"/>
</linearGradient>
<linearGradient id="paint3_linear_653_172" x1="27.3365" y1="22.3218" x2="27.1971" y2="80.1413" gradientUnits="userSpaceOnUse">
<stop offset="0.06" stop-color="#FFEE39"/>
<stop offset="0.71208" stop-color="#69AC6B"/>
<stop offset="0.91" stop-color="#308E77"/>
<stop offset="1" stop-color="#1E857B"/>
</linearGradient>
<linearGradient id="paint4_linear_653_172" x1="77.3539" y1="16.1939" x2="89.412" y2="16.1939" gradientUnits="userSpaceOnUse">
<stop offset="0.14" stop-color="#8E9297"/>
<stop offset="0.26" stop-color="#AFB2B5"/>
<stop offset="0.4" stop-color="#CCCDD0"/>
<stop offset="0.51" stop-color="#DEDEE0"/>
<stop offset="0.6" stop-color="#E5E5E6"/>
</linearGradient>
<linearGradient id="paint5_linear_653_172" x1="68.47" y1="54.2129" x2="94.6438" y2="51.6948" gradientUnits="userSpaceOnUse">
<stop offset="0.28" stop-color="#CF984F"/>
<stop offset="0.31" stop-color="#D4A15A"/>
<stop offset="0.44" stop-color="#E6C183"/>
<stop offset="0.55" stop-color="#F4D8A0"/>
<stop offset="0.65" stop-color="#FCE6B2"/>
<stop offset="0.72" stop-color="#FFECB9"/>
</linearGradient>
<linearGradient id="paint6_linear_653_172" x1="76.4502" y1="17.5769" x2="90.3169" y2="17.5769" gradientUnits="userSpaceOnUse">
<stop offset="0.13" stop-color="#9C3F22"/>
<stop offset="0.25" stop-color="#A94322"/>
<stop offset="0.55" stop-color="#C64D24"/>
<stop offset="0.81" stop-color="#D85225"/>
<stop offset="1" stop-color="#DF5526"/>
</linearGradient>
<linearGradient id="paint7_linear_653_172" x1="69.6749" y1="61.0217" x2="89.3759" y2="58.3616" gradientUnits="userSpaceOnUse">
<stop offset="0.46" stop-color="#CF984F"/>
<stop offset="0.5" stop-color="#D4A15A"/>
<stop offset="0.66" stop-color="#E6C183"/>
<stop offset="0.79" stop-color="#F4D8A0"/>
<stop offset="0.91" stop-color="#FCE6B2"/>
<stop offset="1" stop-color="#FFECB9"/>
</linearGradient>
<linearGradient id="paint8_linear_653_172" x1="74.6765" y1="32.0647" x2="92.1082" y2="32.0647" gradientUnits="userSpaceOnUse">
<stop offset="0.13" stop-color="#9C3F22"/>
<stop offset="0.25" stop-color="#A94322"/>
<stop offset="0.55" stop-color="#C64D24"/>
<stop offset="0.81" stop-color="#D85225"/>
<stop offset="1" stop-color="#DF5526"/>
</linearGradient>
<linearGradient id="paint9_linear_653_172" x1="56.2351" y1="69.3916" x2="56.2351" y2="89.5544" gradientUnits="userSpaceOnUse">
<stop stop-color="#CF984F"/>
<stop offset="0.14" stop-color="#DEB371"/>
<stop offset="0.29" stop-color="#ECCB90"/>
<stop offset="0.45" stop-color="#F6DDA6"/>
<stop offset="0.59" stop-color="#FCE8B4"/>
<stop offset="0.72" stop-color="#FFECB9"/>
</linearGradient>
<linearGradient id="paint10_linear_653_172" x1="37.3844" y1="98.4731" x2="60.7214" y2="70.3314" gradientUnits="userSpaceOnUse">
<stop offset="0.11" stop-color="#CF984F" stop-opacity="0.5"/>
<stop offset="0.45" stop-color="#E4BE7F" stop-opacity="0.73"/>
<stop offset="0.87" stop-color="#FFECB9"/>
</linearGradient>
<linearGradient id="paint11_linear_653_172" x1="56.2341" y1="54.8514" x2="56.2341" y2="72.5844" gradientUnits="userSpaceOnUse">
<stop offset="0.44" stop-color="#9C3F22"/>
<stop offset="0.51" stop-color="#A94322"/>
<stop offset="0.69" stop-color="#C64D24"/>
<stop offset="0.84" stop-color="#D85225"/>
<stop offset="0.95" stop-color="#DF5526"/>
</linearGradient>
<linearGradient id="paint12_linear_653_172" x1="56.2339" y1="51.2864" x2="56.2339" y2="62.8839" gradientUnits="userSpaceOnUse">
<stop offset="0.13" stop-color="#9C3F22"/>
<stop offset="0.25" stop-color="#A94322"/>
<stop offset="0.55" stop-color="#C64D24"/>
<stop offset="0.81" stop-color="#D85225"/>
<stop offset="1" stop-color="#DF5526"/>
</linearGradient>
<linearGradient id="paint13_linear_653_172" x1="56.2326" y1="50.4536" x2="56.2326" y2="54.8514" gradientUnits="userSpaceOnUse">
<stop offset="0.3" stop-color="#CF984F"/>
<stop offset="0.33" stop-color="#D4A15A"/>
<stop offset="0.45" stop-color="#E6C183"/>
<stop offset="0.56" stop-color="#F4D8A0"/>
<stop offset="0.65" stop-color="#FCE6B2"/>
<stop offset="0.72" stop-color="#FFECB9"/>
</linearGradient>
<linearGradient id="paint14_linear_653_172" x1="50.2054" y1="39.1748" x2="62.2635" y2="39.1748" gradientUnits="userSpaceOnUse">
<stop offset="0.14" stop-color="#8E9297"/>
<stop offset="0.26" stop-color="#AFB2B5"/>
<stop offset="0.4" stop-color="#CCCDD0"/>
<stop offset="0.51" stop-color="#DEDEE0"/>
<stop offset="0.6" stop-color="#E5E5E6"/>
</linearGradient>
<linearGradient id="paint15_linear_653_172" x1="40.4876" y1="39.0329" x2="71.4662" y2="62.5117" gradientUnits="userSpaceOnUse">
<stop offset="0.14" stop-color="#9C3F22"/>
<stop offset="0.19" stop-color="#A94322"/>
<stop offset="0.33" stop-color="#C64D24"/>
<stop offset="0.45" stop-color="#D85225"/>
<stop offset="0.54" stop-color="#DF5526"/>
</linearGradient>
</defs>
</svg>
