<svg width="116" height="146" viewBox="0 0 116 146" fill="none" xmlns="http://www.w3.org/2000/svg">
<g filter="url(#filter0_d_652_61)">
<mask id="mask0_652_61" style="mask-type:luminance" maskUnits="userSpaceOnUse" x="15" y="0" width="77" height="112">
<path d="M53.3251 111.644L89.9591 85.8962L91.539 21.8982L67.1965 2.07048L35.6324 0.855484L15.8214 28.6697L16.4996 84.403L47.612 110.846L53.3251 111.644Z" fill="white"/>
</mask>
<g mask="url(#mask0_652_61)">
<path d="M5.65723 141.969L101.574 145.855L104.109 83.2974L8.19065 79.4122L5.65723 141.969Z" fill="url(#paint0_linear_652_61)"/>
<path d="M110.759 84.4363C112.147 84.4363 72.2724 104.404 52.595 113.086L70.332 81.833C82.9398 83.5696 109.369 84.4363 110.759 84.4363Z" fill="#D45A26"/>
</g>
<path d="M74.8013 33.4963L65.1299 50.546C64.6266 51.4492 64.5232 52.4742 64.8699 53.4459L67.8048 61.694C68.0998 62.5273 68.7066 63.2557 69.5399 63.7773L79.4197 69.9755C79.9413 70.3055 80.5312 70.5306 81.1729 70.6522L82.5278 70.9122C83.6212 71.1206 84.7495 70.9989 85.7395 70.5488L93.0326 67.1972C94.1077 66.7106 94.9076 65.8606 95.2543 64.8706L99.8726 51.6059C100.168 50.7543 100.116 49.8525 99.751 49.0192L92.8411 33.8612C92.1111 32.2645 91.2443 30.7363 90.2011 29.2597L88.3262 26.5864C86.6079 24.1381 82.5629 23.9298 80.6012 26.1864C79.5413 27.3847 78.4997 28.5997 77.4398 29.798C76.3814 30.9963 75.548 32.1946 74.8013 33.4963Z" fill="url(#paint1_linear_652_61)"/>
<path d="M94.3859 52.7341C94.2993 52.9942 94.1092 53.2375 93.8659 53.3591C93.1193 53.7758 92.3726 54.1925 91.6259 54.6091C90.306 55.3558 88.986 56.1191 87.6676 56.884C86.556 57.5258 85.4444 58.1857 84.3511 58.8457L83.3261 84.3168C83.3094 84.9236 82.7878 85.3585 82.1978 85.3585C81.6078 85.3585 81.1212 84.7852 81.1561 84.2302L81.9377 64.9223C81.2945 64.5056 80.6529 64.0889 80.0096 63.6723C78.6212 62.769 77.2496 61.8673 75.8612 60.9473C74.4896 60.0257 73.0997 59.1057 71.7463 58.169C71.503 57.9956 71.3463 57.7691 71.2764 57.4908C71.1897 57.214 71.2764 56.9008 71.4163 56.6575C71.4848 56.5358 71.5896 56.4324 71.7113 56.3624C71.8147 56.2758 71.9546 56.2058 72.0929 56.1891C72.2313 56.1541 72.388 56.1541 72.5264 56.1891C72.6663 56.1891 72.8047 56.259 72.9263 56.3275C73.6897 56.8491 74.4546 57.3691 75.2362 57.8907C76.6078 58.8107 77.9795 59.7307 79.3511 60.634C80.2528 61.224 81.1395 61.7973 82.0412 62.3873L82.1978 58.5157C82.1978 58.5157 82.1811 58.3941 82.1811 58.3424C82.1461 58.204 82.181 58.0473 82.2145 57.9074C82.2145 57.9074 82.2145 57.8907 82.2145 57.874L82.5627 49.0876C82.4578 49.0359 82.3545 48.9492 82.2678 48.8625C81.9028 48.4976 81.5211 48.1159 81.1561 47.7509C80.4962 47.0909 79.8362 46.431 79.1762 45.7543C78.5163 45.0943 77.8579 44.4343 77.1979 43.7577C76.9896 43.5493 76.9028 43.2543 76.9028 42.976C76.9028 42.681 77.058 42.421 77.2496 42.2126C77.3545 42.1077 77.4746 42.0393 77.6145 42.0043C77.7529 41.9344 77.8913 41.9176 78.0312 41.9344C78.3262 41.9344 78.5862 42.091 78.7946 42.2826C79.1595 42.646 79.5412 43.0277 79.9061 43.3927C80.5661 44.0527 81.2261 44.7126 81.886 45.3893C82.1461 45.6509 82.4229 45.9276 82.6844 46.1877L83.0479 37.2462C83.0661 36.6394 83.5862 36.2045 84.1777 36.2045C84.7677 36.2045 85.2543 36.7778 85.2194 37.3328L84.4545 56.2241C84.6111 56.1374 84.7678 56.0325 84.9244 55.9458C86.2261 55.1824 87.546 54.4175 88.8644 53.6541C90.1844 52.8908 91.521 52.1441 92.8577 51.4142C93.1192 51.2758 93.4142 51.2576 93.7092 51.3458C93.9875 51.4142 94.1959 51.6408 94.3342 51.8658C94.4042 51.9875 94.4377 52.1259 94.4559 52.2825C94.4909 52.4209 94.4559 52.5775 94.4209 52.7174L94.3859 52.7341Z" fill="#905D25"/>
<path d="M18.1481 37.8893C21.6198 38.0627 25.0762 38.2193 28.5479 38.3927C30.3712 38.4794 31.8812 39.6944 32.0728 41.2576C32.5244 44.8859 32.9761 48.5142 33.4277 52.1258C33.5311 52.9074 33.5144 53.6708 33.3745 54.4524C32.8195 57.7523 32.2644 61.0339 31.7079 64.3322C31.4478 65.9289 29.8161 67.0754 27.9229 67.0055L14.7798 66.5204C13.5648 66.4672 12.4532 65.9289 11.7932 65.0606C10.8382 63.8106 9.88331 62.5439 8.92833 61.2939C8.35504 60.529 8.18171 59.5923 8.45999 58.724C10.4399 52.5425 12.4182 46.3792 14.3981 40.1977C14.8498 38.7744 16.3948 37.8194 18.1314 37.906L18.1481 37.8893Z" fill="url(#paint2_linear_652_61)"/>
<path d="M28.8611 50.2675C28.8611 50.4241 28.8262 50.564 28.7562 50.6857C28.7045 50.824 28.6361 50.9274 28.5144 51.0324C28.1312 51.3441 27.7677 51.6741 27.3845 51.9873C26.1178 53.064 24.8496 54.1573 23.5829 55.234L22.4895 82.1452C22.4713 82.7534 21.9512 83.1868 21.3612 83.1868C20.7696 83.1868 20.2846 82.6151 20.318 82.0585L20.9962 65.2354C20.4929 64.8704 19.988 64.4887 19.5029 64.1238C18.5829 63.4638 17.6796 62.7871 16.7596 62.1439C15.8396 61.4839 14.9014 60.8422 13.9814 60.1989C13.7381 60.0256 13.5815 59.8005 13.5131 59.5222C13.4264 59.244 13.5131 58.9322 13.6515 58.6889C13.7214 58.5673 13.8248 58.4639 13.9465 58.3939C14.0514 58.3072 14.1897 58.2373 14.3281 58.2206C14.468 58.1856 14.6231 58.1856 14.763 58.2206C14.9014 58.2206 15.0398 58.2723 15.1615 58.3589C15.6831 58.7239 16.2214 59.0888 16.7415 59.4523C17.6615 60.0955 18.5829 60.7555 19.5029 61.4322C20.0413 61.8321 20.5796 62.2138 21.1179 62.6122L21.7779 46.2058C21.7946 45.5975 22.3147 45.1641 22.9063 45.1641C23.4963 45.1641 23.9829 45.7359 23.9479 46.2924L23.7045 52.2656C24.8162 51.3274 25.9263 50.3724 27.0379 49.4341C27.1763 49.314 27.3511 49.2258 27.5245 49.1741C27.6279 49.1741 27.7145 49.1574 27.8195 49.1391C28.1145 49.1391 28.3745 49.2958 28.5829 49.4874C28.6878 49.5908 28.7562 49.7124 28.7912 49.8508C28.8612 49.9907 28.8778 50.1291 28.8611 50.2675Z" fill="#875121"/>
<path d="M88.3433 52.8376L77.4402 44.0709L61.1188 30.9263C60.9455 30.7879 60.7189 30.7013 60.4771 30.6845L24.3279 29.2597C22.6263 29.1912 21.8979 31.3779 23.2863 32.3512L37.5926 42.4378L51.8474 52.4909C52.629 53.1341 53.6007 53.4641 54.5907 53.4458L87.5966 54.7658C88.6383 54.8008 89.1417 53.4808 88.3266 52.8376H88.3433Z" fill="url(#paint3_linear_652_61)"/>
<path d="M41.3092 46.6574L40.7709 59.7655C40.7709 59.8705 40.7359 59.9571 40.6842 60.0256C40.5975 60.1472 40.4409 60.2172 40.2843 60.2172L34.6244 59.9921C34.3643 59.9921 34.1727 59.7655 34.1727 59.5055L34.7111 46.3974C34.7111 46.2407 34.7977 46.1008 34.9193 46.0324C35.006 45.9807 35.0927 45.9457 35.1976 45.9625L40.8576 46.189C41.1176 46.189 41.3092 46.4141 41.3092 46.6741V46.6574Z" fill="url(#paint4_linear_652_61)"/>
<path d="M40.6842 60.0256C40.5975 60.1472 40.4409 60.2172 40.2843 60.2172L34.6244 59.9906C34.3643 59.9906 34.1727 59.7656 34.1727 59.5055L34.7111 46.3959C34.7111 46.2392 34.7977 46.1009 34.9193 46.0309L35.2326 57.074C35.2675 58.2555 36.1177 59.2272 37.281 59.4356L40.6842 60.0438V60.0256Z" fill="#B56027"/>
<path d="M26.3338 57.4176L26.787 46.2286C26.7961 45.9853 27.0135 45.7861 27.2568 45.7952L34.5423 46.0902C34.7857 46.1008 34.9848 46.3168 34.9757 46.5601L34.5226 57.7491C34.5119 57.9925 34.296 58.1932 34.0527 58.1825L26.7656 57.8875C26.5239 57.8769 26.3231 57.6609 26.3338 57.4176Z" fill="url(#paint5_linear_652_61)"/>
<path d="M34.0175 58.1688L26.7245 57.8723C26.4812 57.8723 26.2728 57.6472 26.291 57.4039L26.7427 46.2058C26.7427 45.9625 26.9678 45.7541 27.2111 45.7709H27.4711L27.7144 55.0424C27.7327 55.8422 28.2694 56.5356 29.0343 56.744C30.926 57.2655 34.1909 58.1688 34.0175 58.1688Z" fill="#AA4424"/>
<path d="M53.7463 48.9993C54.2496 49.019 54.6329 49.4342 54.6116 49.9375L53.2962 82.4128L51.4927 82.3398L52.8081 49.8645C52.8279 49.3612 53.243 48.978 53.7463 48.9993Z" fill="url(#paint6_linear_652_61)"/>
<path d="M75.6348 52.4741C73.6716 52.3874 71.4666 52.0057 69.1932 51.0325C62.6817 48.2892 59.7818 42.6992 58.8268 40.441L60.3202 39.8161C61.1885 41.8994 63.8617 47.0392 69.8182 49.5574C73.8449 51.259 77.5782 51.0157 80.0097 50.5124L80.3397 52.0924C79.0714 52.3524 77.4565 52.5425 75.6515 52.4741H75.6348Z" fill="url(#paint7_radial_652_61)"/>
<path d="M54.8689 62.6121L34.3292 61.7788L33.686 77.3884L54.2272 78.2217L57.1089 78.3251L57.7338 62.7338L54.8689 62.6121Z" fill="url(#paint8_linear_652_61)"/>
<path d="M39.7991 62.0053L24.9361 61.397L24.2944 77.0067L39.1559 77.6149L41.2407 77.6833L45.8924 62.2486L39.7991 62.0053Z" fill="url(#paint9_linear_652_61)"/>
<path d="M57.7732 62.7245L57.1406 78.3387L79.0853 79.2283L79.7179 63.6141L57.7732 62.7245Z" fill="url(#paint10_linear_652_61)"/>
<path d="M71.745 63.2903L67.3868 78.7433L57.1086 78.3266L57.7336 62.7352L71.745 63.2903Z" fill="url(#paint11_linear_652_61)"/>
<path d="M58.7948 37.4894L56.8955 84.3806L58.7006 84.4536L60.5998 37.5624L58.7948 37.4894Z" fill="url(#paint12_linear_652_61)"/>
<path d="M27.6826 37.6643L25.8776 37.5913L24.0345 83.079L25.8395 83.152L27.6826 37.6643Z" fill="url(#paint13_linear_652_61)"/>
<path d="M80.3152 50.0712C80.8185 50.0925 81.2002 50.5077 81.1804 51.011L79.7905 85.3248L77.9855 85.2518L79.3754 50.938C79.3967 50.4347 79.8119 50.0515 80.3152 50.0712Z" fill="url(#paint14_linear_652_61)"/>
<path d="M60.4939 39.5728L49.2609 47.3692C48.4792 47.9942 47.4892 48.306 46.4826 48.2725L20.838 47.2308C19.7097 47.1776 19.328 45.7026 20.283 45.1126L34.8844 36.2045C34.9893 36.1361 35.111 36.1178 35.2327 36.1178L59.7655 37.1078C61.0672 37.1595 61.5539 38.8261 60.4772 39.5728H60.4939Z" fill="url(#paint15_linear_652_61)"/>
<path d="M30.8563 47.6292L13.5633 46.9358C12.4349 46.8826 12.0533 45.4075 13.0082 44.8175L27.6096 35.9095C27.7146 35.841 27.8362 35.8228 27.9579 35.8228L44.1393 36.4827L30.8563 47.6292Z" fill="url(#paint16_linear_652_61)"/>
<path d="M75.3214 51.7956L74.9914 59.8704C74.9914 60.1471 74.7313 60.3737 74.4531 60.3737L71.5882 60.2521C71.3114 60.2521 71.0848 59.992 71.0848 59.7137L71.4148 51.6405C71.4665 50.5639 72.3698 49.7306 73.4464 49.7656C74.523 49.799 75.3564 50.719 75.3214 51.7956Z" fill="url(#paint17_linear_652_61)"/>
<path d="M75.2697 52.8723L74.9913 59.8521C74.9913 60.1304 74.7313 60.3554 74.453 60.3554L71.693 60.252L71.728 59.992L72.8213 59.8004C73.6729 59.662 74.3314 58.9838 74.4713 58.1337L75.2697 52.8905V52.8723Z" fill="#809B7B"/>
<path d="M72.2831 51.8656L71.8314 62.8737C71.8314 63.0304 71.7798 63.1687 71.7113 63.2904C71.5365 63.6021 71.2065 63.7937 70.8431 63.777L67.0231 63.6204C66.5015 63.6021 66.0849 63.152 66.1198 62.6304L66.6932 48.5673L69.3498 48.6707C71.0332 48.7407 72.353 50.164 72.2831 51.8489V51.8656Z" fill="url(#paint18_linear_652_61)"/>
<path d="M71.7281 63.2904C71.5532 63.6021 71.2247 63.7937 70.8598 63.7937L67.0398 63.6371C66.5183 63.6204 66.1016 63.1687 66.1366 62.6471L66.5715 51.9006L67.3166 52.1439L67.0216 59.4188C66.9532 61.2588 68.3066 62.8555 70.1299 63.082L71.7449 63.2721L71.7281 63.2904Z" fill="#AD742A"/>
<path d="M68.1851 50.0606L67.7867 59.8354C67.7867 60.1122 67.5251 60.3388 67.2484 60.3388L63.2369 60.1822C62.9601 60.1822 62.7335 59.9221 62.7335 59.6439L63.3418 44.8341C66.1201 44.9375 68.2901 47.2991 68.1851 50.0773V50.0606Z" fill="url(#paint19_linear_652_61)"/>
<path d="M67.7867 59.8522C67.7867 60.1305 67.5251 60.3388 67.2484 60.3388L63.2369 60.1822C62.9601 60.1822 62.7335 59.9222 62.7335 59.6439L63.1684 48.8973C63.6368 51.0156 63.8451 54.1573 63.915 56.3623C63.9667 57.8388 65.0602 59.4538 66.5185 59.6621L67.7684 59.8522H67.7867Z" fill="#B76828"/>
<path d="M59.6256 35.9399L28.0004 34.658C27.4544 34.6367 26.9937 35.061 26.9709 35.6069C26.9496 36.1543 27.3739 36.6136 27.9198 36.6364L59.5465 37.9183C60.0925 37.9396 60.5533 37.5153 60.5746 36.9694C60.5974 36.4235 60.1715 35.9627 59.6256 35.9399Z" fill="url(#paint20_linear_652_61)"/>
</g>
<defs>
<filter id="filter0_d_652_61" x="0.417654" y="15.7135" width="115.47" height="110.766" filterUnits="userSpaceOnUse" color-interpolation-filters="sRGB">
<feFlood flood-opacity="0" result="BackgroundImageFix"/>
<feColorMatrix in="SourceAlpha" type="matrix" values="0 0 0 0 0 0 0 0 0 0 0 0 0 0 0 0 0 0 127 0" result="hardAlpha"/>
<feOffset dx="3.95608" dy="2.96706"/>
<feGaussianBlur stdDeviation="5.93413"/>
<feColorMatrix type="matrix" values="0 0 0 0 0 0 0 0 0 0 0 0 0 0 0 0 0 0 0.1 0"/>
<feBlend mode="normal" in2="BackgroundImageFix" result="effect1_dropShadow_652_61"/>
<feBlend mode="normal" in="SourceGraphic" in2="effect1_dropShadow_652_61" result="shape"/>
</filter>
<linearGradient id="paint0_linear_652_61" x1="53.6154" y1="143.912" x2="56.1504" y2="81.354" gradientUnits="userSpaceOnUse">
<stop offset="0.593659" stop-color="#EFB53A"/>
<stop offset="1" stop-color="#EF7B3A"/>
</linearGradient>
<linearGradient id="paint1_linear_652_61" x1="82.5674" y1="19.6232" x2="82.4336" y2="75.2872" gradientUnits="userSpaceOnUse">
<stop offset="0.06" stop-color="#FFEE39"/>
<stop offset="0.71208" stop-color="#69AC6B"/>
<stop offset="0.91" stop-color="#308E77"/>
<stop offset="1" stop-color="#1E857B"/>
</linearGradient>
<linearGradient id="paint2_linear_652_61" x1="21.0556" y1="34.7553" x2="20.9811" y2="69.6925" gradientUnits="userSpaceOnUse">
<stop offset="0.06" stop-color="#FFEE39"/>
<stop offset="0.71208" stop-color="#69AC6B"/>
<stop offset="0.91" stop-color="#308E77"/>
<stop offset="1" stop-color="#1E857B"/>
</linearGradient>
<linearGradient id="paint3_linear_652_61" x1="59.8217" y1="60.2478" x2="48.7285" y2="12.7772" gradientUnits="userSpaceOnUse">
<stop offset="0.34" stop-color="#361D0E"/>
<stop offset="0.68" stop-color="#5B3913"/>
</linearGradient>
<linearGradient id="paint4_linear_652_61" x1="37.9455" y1="47.7705" x2="37.4117" y2="60.9562" gradientUnits="userSpaceOnUse">
<stop offset="0.17" stop-color="#B56027"/>
<stop offset="0.18" stop-color="#B66126"/>
<stop offset="0.4" stop-color="#D37824"/>
<stop offset="0.58" stop-color="#E58623"/>
<stop offset="0.72" stop-color="#EC8C23"/>
</linearGradient>
<linearGradient id="paint5_linear_652_61" x1="30.7452" y1="50.1945" x2="30.4122" y2="58.3832" gradientUnits="userSpaceOnUse">
<stop stop-color="#AA4424"/>
<stop offset="0.28" stop-color="#C55225"/>
<stop offset="0.53" stop-color="#D75B25"/>
<stop offset="0.72" stop-color="#DE5F26"/>
</linearGradient>
<linearGradient id="paint6_linear_652_61" x1="55.0267" y1="63.2813" x2="59.648" y2="56.8838" gradientUnits="userSpaceOnUse">
<stop offset="0.21" stop-color="#956A45"/>
<stop offset="0.85" stop-color="#6F4A2C"/>
<stop offset="0.89" stop-color="#6D492B"/>
</linearGradient>
<radialGradient id="paint7_radial_652_61" cx="0" cy="0" r="1" gradientUnits="userSpaceOnUse" gradientTransform="translate(69.581 46.2545) rotate(2.32) scale(10.0876 10.0876)">
<stop offset="0.28" stop-color="#DB762F"/>
<stop offset="0.41" stop-color="#D4712D"/>
<stop offset="0.58" stop-color="#C26529"/>
<stop offset="0.78" stop-color="#A55222"/>
<stop offset="1" stop-color="#7E381A"/>
</radialGradient>
<linearGradient id="paint8_linear_652_61" x1="33.9978" y1="69.6208" x2="57.4008" y2="70.5682" gradientUnits="userSpaceOnUse">
<stop stop-color="#6A3B18"/>
<stop offset="0.62" stop-color="#8B5524"/>
</linearGradient>
<linearGradient id="paint9_linear_652_61" x1="24.6001" y1="69.2285" x2="45.5746" y2="70.0785" gradientUnits="userSpaceOnUse">
<stop stop-color="#6A3B18"/>
<stop offset="0.62" stop-color="#8B5524"/>
</linearGradient>
<linearGradient id="paint10_linear_652_61" x1="79.4016" y1="71.438" x2="57.4554" y2="70.5499" gradientUnits="userSpaceOnUse">
<stop stop-color="#6A3B18"/>
<stop offset="0.62" stop-color="#8B5524"/>
</linearGradient>
<linearGradient id="paint11_linear_652_61" x1="57.4128" y1="70.5697" x2="71.412" y2="71.1369" gradientUnits="userSpaceOnUse">
<stop stop-color="#6A3B18"/>
<stop offset="0.62" stop-color="#8B5524"/>
</linearGradient>
<linearGradient id="paint12_linear_652_61" x1="56.4089" y1="64.6728" x2="62.1616" y2="55.6279" gradientUnits="userSpaceOnUse">
<stop offset="0.21" stop-color="#956A45"/>
<stop offset="0.85" stop-color="#6F4A2C"/>
<stop offset="0.89" stop-color="#6D492B"/>
</linearGradient>
<linearGradient id="paint13_linear_652_61" x1="23.1875" y1="63.6875" x2="27.596" y2="58.2359" gradientUnits="userSpaceOnUse">
<stop offset="0.21" stop-color="#956A45"/>
<stop offset="0.85" stop-color="#6F4A2C"/>
<stop offset="0.89" stop-color="#6D492B"/>
</linearGradient>
<linearGradient id="paint14_linear_652_61" x1="80.9447" y1="66.6921" x2="85.0627" y2="62.8448" gradientUnits="userSpaceOnUse">
<stop offset="0.21" stop-color="#956A45"/>
<stop offset="0.85" stop-color="#6F4A2C"/>
<stop offset="0.89" stop-color="#6D492B"/>
</linearGradient>
<linearGradient id="paint15_linear_652_61" x1="19.9241" y1="41.3763" x2="60.8833" y2="43.0353" gradientUnits="userSpaceOnUse">
<stop stop-color="#6A3B18"/>
<stop offset="0.62" stop-color="#8B5524"/>
</linearGradient>
<linearGradient id="paint16_linear_652_61" x1="12.6554" y1="41.0812" x2="43.9005" y2="42.3479" gradientUnits="userSpaceOnUse">
<stop stop-color="#6A3B18"/>
<stop offset="0.62" stop-color="#8B5524"/>
</linearGradient>
<linearGradient id="paint17_linear_652_61" x1="71.2764" y1="54.9951" x2="75.1633" y2="55.1518" gradientUnits="userSpaceOnUse">
<stop offset="0.17" stop-color="#8AA865"/>
<stop offset="0.34" stop-color="#90B177"/>
<stop offset="0.56" stop-color="#95BA89"/>
<stop offset="0.72" stop-color="#98BE90"/>
</linearGradient>
<linearGradient id="paint18_linear_652_61" x1="66.5107" y1="56.417" x2="72.1082" y2="55.9152" gradientUnits="userSpaceOnUse">
<stop offset="0.17" stop-color="#C3862B"/>
<stop offset="0.23" stop-color="#CC902E"/>
<stop offset="0.43" stop-color="#E8AD37"/>
<stop offset="0.6" stop-color="#F9BF3D"/>
<stop offset="0.72" stop-color="#FFC63F"/>
</linearGradient>
<linearGradient id="paint19_linear_652_61" x1="63.1106" y1="52.8221" x2="68.0833" y2="52.3279" gradientUnits="userSpaceOnUse">
<stop offset="0.17" stop-color="#BA6927"/>
<stop offset="0.39" stop-color="#D78023"/>
<stop offset="0.58" stop-color="#E98E20"/>
<stop offset="0.72" stop-color="#F09420"/>
</linearGradient>
<linearGradient id="paint20_linear_652_61" x1="26.9709" y1="35.6069" x2="60.5928" y2="36.9694" gradientUnits="userSpaceOnUse">
<stop offset="0.62" stop-color="#956A45"/>
<stop offset="0.89" stop-color="#7F5534"/>
</linearGradient>
</defs>
</svg>
