<svg width="38" height="35" viewBox="0 0 38 35" fill="none" xmlns="http://www.w3.org/2000/svg">
<g clip-path="url(#clip0_1550_43)">
<path d="M36.3477 25.0695L19.0898 17.3496L1.84033 25.0695V18.9223L19.0898 11.2023L36.3477 18.9223V25.0695Z" stroke="#132758" stroke-width="2.5" stroke-linecap="round" stroke-linejoin="round"/>
<path d="M33.2697 25.0188V33.9225H4.91809V25.0188" stroke="#132758" stroke-width="2.5" stroke-linecap="round" stroke-linejoin="round"/>
<path d="M33.2697 17.3496V9.90861C33.2697 9.31672 32.94 8.76711 32.4073 8.49653L20.1889 2.21401C19.5463 1.88424 18.7684 2.02799 18.2864 2.56069L13.1369 8.26823C12.7564 8.69101 12.1899 8.87703 11.6318 8.75865L6.82906 7.75243C5.83975 7.5495 4.91809 8.30205 4.91809 9.30827V17.3496" stroke="#132758" stroke-width="2.5" stroke-linecap="round" stroke-linejoin="round"/>
<path d="M14.4053 26.0504L19.0897 24.3931L23.7825 26.0504V33.9225H14.4053V26.0504Z" stroke="#132758" stroke-width="2.5" stroke-linecap="round" stroke-linejoin="round"/>
</g>
<defs>
<clipPath id="clip0_1550_43">
<rect width="36.6212" height="34" fill="white" transform="translate(0.783325 0.979492)"/>
</clipPath>
</defs>
</svg>
