<svg width="30" height="35" viewBox="0 0 30 35" fill="none" xmlns="http://www.w3.org/2000/svg">
<g clip-path="url(#clip0_1550_6)">
<path d="M28.1996 33.9769L26.7478 8.88797C26.7238 8.46287 26.4751 8.07787 26.0981 7.88537L14.8851 2.11845C14.3959 1.8698 13.8023 1.97407 13.4414 2.38313L8.65299 7.68485C8.36424 8.00568 7.93112 8.14204 7.51404 8.05381L2.85398 7.07528C2.10805 6.91486 1.40222 7.49236 1.40222 8.25433V33.9689H14.059H28.2076L28.1996 33.9769Z" stroke="#132758" stroke-width="2.5" stroke-linecap="round" stroke-linejoin="round"/>
<path d="M8.18774 8.19818L10.6742 8.71953C11.2116 8.83182 11.6046 9.289 11.6287 9.84244L12.8157 33.9849" stroke="#132758" stroke-width="2.5" stroke-linecap="round" stroke-linejoin="round"/>
<path d="M11.5806 9.64191L16.3128 9.60181C18.1736 9.58577 19.7537 10.9734 19.9783 12.8262L22.5048 33.9849" stroke="#132758" stroke-width="2.5" stroke-linecap="round" stroke-linejoin="round"/>
</g>
<defs>
<clipPath id="clip0_1550_6">
<rect width="28.8106" height="34" fill="white" transform="translate(0.391602 0.979492)"/>
</clipPath>
</defs>
</svg>
