<svg width="29" height="25" viewBox="0 0 29 25" fill="none" xmlns="http://www.w3.org/2000/svg">
<g clip-path="url(#clip0_1833_2)">
<path d="M8.02958 15.2227H5.41546C5.12785 15.2227 4.87219 15.3825 4.74436 15.6381L1.28018 22.6688C1.0373 23.1673 1.39522 23.7489 1.95128 23.7489H27.236C27.792 23.7489 28.1499 23.1673 27.9071 22.6688L24.4429 15.6381C24.3151 15.3825 24.0594 15.2227 23.7718 15.2227H21.1577" stroke="white" stroke-width="1.5" stroke-linecap="round" stroke-linejoin="round"/>
<path d="M14.1143 1.65357L12.4844 3.45597C12.2607 3.70524 11.922 3.81389 11.596 3.74358L10.3944 3.49432C9.81279 3.37288 9.26312 3.81389 9.26312 4.41469V11.5731C9.26312 11.848 9.38456 12.11 9.58909 12.289L13.98 16.0408C14.3316 16.3412 14.8493 16.3412 15.2008 16.0408L19.5854 12.289C19.7963 12.11 19.9113 11.848 19.9113 11.5795V4.43386C19.9113 4.08233 19.7132 3.76276 19.4 3.60297L15.2264 1.45544C14.8493 1.26369 14.3891 1.34678 14.1015 1.65996L14.1143 1.65357ZM15.0027 10.8956C13.5198 11.1705 12.2543 9.89858 12.542 8.42854C12.7017 7.61043 13.3665 6.93932 14.1846 6.78593C15.6546 6.5047 16.9265 7.76382 16.6517 9.24665C16.4983 10.0711 15.8272 10.7423 15.0027 10.8956Z" stroke="white" stroke-width="1.5" stroke-linecap="round" stroke-linejoin="round"/>
<path d="M25.4016 17.6706L18.3391 20.0738C17.0799 20.502 15.7186 20.502 14.4594 20.0738L12.2288 19.3132C11.3915 19.0256 10.4967 18.9297 9.61469 19.0256L2.79498 19.7926" stroke="white" stroke-width="1.5" stroke-linecap="round" stroke-linejoin="round"/>
</g>
<defs>
<clipPath id="clip0_1833_2">
<rect width="28.3782" height="24" fill="white" transform="translate(0.404541 0.547852)"/>
</clipPath>
</defs>
</svg>
