<svg width="106" height="123" viewBox="0 0 106 123" fill="none" xmlns="http://www.w3.org/2000/svg">
<mask id="mask0_650_154" style="mask-type:luminance" maskUnits="userSpaceOnUse" x="13" y="4" width="82" height="119">
<path d="M50.9891 122.177L13.0525 93.1428L14.1219 24.8354L40.9369 4.74414L74.6494 4.81096L94.5669 35.3288L91.4389 94.7202L57.1248 121.575L50.9891 122.177Z" fill="white"/>
</mask>
<g mask="url(#mask0_650_154)">
<path d="M50.9886 122.177L13.052 93.1429L14.1214 24.8354L40.9364 4.74417L74.649 4.81099L94.5664 35.3288L91.4384 94.7202L57.1243 121.575L50.9886 122.177Z" fill="url(#paint0_linear_650_154)"/>
<path d="M5.83379 131.775H104.445V91.9263L5.83379 91.9263V131.775Z" fill="url(#paint1_linear_650_154)"/>
<path d="M34.5386 94.2067L50.9915 121.457C49.7164 123.529 54.0152 126.639 54.9538 127.064C55.0751 127.096 55.1274 127.113 55.1047 127.113C55.076 127.113 55.0244 127.096 54.9538 127.064C52.8777 126.515 30.6107 121.477 19.114 118.886L9.85925 93.1784L34.5386 94.2067Z" fill="url(#paint2_linear_650_154)"/>
</g>
<path d="M61.964 95.2412C62.4185 89.1456 63.1003 83.0501 63.8756 76.9947C64.1429 75.0296 64.437 72.8775 64.7579 70.9258C64.7846 70.7922 64.9182 70.6986 65.0519 70.712C65.1722 70.7387 65.2658 70.8457 65.2658 70.966C65.2658 72.4364 65.239 74.0805 65.2123 75.5643C65.0385 82.1812 64.7177 88.8248 64.1563 95.4149C63.9692 96.8452 61.9106 96.6982 61.964 95.2412Z" fill="#2C421C"/>
<path d="M63.9296 94.6935C70.0251 95.2015 76.1072 95.9367 82.1627 96.7654C84.1277 97.0461 86.2665 97.3536 88.2181 97.7012C88.3518 97.7279 88.4453 97.8615 88.4186 97.9952C88.3919 98.1155 88.2849 98.2091 88.1646 98.2091C86.6942 98.2091 85.0501 98.1557 83.5663 98.1156C76.9494 97.8749 70.3192 97.5006 63.7157 96.8857C62.2854 96.6986 62.4592 94.64 63.9162 94.6935H63.9296Z" fill="#2C421C"/>
<path d="M73.7275 85.3494C78.6066 83.5181 83.5793 81.8872 88.5653 80.35C90.1828 79.8554 91.9607 79.3341 93.5915 78.893C93.7118 78.8662 93.8454 78.9331 93.8722 79.0667C93.8989 79.1737 93.8455 79.294 93.7519 79.3341C92.9632 79.7083 92.1745 80.0693 91.3725 80.4302C90.7709 80.6975 89.5813 81.2189 88.9797 81.4862C84.1808 83.5314 79.3418 85.5098 74.436 87.2743C73.1661 87.6753 72.4977 85.8841 73.7275 85.3628V85.3494Z" fill="#2C421C"/>
<path d="M68.0471 90.0948C73.501 89.1992 79.0083 88.5174 84.5023 87.956C85.1841 87.8892 86.5743 87.7555 87.256 87.702C88.1784 87.6218 89.1007 87.555 90.0231 87.5015C90.1701 87.5015 90.2905 87.6085 90.3038 87.7555C90.3038 87.8892 90.2236 87.9961 90.1033 88.0228C88.82 88.357 87.363 88.7046 86.0664 88.9987C80.2248 90.3087 74.3298 91.4716 68.408 92.3806C66.9108 92.541 66.5499 90.4156 68.0471 90.0948Z" fill="#436530"/>
<path d="M76.8957 81.6599C81.0931 75.3772 85.5044 69.2148 90.0225 63.1594C91.0385 61.8093 92.1747 60.3255 93.2174 59.0021C93.3109 58.8818 93.4848 58.8685 93.5917 58.962C93.6986 59.0422 93.7254 59.1893 93.6585 59.3096C92.8297 60.78 91.8806 62.3841 91.0117 63.8411C88.3249 68.3192 85.5177 72.7839 82.6838 77.1684C81.4139 79.1201 80.144 81.0584 78.8206 82.9833C78.4597 83.518 77.7246 83.6516 77.1899 83.2907C76.6685 82.9298 76.5215 82.208 76.8691 81.6866L76.8957 81.6599Z" fill="#878533"/>
<path d="M70.6929 87.6084C76.628 85.8573 82.6433 84.3067 88.672 82.863C90.6237 82.4085 92.7625 81.9139 94.7275 81.5129C94.8612 81.4862 94.9948 81.5797 95.0215 81.7134C95.0483 81.8337 94.9814 81.954 94.8611 81.9942C93.4709 82.5288 91.8936 83.0769 90.49 83.5848C84.1539 85.7771 77.7508 87.8491 71.2944 89.6804C69.9175 90.0146 69.3428 88.0763 70.6929 87.6084Z" fill="#8A9E3B"/>
<path d="M72.4571 84.3068C76.0931 77.7968 79.9831 71.4206 83.9665 65.1245C85.2632 63.0793 86.7069 60.8737 88.0703 58.882C88.1639 58.7349 88.3644 58.7082 88.498 58.8018C88.6183 58.8953 88.6718 59.0557 88.605 59.1894C87.8564 60.8202 86.9742 62.6248 86.1855 64.2423C82.5897 71.474 78.82 78.639 74.8098 85.6435C73.8607 87.1407 71.6418 85.9109 72.4438 84.3068H72.4571Z" fill="#2C421C"/>
<path d="M68.6079 87.261C72.0567 79.7753 75.7862 72.3831 79.6226 65.0845C80.8792 62.7185 82.2693 60.1519 83.5927 57.826C83.6863 57.6656 83.9002 57.6121 84.0606 57.7057C84.2077 57.7859 84.2611 57.9597 84.2076 58.1201C83.5259 59.9915 82.7105 62.0501 81.9753 63.9082C78.6334 72.196 75.1044 80.4437 71.2947 88.5176C70.3857 90.242 67.8593 89.079 68.5945 87.261H68.6079Z" fill="#436530"/>
<path d="M64.8918 90.8031C67.8326 82.5554 71.0809 74.3879 74.4495 66.3006C75.559 63.6806 76.7754 60.82 77.9517 58.2534C78.0319 58.0796 78.2458 57.9994 78.4196 58.0796C78.58 58.1465 78.6602 58.3203 78.6067 58.494C78.0587 60.5259 77.3769 62.785 76.7754 64.8168C74.8639 71.0995 72.8187 77.3822 70.6932 83.5846C69.7442 86.3517 68.7817 89.1054 67.7524 91.8457C67.4583 92.6344 66.5894 93.0354 65.8007 92.7413C65.0254 92.4472 64.6244 91.5917 64.9051 90.8164L64.8918 90.8031Z" fill="#8A9E3B"/>
<path d="M62.1243 93.45C64.6908 84.5874 67.5649 75.7783 70.6126 67.0627C71.3077 65.1111 72.0696 62.9589 72.8048 61.0474C72.8717 60.8736 73.0588 60.7934 73.2326 60.8602C73.3796 60.9137 73.4732 61.0741 73.4331 61.2345C73.0187 63.2396 72.4974 65.472 72.0162 67.4771C70.5324 73.6796 68.9149 79.9222 67.2172 86.0578C66.4553 88.7981 65.6933 91.5385 64.8646 94.252C64.6373 95.0006 63.8353 95.4284 63.0868 95.2011C62.3382 94.9739 61.9104 94.1852 62.1243 93.45Z" fill="#878533"/>
<path d="M80.4912 81.0451C85.9585 77.8503 91.5461 74.856 97.1738 71.9419C99.0052 71.0062 101.01 70.0036 102.855 69.1214C102.989 69.0679 103.136 69.1214 103.189 69.2417C103.243 69.362 103.203 69.4956 103.109 69.5625C101.852 70.4314 100.435 71.3671 99.1522 72.2092C93.4042 75.9387 87.5493 79.5613 81.6008 82.9566C80.3041 83.625 79.2481 81.8338 80.4912 81.0317V81.0451Z" fill="#2C421C"/>
<path d="M76.8558 83.3045C83.9806 80.7914 91.2123 78.5323 98.4708 76.4069C100.102 75.939 101.893 75.4311 103.524 75.0033C103.671 74.9632 103.818 75.0568 103.845 75.1904C103.885 75.3241 103.818 75.4578 103.698 75.4979C102.16 76.1797 100.422 76.8881 98.8585 77.5297C94.0195 79.4948 89.1003 81.3796 84.1945 83.1708C82.0156 83.9728 79.8233 84.7615 77.6177 85.4967C77.0028 85.6973 76.3478 85.3764 76.1339 84.7615C75.9334 84.16 76.2542 83.505 76.8424 83.2911L76.8558 83.3045Z" fill="#878533"/>
<path d="M73.5539 86.138C80.7456 84.1998 88.0309 82.5288 95.3295 80.9782C97.6955 80.4836 100.289 79.9623 102.668 79.5479C102.842 79.5212 103.002 79.6281 103.029 79.8019C103.056 79.9489 102.962 80.096 102.829 80.1495C101.144 80.751 99.2327 81.3792 97.5217 81.954C89.8354 84.427 82.069 86.7396 74.2625 88.7581C72.5247 89.1324 71.8697 86.6727 73.5673 86.138H73.5539Z" fill="#2C421C"/>
<path d="M70.9471 88.7449C79.0477 87.2477 87.242 86.0313 95.4228 84.9619C98.0829 84.6277 100.984 84.2802 103.644 84.0262C103.831 84.0128 104.005 84.1465 104.018 84.3337C104.031 84.5074 103.924 84.6545 103.764 84.6946C101.839 85.2159 99.687 85.7372 97.7487 86.2051C89.0465 88.2503 80.2775 90.1217 71.4817 91.6723C69.5568 91.9263 69.0355 89.186 70.9604 88.7449H70.9471Z" fill="#436530"/>
<path d="M66.8297 91.3381C75.5453 90.5094 84.3277 89.988 93.07 89.6003C95.9172 89.4934 99.0185 89.3865 101.852 89.3597C102.04 89.3597 102.2 89.5202 102.2 89.7073C102.2 89.8811 102.08 90.0281 101.906 90.0549C99.8205 90.4158 97.4946 90.7633 95.3959 91.0708C88.8993 92.0065 82.3359 92.8219 75.8126 93.517C72.9119 93.8245 69.9978 94.1186 67.0837 94.3592C66.2416 94.426 65.5197 93.7977 65.4528 92.969C65.386 92.1402 66.0009 91.4183 66.8164 91.3381H66.8297Z" fill="#8A9E3B"/>
<path d="M63.7553 93.5034C72.9788 93.2093 82.2424 93.2227 91.4659 93.4232C93.5245 93.4767 95.8103 93.5435 97.8688 93.6505C98.056 93.6505 98.1897 93.8109 98.1764 93.998C98.1764 94.1584 98.0426 94.2921 97.8822 94.3055C95.837 94.5327 93.5645 94.7199 91.5059 94.8937C85.1564 95.4016 78.7134 95.7893 72.3505 96.07C69.5166 96.1903 66.6694 96.3106 63.8355 96.3641C63.0468 96.3774 62.3918 95.7492 62.3784 94.9605C62.365 94.1852 62.98 93.5302 63.7553 93.5034Z" fill="#878533"/>
<path d="M105.515 60.4994L63.1006 96.9256C62.6461 97.2999 61.7639 96.7117 61.3228 96.284C60.8816 95.8562 60.895 95.2012 61.3361 94.8269L104.941 59.938C105.114 59.8044 105.382 59.8177 105.529 59.9781C105.689 60.1385 105.676 60.3658 105.515 60.5128V60.4994Z" fill="#41612D"/>
<path opacity="0.71" d="M105.516 60.4993L83.8206 79.1335C88.2185 76.6471 92.6833 74.2677 97.1747 71.9418C99.0061 71.0061 101.011 69.9902 102.856 69.1213C102.99 69.0678 103.137 69.1213 103.19 69.2416C103.244 69.3619 103.203 69.4956 103.11 69.5624C101.853 70.4313 100.436 71.367 99.1531 72.2092C95.0359 74.8827 90.8787 77.4893 86.6546 80.0024C90.5712 78.7458 94.5146 77.5428 98.4713 76.3932C100.102 75.9253 101.893 75.4173 103.524 74.9896C103.671 74.9495 103.818 75.0431 103.845 75.1767C103.872 75.3104 103.818 75.4441 103.698 75.4842C102.161 76.1659 100.423 76.8744 98.859 77.516C96.0251 78.6656 93.1779 79.7885 90.3172 80.8712C89.8226 81.0851 89.3013 81.3124 88.9671 81.4594C87.4299 82.1144 85.8926 82.7694 84.342 83.3977C87.9913 82.5422 91.654 81.7267 95.3166 80.9514C97.6827 80.4568 100.276 79.9355 102.655 79.5211C102.829 79.4944 102.99 79.6014 103.016 79.7751C103.043 79.9222 102.949 80.0692 102.816 80.1227C101.131 80.7242 99.2199 81.3525 97.5089 81.9139C91.8144 83.7452 86.0798 85.483 80.3051 87.0871C85.3312 86.2851 90.3707 85.5766 95.4102 84.9082C98.0703 84.574 100.971 84.2265 103.631 83.9725C103.818 83.9591 103.992 84.0928 104.005 84.2799C104.019 84.4537 103.912 84.6007 103.751 84.6408C101.827 85.1622 99.6744 85.6835 97.7361 86.1514C95.2498 86.7395 92.7634 87.301 90.2637 87.8624C90.2236 87.9159 90.1702 87.956 90.1167 87.9693C88.8334 88.3035 87.3764 88.6511 86.0797 88.9452C84.0746 89.3996 82.0562 89.8274 80.0377 90.2284C84.3821 89.9477 88.7399 89.7205 93.0843 89.5333C95.9316 89.4264 99.0327 89.3195 101.867 89.2927C102.054 89.2927 102.214 89.4531 102.214 89.6402C102.214 89.814 102.094 89.9611 101.92 89.9878C99.8348 90.3487 97.5089 90.6963 95.4102 91.0037C89.6489 91.8325 83.8207 92.5677 78.0192 93.2094C82.5107 93.2094 87.0021 93.2629 91.4802 93.3564C93.5388 93.4099 95.8246 93.4767 97.8832 93.5836C98.0703 93.5836 98.2039 93.7441 98.1906 93.9312C98.1906 94.0916 98.0569 94.2253 97.8965 94.2386C95.8513 94.4659 93.5788 94.653 91.5203 94.8268C86.2669 95.2412 80.96 95.5754 75.6799 95.8427C77.8454 96.1101 80.0109 96.3908 82.1765 96.6849C84.1415 96.9656 86.2803 97.273 88.2319 97.6206C88.3656 97.6473 88.4591 97.781 88.4324 97.9147C88.4057 98.035 88.2987 98.1286 88.1784 98.1286C86.708 98.1286 85.0638 98.0751 83.58 98.035C79.396 97.888 75.2121 97.6874 71.0281 97.3934C68.5952 97.233 66.1623 97.0324 63.7294 96.8052C63.569 96.7785 63.422 96.7384 63.3017 96.6715L63.0878 96.8453C62.6333 97.2196 61.7511 96.6314 61.3099 96.2036C60.8688 95.7759 60.8822 95.1209 61.3233 94.7466C61.3233 94.7466 61.5773 94.5461 62.0451 94.1718C62.0451 94.0649 62.0585 93.9579 62.0719 93.8376C62.0719 93.7173 62.0718 93.5837 62.0986 93.4633C62.5531 87.9426 63.168 82.4219 63.8765 76.9279C64.1438 74.9629 64.4379 72.8107 64.7588 70.8591C64.7855 70.7254 64.9191 70.6318 65.0528 70.6452C65.1731 70.6719 65.2667 70.7788 65.2667 70.8992C65.2667 72.3696 65.2399 74.0138 65.2132 75.4975C65.133 78.3983 65.0261 81.299 64.8924 84.1864C66.697 78.425 68.6219 72.677 70.6003 66.9825C71.2954 65.0309 72.0573 62.8787 72.7925 60.9672C72.8593 60.7934 73.0465 60.7132 73.2203 60.78C73.3673 60.8335 73.4609 60.9939 73.4208 61.1543C73.0064 63.1594 72.4851 65.3918 72.0039 67.4103C70.9612 71.7547 69.8517 76.1258 68.7021 80.4568C70.5468 75.6847 72.4717 70.9393 74.4368 66.2206C75.5462 63.6006 76.7627 60.7399 77.939 58.1734C78.0192 57.9996 78.2331 57.9194 78.4068 57.9996C78.5672 58.0665 78.6475 58.2402 78.594 58.414C78.0459 60.4458 77.3642 62.705 76.7627 64.7368C75.1185 70.1506 73.3673 75.5644 71.5493 80.9247C74.1426 75.5644 76.8429 70.2575 79.6099 65.0041C80.8665 62.6381 82.2566 60.0716 83.58 57.7456C83.6736 57.5852 83.8875 57.5318 84.0479 57.6253C84.195 57.7055 84.2484 57.8793 84.1949 58.0397C83.5132 59.9112 82.6978 61.9697 81.9626 63.8278C80.0511 68.5598 78.0861 73.2652 76.0409 77.9571C78.1796 74.3212 80.3719 70.7387 82.6176 67.1696C83.0587 66.4612 83.4998 65.7661 83.941 65.0576C85.2376 63.0124 86.6813 60.8068 88.0448 58.815C88.1383 58.668 88.3389 58.6412 88.4725 58.7348C88.5928 58.8284 88.6463 58.9888 88.5795 59.1225C87.8309 60.7533 86.9486 62.5579 86.1599 64.1754C83.4731 69.5624 80.706 74.9228 77.8053 80.1895C81.7219 74.3881 85.8124 68.6935 89.9964 63.0792C91.0124 61.7291 92.1485 60.2453 93.1912 58.922C93.2848 58.8017 93.4586 58.7883 93.5655 58.8819C93.6724 58.9621 93.6992 59.1091 93.6323 59.2294C92.8036 60.6998 91.8545 62.3039 90.9856 63.761C88.2988 68.239 85.4915 72.7038 82.6577 77.0883C82.4037 77.4759 82.1498 77.877 81.8958 78.2646C93.1779 69.2416 104.888 59.871 104.901 59.8577C105.075 59.724 105.342 59.7374 105.489 59.8978C105.65 60.0582 105.636 60.2855 105.476 60.4325L105.516 60.4993Z" fill="url(#paint3_linear_650_154)"/>
<path opacity="0.17" d="M88.0719 58.8817C88.1654 58.7347 88.3659 58.708 88.4996 58.8015C88.6199 58.8951 88.6734 59.0555 88.6065 59.1892C87.8579 60.82 86.9757 62.6246 86.187 64.242C83.5002 69.6291 80.7331 74.9895 77.8324 80.2562C81.749 74.4548 85.8395 68.7603 90.0235 63.1459C91.0394 61.7958 92.1756 60.312 93.2183 58.9887C93.3119 58.8683 93.4857 58.855 93.5926 58.9486C93.6996 59.0288 93.7263 59.1758 93.6594 59.2961C92.8307 60.7665 91.8815 62.3706 91.0126 63.8277C88.3258 68.3057 85.5187 72.7705 82.6848 77.155C82.4308 77.5426 82.1768 77.9436 81.9228 78.3313C93.2049 69.3083 104.915 59.9378 104.928 59.9244C105.102 59.7907 105.369 59.8041 105.516 59.9645C105.677 60.1249 105.663 60.3521 105.503 60.4992L83.8077 79.1334C88.2055 76.647 92.6702 74.2676 97.1617 71.9417C98.993 71.006 100.998 69.9901 102.843 69.1212C102.977 69.0677 103.124 69.1212 103.177 69.2415C103.23 69.3618 103.19 69.4954 103.097 69.5623C101.84 70.4312 100.423 71.3669 99.14 72.209C95.0229 74.8825 90.8656 77.4892 86.6415 80.0022C90.5582 78.7457 94.5015 77.5426 98.4583 76.393C100.089 75.9252 101.88 75.4172 103.511 74.9894C103.658 74.9493 103.805 75.0429 103.832 75.1766C103.859 75.3103 103.805 75.4439 103.685 75.484C102.148 76.1658 100.41 76.8743 98.846 77.5159C96.0121 78.6655 93.1648 79.7883 90.3042 80.8711C89.8096 81.085 89.2883 81.3122 88.9541 81.4593C87.4168 82.1143 85.8796 82.7693 84.3289 83.3976C87.9782 82.542 91.6409 81.7266 95.3036 80.9513C97.6696 80.4567 100.263 79.9354 102.642 79.521C102.816 79.4943 102.977 79.6012 103.003 79.775C103.03 79.922 102.936 80.0691 102.803 80.1225C101.118 80.7241 99.2069 81.3523 97.4959 81.9138C91.8014 83.7451 86.0667 85.4829 80.292 87.087C85.3182 86.2849 90.3577 85.5765 95.3972 84.9081C98.0573 84.5739 100.958 84.2263 103.618 83.9723C103.805 83.959 103.979 84.0927 103.992 84.2798C104.006 84.4536 103.899 84.6006 103.738 84.6407C101.814 85.162 99.6614 85.6834 97.7231 86.1512C95.2368 86.7394 92.7505 87.3008 90.2508 87.8623C90.2107 87.9157 90.1571 87.9558 90.1037 87.9692C88.8204 88.3034 87.3634 88.6509 86.0668 88.945C84.0616 89.3995 82.0431 89.8273 80.0247 90.2283C84.3691 89.9476 88.7269 89.7203 93.0713 89.5332C95.9185 89.4263 99.0198 89.3193 101.854 89.2926C102.041 89.2926 102.201 89.453 102.201 89.6401C102.201 89.8139 102.081 89.9609 101.907 89.9877C99.8218 90.3486 97.4959 90.6962 95.3972 91.0036C89.6358 91.8324 83.8076 92.5676 78.0062 93.2092C82.4976 93.2092 86.9891 93.2627 91.4672 93.3563C93.5257 93.4098 95.8115 93.4766 97.8701 93.5835C98.0573 93.5835 98.191 93.7439 98.1776 93.9311C98.1776 94.0915 98.0439 94.2251 97.8835 94.2385C95.8383 94.4658 93.5658 94.6529 91.5072 94.8267C86.2538 95.2411 80.947 95.5753 75.6669 95.8426C77.8324 96.11 79.9979 96.3907 82.1634 96.6848C84.1284 96.9655 86.2673 97.2729 88.2189 97.6205C88.3526 97.6472 88.4461 97.7809 88.4194 97.9145C88.3926 98.0349 88.2857 98.1284 88.1654 98.1284C86.695 98.1284 85.0508 98.075 83.5671 98.0349C80.2519 97.9146 76.9368 97.7675 73.6217 97.567" fill="#CFDCBE"/>
<path d="M65.4804 93.7713C64.7986 84.6413 63.7827 75.5114 62.6063 66.4215C62.2187 63.4807 61.7642 60.2592 61.283 57.3317C61.2429 57.1312 61.0558 56.9841 60.8419 57.0242C60.6548 57.051 60.521 57.2114 60.521 57.3985C60.5076 59.6041 60.5611 62.0638 60.6012 64.2828C60.8686 74.2014 61.3365 84.1467 62.1786 94.0252C62.446 96.164 65.5338 95.9368 65.467 93.7579L65.4804 93.7713Z" fill="#2C421C"/>
<path d="M62.5536 92.9423C53.4237 93.7042 44.3071 94.8004 35.2307 96.0569C32.2898 96.4713 29.0817 96.9525 26.1542 97.4605C25.9537 97.5006 25.8066 97.6878 25.8467 97.9016C25.8734 98.0888 26.0339 98.2091 26.221 98.2091C28.4267 98.2091 30.8863 98.1289 33.1053 98.0754C43.0239 97.7279 52.9559 97.1664 62.8344 96.244C64.9732 95.95 64.7191 92.8755 62.5403 92.9557L62.5536 92.9423Z" fill="#2C421C"/>
<path d="M47.8761 78.9598C40.5641 76.2195 33.1185 73.7733 25.6595 71.4741C23.2266 70.7389 20.5798 69.9502 18.1336 69.2952C17.9465 69.2418 17.7593 69.362 17.7058 69.5492C17.6657 69.7096 17.746 69.8834 17.893 69.9502C19.0693 70.5117 20.259 71.0464 21.4487 71.581C22.3443 71.9821 24.1355 72.7707 25.0312 73.1584C32.2095 76.2329 39.4679 79.1737 46.82 81.8338C48.7316 82.4354 49.7342 79.7485 47.8761 78.9598Z" fill="#2C421C"/>
<path d="M56.3777 86.058C48.2103 84.7079 39.9626 83.692 31.7282 82.8633C30.699 82.7563 28.627 82.5692 27.5977 82.4756C26.2208 82.3686 24.844 82.2483 23.4538 82.1681C23.2399 82.1681 23.0394 82.3285 23.0394 82.5424C23.0394 82.7296 23.1597 82.9033 23.3335 82.9568C25.2584 83.4648 27.4373 83.9727 29.3889 84.4272C38.1446 86.3789 46.9804 88.13 55.843 89.4801C58.0887 89.7341 58.6235 86.5393 56.3911 86.058H56.3777Z" fill="#436530"/>
<path d="M43.117 73.4262C36.8343 64.0021 30.2174 54.7786 23.4401 45.7021C21.9162 43.6836 20.2186 41.4513 18.6413 39.4729C18.5076 39.2991 18.2536 39.2724 18.0798 39.4061C17.9194 39.5264 17.8793 39.7536 17.9862 39.914C19.216 42.1063 20.6597 44.5258 21.943 46.7047C25.9799 53.4151 30.164 60.0988 34.4282 66.6622C36.3263 69.5897 38.2378 72.5038 40.2162 75.3778C40.7643 76.1798 41.8604 76.3803 42.6491 75.8323C43.4378 75.2976 43.6383 74.2148 43.117 73.4262Z" fill="#878533"/>
<path d="M52.4074 82.3285C43.5047 79.7085 34.5085 77.3826 25.4721 75.2304C22.5446 74.5353 19.3365 73.8001 16.3957 73.2119C16.1951 73.1718 15.9946 73.3055 15.9545 73.506C15.9144 73.6798 16.0213 73.8669 16.1817 73.9204C18.267 74.7225 20.6198 75.5512 22.7452 76.2998C32.2494 79.5882 41.8338 82.6894 51.4984 85.4431C53.557 85.9377 54.4125 83.037 52.3941 82.3419L52.4074 82.3285Z" fill="#8A9E3B"/>
<path d="M49.7743 77.3961C44.3204 67.6512 38.5056 58.0935 32.5303 48.6561C30.5787 45.595 28.4266 42.2799 26.3947 39.2989C26.2477 39.0851 25.9536 39.0316 25.7397 39.1786C25.5526 39.3123 25.4858 39.5529 25.5793 39.7534C26.7022 42.1997 28.0122 44.8999 29.2019 47.3327C34.5889 58.1603 40.23 68.9078 46.2453 79.4012C47.6623 81.6469 50.9908 79.8022 49.7743 77.3961Z" fill="#2C421C"/>
<path d="M55.5355 81.807C50.3757 70.5783 44.7881 59.5102 39.0268 48.5756C37.142 45.0332 35.07 41.1834 33.0783 37.7079C32.9312 37.4673 32.6237 37.3737 32.3831 37.5207C32.1692 37.641 32.0757 37.9084 32.1559 38.1356C33.1718 40.9294 34.4016 44.0173 35.4978 46.8111C40.4972 59.2294 45.7906 71.5809 51.4985 83.6784C52.8486 86.2583 56.645 84.5205 55.5355 81.7936V81.807Z" fill="#436530"/>
<path d="M61.1095 87.1141C56.6982 74.7493 51.8325 62.5181 46.793 50.4072C45.1355 46.4772 43.3175 42.1996 41.5396 38.3365C41.4193 38.0691 41.1119 37.9622 40.8445 38.0825C40.6039 38.1894 40.4969 38.4567 40.5638 38.6974C41.3925 41.7451 42.3951 45.1271 43.3174 48.1749C46.1781 57.5855 49.2526 67.0095 52.434 76.2999C53.851 80.4438 55.3081 84.5743 56.832 88.6781C57.2731 89.8545 58.583 90.456 59.7593 90.0149C60.9223 89.5871 61.5239 88.2905 61.1095 87.1275V87.1141Z" fill="#8A9E3B"/>
<path d="M65.2536 91.0842C61.4038 77.8103 57.0995 64.6167 52.5412 51.5567C51.4986 48.6426 50.3623 45.4211 49.2528 42.5337C49.1592 42.2798 48.8652 42.1595 48.6112 42.253C48.3839 42.3466 48.2637 42.5738 48.3038 42.8144C48.932 45.8221 49.7073 49.164 50.4158 52.1716C52.6348 61.462 55.0676 70.8058 57.6074 80.016C58.7437 84.1198 59.8933 88.2235 61.1365 92.2872C61.484 93.4235 62.6737 94.0517 63.8099 93.7176C64.9328 93.3834 65.5611 92.207 65.2403 91.0842H65.2536Z" fill="#878533"/>
<path d="M37.7429 72.4903C29.5487 67.7048 21.1807 63.2133 12.7459 58.8689C10.0056 57.4653 7.01126 55.9548 4.23084 54.6448C4.0437 54.5512 3.81644 54.6448 3.72287 54.832C3.64267 55.0057 3.69619 55.2062 3.8566 55.3132C5.72803 56.6232 7.86681 58.0134 9.77835 59.2833C18.4003 64.8709 27.156 70.2981 36.072 75.391C38.0103 76.3936 39.5876 73.7067 37.7429 72.5037V72.4903Z" fill="#2C421C"/>
<path d="M43.1834 75.8856C32.5029 72.1293 21.6619 68.734 10.7942 65.5526C8.36136 64.8575 5.66108 64.0821 3.21485 63.4539C3.00097 63.4004 2.77373 63.5341 2.72026 63.748C2.66679 63.9351 2.77371 64.1356 2.94748 64.2158C5.24668 65.2317 7.85338 66.3011 10.1927 67.2636C17.4512 70.2044 24.8166 73.025 32.1553 75.7252C35.4303 76.9282 38.7053 78.1046 42.0071 79.2141C42.9294 79.5215 43.9186 79.0269 44.226 78.1179C44.5335 77.2089 44.0523 76.2331 43.1567 75.9123L43.1834 75.8856Z" fill="#878533"/>
<path d="M48.1299 80.1229C37.3424 77.2222 26.4346 74.7091 15.5134 72.3965C11.9577 71.6613 8.09456 70.8726 4.52546 70.2577C4.27148 70.2176 4.03084 70.3914 3.99074 70.6454C3.95063 70.8727 4.08428 71.0865 4.29816 71.1668C6.8246 72.0757 9.68524 73.0114 12.2518 73.867C23.7611 77.5697 35.3908 81.0319 47.1006 84.0663C49.6939 84.6277 50.6965 80.9517 48.1299 80.1363V80.1229Z" fill="#2C421C"/>
<path d="M52.0332 84.0262C39.8823 81.7804 27.6244 79.9625 15.3665 78.3584C11.383 77.8504 7.03852 77.3291 3.05504 76.9548C2.77432 76.9281 2.52036 77.142 2.49363 77.4227C2.46689 77.6767 2.62726 77.9039 2.86787 77.9574C5.74187 78.7327 8.96348 79.5214 11.8776 80.2298C24.9108 83.291 38.051 86.0981 51.2312 88.4107C54.1186 88.7983 54.8939 84.6945 52.0199 84.0262H52.0332Z" fill="#436530"/>
<path d="M58.209 87.9161C45.149 86.6729 32.0089 85.8842 18.8955 85.3094C14.6447 85.1356 9.99277 84.9752 5.74193 84.9485C5.44785 84.9485 5.22058 85.1757 5.22058 85.4698C5.22058 85.7238 5.40773 85.951 5.64835 85.9911C8.76295 86.5392 12.2519 87.0605 15.3932 87.5284C25.1247 88.932 34.963 90.1484 44.7213 91.191C49.079 91.6589 53.4235 92.1 57.7946 92.4476C59.0512 92.5545 60.1473 91.6188 60.2409 90.3623C60.3345 89.1191 59.4254 88.0364 58.1956 87.9161H58.209Z" fill="#8A9E3B"/>
<path d="M62.8209 91.1644C49.0124 90.7233 35.1237 90.75 21.3018 91.0441C18.2139 91.1243 14.7918 91.2313 11.704 91.3917C11.4366 91.405 11.2227 91.6323 11.2361 91.913C11.2361 92.1536 11.4366 92.3541 11.6772 92.3808C14.7384 92.715 18.1471 92.9957 21.2349 93.2631C30.7525 94.025 40.4038 94.5998 49.9347 95.0276C54.1856 95.2147 58.4364 95.3751 62.7006 95.4553C63.8769 95.4821 64.8528 94.533 64.8795 93.3567C64.9062 92.1937 63.9839 91.2179 62.8209 91.1778V91.1644Z" fill="#878533"/>
<path d="M0.261241 41.7317L63.8099 96.2974C64.4916 96.8722 65.815 95.9632 66.4833 95.3216C67.1384 94.68 67.125 93.7042 66.4566 93.1294C66.4566 93.1294 1.14344 40.8628 1.13007 40.8628C0.876093 40.6623 0.475093 40.689 0.23448 40.9297C0.00723421 41.1703 0.00726032 41.5178 0.261241 41.7317Z" fill="#41612D"/>
<path opacity="0.71" d="M0.260461 41.7316L32.77 69.6427C26.1799 65.9132 19.4828 62.3441 12.759 58.882C10.0186 57.4784 7.02434 55.9679 4.24392 54.6579C4.05678 54.5643 3.82953 54.6579 3.73596 54.845C3.65575 55.0188 3.70919 55.2193 3.8696 55.3263C5.74103 56.6363 7.87989 58.0265 9.79143 59.2964C15.9538 63.2932 22.1963 67.2099 28.5191 70.9795C22.6374 69.0947 16.7291 67.3035 10.8207 65.5657C8.3878 64.8706 5.6876 64.0953 3.24137 63.467C3.02749 63.4135 2.80025 63.5338 2.74678 63.7611C2.69331 63.9482 2.80023 64.1487 2.974 64.229C5.2732 65.2449 7.87982 66.3143 10.2191 67.2767C14.4566 69.0011 18.7342 70.6721 23.0251 72.3029C23.7737 72.6237 24.549 72.9712 25.0436 73.1851C27.3428 74.1743 29.6554 75.1368 31.9679 76.0992C26.5006 74.8159 21.0067 73.5995 15.526 72.4365C11.9837 71.7013 8.10707 70.9127 4.53797 70.2978C4.28399 70.2577 4.04342 70.4181 4.00332 70.6721C3.96322 70.8993 4.09687 71.1132 4.31074 71.1934C6.83718 72.1023 9.69783 73.0381 12.2644 73.8802C20.7928 76.6205 29.388 79.2405 38.0367 81.6333C30.5108 80.4302 22.9449 79.3608 15.4057 78.3717C11.4222 77.8637 7.07783 77.3424 3.09435 76.9681C2.81363 76.9414 2.55959 77.1552 2.53286 77.436C2.50612 77.6899 2.66657 77.9172 2.90718 77.9706C5.78118 78.746 9.00271 79.5346 11.9168 80.2431C15.6463 81.1253 19.3758 81.9675 23.1187 82.8096C23.1722 82.8898 23.2524 82.9433 23.3459 82.97C25.2708 83.478 27.4498 83.986 29.4014 84.4405C32.4091 85.1088 35.4301 85.7639 38.4645 86.3788C31.9545 85.9644 25.4312 85.6168 18.9213 85.3361C14.6705 85.1623 10.0187 85.0019 5.76783 84.9752C5.47374 84.9752 5.24648 85.2024 5.24648 85.4965C5.24648 85.7505 5.43363 85.9777 5.67425 86.0178C8.78885 86.5659 12.2777 87.0872 15.4191 87.5551C24.0544 88.7982 32.7833 89.8944 41.4721 90.8702C34.7483 90.8702 28.0246 90.937 21.3141 91.0841C18.2263 91.1643 14.8042 91.2712 11.7163 91.4316C11.449 91.445 11.2351 91.6722 11.2484 91.9529C11.2484 92.1936 11.449 92.3941 11.6896 92.4208C14.7507 92.755 18.1594 93.0357 21.2472 93.3031C29.1206 93.9313 37.0743 94.4259 44.9878 94.8269C41.7395 95.228 38.4912 95.6557 35.2563 96.0969C32.3155 96.5112 29.1073 96.9925 26.1798 97.5004C25.9793 97.5405 25.8323 97.7277 25.8724 97.9416C25.8991 98.1287 26.0596 98.249 26.2467 98.249C28.4523 98.249 30.9119 98.1822 33.1309 98.1153C39.4002 97.8881 45.6695 97.5806 51.9388 97.1529C55.5881 96.8989 59.224 96.6182 62.86 96.2706C63.1006 96.2439 63.3145 96.1637 63.5017 96.0701L63.8091 96.3375C64.4908 96.9123 65.8142 96.0033 66.4826 95.3617C67.1376 94.72 67.1242 93.7442 66.4558 93.1694C66.4558 93.1694 66.0815 92.8619 65.3864 92.3139C65.3864 92.1534 65.3598 91.9797 65.3464 91.8193C65.3464 91.6321 65.3463 91.445 65.3062 91.2445C64.6379 82.97 63.7022 74.6956 62.6328 66.4613C62.2451 63.5205 61.7906 60.2989 61.3094 57.3715C61.2693 57.171 61.0821 57.0239 60.8683 57.064C60.6811 57.0907 60.5474 57.2511 60.5474 57.4383C60.5341 59.6439 60.5875 62.1035 60.6276 64.3225C60.748 68.6669 60.895 73.0113 61.1089 77.3424C58.4086 68.707 55.5347 60.1118 52.5538 51.57C51.5111 48.6559 50.3748 45.4344 49.2654 42.547C49.1718 42.293 48.8777 42.1727 48.6237 42.2663C48.3965 42.3599 48.2761 42.5871 48.3162 42.8277C48.9445 45.8354 49.7198 49.1772 50.4283 52.1849C51.9789 58.6948 53.6499 65.2315 55.3743 71.728C52.6072 64.5765 49.7332 57.4784 46.7924 50.4071C45.1349 46.477 43.3169 42.1995 41.539 38.3363C41.4187 38.0689 41.1112 37.962 40.8439 38.0823C40.6033 38.1892 40.4963 38.4566 40.5632 38.6972C41.3919 41.745 42.3945 45.1269 43.3168 48.1747C45.7764 56.2753 48.3965 64.3893 51.1234 72.4365C47.2469 64.4161 43.1965 56.4625 39.0392 48.5891C37.1544 45.0467 35.0826 41.1969 33.0908 37.7214C32.9438 37.4807 32.6363 37.3872 32.3957 37.5342C32.1818 37.6545 32.0883 37.9219 32.1685 38.1491C33.1844 40.9429 34.4142 44.0308 35.5103 46.8246C38.3709 53.9093 41.3118 60.9673 44.3729 67.9852C41.1781 62.5447 37.8764 57.1576 34.5211 51.824C33.8661 50.768 33.1977 49.7119 32.5293 48.6693C30.5777 45.6081 28.4256 42.293 26.3937 39.3121C26.2467 39.0982 25.9526 39.0447 25.7387 39.1918C25.5516 39.3255 25.4848 39.5661 25.5783 39.7666C26.7012 42.2128 28.0112 44.913 29.2009 47.3459C33.2244 55.4198 37.3683 63.4403 41.7127 71.3404C35.8578 62.6516 29.7222 54.1098 23.4395 45.7151C21.9156 43.6966 20.218 41.4642 18.6406 39.4859C18.507 39.3121 18.2529 39.2854 18.0792 39.419C17.9188 39.5394 17.8786 39.7666 17.9856 39.927C19.2154 42.1193 20.6457 44.5388 21.9424 46.7176C25.9793 53.4281 30.1634 60.1118 34.4276 66.6752C34.8152 67.2633 35.1895 67.8515 35.5771 68.4397C18.6674 54.9119 1.12928 40.8761 1.11591 40.8761C0.861933 40.6756 0.460933 40.7023 0.22032 40.9429C-0.00692596 41.1835 -0.00689984 41.5311 0.247081 41.745L0.260461 41.7316Z" fill="url(#paint4_linear_650_154)"/>
<path opacity="0.17" d="M26.3808 39.2989C26.2337 39.085 25.9397 39.0315 25.7258 39.1786C25.5387 39.3122 25.4718 39.5529 25.5654 39.7534C26.6883 42.1996 27.9982 44.8998 29.1879 47.3327C33.2115 55.4066 37.3555 63.4271 41.6999 71.3272C35.8449 62.6384 29.7092 54.0966 23.4266 45.7019C21.9027 43.6834 20.2051 41.451 18.6277 39.4727C18.494 39.2989 18.2401 39.2722 18.0663 39.4058C17.9059 39.5261 17.8658 39.7534 17.9727 39.9138C19.2025 42.1061 20.6328 44.5255 21.9294 46.7044C25.9664 53.4149 30.1504 60.0986 34.4146 66.662C34.8023 67.2502 35.1765 67.8383 35.5642 68.4265C18.6544 54.8986 1.11642 40.8629 1.10306 40.8629C0.849075 40.6624 0.447994 40.6891 0.207381 40.9297C-0.0198654 41.1703 -0.0198393 41.5179 0.234141 41.7317L32.7437 69.6429C26.1536 65.9134 19.4564 62.3443 12.7326 58.8822C9.99232 57.4786 6.99802 55.9681 4.2176 54.658C4.03046 54.5645 3.80321 54.658 3.70964 54.8452C3.62943 55.0189 3.68295 55.2195 3.84336 55.3264C5.7148 56.6364 7.85357 58.0266 9.76511 59.2965C15.9275 63.2934 22.1701 67.21 28.4929 70.9796C22.6112 69.0948 16.7028 67.3036 10.7944 65.5659C8.36156 64.8708 5.66128 64.0954 3.21505 63.4672C3.00117 63.4137 2.77393 63.534 2.72046 63.7613C2.66699 63.9484 2.77391 64.1489 2.94768 64.2291C5.24688 65.245 7.85358 66.3144 10.1929 67.2769C14.4303 69.0013 18.7079 70.6722 22.9988 72.303C23.7474 72.6239 24.5227 72.9714 25.0173 73.1853C27.3165 74.1744 29.629 75.1369 31.9416 76.0994C26.4743 74.8161 20.9803 73.5996 15.4997 72.4367C11.9573 71.7015 8.08083 70.9128 4.51173 70.2979C4.25775 70.2578 4.0171 70.4182 3.977 70.6722C3.9369 70.8995 4.07055 71.1133 4.28442 71.1935C6.81086 72.1025 9.67151 73.0382 12.238 73.8804C20.7665 76.6207 29.3617 79.2407 38.0105 81.6335C30.4846 80.4304 22.9187 79.361 15.3794 78.3718C11.3959 77.8639 7.05151 77.3425 3.06803 76.9683C2.78731 76.9415 2.53335 77.1554 2.50662 77.4361C2.47988 77.6901 2.64025 77.9173 2.88086 77.9708C5.75486 78.7461 8.97639 79.5348 11.8905 80.2432C15.62 81.1255 19.3495 81.9677 23.0924 82.8098C23.1458 82.89 23.2261 82.9435 23.3197 82.9702C25.2446 83.4782 27.4234 83.9861 29.3751 84.4406C32.3827 85.109 35.4038 85.764 38.4382 86.3789C31.9283 85.9645 25.405 85.617 18.8951 85.3363C14.6442 85.1625 9.99234 85.0021 5.74151 84.9753C5.44742 84.9753 5.22016 85.2026 5.22016 85.4967C5.22016 85.7507 5.40731 85.9779 5.64793 86.018C8.76253 86.566 12.2515 87.0874 15.3928 87.5552C24.0282 88.7984 32.7571 89.8945 41.4459 90.8704C34.7221 90.8704 27.9982 90.9372 21.2878 91.0842C18.1999 91.1644 14.7779 91.2714 11.69 91.4318C11.4227 91.4452 11.2087 91.6724 11.2221 91.9531C11.2221 92.1937 11.4226 92.3942 11.6633 92.421C14.7244 92.7552 18.1331 93.0359 21.221 93.3032C29.0944 93.9315 37.048 94.4261 44.9615 94.8271C41.7132 95.2281 38.4649 95.6559 35.23 96.097C32.2892 96.5114 29.081 96.9926 26.1536 97.5006C25.9531 97.5407 25.806 97.7278 25.8461 97.9417C25.8728 98.1289 26.0332 98.2491 26.2204 98.2491C28.426 98.2491 30.8856 98.1823 33.1046 98.1155C38.0639 97.9417 43.0366 97.7145 48.0092 97.407" fill="#CFDCBE"/>
<mask id="mask1_650_154" style="mask-type:luminance" maskUnits="userSpaceOnUse" x="41" y="65" width="39" height="36">
<path d="M71.6294 99.1177C71.0145 99.1712 70.3997 99.238 69.7981 99.3449C67.0444 99.8261 63.7427 100.187 60.0132 100.147C56.6045 100.12 53.5835 99.7593 51.0303 99.3048C50.5357 99.2112 50.0545 99.1578 49.5599 99.1177C48.4237 99.0241 46.1245 98.5963 44.1996 96.6714C42.6757 95.1475 41.7266 93.0355 41.7266 90.6962V75.4975C41.7266 70.1906 46.0309 65.8863 51.3377 65.8863H69.7847C75.0381 65.8863 79.3024 70.1505 79.3024 75.4039V90.6962C79.3024 95.0941 75.9338 98.7166 71.6428 99.1043L71.6294 99.1177Z" fill="white"/>
</mask>
<g mask="url(#mask1_650_154)">
<path d="M71.6292 99.1174C71.0143 99.1709 70.3994 99.2377 69.7979 99.3447C67.0442 99.8259 63.7424 100.187 60.0129 100.147C56.6042 100.12 53.5832 99.7591 51.0301 99.3046C50.5355 99.211 50.0543 99.1575 49.5597 99.1174C48.4235 99.0239 46.1242 98.5961 44.1993 96.6712C42.6755 95.1473 41.7263 93.0352 41.7263 90.6959V75.4972C41.7263 70.1904 46.0306 65.886 51.3375 65.886H69.7845C75.0379 65.886 79.3022 70.1502 79.3022 75.4036V90.6959C79.3022 95.0938 75.9335 98.7164 71.6426 99.1041L71.6292 99.1174Z" fill="url(#paint5_linear_650_154)"/>
<path opacity="0.6" d="M73.2469 68.8673C70.2927 70.7922 67.2182 73.3854 49.7069 72.1957C47.4478 72.0487 45.3625 73.4657 44.7075 75.6445C43.0633 81.0583 48.4905 91.8726 59.9998 96.4442C64.1571 98.0082 66.6434 99.7326 76.6957 96.7116C76.6957 96.7116 72.525 103.422 71.5626 103.703C70.6001 103.983 32.503 100.441 32.2223 100.027C31.9416 99.6123 33.5858 67.0894 33.5858 67.0894L53.5968 61.6489L74.1559 63.146C74.1559 63.146 76.3749 66.822 73.2469 68.8673Z" fill="#2B1B0F"/>
<path opacity="0.06" d="M40.3894 76.2995L85.5846 97.5403L44.0253 104.438L37.8496 92.0864L40.3894 59.0556V76.2995Z" fill="#2B1B0F"/>
</g>
<mask id="mask2_650_154" style="mask-type:luminance" maskUnits="userSpaceOnUse" x="40" y="39" width="35" height="33">
<path d="M74.6369 48.5623V62.4912C74.6369 66.5014 71.5758 69.8032 67.6591 70.1641C67.0977 70.2175 66.5363 70.271 65.9882 70.378C63.4885 70.8191 60.4675 71.1399 57.0588 71.1131C53.9576 71.0864 51.1905 70.7656 48.8646 70.3512C48.4234 70.271 47.9689 70.2175 47.5145 70.1774C46.4852 70.0972 44.3864 69.7096 42.6353 67.9451C41.2451 66.5549 40.3762 64.63 40.3762 62.5045V48.6559C40.3762 45.9557 41.5927 43.5362 43.5176 41.9321C43.9186 41.5979 44.3464 41.3038 44.8009 41.0365L50.9633 39.8869H64.0499C66.8705 40.1543 69.1295 40.582 70.3861 41.1033C70.7604 41.3305 71.1213 41.5845 71.4554 41.8519C73.3937 43.4426 74.6236 45.8621 74.6236 48.5623H74.6369Z" fill="white"/>
</mask>
<g mask="url(#mask2_650_154)">
<path d="M74.6369 48.5625V62.4914C74.6369 66.5016 71.5758 69.8034 67.6591 70.1643C67.0977 70.2178 66.5363 70.2712 65.9882 70.3782C63.4885 70.8193 60.4675 71.1401 57.0588 71.1134C53.9576 71.0866 51.1905 70.7658 48.8646 70.3514C48.4234 70.2712 47.9689 70.2177 47.5145 70.1776C46.4852 70.0974 44.3864 69.7098 42.6353 67.9453C41.2451 66.5551 40.3762 64.6302 40.3762 62.5047V48.6561C40.3762 45.9559 41.5927 43.5364 43.5176 41.9323C43.9186 41.5981 44.3464 41.304 44.8009 41.0367L50.9633 39.8871H64.0499C66.8705 40.1545 69.1295 40.5822 70.3861 41.1035C70.7604 41.3308 71.1213 41.5847 71.4554 41.8521C73.3937 43.4428 74.6236 45.8623 74.6236 48.5625H74.6369Z" fill="url(#paint6_linear_650_154)"/>
<path opacity="0.81" d="M41.0715 43.269C40.9378 43.0551 40.1224 60.6867 48.6909 65.9936C55.8826 70.4449 68.0202 70.485 72.779 67.357C77.5378 64.229 62.5663 80.0159 62.5663 80.0159L35.6176 65.8599L41.0581 43.269H41.0715Z" fill="#412F13"/>
<path opacity="0.21" d="M37.4895 46.7178L86.1336 69.7632L46.8333 79.6685L24.8173 48.3888L37.4895 46.7178Z" fill="#412F13"/>
</g>
<mask id="mask3_650_154" style="mask-type:luminance" maskUnits="userSpaceOnUse" x="15" y="75" width="33" height="29">
<path d="M20.0047 99.7995C19.7507 99.7193 19.5101 99.6257 19.2695 99.5188C17.7055 98.8504 16.302 97.6206 15.8074 96.0031C15.5401 95.1209 15.5534 94.1985 15.5801 93.2762C15.7004 89.7204 16.1015 86.0979 17.5986 82.8763C19.0958 79.6548 21.9564 77.5027 25.4186 76.714C26.4479 76.4734 28.3059 76.1659 29.3619 76.1124C30.7521 76.0456 31.3002 76.1793 32.6904 76.1124C34.0405 76.0456 35.3639 75.3639 36.6739 75.7381C38.3448 76.206 41.3124 77.9037 42.0877 79.4543C44.3334 79.9622 45.8707 82.1411 46.6327 84.3067C47.3679 86.392 47.0337 89.413 46.6327 91.5785C45.7771 96.1368 42.1545 99.853 38.1443 102.192C34.3881 104.371 29.3352 103.516 25.98 100.842C24.015 100.535 21.9163 100.454 20.0047 99.8129V99.7995Z" fill="white"/>
</mask>
<g mask="url(#mask3_650_154)">
<path d="M20.0047 99.7996C19.7507 99.7194 19.5101 99.6259 19.2695 99.5189C17.7055 98.8506 16.302 97.6207 15.8074 96.0033C15.5401 95.121 15.5534 94.1987 15.5801 93.2763C15.7004 89.7206 16.1015 86.098 17.5986 82.8765C19.0958 79.6549 21.9564 77.5028 25.4186 76.7141C26.4479 76.4735 28.3059 76.166 29.3619 76.1126C30.7521 76.0457 31.3002 76.1794 32.6904 76.1126C34.0405 76.0457 35.3639 75.364 36.6739 75.7383C38.3448 76.2062 41.3124 77.9038 42.0877 79.4544C44.3334 79.9624 45.8707 82.1413 46.6327 84.3068C47.3679 86.3921 47.0337 89.4132 46.6327 91.5787C45.7771 96.137 42.1545 99.8531 38.1443 102.192C34.3881 104.371 29.3352 103.516 25.98 100.842C24.015 100.535 21.9163 100.455 20.0047 99.813V99.7996Z" fill="url(#paint7_linear_650_154)"/>
<path d="M49.4126 78.8397C49.5196 78.6124 49.4929 74.268 46.7793 81.9276C45.9371 84.307 45.9639 86.8334 43.6914 83.9193C41.419 81.0052 38.4246 80.1096 34.6149 80.3769C30.8052 80.6443 30.0299 77.503 26.4474 77.4762C22.865 77.4361 23.1858 75.2038 26.3538 74.6691C29.5353 74.121 41.6863 75.03 41.6863 75.03L25.8994 67.0496L9.01636 92.7284L23.5333 102.807C23.5333 102.807 32.9707 108.248 40.5902 101.538C48.2096 94.8271 51.0301 81.4864 51.0301 81.4864L49.3992 78.8531L49.4126 78.8397Z" fill="url(#paint8_linear_650_154)"/>
</g>
<path d="M41.0448 82.5024C40.7641 82.3687 40.5369 82.2083 40.2028 82.0612C39.8151 81.9008 39.3339 81.8607 38.9328 81.687C37.9303 81.2726 36.2594 80.9517 35.1766 81.0587C33.4656 81.2325 32.8372 81.6067 31.5272 82.4622L31.3402 82.4355L31.3668 82.3687C30.4712 80.0962 28.025 78.5723 25.5253 78.4253C23.0256 78.2649 20.5393 79.3477 18.7079 81.032C16.8766 82.7163 15.6602 84.9352 14.8715 87.2745C14.4036 88.6514 14.6042 90.1218 14.6175 91.5521C14.6443 94.132 15.3928 96.6852 16.89 98.8106C17.1974 99.2517 17.545 99.6394 18.1064 99.8666C20.566 100.856 23.44 101.551 25.8328 100.415C26.6616 102.42 28.4127 104.037 30.5114 104.732C32.6234 105.427 35.0429 105.174 36.9678 104.051C39.521 102.567 42.0608 99.372 42.9965 96.6183C44.0659 93.5037 44.4937 90.9907 44.5204 87.7157C44.5338 85.6705 42.9163 83.3846 41.0315 82.5024H41.0448Z" fill="#EADDB7"/>
<mask id="mask4_650_154" style="mask-type:luminance" maskUnits="userSpaceOnUse" x="14" y="78" width="31" height="28">
<path d="M41.0448 82.5024C40.7641 82.3687 40.5369 82.2083 40.2028 82.0612C39.8151 81.9008 39.3339 81.8607 38.9328 81.687C37.9303 81.2726 36.2594 80.9517 35.1766 81.0587C33.4656 81.2325 32.8372 81.6067 31.5272 82.4622L31.3402 82.4355L31.3668 82.3687C30.4712 80.0962 28.025 78.5723 25.5253 78.4253C23.0256 78.2649 20.5393 79.3477 18.7079 81.032C16.8766 82.7163 15.6602 84.9352 14.8715 87.2745C14.4036 88.6514 14.6042 90.1218 14.6175 91.5521C14.6443 94.132 15.3928 96.6852 16.89 98.8106C17.1974 99.2517 17.545 99.6394 18.1064 99.8666C20.566 100.856 23.44 101.551 25.8328 100.415C26.6616 102.42 28.4127 104.037 30.5114 104.732C32.6234 105.427 35.0429 105.174 36.9678 104.051C39.521 102.567 42.0608 99.372 42.9965 96.6183C44.0659 93.5037 44.4937 90.9907 44.5204 87.7157C44.5338 85.6705 42.9163 83.3846 41.0315 82.5024H41.0448Z" fill="white"/>
</mask>
<g mask="url(#mask4_650_154)">
<path opacity="0.54" d="M48.4094 82.6493L11.9298 96.9925L28.4385 112.058L44.2388 106.604L48.4094 82.6493Z" fill="#D8B577"/>
</g>
<path d="M28.3052 89.9078C28.2518 90.1217 28.1716 90.3489 28.0914 90.5628C27.9577 90.9103 27.7839 91.2579 27.7304 91.6322C27.6903 91.9129 27.7037 92.1936 27.7037 92.4744C27.7037 93.8111 27.1021 95.1478 26.1129 96.0702C25.1238 97.0059 23.7469 97.5272 22.3701 97.4871C21.6884 97.4738 21.02 97.3133 20.4051 97.046C19.563 96.6851 18.8143 96.1236 18.2395 95.4285C18.1994 95.3751 18.1594 95.335 18.1193 95.2815C17.1301 93.9848 16.7424 92.2872 16.9697 90.6697C17.1034 89.7741 17.4108 88.9186 17.7583 88.0765C18.4133 86.4991 19.2689 84.9218 20.6323 83.8524C21.9958 82.783 23.9742 82.3151 25.5248 83.1038C25.5248 83.1038 26.4605 83.5717 26.8481 83.7855C28.2651 85.4431 28.8265 87.7957 28.2785 89.8944L28.3052 89.9078Z" fill="#EAA821"/>
<path opacity="0.76" d="M28.3049 89.9077C27.8236 87.408 24.9497 83.772 22.4099 85.0152C19.7364 86.3119 16.6217 91.6455 18.2525 95.4418C18.2124 95.3883 18.1724 95.3482 18.1323 95.2948C17.1431 93.9981 16.7554 92.3005 16.9826 90.683C17.1163 89.7874 17.4238 88.9319 17.7713 88.0897C18.4263 86.5124 19.2819 84.935 20.6454 83.8656C22.0088 82.7962 23.9872 82.3284 25.5378 83.1171C25.5378 83.1171 26.4735 83.5849 26.8612 83.7988C28.2781 85.4563 28.8395 87.809 28.2915 89.9077H28.3049Z" fill="#C88F2B"/>
<path d="M40.7773 93.3966C40.6971 93.6506 40.6169 93.8912 40.5233 94.1318C39.7881 96.0299 38.5048 97.634 37.2483 99.198C36.9275 99.5857 36.62 99.9867 36.219 100.281C35.1228 101.123 33.6658 101.069 32.3023 100.869C32.1285 100.842 31.9681 100.815 31.7944 100.789C30.725 100.602 29.562 100.334 28.8669 99.4252C28.5193 98.9708 28.3456 98.4093 28.252 97.8345C28.2253 97.6875 28.2119 97.5405 28.2119 97.3934C28.0381 94.867 29.3214 92.5277 30.6582 90.4423C31.4468 89.2125 32.289 87.9961 33.4118 87.1139C34.0936 86.5925 34.8956 86.2049 35.711 86.0712C36.0051 86.0178 36.2992 85.9375 36.5532 85.7638C37.5958 85.0954 38.4914 86.0178 39.1464 86.8332C39.7881 87.6352 40.4298 88.4506 40.7907 89.4265C41.2452 90.6964 41.1516 92.1266 40.7773 93.4099V93.3966Z" fill="#EAA821"/>
<path opacity="0.76" d="M40.7772 93.3969C40.697 93.6508 40.6168 93.8914 40.5232 94.1321C40.6569 92.1537 39.4404 88.3707 37.569 88.1033C35.6575 87.836 28.2252 93.7711 28.2653 97.2199C28.2653 97.4472 28.2653 97.6477 28.2653 97.8215C28.2385 97.6744 28.2252 97.5274 28.2252 97.3803C28.0514 94.8539 29.3347 92.5146 30.6715 90.4293C31.4601 89.1995 32.3023 87.983 33.4251 87.1008C34.1069 86.5795 34.9089 86.1918 35.7243 86.0581C36.0184 86.0047 36.3125 85.9245 36.5665 85.7507C37.6091 85.0823 38.5047 86.0047 39.1597 86.8201C39.8014 87.6221 40.443 88.4375 40.8039 89.4134C41.2584 90.6833 41.1649 92.1136 40.7906 93.3969H40.7772Z" fill="#C88F2B"/>
<path d="M39.119 88.2766C41.6187 89.5332 39.667 95.9763 37.8892 97.9413C36.1113 99.9063 34.8147 100.748 31.6466 99.6122C28.4785 98.476 27.4225 96.2704 28.9999 92.5408C30.5772 88.8113 35.2692 86.4319 36.6326 87.0201C37.9961 87.6083 39.1323 88.2766 39.1323 88.2766H39.119Z" fill="#C4BCAD"/>
<path opacity="0.85" d="M39.093 96.1769C37.5023 99.3985 34.8154 102.219 31.0993 100.949C30.2037 101.043 25.8994 97.38 27.1693 93.5302C27.2228 93.3564 27.2895 93.1827 27.3697 93.0089C29.1075 89.2526 29.5085 89.4264 32.7969 86.9C36.0853 84.3735 40.1624 87.0069 40.7505 89.3061C41.0179 90.3621 40.4565 93.4233 39.1064 96.1769H39.093Z" fill="#EDE5D5"/>
<path opacity="0.57" d="M39.0927 96.1769C37.502 99.3984 34.8152 102.219 31.0991 100.949C30.2034 101.043 25.8991 97.38 27.169 93.5301C27.3829 93.1559 27.5032 93.1024 27.423 93.6906C27.1289 95.7625 27.6101 97.2864 31.5803 99.0108C34.4676 100.254 37.3951 98.0884 39.0927 96.1769Z" fill="#CCC4B4"/>
<path opacity="0.85" d="M34.9754 87.2347C34.0931 87.5689 32.3019 88.2907 31.5266 90.0018C30.7512 91.7128 34.4808 88.7987 35.7239 88.9724C36.9671 89.1462 38.3974 87.3283 37.5687 87.0476C36.7399 86.7802 35.8576 86.8871 34.9754 87.2347Z" fill="#F8F5ED"/>
<path opacity="0.46" d="M71.4689 41.8517C71.509 41.9319 71.5224 41.9988 71.5224 42.079C71.5224 43.4558 65.253 44.5654 57.5133 44.5654C49.7736 44.5654 43.5043 43.4558 43.5043 42.079C43.5043 42.0255 43.5043 41.9721 43.531 41.9186L44.8143 41.023C46.1109 40.5284 48.2765 40.1274 50.9767 39.8734C52.9283 39.6862 55.1606 39.5927 57.5267 39.5927C59.8927 39.5927 62.1251 39.6996 64.0767 39.8734C66.8973 40.1407 69.1563 40.5685 70.4129 41.0898L71.4822 41.8384L71.4689 41.8517Z" fill="#814E2B"/>
<circle cx="40.0579" cy="8.50593" r="7.84962" fill="url(#paint9_linear_650_154)"/>
<path d="M17.5145 23.8011C21.9607 19.3507 26.3142 21.9468 27.9352 23.8011C32.6594 23.8011 33.3772 27.278 33.1456 29.0164C36.7581 29.0164 36.735 32.0297 36.2718 33.5364H1.53589C2.36955 29.3641 7.90416 28.7846 10.5673 29.0164C10.0115 23.7315 14.9672 23.3375 17.5145 23.8011Z" fill="url(#paint10_linear_650_154)"/>
<path d="M60.3948 19.4264C63.0109 16.8077 65.5726 18.3353 66.5265 19.4264C69.3062 19.4264 69.7286 21.4722 69.5923 22.4951C71.7179 22.4951 71.7043 24.2682 71.4318 25.1547H50.9928C51.4833 22.6997 54.74 22.3587 56.307 22.4951C55.9799 19.3854 58.8959 19.1536 60.3948 19.4264Z" fill="url(#paint11_linear_650_154)"/>
<defs>
<linearGradient id="paint0_linear_650_154" x1="53.8092" y1="4.74417" x2="53.8092" y2="122.177" gradientUnits="userSpaceOnUse">
<stop stop-color="#ADE6FF"/>
<stop offset="1" stop-color="#388FF3"/>
</linearGradient>
<linearGradient id="paint1_linear_650_154" x1="55.1462" y1="91.9397" x2="55.1462" y2="131.788" gradientUnits="userSpaceOnUse">
<stop offset="0.09" stop-color="#5C5025"/>
<stop offset="0.31" stop-color="#605626"/>
<stop offset="0.63" stop-color="#6D692C"/>
<stop offset="1" stop-color="#828835"/>
</linearGradient>
<linearGradient id="paint2_linear_650_154" x1="19.114" y1="96.2634" x2="34.2815" y2="127.113" gradientUnits="userSpaceOnUse">
<stop stop-color="#352311"/>
<stop offset="1" stop-color="#352311" stop-opacity="0"/>
</linearGradient>
<linearGradient id="paint3_linear_650_154" x1="64.3176" y1="99.2247" x2="104.072" y2="58.5477" gradientUnits="userSpaceOnUse">
<stop stop-color="#2C421C" stop-opacity="0.5"/>
<stop offset="0.5" stop-color="#677C2F" stop-opacity="0.37"/>
<stop offset="1" stop-color="#8A9E3B" stop-opacity="0.3"/>
</linearGradient>
<linearGradient id="paint4_linear_650_154" x1="61.9644" y1="99.7328" x2="2.41259" y2="38.8041" gradientUnits="userSpaceOnUse">
<stop stop-color="#2C421C" stop-opacity="0.5"/>
<stop offset="0.5" stop-color="#677C2F" stop-opacity="0.37"/>
<stop offset="1" stop-color="#8A9E3B" stop-opacity="0.3"/>
</linearGradient>
<linearGradient id="paint5_linear_650_154" x1="45.4425" y1="97.9277" x2="75.5993" y2="67.7708" gradientUnits="userSpaceOnUse">
<stop stop-color="#3E2C13"/>
<stop offset="0.15" stop-color="#442F14"/>
<stop offset="0.38" stop-color="#573B18"/>
<stop offset="0.64" stop-color="#774D1E"/>
<stop offset="0.93" stop-color="#A26626"/>
<stop offset="1" stop-color="#AE6D29"/>
</linearGradient>
<linearGradient id="paint6_linear_650_154" x1="40.6302" y1="65.0045" x2="74.2626" y2="45.5816" gradientUnits="userSpaceOnUse">
<stop stop-color="#804E20"/>
<stop offset="0.2" stop-color="#865221"/>
<stop offset="0.48" stop-color="#996025"/>
<stop offset="0.54" stop-color="#9F6427"/>
<stop offset="0.72" stop-color="#B37127"/>
<stop offset="1" stop-color="#DE8E29"/>
</linearGradient>
<linearGradient id="paint7_linear_650_154" x1="23.5738" y1="102.901" x2="39.1602" y2="75.4175" gradientUnits="userSpaceOnUse">
<stop offset="0.53" stop-color="#5C5025"/>
<stop offset="0.85" stop-color="#625424"/>
<stop offset="1" stop-color="#685824"/>
</linearGradient>
<linearGradient id="paint8_linear_650_154" x1="22.6244" y1="102.286" x2="39.7614" y2="72.1025" gradientUnits="userSpaceOnUse">
<stop stop-color="#675724"/>
<stop offset="0.19" stop-color="#544725"/>
<stop offset="0.31" stop-color="#4E4126"/>
</linearGradient>
<linearGradient id="paint9_linear_650_154" x1="54.2853" y1="21.2616" x2="43.8486" y2="19.8079" gradientUnits="userSpaceOnUse">
<stop stop-color="#6BC6EF"/>
<stop offset="1" stop-color="white"/>
</linearGradient>
<linearGradient id="paint10_linear_650_154" x1="41.1349" y1="43.2482" x2="34.6006" y2="24.4416" gradientUnits="userSpaceOnUse">
<stop stop-color="#6BC6EF"/>
<stop offset="1" stop-color="white"/>
</linearGradient>
<linearGradient id="paint11_linear_650_154" x1="57.2105" y1="43.5686" x2="62.7834" y2="20.6761" gradientUnits="userSpaceOnUse">
<stop stop-color="#6BC6EF"/>
<stop offset="1" stop-color="white"/>
</linearGradient>
</defs>
</svg>
