<svg width="148" height="140" viewBox="0 0 148 140" fill="none" xmlns="http://www.w3.org/2000/svg">
<g filter="url(#filter0_d_650_256)">
<path d="M63.4402 12.933L38.8724 27.919L41.5733 104.435L74.5161 125.653H83.3124L111.547 104.273L114.112 30.1669L89.0114 9.28638L63.4402 12.933Z" fill="url(#paint0_linear_650_256)"/>
<mask id="mask0_650_256" style="mask-type:luminance" maskUnits="userSpaceOnUse" x="38" y="9" width="77" height="117">
<path d="M63.4402 12.933L38.8724 27.919L41.5733 104.435L74.5161 125.653H83.3124L111.547 104.273L114.112 30.1669L89.0114 9.28638L63.4402 12.933Z" fill="white"/>
</mask>
<g mask="url(#mask0_650_256)">
<path d="M63.4393 12.9331L38.8716 27.9191L41.5724 104.435L74.5152 125.653H83.3115L111.546 104.273L114.111 30.167L89.0105 9.28653L63.4393 12.9331Z" fill="url(#paint1_linear_650_256)"/>
<path d="M19.495 143.499H127.231V92.0341L19.495 92.0341V143.499Z" fill="url(#paint2_linear_650_256)"/>
</g>
<path d="M35.503 52.1335C35.503 52.1335 36.4817 54.319 36.1472 56.5169C36.0729 57.0289 35.9118 57.5909 35.9118 57.5909C35.8499 57.8781 35.7508 58.2028 35.6021 58.54C35.503 58.7523 35.3915 58.9521 35.28 59.127C34.7349 59.9637 34.0039 60.4507 33.5951 60.7005C33.5951 60.7005 30.9685 61.4373 29.6924 60.8129C28.4164 60.1885 27.9084 59.9887 26.5332 58.3901C24.6625 56.1922 24.3775 53.195 24.2784 52.4332C24.1297 51.2219 24.1669 50.2103 24.2165 48.9864C24.2412 48.1622 24.3156 47.5253 24.4643 46.2515C24.4643 46.2515 24.6377 44.7154 25.3934 42.9546C25.4678 42.7797 25.6165 42.4675 25.8642 42.4176C25.9386 42.4051 26.0253 42.4176 26.1244 42.455C26.3351 42.555 26.5828 42.8047 26.8926 43.3042C27.2518 43.8912 27.5863 44.3033 27.9084 44.6155C28.3668 45.0651 28.7385 45.3523 29.0607 45.5771C29.9031 46.1516 31.8606 47.5753 33.0128 48.6742C33.6942 49.3236 34.7844 50.3851 35.5278 52.146L35.503 52.1335Z" fill="url(#paint3_linear_650_256)"/>
<path d="M35.5026 52.1335C35.5026 52.1335 36.4814 54.319 36.1469 56.5169C36.0726 57.029 35.9115 57.5909 35.9115 57.5909C35.8495 57.8782 35.7504 58.2029 35.6018 58.5401C35.5027 58.7524 35.3911 58.9521 35.2796 59.127C35.6885 56.9166 35.6885 56.3171 35.6885 56.3171C35.7133 54.6811 35.292 53.4573 35.2177 53.1576C35.0071 52.2834 34.0284 50.8098 33.3841 49.9481C32.7399 49.0864 31.5877 48.1997 31.2904 47.8251C30.993 47.4504 28.7506 45.8644 28.3665 45.5772C27.9825 45.2899 27.1276 44.2784 26.7807 43.579C26.5948 43.1794 26.3347 42.7673 26.1117 42.4551C26.3223 42.555 26.5701 42.8047 26.8798 43.3043C27.2391 43.8912 27.5736 44.3033 27.8957 44.6156C28.3541 45.0651 28.7258 45.3524 29.0479 45.5772C29.8904 46.1516 31.8479 47.5753 33.0001 48.6743C33.6815 49.3237 34.7717 50.3852 35.515 52.146L35.5026 52.1335Z" fill="url(#paint4_linear_650_256)"/>
<path d="M11.5916 72.1774C12.2977 73.1639 12.8181 73.9882 13.2269 74.7375C14.4659 76.9354 15.1596 78.5464 15.5313 79.3831C16.2127 80.9192 18.2322 85.4649 22.0109 87.7378C24.3277 89.124 26.4834 89.2364 29.6426 89.2489C34.9947 89.2739 41.3999 87.7878 41.4618 86.0519C41.4618 85.8771 41.4123 85.7272 41.3504 85.6148C41.3008 85.4649 41.2513 85.3026 41.1893 85.1527C39.9628 81.6435 38.6 78.8461 37.485 76.8355C35.8496 73.8883 34.1646 71.7278 32.2815 70.2667C31.6496 69.7671 30.993 69.405 30.1629 68.9804C28.9364 68.3435 27.6727 67.9438 26.7559 67.6441C25.3683 67.1945 24.2162 66.9448 20.6852 66.3828C16.4729 65.7084 14.1314 65.4461 11.2447 65.571C10.6252 65.596 10.1172 65.6335 9.72079 65.6834C8.56859 65.8333 8.23414 66.0581 8.07308 66.3703C7.50318 67.4693 9.34914 69.0178 11.604 72.1899L11.5916 72.1774Z" fill="url(#paint5_linear_650_256)"/>
<path d="M41.1648 63.8478C41.1648 63.8478 40.7931 67.332 42.255 70.2293C42.6019 70.9037 43.0728 71.603 43.0728 71.603C43.2834 71.9777 43.5683 72.3898 43.9399 72.7894C44.1753 73.0392 44.4108 73.264 44.6585 73.4513C45.7983 74.3629 47.0249 74.7126 47.7063 74.8625C47.7063 74.8625 51.6832 74.6751 53.1823 73.2265C54.6814 71.7779 55.2885 71.2658 56.4655 68.406C58.076 64.4972 57.1097 60.2137 56.899 59.1022C56.5522 57.3538 56.0442 55.9676 55.4247 54.2817C55.0159 53.1578 54.6194 52.3086 53.8513 50.5976C53.8513 50.5976 52.9221 48.5371 51.0761 46.4515C50.8903 46.2392 50.5434 45.8771 50.1841 45.927C50.0726 45.9395 49.9611 46.0019 49.8496 46.1018C49.6018 46.3266 49.3664 46.8012 49.1682 47.6379C48.9328 48.612 48.6478 49.3363 48.3505 49.9233C47.9293 50.76 47.5329 51.322 47.186 51.784C46.2816 52.9704 44.2001 55.8552 43.0975 57.8908C42.4533 59.0897 41.4002 61.0878 41.1772 63.8602L41.1648 63.8478Z" fill="url(#paint6_linear_650_256)"/>
<path d="M22.0357 73.1267C22.0357 73.1267 22.1101 73.2016 22.1597 73.239C24.4269 74.6752 26.8799 76.3362 29.4817 78.2344C38.216 84.6409 44.646 91.0474 48.6105 95.3184C49.0689 95.818 49.5521 96.33 50.0353 96.867C50.0353 96.867 50.0601 96.8919 50.0724 96.9169L50.407 96.792L51.5716 96.3425L51.6335 96.3175C51.5344 96.2176 51.4353 96.1177 51.3486 96.0053C50.3698 94.9687 49.4654 94.0446 48.6229 93.1954C47.9044 92.4586 47.1238 91.6718 46.269 90.8226C42.4407 87.0262 37.2621 82.2182 30.2746 77.4851C28.1312 76.0364 25.4675 74.3505 22.3331 72.6521C21.9614 72.4523 21.788 72.8519 22.0233 73.1267H22.0357Z" fill="#3B4D42"/>
<path d="M43.358 83.6794C43.4571 83.7168 43.5562 83.7418 43.6554 83.7793C44.0394 83.9042 44.4235 84.0415 44.8199 84.1664C44.8571 84.0415 44.8942 83.9166 44.9438 83.7918C46.4305 79.0712 47.9173 73.4389 48.958 66.8951C49.404 64.0852 49.8375 60.6384 50.0729 56.7046C50.0977 56.1676 49.4783 56.255 49.4164 56.792C49.4164 56.8794 49.3915 56.9668 49.3792 57.0543C49.0075 59.9141 48.5119 63.0487 47.8553 66.433C46.7527 72.0153 45.4146 77.0855 44.0518 81.4939C44.0518 81.5189 44.0394 81.5439 44.027 81.5564C43.8412 82.1683 43.6554 82.7677 43.4572 83.3547C43.42 83.4546 43.3828 83.567 43.358 83.6669V83.6794Z" fill="#3B4D42"/>
<path d="M29.4194 51.5468C29.4194 51.5468 29.4194 51.6342 29.4442 51.6967C30.4601 54.3442 31.5008 56.6295 32.4176 58.4653C34.5609 62.7613 36.8157 66.333 38.8723 69.2677C39.69 73.7011 40.8546 77.2603 41.759 79.9952C42.6635 82.7052 43.8404 86.1894 46.058 90.423C46.1324 90.5604 46.1943 90.6852 46.2686 90.8226C46.3801 91.0224 46.4793 91.2222 46.5908 91.4221C46.8138 91.8217 47.3093 92.6959 48.0651 93.9197C48.5854 94.7564 49.2421 95.7555 50.0226 96.8669C50.6792 97.8036 51.435 98.8276 52.265 99.8891L52.5996 99.7018L53.665 99.1024C52.9093 98.1782 52.2155 97.2416 51.5588 96.33C51.4845 96.2176 51.4102 96.1052 51.3234 96.0052C48.2881 91.6343 46.3554 87.4258 44.9059 83.8042C44.7448 83.392 44.5837 82.9799 44.4227 82.5928C44.274 82.2306 44.1377 81.8685 44.0138 81.5188C43.9642 81.3814 43.9147 81.2565 43.8651 81.1192C43.7908 80.9193 43.7165 80.732 43.6421 80.5447C42.0316 76.2862 39.8883 69.48 39.021 60.8756C38.7608 58.3155 38.6493 55.9302 38.6369 53.7572C38.6369 53.4575 38.3148 53.3701 38.129 53.5075C38.067 53.5574 38.0175 53.6323 38.0051 53.7447C37.7821 56.6795 37.8068 59.2396 37.906 61.3127C38.0051 63.2359 38.1786 65.0342 38.414 66.7326C36.6671 64.16 34.8335 61.2128 33.037 57.9283C31.8105 55.6804 30.7698 53.5699 29.8778 51.6342C29.7415 51.3345 29.3946 51.3345 29.3822 51.5718L29.4194 51.5468Z" fill="#3B4D42"/>
<path d="M38.055 53.7197C37.832 56.6544 37.8568 59.2145 37.9559 61.2876C38.055 63.2108 38.2284 65.0091 38.4638 66.7075C38.8851 67.5567 39.3187 68.381 39.3187 68.1811C39.3063 67.7815 38.4763 62.1368 38.3524 61.1877C38.2409 60.3884 38.1913 55.1558 38.1789 53.4949C38.1169 53.5448 38.0673 53.6198 38.055 53.7322V53.7197Z" fill="url(#paint7_linear_650_256)"/>
<path d="M29.4198 51.5468C29.4198 51.5468 29.4198 51.6342 29.4446 51.6967C30.4605 54.3442 31.5012 56.6296 32.418 58.4653C34.5613 62.7613 36.8161 66.333 38.8727 69.2678C39.6904 73.7011 40.855 77.2603 41.7594 79.9952C42.6638 82.7052 43.8408 86.1894 46.0584 90.423C47.1115 91.5719 48.0903 92.6209 48.0036 92.5085C47.8301 92.2588 46.8018 90.7851 46.4177 90.0109C46.1204 89.3989 44.485 85.6399 43.6425 83.7917C43.5682 83.6418 43.5063 83.5045 43.4568 83.3796C43.3329 83.1048 43.2337 82.905 43.1841 82.8176C42.8249 82.1807 41.1399 76.2362 40.6939 75.0998C40.2479 73.9634 39.2692 69.1554 39.1081 68.8681C38.9471 68.5684 37.3489 66.333 36.8409 65.5837C36.3329 64.8219 32.5914 58.1906 32.0339 57.1666C31.5755 56.3174 29.9525 52.8081 29.4322 51.5843L29.4198 51.5468Z" fill="url(#paint8_linear_650_256)"/>
<path d="M22.0358 73.1266C22.0358 73.1266 22.1102 73.2015 22.1598 73.239C24.427 74.6752 26.88 76.3361 29.4817 78.2343C38.2161 84.6409 44.6461 91.0474 48.6106 95.3184C49.069 95.8179 49.5522 96.3299 50.0354 96.8669C50.692 97.8035 51.4478 98.8276 52.2778 99.8891L52.6123 99.7018C52.0176 98.915 51.1752 97.7786 50.4071 96.7795C49.5646 95.6555 48.8336 94.694 48.7097 94.5691C48.6478 94.5066 48.4124 94.2569 48.0655 93.9072C46.6407 92.4586 43.4071 89.1866 43.3328 89.0243C43.2337 88.8369 38.2161 84.4161 37.609 83.9415C37.002 83.4794 31.9967 79.3708 30.6958 78.4217C29.395 77.4726 24.4146 74.2006 23.3119 73.5512C22.9155 73.3139 22.4571 73.1891 22.0358 73.1141V73.1266Z" fill="url(#paint9_linear_650_256)"/>
<path d="M43.8906 81.1068C43.9278 81.2567 43.9773 81.419 44.0269 81.5689C44.2127 82.2058 44.3738 82.7678 44.3986 82.8552C44.4234 82.9176 44.4358 82.7928 44.4606 82.5805C44.4977 82.2183 44.5349 81.6064 44.5844 81.3941C44.6464 81.0569 45.5508 78.0597 45.6375 77.8599C45.7243 77.66 46.8269 73.5514 46.8269 73.5514C46.8269 73.5514 47.6569 69.7924 48.4374 66.2457C49.0197 63.6482 49.2675 59.2648 49.3666 57.0543C48.9949 59.9141 48.4994 63.0487 47.8428 66.433C46.7401 72.0153 45.4021 77.0856 44.0393 81.494C43.9897 81.3566 43.9402 81.2317 43.8906 81.0944V81.1068Z" fill="url(#paint10_linear_650_256)"/>
<path d="M9.70831 65.6835C11.1826 65.8209 13.2639 66.1831 13.9825 66.233C15.0108 66.3079 19.471 67.382 20.4497 67.4569C21.4284 67.5193 26.5328 68.8431 30.0389 70.6164C33.545 72.3898 35.8742 76.7607 37.2989 78.7838C38.2777 80.17 40.1237 83.3171 41.1892 85.1653C39.9626 81.6561 38.5998 78.8587 37.4848 76.8481C35.8494 73.9009 34.1645 71.7404 32.2813 70.2792C31.6495 69.7797 30.9928 69.4176 30.1628 68.9929C28.9362 68.356 27.6725 67.9564 26.7557 67.6567C25.3682 67.2071 24.216 66.9573 20.6851 66.3954C16.4728 65.721 14.1312 65.4588 11.2446 65.5836C10.6251 65.6086 10.1171 65.6461 9.72064 65.696L9.70831 65.6835Z" fill="url(#paint11_linear_650_256)"/>
<path d="M41.1648 63.8479C41.1648 63.8479 40.7931 67.3322 42.255 70.2295C42.6019 70.9039 43.0728 71.6032 43.0728 71.6032C43.2834 71.9778 43.5683 72.3899 43.9399 72.7896C44.1753 73.0393 44.4108 73.2641 44.6585 73.4515C43.0975 70.5667 42.825 69.7424 42.825 69.7424C42.0568 67.482 42.0816 65.5963 42.0444 65.1467C41.9329 63.8354 42.6391 61.3253 43.1471 59.8392C43.6551 58.3531 44.8568 56.5922 45.0922 55.9303C45.3276 55.2684 47.731 52.034 48.1275 51.4595C48.5239 50.885 49.2673 49.0992 49.416 47.9503C49.5027 47.3134 49.6761 46.614 49.8372 46.0895C49.5894 46.3143 49.354 46.7889 49.1558 47.6256C48.9204 48.5997 48.6355 49.324 48.3382 49.911C47.9169 50.7477 47.5205 51.3096 47.1736 51.7717C46.2692 52.9581 44.1877 55.8429 43.0851 57.8785C42.4409 59.0774 41.3878 61.0755 41.1648 63.8479Z" fill="url(#paint12_linear_650_256)"/>
<path d="M102.169 45.6148C102.169 45.6148 100.459 48.1 100.372 50.8849C100.348 51.5343 100.422 52.2586 100.422 52.2586C100.422 52.6332 100.471 53.0578 100.595 53.5074C100.67 53.7946 100.756 54.0569 100.868 54.3067C101.351 55.4806 102.132 56.2424 102.59 56.642C102.59 56.642 105.675 58.1656 107.397 57.691C109.119 57.2164 109.8 57.0916 111.857 55.4306C114.682 53.1577 115.71 49.5111 116.007 48.5745C116.466 47.1134 116.652 45.8521 116.875 44.3285C117.023 43.3044 117.085 42.5052 117.197 40.8817C117.197 40.8817 117.333 38.9335 116.8 36.5982C116.751 36.3609 116.639 35.9363 116.342 35.8239C116.255 35.7865 116.144 35.7865 116.02 35.8239C115.735 35.8989 115.363 36.1486 114.868 36.6981C114.298 37.335 113.777 37.7596 113.319 38.0843C112.65 38.5464 112.13 38.8087 111.684 39.0085C110.507 39.533 107.756 40.8317 106.084 41.9182C105.105 42.5551 103.494 43.6291 102.181 45.6273L102.169 45.6148Z" fill="url(#paint13_linear_650_256)"/>
<path d="M102.169 45.6148C102.169 45.6148 100.459 48.1 100.372 50.8849C100.348 51.5343 100.422 52.2586 100.422 52.2586C100.422 52.6333 100.471 53.0579 100.595 53.5075C100.67 53.7947 100.756 54.057 100.868 54.3067C100.868 51.4719 101.004 50.7351 101.004 50.7351C101.351 48.6995 102.156 47.3008 102.305 46.9386C102.763 45.9021 104.324 44.3036 105.316 43.3919C106.307 42.4803 107.942 41.6435 108.401 41.2564C108.847 40.8568 111.993 39.4206 112.539 39.1459C113.071 38.8836 114.372 37.8346 114.954 37.0354C115.276 36.5858 115.698 36.1362 116.032 35.799C115.747 35.8739 115.376 36.1237 114.88 36.6732C114.31 37.3101 113.79 37.7347 113.331 38.0594C112.662 38.5215 112.142 38.7837 111.696 38.9835C110.519 39.508 107.769 40.8068 106.096 41.8933C105.117 42.5302 103.507 43.6042 102.194 45.6024L102.169 45.6148Z" fill="url(#paint14_linear_650_256)"/>
<path d="M127.158 75.9988C126.055 77.0603 125.225 77.9594 124.543 78.7837C122.512 81.2189 121.273 83.0547 120.629 83.9913C119.427 85.7397 115.896 90.8848 110.692 92.8081C107.508 93.982 104.82 93.6198 100.893 92.8955C94.2644 91.6716 86.6698 88.3372 87.0043 86.1893C87.0415 85.9645 87.153 85.8021 87.2397 85.6772C87.3388 85.5024 87.4379 85.3151 87.537 85.1402C89.8538 81.0815 92.1954 77.947 94.0414 75.7115C96.7422 72.4396 99.3192 70.1667 101.995 68.793C102.9 68.3309 103.792 68.0312 104.907 67.694C106.579 67.1945 108.227 66.9822 109.441 66.8323C111.25 66.6076 112.749 66.5576 117.246 66.6825C122.611 66.8323 125.572 67.0571 129.115 67.8814C129.883 68.0562 130.49 68.231 130.973 68.3809C132.373 68.8305 132.733 69.2051 132.857 69.6172C133.315 71.1033 130.664 72.6019 127.145 75.9863L127.158 75.9988Z" fill="url(#paint15_linear_650_256)"/>
<path d="M92.4808 58.7777C92.4808 58.7777 92.1339 63.1861 89.6685 66.4081C89.0862 67.1699 88.3428 67.9192 88.3428 67.9192C87.9959 68.3313 87.5499 68.7684 87.0048 69.1805C86.6579 69.4302 86.311 69.655 85.9641 69.8424C84.3411 70.704 82.7553 70.8539 81.8757 70.8664C81.8757 70.8664 76.9943 69.705 75.4828 67.557C73.9714 65.409 73.3271 64.6347 72.5218 60.8258C71.4316 55.6181 73.5997 50.5354 74.1325 49.2116C74.9501 47.1261 75.9041 45.5401 77.0563 43.5919C77.8244 42.2931 78.4934 41.3315 79.8563 39.3958C79.8563 39.3958 81.4792 37.073 84.242 34.9125C84.5146 34.7002 85.0225 34.3131 85.4685 34.4754C85.6048 34.5254 85.7287 34.6128 85.8526 34.7626C86.1004 35.0998 86.2986 35.7367 86.3482 36.8232C86.4101 38.0721 86.596 39.0461 86.8314 39.8454C87.1659 40.9818 87.5128 41.7686 87.8349 42.418C88.6897 44.1039 90.5976 48.1501 91.4896 50.9225C92.01 52.5585 92.8524 55.2685 92.4931 58.7652L92.4808 58.7777Z" fill="url(#paint16_linear_650_256)"/>
<path d="M114.025 74.7253C114.025 74.7253 113.914 74.8002 113.839 74.8252C110.705 76.074 107.285 77.5477 103.643 79.296C91.3652 85.1905 81.9247 91.622 76.0523 95.9679C75.3709 96.48 74.6523 97.0045 73.9337 97.5415C73.9337 97.5415 73.8966 97.5789 73.8718 97.5914L73.4877 97.3542L72.1373 96.5299L72.0629 96.4925C72.2116 96.3925 72.3479 96.2802 72.4966 96.1802C73.9461 95.1312 75.2841 94.1946 76.5107 93.3329C77.5761 92.5961 78.7283 91.7968 79.9672 90.9476C85.5671 87.1387 93.0874 82.4056 102.825 78.1846C105.799 76.8983 109.491 75.4371 113.753 74.0509C114.26 73.8886 114.384 74.4256 114.025 74.7128V74.7253Z" fill="#3B4D42"/>
<path d="M85.208 82.8175C85.0841 82.83 84.9478 82.855 84.8239 82.8675C84.316 82.9424 83.808 83.0173 83.2877 83.0798C83.2629 82.9174 83.2505 82.7551 83.2257 82.5927C82.47 76.3985 81.9249 69.0804 82.1479 60.7506C82.247 57.1665 82.5072 52.7956 83.1019 47.8752C83.1886 47.2008 83.9443 47.4631 83.8947 48.1499C83.8947 48.2623 83.8824 48.3747 83.87 48.4746C83.6718 52.1087 83.5602 56.105 83.6098 60.4384C83.6841 67.6067 84.1797 74.1881 84.8487 79.9577C84.8487 79.9827 84.8487 80.0201 84.8487 80.0451C84.9478 80.8444 85.0345 81.6311 85.1336 82.3929C85.146 82.5303 85.1709 82.6677 85.1832 82.805L85.208 82.8175Z" fill="#3B4D42"/>
<path d="M109.825 46.3018C109.825 46.3018 109.801 46.4142 109.763 46.4766C107.893 49.5238 106.084 52.0964 104.535 54.157C100.905 58.9774 97.2875 62.8738 94.0663 66.0209C92.0345 71.3159 89.7796 75.4496 88.0328 78.6216C86.2983 81.7562 84.0435 85.8024 80.3143 90.523C80.2028 90.6728 80.0789 90.8227 79.955 90.9725C79.7815 91.1973 79.5957 91.4096 79.4223 91.6344C79.063 92.0715 78.2453 93.0456 77.0312 94.3819C76.1887 95.2935 75.148 96.38 73.9339 97.5789C72.9056 98.5904 71.741 99.6769 70.4525 100.801L70.0809 100.489L68.8915 99.5021C70.0437 98.528 71.1215 97.5414 72.1374 96.5548C72.2613 96.4424 72.3853 96.3176 72.4968 96.2052C77.2542 91.4971 80.6117 86.739 83.2382 82.6054C83.5355 82.1308 83.8329 81.6688 84.1054 81.2067C84.3656 80.7821 84.6134 80.37 84.8611 79.9703C84.9602 79.8205 85.0469 79.6581 85.1461 79.5083C85.2823 79.2835 85.4186 79.0587 85.5549 78.8464C88.5283 73.951 92.7283 66.0334 95.7884 55.5806C96.6928 52.471 97.3742 49.5488 97.8946 46.8638C97.9689 46.5016 98.3777 46.4642 98.576 46.6765C98.6503 46.7514 98.6875 46.8638 98.6751 46.9887C98.2786 50.6727 97.6591 53.8323 97.0644 56.3799C96.5069 58.7277 95.8627 60.9256 95.1813 62.9612C97.9317 60.1888 100.88 56.9668 103.854 53.3202C105.886 50.8226 107.657 48.4623 109.206 46.2768C109.441 45.9396 109.862 46.0271 109.838 46.3143L109.825 46.3018Z" fill="#3B4D42"/>
<path d="M98.6628 46.9762C98.2664 50.6603 97.647 53.8198 97.0523 56.3674C96.4948 58.7152 95.8505 60.9132 95.1691 62.9488C94.4505 63.9104 93.7196 64.822 93.7815 64.5723C93.893 64.0852 96.2097 57.2791 96.5938 56.1426C96.9159 55.181 98.1797 48.7246 98.5761 46.664C98.6504 46.7389 98.6876 46.8513 98.6752 46.9762H98.6628Z" fill="url(#paint17_linear_650_256)"/>
<path d="M109.825 46.3019C109.825 46.3019 109.801 46.4143 109.763 46.4767C107.893 49.5239 106.084 52.0965 104.535 54.1571C100.905 58.9775 97.2875 62.8739 94.0663 66.021C92.0345 71.316 89.7797 75.4496 88.0328 78.6217C86.2983 81.7563 84.0435 85.8025 80.3144 90.5231C78.741 91.697 77.3038 92.771 77.4277 92.6461C77.7003 92.3713 79.3108 90.7978 79.9675 89.9236C80.4754 89.2368 83.3621 84.9658 84.8364 82.8677C84.9603 82.6929 85.0718 82.5305 85.1709 82.3932C85.3939 82.081 85.555 81.8562 85.6417 81.7563C86.2364 81.0444 89.693 74.0884 90.4983 72.7772C91.3035 71.4659 93.6327 65.7587 93.8929 65.434C94.1654 65.1093 96.6433 62.7116 97.461 61.8998C98.2663 61.0881 104.424 53.7449 105.34 52.596C106.109 51.6469 108.909 47.6881 109.838 46.2894L109.825 46.3019Z" fill="url(#paint18_linear_650_256)"/>
<path d="M114.025 74.7251C114.025 74.7251 113.914 74.8 113.839 74.825C110.705 76.0738 107.285 77.5474 103.643 79.2958C91.3652 85.1903 81.9247 91.6218 76.0522 95.9677C75.3708 96.4797 74.6522 97.0043 73.9336 97.5413C72.9053 98.5528 71.7408 99.6393 70.4523 100.763L70.0806 100.451C70.985 99.6143 72.3107 98.4154 73.4752 97.3414C74.7885 96.1551 75.9035 95.131 76.0769 95.0061C76.1637 94.9437 76.5106 94.6939 77.0309 94.3318C79.1247 92.8706 83.8821 89.5737 84.006 89.3989C84.1671 89.1866 91.4023 84.8781 92.2572 84.4535C93.1244 84.0164 100.248 80.1075 102.082 79.2334C103.915 78.3592 110.829 75.4744 112.34 74.9374C112.898 74.7376 113.492 74.6876 114.025 74.7001V74.7251Z" fill="url(#paint19_linear_650_256)"/>
<path d="M85.1338 79.5082C85.0471 79.6955 84.948 79.8704 84.8613 80.0577C84.4896 80.807 84.1551 81.4689 84.1055 81.5563C84.0684 81.6312 84.0684 81.4689 84.0931 81.2066C84.1303 80.7446 84.217 79.9828 84.217 79.708C84.217 79.2709 83.7834 75.3621 83.7339 75.0873C83.6843 74.8126 83.2507 69.4801 83.2507 69.4801C83.2507 69.4801 83.0896 64.6346 82.9286 60.0639C82.8047 56.717 83.4985 51.2346 83.8825 48.4747C83.6843 52.1088 83.5728 56.1051 83.6223 60.4385C83.6967 67.6068 84.1922 74.1882 84.8613 79.9578C84.9604 79.8079 85.0471 79.6456 85.1462 79.4957L85.1338 79.5082Z" fill="url(#paint20_linear_650_256)"/>
<path d="M130.986 68.3937C129.128 68.2188 126.464 68.1814 125.56 68.0815C124.259 67.9316 118.51 68.2313 117.284 68.0815C116.057 67.9316 109.441 68.3687 104.696 69.7549C99.9512 71.1286 96.061 75.9866 93.8309 78.172C92.3071 79.6581 89.2965 83.1174 87.5496 85.153C89.8664 81.0943 92.2079 77.9597 94.0539 75.7243C96.7548 72.4524 99.3318 70.1795 102.008 68.8058C102.912 68.3437 103.804 68.044 104.919 67.7068C106.592 67.2073 108.24 66.995 109.454 66.8451C111.262 66.6203 112.762 66.5704 117.259 66.6953C122.623 66.8451 125.584 67.0699 129.128 67.8941C129.896 68.069 130.503 68.2438 130.986 68.3937Z" fill="url(#paint21_linear_650_256)"/>
<path d="M92.4803 58.7776C92.4803 58.7776 92.1333 63.186 89.6679 66.4079C89.0856 67.1697 88.3422 67.919 88.3422 67.919C87.9954 68.3312 87.5493 68.7682 87.0042 69.1804C86.6573 69.4301 86.3104 69.6549 85.9635 69.8422C88.5529 66.6327 89.0856 65.6836 89.0856 65.6836C90.5599 63.0611 90.9563 60.7258 91.105 60.1763C91.5386 58.5778 91.2537 55.3183 90.9563 53.3576C90.6714 51.397 89.5936 48.9368 89.4449 48.0626C89.2962 47.1884 87.0662 42.6177 86.7069 41.8309C86.3476 41.0317 85.8396 38.6339 85.9139 37.1853C85.9511 36.3735 85.9139 35.4744 85.8272 34.7875C86.075 35.1247 86.2732 35.7616 86.3228 36.8481C86.3848 38.0969 86.5706 39.071 86.806 39.8702C87.1405 41.0067 87.4874 41.7935 87.8095 42.4429C88.6644 44.1288 90.5723 48.175 91.4643 50.9474C91.9847 52.5834 92.8271 55.2933 92.4679 58.7901L92.4803 58.7776Z" fill="url(#paint22_linear_650_256)"/>
<path d="M77.7247 37.2477V100.826C77.7247 101.85 77.0309 103.136 76.176 103.686C75.8787 103.885 75.569 104.073 75.2592 104.285C71.0345 107.12 65.7567 107.12 62.5975 107.12C59.4382 107.12 54.1481 107.12 49.9358 104.285C49.7004 104.123 49.4526 103.973 49.2172 103.811C49.1428 103.761 49.0809 103.723 49.019 103.673C48.1641 103.124 47.4703 101.837 47.4703 100.813V37.2352C47.4703 36.3111 47.6314 33.9383 49.2296 31.5655C50.7782 29.2552 52.8348 28.2062 53.8507 27.7816C54.0366 27.7066 54.1604 27.5193 54.1604 27.3195V26.9449V26.3079C54.1604 26.2455 54.1481 26.1956 54.1233 26.1331C54.0614 26.0082 53.9375 25.9208 53.7888 25.9208H53.318C52.8472 25.9208 52.4631 25.5337 52.4631 25.0591V21.4875C52.4631 20.5883 53.1818 19.864 54.0738 19.864H71.146C72.038 19.864 72.7566 20.5883 72.7566 21.4875V25.0591C72.7566 25.2714 72.6823 25.4712 72.546 25.6336C72.3849 25.8209 72.1619 25.9333 71.9017 25.9333H71.4309C71.2823 25.9333 71.1584 26.0207 71.0965 26.1456C71.0717 26.1956 71.0593 26.258 71.0593 26.3204V27.0073V27.3445C71.0593 27.4819 71.1212 27.6192 71.208 27.7067C71.2575 27.7441 71.3071 27.7816 71.369 27.8066C72.3849 28.2312 74.4416 29.2802 75.9902 31.5905C77.5884 33.9633 77.7371 36.3361 77.7495 37.2602L77.7247 37.2477Z" fill="#C59C6D"/>
<path d="M77.7245 37.2478V100.826C77.7245 101.85 77.0308 103.136 76.1759 103.686C75.8786 103.886 75.5688 104.073 75.2591 104.285C71.0344 107.12 65.7566 107.12 62.5973 107.12C59.4381 107.12 54.148 107.12 49.9356 104.285C49.7003 104.123 49.4524 103.973 49.2171 103.811C49.1427 103.761 49.0808 103.723 49.0189 103.673C48.164 103.124 47.4702 101.837 47.4702 100.813V37.2353C47.4702 36.3112 47.6313 33.9384 49.2295 31.5656C50.7781 29.2553 52.8347 28.2063 53.8506 27.7816C54.0364 27.7067 54.1603 27.5194 54.1603 27.3196V27.2571C55.709 27.5943 59.2771 28.4185 61.8292 28.4185C64.3814 28.4185 68.7424 28.0564 71.1954 27.6817C71.245 27.7192 71.2945 27.7567 71.3565 27.7816C72.3724 28.2063 74.4291 29.2553 75.9777 31.5656C77.5759 33.9384 77.7246 36.3112 77.7369 37.2353L77.7245 37.2478Z" fill="url(#paint23_linear_650_256)"/>
<path d="M72.534 25.6337C72.3729 25.821 72.1499 25.9334 71.8897 25.9334H71.419C71.2703 25.9334 71.1464 26.0208 71.0845 26.1457C71.0597 26.1956 71.0473 26.2581 71.0473 26.3205V27.0074C68.842 27.2322 64.7783 27.2946 62.3748 27.3571C59.897 27.4195 55.6847 27.0948 54.1608 26.9699V26.333C54.1608 26.333 54.1609 26.2206 54.1237 26.1582C54.0617 26.0333 53.9378 25.9459 53.7892 25.9459H53.3804L53.2316 25.284L71.5057 24.3099C71.5057 24.3099 72.1871 24.9968 72.534 25.6586V25.6337Z" fill="url(#paint24_linear_650_256)"/>
<path d="M72.7441 21.4874V25.0591C72.7441 25.5336 72.3601 25.9208 71.8893 25.9208H71.4186C71.2699 25.9208 71.146 26.0082 71.084 26.1331H54.1233C54.0613 26.0082 53.9374 25.9208 53.7887 25.9208H53.3179C52.8471 25.9208 52.4631 25.5336 52.4631 25.0591V21.4874C52.4631 20.8505 52.8224 20.301 53.3427 20.0388C53.5657 19.9264 53.8012 19.864 54.0737 19.864H71.146C72.038 19.864 72.7565 20.5883 72.7565 21.4874H72.7441Z" fill="#8D633A"/>
<path d="M54.1728 28.9678C54.9905 28.793 55.3003 29.2301 56.5516 29.5173C58.1002 29.867 59.017 29.4924 59.1409 29.842C59.2524 30.1293 58.6577 30.5164 57.902 31.2532C57.3445 31.7902 56.8241 32.4896 55.7958 33.8633C54.0489 36.2111 52.7976 39.4331 52.6118 39.9076C50.4065 45.5648 50.3817 51.8465 50.3941 53.5574C49.2048 43.2795 49.3411 35.6991 50.0225 33.9257C50.5057 32.6394 51.3729 31.3656 51.3729 31.3656C51.9428 30.5289 52.3888 30.0793 52.8348 29.7296C53.318 29.3425 53.6649 29.0802 54.1852 28.9678H54.1728Z" fill="url(#paint25_linear_650_256)"/>
<path d="M65.6083 29.4673C65.6083 29.4673 69.2754 29.4673 70.1427 28.9678C71.0099 28.4683 73.3763 30.2666 74.0329 30.9659C74.6895 31.6653 75.8665 34.063 76.0895 35.6615C76.3001 37.26 76.201 80.6445 76.201 80.6445H69.5108C69.5108 80.6445 70.056 37.7596 69.3002 35.8613C68.5445 33.9631 67.4666 30.2666 65.633 29.4673H65.6083Z" fill="url(#paint26_linear_650_256)"/>
<path d="M49.6387 103.935C49.6387 103.935 49.5024 103.886 49.2298 103.811C49.1555 103.761 49.0936 103.723 49.0316 103.673C48.1768 103.124 47.483 101.837 47.483 100.813V48.7995C48.5361 48.8994 49.4281 48.8994 49.4281 48.8994L49.6387 103.923V103.935Z" fill="url(#paint27_linear_650_256)"/>
<path opacity="0.5" d="M63.7868 26.1456H54.1233C54.0613 26.0208 53.9374 25.9333 53.7887 25.9333H53.3179C52.8471 25.9333 52.4631 25.5462 52.4631 25.0716V21.5C52.4631 20.8631 52.8224 20.3136 53.3427 20.0513C53.1445 20.5009 52.9339 21.1378 52.9339 21.7997C52.9339 22.9361 52.8224 24.9593 54.6065 24.9593C56.0684 24.9593 61.8169 25.8459 63.7992 26.1581L63.7868 26.1456Z" fill="#754D25"/>
<path d="M94.1155 89.7989C96.1721 91.5597 97.25 93.8576 98.0801 96.143C98.4394 97.142 98.7615 98.1536 98.8111 99.1901C98.9102 101.263 98.5633 102.187 97.4606 104.086C96.8412 105.172 95.8501 106.696 94.6111 107.407C93.6572 107.957 92.1085 108.844 90.9068 108.869C90.3245 108.869 88.8626 109.068 88.2927 108.981C86.9671 108.781 85.7157 108.344 84.5635 107.745C82.1105 106.458 80.1406 104.435 79.0255 102.425C77.5636 99.7896 77.7743 97.1295 78.0468 94.2697C78.2079 92.5713 79.137 90.9603 80.4131 89.5741C81.9618 87.8757 84.8857 86.2897 87.5865 87.0015C87.6608 87.0015 87.7352 87.0015 87.8219 87.0015C90.3369 86.9765 92.3935 88.3253 94.1155 89.8114V89.7989Z" fill="url(#paint28_linear_650_256)"/>
<mask id="mask1_650_256" style="mask-type:luminance" maskUnits="userSpaceOnUse" x="77" y="86" width="22" height="23">
<path d="M90.8944 108.831C90.3121 108.831 88.8502 109.031 88.2803 108.943C84.1547 108.331 80.6485 105.347 79.0132 102.374C77.5512 99.7393 77.7619 97.0793 78.0344 94.2195C78.1955 92.5211 79.1247 90.9101 80.4008 89.5239C81.9495 87.8255 84.8733 86.2395 87.5741 86.9513C90.1882 86.8264 92.3316 88.2251 94.1032 89.7612C96.1598 91.522 97.2376 93.8199 98.0677 96.1052C98.427 97.1043 98.7491 98.1159 98.7987 99.1524C98.8978 101.225 98.5509 102.162 97.4482 104.048C96.8288 105.134 95.8377 106.658 94.5988 107.37C93.6448 107.919 92.0962 108.806 90.8944 108.831Z" fill="white"/>
</mask>
<g mask="url(#mask1_650_256)">
<path d="M81.1788 106.229C83.2199 105.759 84.0048 101.54 82.9319 96.8068C81.8589 92.0732 79.3345 88.617 77.2933 89.0871C75.2522 89.5572 74.4673 93.7756 75.5402 98.5092C76.6131 103.243 79.1376 106.699 81.1788 106.229Z" fill="#412312"/>
<path d="M91.0086 100.081C94.3488 99.245 95.8504 93.6724 94.3626 87.6347C92.8747 81.597 88.9607 77.3805 85.6205 78.2168C82.2804 79.0532 80.7788 84.6257 82.2667 90.6634C83.7545 96.7011 87.6684 100.918 91.0086 100.081Z" fill="#412312"/>
<path d="M104.717 111.991C107.96 111.19 109.399 105.642 107.931 99.5998C106.463 93.5572 102.644 89.3076 99.4005 90.1082C96.1572 90.9088 94.7181 96.4563 96.1861 102.499C97.6541 108.542 101.473 112.791 104.717 111.991Z" fill="#412312"/>
<path d="M89.0183 115.255C90.2823 114.98 90.5702 111.324 89.6614 107.091C88.7526 102.857 86.9913 99.649 85.7273 99.9247C84.4634 100.2 84.1755 103.856 85.0843 108.089C85.9931 112.323 87.7544 115.531 89.0183 115.255Z" fill="#412312"/>
<path d="M95.3926 116.26C96.6565 115.984 96.9444 112.329 96.0356 108.096C95.1269 103.862 93.3655 100.654 92.1015 100.929C90.8376 101.205 90.5497 104.861 91.4584 109.094C92.3672 113.327 94.1286 116.536 95.3926 116.26Z" fill="#412312"/>
</g>
<path opacity="0.62" d="M94.4998 89.7986C96.5564 91.5595 97.6342 93.8574 98.4643 96.1427C98.8236 97.1418 99.1457 98.1533 99.1953 99.1899C99.2944 101.263 98.9475 102.187 97.8448 104.085C97.2254 105.172 96.2343 106.695 94.9954 107.407C94.0414 107.957 92.4928 108.843 91.291 108.868C90.7087 108.868 89.2468 109.068 88.6769 108.981C87.3513 108.781 86.0999 108.344 84.9478 107.744C85.53 107.744 86.2362 107.719 87.0539 107.619C89.9406 107.257 93.0627 105.496 94.5742 102.349C96.0733 99.2149 94.4254 90.8726 91.6503 89.0244C90.2007 88.0628 89.0114 87.4009 88.2061 86.9888C90.7211 86.9638 92.7777 88.3125 94.4998 89.7986Z" fill="url(#paint29_linear_650_256)"/>
<path d="M106.74 97.729C105.625 102.749 101.722 106.683 96.779 107.894C96.2587 108.019 95.7384 107.732 95.5525 107.22L89.1597 89.1745C87.834 94.9191 86.5208 100.664 85.1952 106.408C85.1085 106.783 85.0217 107.145 84.935 107.52C84.7863 108.144 84.2907 108.631 83.6589 108.731C82.0854 108.981 79.1988 109.118 76.4608 107.407C71.7405 104.448 71.7033 98.0162 71.6662 96.8798C71.6166 95.4311 71.5299 92.7337 72.9918 90.1486C75.3581 85.9525 80.8465 83.7795 86.8553 84.2915L86.781 82.5931C86.7562 81.9687 87.2394 81.4317 87.8588 81.4067H87.8836L89.965 81.3193C90.5349 81.2943 91.0304 81.7065 91.1172 82.2684C91.2163 82.8804 91.3154 83.4923 91.4145 84.1042C92.4304 83.6297 94.1153 82.9803 96.2958 82.8554C96.7047 82.8304 97.1012 82.8304 97.4852 82.8429C99.8763 82.9178 102.119 84.0168 103.692 85.8401C106.48 89.0496 107.669 93.458 106.715 97.7165L106.74 97.729Z" fill="url(#paint30_radial_650_256)"/>
<path d="M87.9952 84.7409C87.9952 84.7409 86.8926 84.6659 85.6537 84.6534C84.9351 84.6534 83.7458 84.6909 82.3829 84.9532C81.3794 85.153 79.7317 85.4902 77.9724 86.6016C77.4644 86.9263 75.9034 87.9379 74.7513 89.7362C72.3849 93.4327 73.4999 97.7537 73.9583 99.527C74.1442 100.251 75.2716 104.422 77.8485 106.121C78.468 106.533 79.583 107.07 80.4626 107.445C80.4626 107.445 81.2679 107.782 82.5316 108.082C83.3989 108.281 83.7953 108.294 84.1298 108.094C84.39 107.944 84.4767 107.782 84.7616 107.207C84.9103 106.908 85.059 106.645 85.1953 106.396C85.1086 106.77 85.0218 107.132 84.9351 107.507C84.7864 108.132 84.2908 108.619 83.659 108.718C82.0856 108.968 79.1989 109.106 76.4609 107.395C71.7406 104.435 71.7035 98.0035 71.6663 96.867C71.6167 95.4184 71.53 92.7209 72.9919 90.1358C75.3583 85.9397 80.8467 83.7668 86.8554 84.2788L86.7811 82.5804C86.7563 81.956 87.2395 81.419 87.8589 81.394H87.8837C87.5245 81.7312 87.1156 82.1807 87.2023 82.468C87.351 82.98 87.9952 84.7159 87.9952 84.7159V84.7409Z" fill="url(#paint31_linear_650_256)"/>
<path d="M76.7214 103.199C76.1763 105.234 74.8755 106.983 73.5003 108.569C72.8932 109.268 72.2613 109.942 71.518 110.479C70.0189 111.553 69.2013 111.803 67.3924 112.103C66.3641 112.278 64.8526 112.465 63.8739 112.103C63.1181 111.828 61.8792 111.379 61.4084 110.704C61.1854 110.38 60.504 109.63 60.3553 109.268C60.0084 108.419 59.8598 107.482 59.8846 106.533C59.9218 104.51 60.6898 102.387 61.7677 100.763C63.1801 98.6405 65.2243 97.4541 67.4296 96.2178C68.7428 95.481 70.2791 95.2187 71.7906 95.2686C73.6242 95.3186 75.879 96.2178 76.3622 98.1035C76.3993 98.141 76.4241 98.1909 76.4489 98.2284C77.4029 99.652 77.1674 101.488 76.709 103.199H76.7214Z" fill="url(#paint32_linear_650_256)"/>
<mask id="mask2_650_256" style="mask-type:luminance" maskUnits="userSpaceOnUse" x="59" y="95" width="19" height="18">
<path d="M61.4204 110.667C61.1974 110.342 60.5159 109.593 60.3672 109.23C59.277 106.57 60.1938 103.111 61.7796 100.713C63.192 98.5904 65.2362 97.404 67.4415 96.1676C68.7547 95.4308 70.291 95.1685 71.8025 95.2185C73.6361 95.2809 75.8909 96.1676 76.3741 98.0534C77.4396 99.4895 77.1918 101.388 76.7334 103.161C76.1882 105.197 74.8874 106.945 73.5122 108.531C72.9051 109.23 72.2733 109.905 71.5299 110.442C70.0308 111.516 69.2131 111.766 67.4043 112.065C66.376 112.24 64.8645 112.427 63.8858 112.065C63.1301 111.791 61.8912 111.341 61.4204 110.667Z" fill="white"/>
</mask>
<g mask="url(#mask2_650_256)">
<path d="M67.0857 100.497C70.2365 97.6135 72.0115 94.4105 71.0501 93.3433C70.0888 92.2761 66.7552 93.7489 63.6044 96.6328C60.4536 99.5167 58.6787 102.72 59.64 103.787C60.6013 104.854 63.9349 103.381 67.0857 100.497Z" fill="#412312"/>
<path d="M77.8816 102.757C81.9138 99.0659 83.8999 94.6501 82.3176 92.8936C80.7353 91.137 76.1838 92.705 72.1516 96.3956C68.1193 100.086 66.1333 104.502 67.7156 106.259C69.2979 108.015 73.8493 106.447 77.8816 102.757Z" fill="#412312"/>
<path d="M74.1619 116.325C78.1941 112.634 80.2175 108.26 78.6812 106.555C77.1449 104.849 72.6307 106.458 68.5985 110.149C64.5662 113.84 62.5428 118.214 64.0791 119.92C65.6154 121.625 70.1296 120.016 74.1619 116.325Z" fill="#412312"/>
<path d="M62.1741 109.225C64.9856 106.652 66.7836 104.032 66.1903 103.373C65.5969 102.714 62.8368 104.266 60.0254 106.839C57.214 109.413 55.4159 112.033 56.0092 112.691C56.6026 113.35 59.3627 111.798 62.1741 109.225Z" fill="#412312"/>
<path d="M63.7817 113.367C66.5931 110.794 68.3912 108.174 67.7979 107.515C67.2045 106.856 64.4444 108.408 61.6329 110.982C58.8215 113.555 57.0234 116.175 57.6168 116.834C58.2102 117.492 60.9703 115.94 63.7817 113.367Z" fill="#412312"/>
</g>
<path opacity="0.62" d="M76.7214 103.199C76.1763 105.234 74.8755 106.983 73.5003 108.569C72.8932 109.268 72.2613 109.942 71.518 110.479C70.0189 111.553 69.2013 111.803 67.3924 112.103C66.3641 112.278 64.8526 112.465 63.8739 112.103C63.1181 111.828 61.8792 111.379 61.4084 110.704C61.1854 110.379 60.504 109.63 60.3553 109.268C60.0084 108.419 59.8598 107.482 59.8846 106.533C60.0952 106.87 60.3801 107.257 60.7642 107.669C62.1022 109.143 64.5801 110.067 67.4544 109.38C70.3287 108.706 75.8914 103.673 76.2382 101.188C76.4117 99.8892 76.4612 98.8902 76.4612 98.2158C77.4152 99.6395 77.1798 101.475 76.7214 103.186V103.199Z" fill="url(#paint33_linear_650_256)"/>
<ellipse cx="8.6637" cy="8.73305" rx="8.6637" ry="8.73305" transform="matrix(-1 0 0 1 96.4297 8.36713)" fill="url(#paint34_linear_650_256)"/>
<path d="M104.95 24.9281C108.083 21.5727 111.15 23.53 112.292 24.9281C115.62 24.9281 116.126 27.5495 115.962 28.8602C118.507 28.8602 118.491 31.1321 118.165 32.2681H93.6938C94.2811 29.1224 98.1801 28.6855 100.056 28.8602C99.6647 24.8756 103.156 24.5786 104.95 24.9281Z" fill="url(#paint35_linear_650_256)"/>
<path d="M59.2251 11.3836C61.5607 9.2503 63.8477 10.4948 64.6993 11.3836C67.1809 11.3836 67.558 13.0503 67.4364 13.8836C69.3341 13.8836 69.322 15.3281 69.0787 16.0503H50.8312C51.2692 14.0503 54.1766 13.7725 55.5756 13.8836C55.2836 11.3503 57.8869 11.1614 59.2251 11.3836Z" fill="url(#paint36_linear_650_256)"/>
</g>
<defs>
<filter id="filter0_d_650_256" x="0.614545" y="0.093714" width="147.002" height="139.348" filterUnits="userSpaceOnUse" color-interpolation-filters="sRGB">
<feFlood flood-opacity="0" result="BackgroundImageFix"/>
<feColorMatrix in="SourceAlpha" type="matrix" values="0 0 0 0 0 0 0 0 0 0 0 0 0 0 0 0 0 0 127 0" result="hardAlpha"/>
<feOffset dx="3.67707" dy="2.7578"/>
<feGaussianBlur stdDeviation="5.51561"/>
<feColorMatrix type="matrix" values="0 0 0 0 0 0 0 0 0 0 0 0 0 0 0 0 0 0 0.1 0"/>
<feBlend mode="normal" in2="BackgroundImageFix" result="effect1_dropShadow_650_256"/>
<feBlend mode="normal" in="SourceGraphic" in2="effect1_dropShadow_650_256" result="shape"/>
</filter>
<linearGradient id="paint0_linear_650_256" x1="38.8724" y1="67.4695" x2="114.112" y2="67.4695" gradientUnits="userSpaceOnUse">
<stop offset="0.14" stop-color="#B6CADA"/>
<stop offset="0.82" stop-color="#E8F2F8"/>
</linearGradient>
<linearGradient id="paint1_linear_650_256" x1="76.4913" y1="9.28653" x2="76.4913" y2="125.653" gradientUnits="userSpaceOnUse">
<stop stop-color="#ADE6FF"/>
<stop offset="1" stop-color="#388FF3"/>
</linearGradient>
<linearGradient id="paint2_linear_650_256" x1="73.3631" y1="143.511" x2="73.3631" y2="92.0466" gradientUnits="userSpaceOnUse">
<stop stop-color="#A33437"/>
<stop offset="1" stop-color="#5C3217"/>
</linearGradient>
<linearGradient id="paint3_linear_650_256" x1="33.7869" y1="60.3307" x2="24.1281" y2="43.053" gradientUnits="userSpaceOnUse">
<stop stop-color="#268B43"/>
<stop offset="0.2" stop-color="#339149"/>
<stop offset="0.58" stop-color="#57A159"/>
<stop offset="0.7" stop-color="#64A75F"/>
<stop offset="0.81" stop-color="#67AA60"/>
<stop offset="0.91" stop-color="#71B464"/>
<stop offset="1" stop-color="#82C46A"/>
</linearGradient>
<linearGradient id="paint4_linear_650_256" x1="36.7707" y1="58.0245" x2="27.4739" y2="41.4013" gradientUnits="userSpaceOnUse">
<stop stop-color="#257E3F"/>
<stop offset="0.24" stop-color="#43935C"/>
<stop offset="0.45" stop-color="#56A16F"/>
<stop offset="0.59" stop-color="#5EA777"/>
<stop offset="0.8" stop-color="#60A875"/>
<stop offset="0.89" stop-color="#67AF71"/>
<stop offset="0.96" stop-color="#74BA6B"/>
<stop offset="1" stop-color="#80C565"/>
</linearGradient>
<linearGradient id="paint5_linear_650_256" x1="42.3259" y1="81.5404" x2="6.44215" y2="74.8847" gradientUnits="userSpaceOnUse">
<stop offset="0.1" stop-color="#01765F"/>
<stop offset="0.27" stop-color="#057860"/>
<stop offset="0.47" stop-color="#148063"/>
<stop offset="0.68" stop-color="#2B8C6A"/>
<stop offset="0.9" stop-color="#4C9D72"/>
<stop offset="1" stop-color="#5EA777"/>
</linearGradient>
<linearGradient id="paint6_linear_650_256" x1="47.2165" y1="75.0172" x2="52.7044" y2="46.5769" gradientUnits="userSpaceOnUse">
<stop offset="0.11" stop-color="#077643"/>
<stop offset="0.29" stop-color="#147D47"/>
<stop offset="0.64" stop-color="#388F51"/>
<stop offset="1" stop-color="#64A75F"/>
</linearGradient>
<linearGradient id="paint7_linear_650_256" x1="39.9573" y1="54.0838" x2="37.3291" y2="68.0973" gradientUnits="userSpaceOnUse">
<stop stop-color="#617066"/>
<stop offset="0.42" stop-color="#4A5950"/>
<stop offset="1" stop-color="#26342D"/>
</linearGradient>
<linearGradient id="paint8_linear_650_256" x1="44.7593" y1="65.2289" x2="32.5025" y2="79.2449" gradientUnits="userSpaceOnUse">
<stop stop-color="#617066"/>
<stop offset="0.42" stop-color="#4A5950"/>
<stop offset="1" stop-color="#26342D"/>
</linearGradient>
<linearGradient id="paint9_linear_650_256" x1="38.0552" y1="74.396" x2="36.4899" y2="99.1451" gradientUnits="userSpaceOnUse">
<stop stop-color="#617066"/>
<stop offset="0.42" stop-color="#4A5950"/>
<stop offset="1" stop-color="#26342D"/>
</linearGradient>
<linearGradient id="paint10_linear_650_256" x1="51.5583" y1="58.2015" x2="42.0273" y2="82.194" gradientUnits="userSpaceOnUse">
<stop stop-color="#617066"/>
<stop offset="0.42" stop-color="#4A5950"/>
<stop offset="1" stop-color="#26342D"/>
</linearGradient>
<linearGradient id="paint11_linear_650_256" x1="42.5075" y1="78.1826" x2="8.57325" y2="71.8885" gradientUnits="userSpaceOnUse">
<stop stop-color="#0C7A61"/>
<stop offset="0.12" stop-color="#228667"/>
<stop offset="0.32" stop-color="#43986F"/>
<stop offset="0.48" stop-color="#56A375"/>
<stop offset="0.59" stop-color="#5EA777"/>
<stop offset="0.76" stop-color="#60A878"/>
<stop offset="0.84" stop-color="#67AD7F"/>
<stop offset="0.9" stop-color="#74B58A"/>
<stop offset="0.95" stop-color="#86C299"/>
<stop offset="0.99" stop-color="#9DD1AD"/>
<stop offset="1" stop-color="#A5D7B4"/>
</linearGradient>
<linearGradient id="paint12_linear_650_256" x1="42.0205" y1="73.1996" x2="47.3096" y2="45.8144" gradientUnits="userSpaceOnUse">
<stop stop-color="#0C7A61"/>
<stop offset="0.12" stop-color="#228667"/>
<stop offset="0.32" stop-color="#43986F"/>
<stop offset="0.48" stop-color="#56A375"/>
<stop offset="0.59" stop-color="#5EA777"/>
<stop offset="0.76" stop-color="#60A878"/>
<stop offset="0.84" stop-color="#67AD7F"/>
<stop offset="0.9" stop-color="#74B58A"/>
<stop offset="0.95" stop-color="#86C299"/>
<stop offset="0.99" stop-color="#9DD1AD"/>
<stop offset="1" stop-color="#A5D7B4"/>
</linearGradient>
<linearGradient id="paint13_linear_650_256" x1="102.171" y1="56.6903" x2="118.11" y2="37.582" gradientUnits="userSpaceOnUse">
<stop stop-color="#268B43"/>
<stop offset="0.2" stop-color="#339149"/>
<stop offset="0.58" stop-color="#57A159"/>
<stop offset="0.7" stop-color="#64A75F"/>
<stop offset="0.81" stop-color="#67AA60"/>
<stop offset="0.91" stop-color="#71B464"/>
<stop offset="1" stop-color="#82C46A"/>
</linearGradient>
<linearGradient id="paint14_linear_650_256" x1="98.9972" y1="53.1468" x2="114.34" y2="34.7405" gradientUnits="userSpaceOnUse">
<stop stop-color="#257E3F"/>
<stop offset="0.24" stop-color="#43935C"/>
<stop offset="0.45" stop-color="#56A16F"/>
<stop offset="0.59" stop-color="#5EA777"/>
<stop offset="0.8" stop-color="#60A875"/>
<stop offset="0.89" stop-color="#67AF71"/>
<stop offset="0.96" stop-color="#74BA6B"/>
<stop offset="1" stop-color="#80C565"/>
</linearGradient>
<linearGradient id="paint15_linear_650_256" x1="86.9919" y1="80.0949" x2="132.919" y2="80.0949" gradientUnits="userSpaceOnUse">
<stop offset="0.1" stop-color="#01765F"/>
<stop offset="0.27" stop-color="#057860"/>
<stop offset="0.47" stop-color="#148063"/>
<stop offset="0.68" stop-color="#2B8C6A"/>
<stop offset="0.9" stop-color="#4C9D72"/>
<stop offset="1" stop-color="#5EA777"/>
</linearGradient>
<linearGradient id="paint16_linear_650_256" x1="82.4455" y1="70.8664" x2="82.2819" y2="34.413" gradientUnits="userSpaceOnUse">
<stop offset="0.11" stop-color="#077643"/>
<stop offset="0.29" stop-color="#147D47"/>
<stop offset="0.64" stop-color="#388F51"/>
<stop offset="1" stop-color="#64A75F"/>
</linearGradient>
<linearGradient id="paint17_linear_650_256" x1="96.2346" y1="46.664" x2="96.2094" y2="64.6222" gradientUnits="userSpaceOnUse">
<stop stop-color="#617066"/>
<stop offset="0.42" stop-color="#4A5950"/>
<stop offset="1" stop-color="#26342D"/>
</linearGradient>
<linearGradient id="paint18_linear_650_256" x1="87.7355" y1="59.3397" x2="99.658" y2="79.5504" gradientUnits="userSpaceOnUse">
<stop stop-color="#617066"/>
<stop offset="0.42" stop-color="#4A5950"/>
<stop offset="1" stop-color="#26342D"/>
</linearGradient>
<linearGradient id="paint19_linear_650_256" x1="93.9174" y1="72.2399" x2="90.0914" y2="103.216" gradientUnits="userSpaceOnUse">
<stop stop-color="#617066"/>
<stop offset="0.42" stop-color="#4A5950"/>
<stop offset="1" stop-color="#26342D"/>
</linearGradient>
<linearGradient id="paint20_linear_650_256" x1="80.9339" y1="49.0492" x2="87.1364" y2="80.9759" gradientUnits="userSpaceOnUse">
<stop stop-color="#617066"/>
<stop offset="0.42" stop-color="#4A5950"/>
<stop offset="1" stop-color="#26342D"/>
</linearGradient>
<linearGradient id="paint21_linear_650_256" x1="87.5496" y1="75.8867" x2="130.986" y2="75.8867" gradientUnits="userSpaceOnUse">
<stop stop-color="#0C7A61"/>
<stop offset="0.12" stop-color="#228667"/>
<stop offset="0.32" stop-color="#43986F"/>
<stop offset="0.48" stop-color="#56A375"/>
<stop offset="0.59" stop-color="#5EA777"/>
<stop offset="0.76" stop-color="#60A878"/>
<stop offset="0.84" stop-color="#67AD7F"/>
<stop offset="0.9" stop-color="#74B58A"/>
<stop offset="0.95" stop-color="#86C299"/>
<stop offset="0.99" stop-color="#9DD1AD"/>
<stop offset="1" stop-color="#A5D7B4"/>
</linearGradient>
<linearGradient id="paint22_linear_650_256" x1="89.2838" y1="69.8297" x2="89.1328" y2="34.7126" gradientUnits="userSpaceOnUse">
<stop stop-color="#0C7A61"/>
<stop offset="0.12" stop-color="#228667"/>
<stop offset="0.32" stop-color="#43986F"/>
<stop offset="0.48" stop-color="#56A375"/>
<stop offset="0.59" stop-color="#5EA777"/>
<stop offset="0.76" stop-color="#60A878"/>
<stop offset="0.84" stop-color="#67AD7F"/>
<stop offset="0.9" stop-color="#74B58A"/>
<stop offset="0.95" stop-color="#86C299"/>
<stop offset="0.99" stop-color="#9DD1AD"/>
<stop offset="1" stop-color="#A5D7B4"/>
</linearGradient>
<linearGradient id="paint23_linear_650_256" x1="62.2877" y1="8.71198" x2="62.9171" y2="128.1" gradientUnits="userSpaceOnUse">
<stop stop-color="#C59C6D"/>
<stop offset="0.04" stop-color="#AF8559"/>
<stop offset="0.07" stop-color="#A77D52"/>
<stop offset="0.1" stop-color="#A77D52"/>
<stop offset="0.38" stop-color="#A77D52"/>
<stop offset="0.51" stop-color="#A0764C"/>
<stop offset="0.69" stop-color="#8D653C"/>
<stop offset="0.9" stop-color="#6F4823"/>
<stop offset="0.99" stop-color="#603A17"/>
</linearGradient>
<linearGradient id="paint24_linear_650_256" x1="62.9076" y1="27.3321" x2="62.8698" y2="24.4348" gradientUnits="userSpaceOnUse">
<stop stop-color="#C59C6D"/>
<stop offset="0.18" stop-color="#AE865A"/>
<stop offset="0.22" stop-color="#A88055"/>
<stop offset="0.38" stop-color="#A88055"/>
<stop offset="1" stop-color="#A77D52"/>
</linearGradient>
<linearGradient id="paint25_linear_650_256" x1="54.8542" y1="28.9678" x2="51.9218" y2="53.7393" gradientUnits="userSpaceOnUse">
<stop stop-color="#D9B793"/>
<stop offset="0.26" stop-color="#C7A37C"/>
<stop offset="0.64" stop-color="#A88055"/>
<stop offset="1" stop-color="#A77D52"/>
</linearGradient>
<linearGradient id="paint26_linear_650_256" x1="70.9975" y1="34.4502" x2="70.8087" y2="71.4031" gradientUnits="userSpaceOnUse">
<stop stop-color="#D9B793"/>
<stop offset="0.3" stop-color="#C7A27C"/>
<stop offset="0.77" stop-color="#A77D52"/>
<stop offset="1" stop-color="#986E44"/>
</linearGradient>
<linearGradient id="paint27_linear_650_256" x1="48.313" y1="48.812" x2="48.59" y2="103.935" gradientUnits="userSpaceOnUse">
<stop stop-color="#A77D52"/>
<stop offset="0.77" stop-color="#A88055"/>
<stop offset="1" stop-color="#6F4720"/>
</linearGradient>
<linearGradient id="paint28_linear_650_256" x1="79.3022" y1="98.7382" x2="104.546" y2="95.8688" gradientUnits="userSpaceOnUse">
<stop stop-color="#C1282D"/>
<stop offset="1" stop-color="#412312"/>
</linearGradient>
<linearGradient id="paint29_linear_650_256" x1="82.1309" y1="96.3969" x2="99.8047" y2="99.8734" gradientUnits="userSpaceOnUse">
<stop offset="0.51" stop-color="#412312"/>
<stop offset="0.95" stop-color="#23140C"/>
</linearGradient>
<radialGradient id="paint30_radial_650_256" cx="0" cy="0" r="1" gradientUnits="userSpaceOnUse" gradientTransform="translate(89.3579 95.1064) scale(15.8086 15.9351)">
<stop stop-color="#E8D18C"/>
<stop offset="1" stop-color="#C0A64E"/>
</radialGradient>
<linearGradient id="paint31_linear_650_256" x1="73.376" y1="104.672" x2="92.0141" y2="85.4014" gradientUnits="userSpaceOnUse">
<stop stop-color="#604D1E"/>
<stop offset="0.03" stop-color="#6F5B24"/>
<stop offset="0.11" stop-color="#907A32"/>
<stop offset="0.18" stop-color="#A48D3A"/>
<stop offset="0.23" stop-color="#AC943E"/>
<stop offset="0.25" stop-color="#B09844"/>
<stop offset="0.35" stop-color="#C4AD5E"/>
<stop offset="0.46" stop-color="#D4BD72"/>
<stop offset="0.59" stop-color="#DFC881"/>
<stop offset="0.75" stop-color="#E6CF89"/>
<stop offset="1" stop-color="#E8D18C"/>
</linearGradient>
<linearGradient id="paint32_linear_650_256" x1="64.4934" y1="98.8778" x2="75.636" y2="112.128" gradientUnits="userSpaceOnUse">
<stop stop-color="#C1282D"/>
<stop offset="1" stop-color="#412312"/>
</linearGradient>
<linearGradient id="paint33_linear_650_256" x1="66.4756" y1="98.8402" x2="71.4242" y2="110.964" gradientUnits="userSpaceOnUse">
<stop offset="0.51" stop-color="#412312"/>
<stop offset="0.95" stop-color="#23140C"/>
</linearGradient>
<linearGradient id="paint34_linear_650_256" x1="24.3667" y1="22.9242" x2="12.8441" y2="21.3321" gradientUnits="userSpaceOnUse">
<stop stop-color="#6BC6EF"/>
<stop offset="1" stop-color="white"/>
</linearGradient>
<linearGradient id="paint35_linear_650_256" x1="121.591" y1="39.5904" x2="116.399" y2="25.6296" gradientUnits="userSpaceOnUse">
<stop stop-color="#6BC6EF"/>
<stop offset="1" stop-color="white"/>
</linearGradient>
<linearGradient id="paint36_linear_650_256" x1="56.3822" y1="31.0514" x2="60.5642" y2="12.2255" gradientUnits="userSpaceOnUse">
<stop stop-color="#6BC6EF"/>
<stop offset="1" stop-color="white"/>
</linearGradient>
</defs>
</svg>
