<svg width="127" height="134" viewBox="0 0 127 134" fill="none" xmlns="http://www.w3.org/2000/svg">
<g filter="url(#filter0_d_649_1287)">
<mask id="mask0_649_1287" style="mask-type:luminance" maskUnits="userSpaceOnUse" x="20" y="9" width="81" height="110">
<path d="M55.6478 118.352L20.4219 97.5512L20.519 36.8382L38.502 9.29578L58.7346 13.8476L84.2142 12.8385L100.702 38.774L98.0789 95.6976L62.6736 118.942L55.6478 118.352Z" fill="white"/>
</mask>
<g mask="url(#mask0_649_1287)">
<path d="M55.6478 118.352L20.4219 97.5511L20.519 36.8382L38.502 9.29572L58.7346 13.8475L84.2142 12.8385L100.702 38.774L98.0789 95.6975L62.6736 118.942L55.6478 118.352Z" fill="url(#paint0_linear_649_1287)"/>
<path d="M108.67 96.8784H6.69934V163.384H108.67V96.8784Z" fill="url(#paint1_linear_649_1287)"/>
<path d="M40.9761 96.1311L55.648 118.352L17.6865 110.063L15.1826 97.2746L39.6233 95.3986" fill="url(#paint2_linear_649_1287)"/>
</g>
<path d="M106.51 63.6857L100.157 59.2684C99.1625 58.5808 97.8096 58.4014 96.6212 58.8125L85.7986 62.5496C84.9167 62.856 84.2215 63.4465 83.8628 64.2014L80.6339 70.9431C80.2303 71.7877 80.2976 72.7519 80.8133 73.5516L84.0795 78.5743C84.3038 78.9256 84.6102 79.232 84.9839 79.4787L89.3339 82.4011C89.9617 82.8271 90.7391 83.0514 91.5388 83.0439L98.3029 82.9841C98.8112 82.9841 99.3194 82.8794 99.7828 82.6926L105.508 80.3606C106.323 80.0318 106.958 79.4413 107.279 78.7238L110.045 72.565C110.359 71.8699 110.359 71.0926 110.045 70.3975L107.571 64.9488C107.347 64.463 106.988 64.0295 106.51 63.7006V63.6857Z" fill="url(#paint3_linear_649_1287)"/>
<path d="M104.514 74.3141C104.462 74.5159 104.32 74.6803 104.148 74.7924C103.572 75.1586 102.989 75.5174 102.414 75.8762C101.382 76.5115 100.351 77.1393 99.312 77.7672C98.3777 78.3277 97.436 78.8808 96.4942 79.4339V93.5826C96.4942 94.031 96.128 94.3599 95.6945 94.3823C95.261 94.4047 94.8948 94.0011 94.8948 93.5826V74.912C94.5136 74.6654 94.1324 74.4187 93.7512 74.1721C92.8169 73.5667 91.8752 72.9687 90.9334 72.3783C89.9917 71.7878 89.0425 71.1973 88.0858 70.6218C87.9064 70.5097 87.7868 70.3453 87.7195 70.1435C87.6522 69.9342 87.7046 69.71 87.8017 69.5306C87.8914 69.3587 88.0932 69.2167 88.2801 69.1644C88.4744 69.112 88.7211 69.1419 88.893 69.2466C89.4311 69.5754 89.9618 69.9043 90.4999 70.2332C91.4491 70.8161 92.3909 71.4141 93.3327 72.012C93.8558 72.3484 94.3716 72.6772 94.8948 73.0135V65.5543C94.8948 65.1058 95.261 64.777 95.6945 64.7546C96.128 64.7321 96.4942 65.1357 96.4942 65.5543V69.0298C97.3314 68.26 98.1685 67.4826 99.0056 66.7128C99.17 66.5633 99.3569 66.4886 99.5736 66.4811C99.7904 66.4736 99.9847 66.5783 100.142 66.7128C100.291 66.8473 100.373 67.079 100.373 67.2808C100.373 67.4826 100.284 67.7069 100.142 67.8489C99.8576 68.1105 99.5661 68.3796 99.2821 68.6412C98.3553 69.5007 97.4285 70.3527 96.5017 71.2123V74.2767C96.5017 74.2767 96.5017 74.2917 96.5017 74.2991C96.5466 74.4411 96.5391 74.5906 96.5017 74.7326V77.5878C96.7185 77.4607 96.9352 77.3337 97.152 77.2066C98.1983 76.5862 99.2373 75.9659 100.269 75.3306C101.3 74.7027 102.332 74.0674 103.356 73.4172C103.542 73.3051 103.767 73.2901 103.968 73.335C104.17 73.3798 104.335 73.5293 104.447 73.7012C104.559 73.8731 104.581 74.1272 104.529 74.3141H104.514Z" fill="#905C24"/>
<path d="M27.1709 34.2447L18.0822 51.8689C17.6039 52.7957 17.5516 53.8495 17.9402 54.8062L21.2513 63.0204C21.5876 63.85 22.2304 64.5676 23.0899 65.0609L33.3296 70.9131C33.8752 71.2271 34.4806 71.4364 35.1234 71.5335L36.4987 71.7428C37.6123 71.9073 38.7559 71.7354 39.7275 71.2346L46.9625 67.5572C48.0314 67.0116 48.8012 66.1372 49.1151 65.1057L53.2484 51.5027C53.5099 50.6357 53.4277 49.7163 53.0092 48.8867L45.4079 33.8561C44.6082 32.279 43.659 30.7617 42.5602 29.3192L40.5571 26.6883C38.726 24.2816 34.6301 24.2442 32.7242 26.6061C31.7077 27.8692 30.6987 29.1324 29.6822 30.3955C28.7105 31.6063 27.866 32.8993 27.1709 34.2447Z" fill="url(#paint4_linear_649_1287)"/>
<path d="M47.7549 52.9004C47.6802 53.1695 47.4859 53.4161 47.2467 53.5581C46.5068 54.0066 45.7668 54.4625 45.0269 54.9184C43.7189 55.7256 42.4184 56.5403 41.1253 57.3699C40.0266 58.0725 38.9354 58.7751 37.8516 59.4852V85.2712C37.8516 85.8915 37.3434 86.3474 36.7455 86.3773C36.1475 86.4072 35.6393 85.8541 35.6393 85.2712V65.7336C34.9666 65.3449 34.3014 64.9488 33.6362 64.5527C32.1937 63.7006 30.7586 62.8411 29.331 61.9666C27.9035 61.0921 26.4759 60.2102 25.0558 59.3207C24.8017 59.1638 24.6372 58.9396 24.5476 58.663C24.4579 58.379 24.5251 58.0651 24.6597 57.8109C24.7269 57.6839 24.8241 57.5792 24.9437 57.5045C25.0483 57.4073 25.1754 57.3401 25.3174 57.3102C25.4669 57.2653 25.6089 57.2578 25.7584 57.2877C25.9079 57.2877 26.0424 57.3401 26.1695 57.4223C26.9617 57.923 27.7615 58.4163 28.5612 58.9171C29.9813 59.7991 31.4164 60.6661 32.8439 61.5256C33.7707 62.0787 34.6975 62.6318 35.6318 63.1774V59.2535C35.6168 59.1937 35.6019 59.1339 35.6019 59.0741C35.572 58.9246 35.572 58.7826 35.6243 58.6331C35.6243 58.6256 35.6243 58.6107 35.6318 58.6032V49.7164C35.5197 49.664 35.415 49.5893 35.3179 49.4996C34.9292 49.1409 34.5331 48.7746 34.1444 48.4159C32.7542 47.1303 31.364 45.8448 29.9664 44.5592C29.7496 44.3574 29.6524 44.0659 29.645 43.7818C29.63 43.4904 29.772 43.2138 29.9664 43.0045C30.0635 42.8999 30.1831 42.8177 30.3251 42.7728C30.4597 42.7056 30.6016 42.6682 30.7511 42.6757C31.0426 42.6757 31.3192 42.8027 31.5285 42.9971C31.9171 43.3558 32.3133 43.7221 32.7019 44.0808C33.681 44.9852 34.6527 45.8821 35.6243 46.7865V37.7352C35.6243 37.1149 36.1326 36.6589 36.7305 36.629C37.3284 36.5991 37.8367 37.1523 37.8367 37.7352V56.8542C37.9936 56.7571 38.1431 56.6524 38.3001 56.5553C39.5931 55.7256 40.8862 54.896 42.1867 54.0813C43.4947 53.2592 44.8026 52.4519 46.1256 51.6447C46.3797 51.4878 46.6862 51.4653 46.9776 51.5326C47.2617 51.5999 47.4859 51.8017 47.6354 52.0408C47.7176 52.1679 47.7624 52.3025 47.7699 52.452C47.7998 52.6014 47.7998 52.7434 47.7475 52.8929L47.7549 52.9004Z" fill="#905C24"/>
<path d="M99.2747 92.3041L98.4375 97.1549L94.4986 97.1923L90.4028 97.2222L52.4413 97.1998L51.7238 37.4809L57.2696 38.587L58.5103 38.3628L61.5 37.8247L61.6047 37.7201L64.7363 34.5211L64.8933 34.3641L72.517 34.1548L73.6306 41.5693L76.1196 42.6755L76.8147 46.4873L75.843 48.1541L77.4425 53.6999L79.9314 56.1963L80.2827 61.2563L82.4278 62.781L83.0556 66.5181L86.5162 68.9473L87.002 76.9148L90.8886 78.2303L93.4523 82.0421L93.3775 85.996L94.977 86.2725L97.2641 89.2547L99.2747 92.3041Z" fill="url(#paint5_linear_649_1287)"/>
<path d="M89.461 97.2598H51.7312C47.6951 86.4745 39.0848 63.3119 39.6529 63.4091C40.3928 63.5287 45.2959 51.7568 45.2959 51.7568L46.0956 34.4764L46.4171 33.8038L46.5665 33.4973L49.1078 33.871C50.625 35.8666 52.1647 38.0192 52.1647 38.0192L54.3696 44.1555L57.3144 55.322L67.3747 59.373L70.8129 70.2929L71.4257 75.8088L77.9283 76.3021C77.9283 76.3021 78.8476 77.1018 79.0943 77.2214C79.3409 77.341 80.5667 79.1871 80.5667 79.1871L80.9329 81.2127L81.8522 85.0768L85.2904 86.9155L87.2561 88.3281L88.1156 91.5196L88.5417 94.7709L89.4685 97.2822L89.461 97.2598Z" fill="url(#paint6_linear_649_1287)"/>
<path d="M12.9327 61.7049L20.22 56.6374C21.3561 55.8451 22.9107 55.6433 24.271 56.1142L36.6782 60.3969C37.6872 60.7482 38.487 61.4284 38.8981 62.2879L42.5978 70.0162C43.0612 70.9879 42.9864 72.0866 42.3885 73.0059L38.6439 78.761C38.3823 79.1646 38.0311 79.5159 37.6125 79.7999L32.6197 83.1484C31.9022 83.6342 31.0053 83.8884 30.086 83.8809L22.3277 83.8136C21.7448 83.8136 21.1618 83.694 20.6386 83.4772L14.0762 80.8015C13.1419 80.4203 12.417 79.7476 12.0432 78.9255L8.87417 71.8698C8.51541 71.0701 8.51541 70.1806 8.87417 69.3809L11.7144 63.1325C11.9685 62.5719 12.387 62.0786 12.9327 61.7049Z" fill="url(#paint7_linear_649_1287)"/>
<path d="M34.4732 69.0969C34.4134 69.3211 34.2489 69.5229 34.0546 69.6425C33.4343 70.0162 32.8214 70.3974 32.2085 70.7786C31.1247 71.4513 30.041 72.1314 28.9721 72.8116C28.0678 73.3871 27.1634 73.9701 26.259 74.5605V95.9592C26.259 96.4749 25.8405 96.8561 25.3397 96.8785C24.8464 96.901 24.4204 96.4375 24.4204 95.9592V79.7401C23.8673 79.4188 23.3067 79.0899 22.7536 78.761C21.5577 78.051 20.3693 77.3409 19.1809 76.6159C17.9925 75.8909 16.8116 75.1585 15.6382 74.4185C15.4289 74.284 15.2944 74.1046 15.2196 73.8729C15.1449 73.6337 15.1972 73.3796 15.3093 73.1703C15.4139 72.9685 15.6456 72.8041 15.8549 72.7518C16.0791 72.692 16.3632 72.7219 16.5575 72.8415C17.2227 73.26 17.8804 73.6711 18.5456 74.0822C19.7266 74.8147 20.9075 75.5322 22.0959 76.2422C22.8657 76.7056 23.6356 77.1616 24.4054 77.6175V74.3588C24.3531 74.1943 24.3531 74 24.4054 73.843C24.4054 73.8356 24.4054 73.8281 24.4054 73.8206V70.3077C24.1662 70.0835 23.9271 69.8668 23.6879 69.6425C22.5369 68.5737 21.3858 67.5124 20.2348 66.451C20.0554 66.2866 19.9732 66.04 19.9657 65.8008C19.9508 65.5541 20.0704 65.3299 20.2348 65.1505C20.3918 64.9786 20.6608 64.8815 20.8851 64.8815C21.1317 64.8815 21.3559 64.9861 21.5353 65.1505C21.8642 65.457 22.193 65.7559 22.5219 66.0624C23.1497 66.6453 23.785 67.2284 24.4129 67.8113V63.8276C24.4129 63.3119 24.8314 62.9307 25.3322 62.9083C25.8255 62.8858 26.2515 63.3418 26.2515 63.8276V72.3781C26.3786 72.2959 26.5131 72.2061 26.6402 72.1239C27.709 71.4363 28.7853 70.7487 29.8616 70.0685C30.9453 69.3884 32.0291 68.7157 33.1203 68.058C33.3371 67.9309 33.5912 67.9085 33.8304 67.9683C34.0621 68.0206 34.2489 68.1925 34.376 68.3868C34.5031 68.5812 34.5255 68.8727 34.4657 69.0969H34.4732Z" fill="#905C24"/>
<path d="M90.3654 97.2297H86.5909C86.3966 96.7215 86.1873 96.0937 86.0154 95.3986C85.5221 93.4328 86.9945 92.947 86.9945 92.947L86.0154 89.2697L83.6834 88.7764L80.3724 88.2831L76.2018 89.7555L77.4275 87.5506C77.4275 87.5506 75.2226 86.5715 72.3974 87.5506C69.5796 88.5298 68.7201 90.4955 68.7201 90.4955L68.6005 87.4311L72.5245 85.712L79.3933 85.4654L81.2319 83.4996C81.2319 83.4996 80.7386 82.6401 80.1257 82.0272C79.5128 81.4143 79.6324 78.3499 79.6324 78.3499L79.0196 79.329L76.8147 77.61L75.4618 77.4904V78.8432L71.0446 77.9837L68.2417 76.6607L66.6273 75.8984L68.7126 72.8339L68.6902 72.6919L68.5108 71.4587L68.1745 69.1118L67.8456 66.8247L63.9216 59.343L50.5503 58.3639L52.7552 55.5461L55.2067 54.9332C55.0049 53.4608 54.7957 51.9884 54.5939 50.516C53.6147 50.0675 52.6281 49.6191 51.649 49.1631L51.0361 47.5711L46.8655 45.4858L53.3681 42.2943L51.2828 37.8771L48.2183 37.2642L46.3947 33.7812L46.5441 33.4748L52.2245 34.3044L52.7627 36.9204L52.7776 36.9727L52.942 37.7725C52.942 37.7725 52.942 37.7874 52.942 37.7949L53.1289 38.6993L53.1513 38.8114L53.1812 38.9758L53.2036 39.0879C53.2111 39.1328 53.2261 39.1776 53.2335 39.2225L53.7343 41.6516L53.7493 41.7188L56.7389 44.4992L57.5536 45.2541L57.9423 48.341L58.6673 54.126L68.4436 57.9827L68.5108 58.0051L68.5407 58.1023L71.8294 68.5662L72.6739 71.2419L74.9312 72.6471L78.5711 74.9118L81.2768 79.2095L81.5533 83.0886L87.0992 86.4146L88.9004 93.2086L90.1486 94.7333L90.3579 97.2297H90.3654Z" fill="url(#paint8_linear_649_1287)"/>
<path d="M36.865 97.2298L37.9039 68.9549C37.9039 68.9549 34.3686 59.1787 34.6452 58.9769C34.9217 58.7676 38.7336 52.1828 38.7336 52.1828L39.9145 42.5486L43.106 40.68L46.1031 34.454L46.4245 33.7813L46.4768 33.6767L48.8611 38.363L46.6562 43.8864L45.55 44.9926L47.142 47.6908L48.4949 51.3681L49.5712 54.7764L46.2825 55.905C46.3199 57.4521 46.3647 58.9918 46.4021 60.5389C47.3214 60.4194 48.2407 60.2923 49.1601 60.1727C50.5727 60.539 51.9778 60.9052 53.3905 61.2789L50.6923 62.1684L51.4322 65.726L49.7132 69.0372L50.8193 72.1016L57.5686 73.0807L51.1931 75.0464L52.5459 78.2379L58.0693 78.4845L55.0049 80.6894L52.8 82.8943L56.1111 85.8392L65.0652 82.7747L68.2567 84.2471L66.1714 84.7404L58.9363 86.3324L60.4088 90.0098L62.9873 92.5883L69.4899 92.9546L72.5543 93.9337L70.8353 95.7724L74.8863 96.8786L74.976 97.2448H36.8949L36.865 97.2298Z" fill="url(#paint9_linear_649_1287)"/>
<path d="M71.7918 55.5312V60.068L65.4163 52.833L62.9647 51.6072L62.1052 44.858L61.8585 41.7936L58.5176 38.3629L61.5073 37.8248L61.6119 37.7202C63.0021 38.7292 64.5642 39.9549 64.5642 39.9549L65.4237 43.8789L68.3686 49.1557L69.3477 51.6072L66.4029 48.4157L64.6838 46.8237L65.9096 51.241L70.0802 53.4459L68.8544 53.8121L71.7992 55.5312H71.7918Z" fill="url(#paint10_linear_649_1287)"/>
<path d="M92.7798 97.155C92.7648 97.2223 92.6004 97.2671 91.6736 97.2746C90.8589 97.2746 90.2161 97.2447 89.7527 97.2298C89.5808 97.2298 89.3641 97.2148 89.1174 97.2148C88.8708 97.2148 88.5942 97.2073 88.2953 97.2148C88.3252 96.8785 88.355 96.3926 88.3625 95.8097C88.4074 93.5151 88.1233 91.9081 87.8094 90.219C87.4357 88.2159 87.1965 87.7674 86.8154 87.4236C86.5014 87.1396 85.9857 86.8182 85.3803 86.452C84.8646 86.1381 84.3713 85.8615 84.177 85.7569C83.5043 85.3906 83.0334 85.129 82.4654 84.6058C82.4205 84.561 82.3832 84.5236 82.3308 84.4713C82.129 84.2471 81.2994 83.1334 81.2246 82.0347C81.1873 81.4517 81.2919 81.1303 81.2097 80.2558C81.1798 79.9569 81.12 79.6205 80.978 79.202C80.3801 77.3559 78.9899 75.9208 78.2051 74.7623C77.2185 73.3123 76.8149 70.9804 76.2169 66.167C75.7984 62.8036 76.0151 61.9964 75.1332 60.6884C74.4754 59.7167 73.7131 59.0889 72.9358 58.5806C72.42 58.2443 71.9043 57.9603 71.411 57.6613C70.4693 57.0933 69.1912 56.2039 67.8159 54.7913C70.3796 55.7853 72.293 56.8167 73.3095 57.5193C73.4216 57.5941 73.5262 57.5866 74.8566 58.7227C75.6414 59.3953 75.8955 59.7018 76.0151 59.8513C76.4935 60.4791 76.7102 61.0397 76.7551 61.1667C77.069 62.0263 77.0391 62.7662 77.0316 63.0129C76.9793 64.8067 77.353 67.3479 77.5847 68.9025C78.0631 72.1015 78.661 73.6262 79.6401 75.1659C80.7463 76.8999 81.6582 77.1316 82.0917 78.8656C82.6971 81.2798 82.1141 81.9375 82.7419 83.1185C83.4968 84.5535 85.5373 85.3383 85.8811 85.4729C86.2548 85.6149 86.9947 85.8615 87.6151 86.5566C87.9141 86.893 88.0785 87.2143 88.1906 87.461C88.7811 88.7166 88.7811 89.5239 89.1623 91.0187C89.1623 91.0187 89.6406 92.8947 90.4329 94.4867C90.5375 94.7035 90.7617 95.122 90.9187 95.4135C91.2102 95.9592 91.3597 96.2282 91.4494 96.3403C92.0025 96.9906 92.7947 97.028 92.7648 97.17L92.7798 97.155Z" fill="url(#paint11_linear_649_1287)"/>
<path d="M75.1477 72.8489C75.0954 72.8638 75.0431 72.8489 74.9534 72.8339C74.8188 72.804 74.6096 72.7442 74.1835 72.6844C74.1835 72.6844 74.1237 72.677 74.034 72.662C73.3464 72.5723 72.5766 72.8937 71.8889 73.3422C70.7005 74.112 69.7214 75.2406 69.7214 75.2406C69.2057 75.7788 68.7199 76.3095 68.2639 76.8401C65.491 80.0914 63.899 83.2978 63.4805 86.8107C62.9946 90.8991 63.6897 97.2746 63.6897 97.2746C63.6897 97.2746 63.6897 97.3269 63.7047 97.4091H61.283C59.1379 97.4091 56.9854 97.4091 54.8403 97.4016C55.1766 94.3671 55.7148 91.6166 56.3426 89.2099C57.7403 83.8584 59.5939 80.2035 60.6403 78.8357C62.8078 76.003 65.4238 74.0447 65.4238 74.0447C65.9918 73.5888 66.4926 73.1927 66.9485 72.8414C67.4044 72.4901 67.808 72.1837 68.1668 71.9221C68.2639 71.8474 68.3985 71.7577 68.5405 71.6456C68.8619 71.3989 69.258 71.0401 69.6542 70.5244C69.8186 70.3151 69.9382 70.1283 70.0129 70.0012C70.0129 70.0012 70.0578 69.919 70.1101 69.777C70.1624 69.6425 70.2297 69.4556 70.282 69.2613C70.6333 67.8113 69.8933 65.1131 69.8933 65.1131C69.6691 64.3059 69.4449 63.4912 69.0039 62.3252C68.2191 60.2623 67.823 59.2309 66.956 58.319C66.1861 57.5043 65.4237 57.1755 64.041 56.585C60.9392 55.2471 59.1903 55.5984 58.4279 54.2307C58.2485 53.9018 58.3307 53.8644 58.1513 52.7059C58.099 52.3696 57.6431 49.6116 56.3276 46.6742C55.5952 45.0374 55.2439 44.2152 54.7805 43.6248C54.631 43.4379 54.4068 43.1688 54.1975 42.8175C54.1377 42.7204 54.0854 42.6232 54.0331 42.5111C53.9434 42.3242 53.8611 42.1225 53.8013 41.8982C53.8013 41.8758 53.7864 41.8534 53.7789 41.8309C53.6967 41.5245 53.5996 41.0686 53.5622 40.8817C53.48 40.5005 53.465 40.351 53.3529 39.7681C53.3305 39.641 53.3081 39.5289 53.2857 39.4018C53.2782 39.357 53.2707 39.3121 53.2557 39.2673C53.2557 39.2299 53.2408 39.1925 53.2333 39.1552C53.2259 39.1028 53.2109 39.0505 53.2034 38.9908C53.2034 38.9534 53.1885 38.916 53.181 38.8786C53.181 38.8637 53.181 38.8562 53.1735 38.8413C53.1212 38.5946 53.0614 38.3031 52.9941 37.9743C52.9941 37.9743 52.9941 37.9593 52.9941 37.9518C52.9493 37.75 52.9045 37.5333 52.8596 37.3016C52.8521 37.2493 52.8372 37.2044 52.8297 37.1521C52.8447 37.1521 52.8521 37.1521 52.8671 37.1521C53.7715 37.0773 54.5562 37.1521 55.1093 37.3165C55.356 37.3913 55.5578 37.4884 55.6923 37.6006C55.7596 37.6604 56.1632 37.9817 56.5818 38.4899C56.6341 38.5572 56.6939 38.6245 56.7537 38.6992C57.5011 39.6261 57.9944 40.2315 58.5998 41.2106C59.1678 42.1224 59.8704 43.4155 60.4758 45.0748C60.9617 46.2856 61.2382 47.2946 61.4026 47.9822C61.4026 47.9822 62.2397 51.5773 62.4341 52.2051C62.5387 52.5265 62.6658 52.833 62.6658 52.833C62.6807 52.8778 62.6957 52.9077 62.7031 52.9301C62.748 53.0198 62.89 53.259 63.9065 53.6178C63.9962 53.6551 64.1158 53.7 64.2503 53.7373C64.3848 53.7822 64.5418 53.8196 64.7137 53.857C64.908 53.9018 65.05 53.9167 65.0949 53.9242C65.633 53.9989 66.6047 54.283 67.6062 54.6791C68.1668 54.8959 68.7572 55.135 69.4673 55.5312C70.3941 56.0544 72.3897 57.2203 73.7126 59.8139C73.7276 59.8363 73.7649 59.9111 73.8173 60.0232C74.6693 61.7796 74.8637 63.6033 75.1253 66.0324C75.1701 66.4211 75.2299 67.1461 75.2822 67.6768C75.3196 68.1028 75.4018 69.1193 75.4541 70.3899C75.5139 71.967 75.4765 72.7592 75.1776 72.8489H75.1477Z" fill="url(#paint12_linear_649_1287)"/>
<path d="M71.852 68.8728C71.7324 70.2555 71.1195 70.8011 69.9535 71.7578C69.6844 71.9746 69.2435 72.2959 68.7053 72.6921C66.8891 74.015 63.9667 76.1377 62.9278 77.6774C61.5749 79.673 60.11 80.8988 59.2804 83.9034C58.4507 86.908 58.0247 88.9037 57.7481 90.7124C57.5986 91.699 56.9185 90.4134 56.3355 89.0382C57.7332 83.6866 59.5868 80.0317 60.6332 78.664C62.8007 75.8312 65.4167 73.873 65.4167 73.873C65.9847 73.4171 66.4855 73.021 66.9414 72.6697C67.3973 72.3184 67.801 72.0119 68.1597 71.7503C68.2569 71.6756 68.3914 71.5859 68.5334 71.4738C68.8548 71.2271 69.2509 70.8684 69.6471 70.3526C69.8115 70.1434 69.9311 69.9565 70.0058 69.8295C70.0058 69.8295 70.0507 69.7472 70.103 69.6052C70.1553 69.4707 70.2226 69.2838 70.2749 69.0895C70.6262 67.6395 69.8863 64.9413 69.8863 64.9413C69.662 64.1341 69.4378 63.3194 68.9968 62.1535C68.212 60.0906 67.8159 59.0592 66.9489 58.1473C66.1791 57.3326 65.4167 57.0037 64.0339 56.4133C60.9321 55.0754 59.1832 55.4267 58.4208 54.0589C58.2414 53.73 58.3237 53.6927 58.1443 52.5342C58.092 52.1978 57.636 49.4398 56.3206 46.5025C55.5881 44.8656 55.2368 44.0435 54.7734 43.453C54.6239 43.2661 54.3997 42.9971 54.1904 42.6458C54.1381 42.5412 54.0783 42.4365 54.026 42.3393C53.9363 42.1525 53.8541 41.9507 53.7943 41.7264C53.7943 41.704 53.7793 41.6816 53.7719 41.6592C53.6897 41.3528 53.5925 40.8968 53.5551 40.71C53.4729 40.3288 53.4579 40.1793 53.3458 39.5963C53.3234 39.4693 53.301 39.3572 53.2786 39.2301C53.2711 39.1852 53.2636 39.1404 53.2487 39.0956C53.2487 39.0582 53.2337 39.0208 53.2262 38.9834C53.2188 38.9311 53.2038 38.8788 53.1963 38.819C53.1963 38.7816 53.1814 38.7443 53.1739 38.7069C53.1739 38.6919 53.1739 38.6845 53.1665 38.6695C53.1141 38.4229 53.0543 38.1314 52.9871 37.8025C52.9871 37.8025 52.9871 37.7876 52.9871 37.7801C52.9422 37.5783 52.8974 37.3615 52.8525 37.1298C52.8451 37.0775 52.8301 37.0327 52.8226 36.9803C52.8376 36.9803 52.8451 36.9803 52.86 36.9803C53.5252 37.6979 54.8332 39.1927 55.2891 40.2765C55.618 41.0612 56.2309 42.8252 56.7989 44.5144C57.2997 46.0092 57.7556 47.4367 57.9275 48.072C57.9499 48.1617 57.9724 48.2589 58.0023 48.3635C58.3685 49.8883 58.8693 53.162 59.5569 53.9617C60.2894 54.8213 63.5108 54.9708 64.1834 55.3445C64.7365 55.6434 67.0834 56.2563 68.5035 58.0053C68.5334 58.0427 68.5708 58.0875 68.6007 58.1249C68.8698 58.4836 69.1089 58.8797 69.2808 59.3357C70.2899 61.9516 71.7996 66.8547 71.8893 68.5962C71.8893 68.7158 71.8893 68.8204 71.8893 68.9026L71.852 68.8728Z" fill="url(#paint13_linear_649_1287)"/>
<path d="M62.9276 64.859C62.6734 68.5737 62.6884 70.4647 61.4028 71.8325C60.2742 73.0358 58.9513 73.6337 58.9513 73.6337C57.6657 74.2167 56.6268 74.2242 56.0438 75.1585C55.8794 75.4201 55.8121 75.7191 55.6776 76.317C55.3487 77.7371 55.3562 78.8657 55.3562 79.0002C55.3562 81.3097 55.0348 85.9812 54.7059 88.8886C54.2425 92.9994 53.0915 97.2074 53.0915 97.2074H49.4441C49.4441 97.2074 49.6309 96.886 50.1392 95.9592C50.4531 95.3837 51.5294 93.3358 52.2619 91.0636C52.9644 88.8961 53.1588 87.1621 53.3083 85.8391C53.3681 85.301 53.4204 84.7031 53.4727 84.0752C53.6072 82.3935 53.7268 80.4801 53.9211 78.8657C53.966 78.4845 54.0034 78.2603 54.0781 77.8044C54.3322 76.2198 54.5041 75.6966 54.6387 75.3528C54.8106 74.9193 54.9152 74.6128 55.2067 74.3214C55.6701 73.8505 56.1783 73.6487 56.3727 73.5739C57.4938 73.1629 60.1247 72.2062 61.074 70.502C61.3206 70.0536 61.4028 69.351 61.5598 67.9459C61.6345 67.2583 61.5972 67.2284 61.7093 64.8142C61.7466 64.0369 61.769 63.2521 61.7915 62.4748C61.8214 61.4956 61.8363 60.9949 61.7167 60.382C61.6345 59.9784 61.5747 59.6719 61.3804 59.3356C61.1113 58.8722 60.7077 58.5657 59.751 58.1173C58.1067 57.3474 57.2023 57.2653 56.0662 56.4207C55.8644 56.2712 55.6402 56.0843 55.4683 55.7853C55.0348 55.0529 55.2142 54.2157 55.2665 53.9093C55.2665 53.8944 55.2665 53.8794 55.274 53.8645C55.3861 53.2217 55.3936 52.5415 55.3487 51.8763C55.2291 50.2619 54.7881 48.7671 54.691 48.3186C54.3397 46.6444 54.0034 45.9119 53.8838 45.0075C53.8389 44.6712 53.824 44.3124 53.8539 43.8714C53.8987 43.0269 54.0706 42.3392 54.2052 41.8758C54.4144 41.8011 54.676 41.7338 54.7582 41.8385C54.833 41.9357 54.7283 42.13 54.7134 42.1748C54.6162 42.3766 54.5789 42.713 54.5789 43.1016C54.5789 44.2377 54.9003 45.8073 54.9003 45.8223C55.0572 46.3828 55.2291 47.0555 55.3936 47.8253C55.5954 48.7671 55.7523 49.5369 55.842 50.5235C56.0588 53.0423 56.0588 54.7464 56.0588 54.7464C56.0588 54.866 56.0588 55.1052 56.1784 55.3743C56.4923 56.0694 57.3294 56.3085 57.6134 56.3982C58.585 56.6972 61.2608 57.6987 62.3072 58.7377C63.2863 59.7168 63.1742 61.4359 62.9425 64.8665L62.9276 64.859Z" fill="url(#paint14_linear_649_1287)"/>
<path d="M49.7656 70.6665L49.2573 82.3561L41.3122 95.7126L37.8891 97.3793H20.6236C20.1976 97.3793 19.9061 96.9458 20.0631 96.5497C23.4115 88.2982 26.76 80.0392 30.1009 71.7876C30.3625 71.1374 30.9904 70.7113 31.6929 70.7113C34.1669 70.7113 36.6334 70.6964 39.1074 70.6964C42.6576 70.6889 46.2079 70.6815 49.7581 70.674L49.7656 70.6665Z" fill="url(#paint15_linear_649_1287)"/>
<path d="M99.2746 92.3044L98.445 97.1551L94.5061 97.1925L95.2236 95.0325L93.7512 93.8067L93.8707 90.6152C93.8707 90.6152 96.4494 89.7557 95.9561 89.509C95.4628 89.2624 93.9903 88.4029 93.3774 88.2833C92.7646 88.1637 89.8197 90.3686 89.8197 90.3686L88.7136 88.1637L92.1517 85.3459L89.4759 84.7106C89.4759 84.7106 90.5522 82.2815 90.5522 81.9152C90.5522 81.549 89.446 80.1962 89.446 80.1962L87.6074 82.6477L86.0154 79.9495L82.8239 79.4562C82.8239 79.4562 85.7687 76.758 85.8883 76.3918C86.0079 76.0255 85.6416 73.574 85.6416 73.574L84.0496 70.2629H81.1048C81.1048 70.2629 79.3857 68.5439 79.0195 68.2972C78.6533 68.0506 81.7177 66.9444 81.7177 66.9444L80.6115 63.88L77.5471 62.6542L79.3857 62.0413L78.16 58.364H74.9685L78.16 57.0112L76.3213 54.1934L73.9894 53.5805L73.6231 51.129L69.9458 47.4517C69.9458 47.4517 71.2987 48.3112 71.7845 48.3112C72.2703 48.3112 75.3422 48.0646 75.3422 48.0646L74.7293 45.0001L73.9968 43.894L69.3329 44.7535C69.3329 44.7535 71.2987 42.6682 71.6649 42.5486C72.0311 42.429 70.6858 36.9055 70.6858 36.9055C70.3494 36.2927 70.0131 35.6873 69.6768 35.0744C68.0324 34.895 66.3881 34.7156 64.7438 34.5437L64.9007 34.3867L72.5244 34.1775L73.6306 41.5919L76.127 42.6981L76.8221 46.5099L75.8504 48.1767L77.4424 53.7225L79.9388 56.2189L80.2827 61.279L82.4277 62.8037L83.0481 66.5483L86.5161 68.9774L87.002 76.9449L90.8811 78.2603L93.4447 82.0722L93.3774 86.026L94.9695 86.3026L97.2566 89.2848L99.2671 92.3343L99.2746 92.3044Z" fill="url(#paint16_linear_649_1287)"/>
<path d="M71.8816 73.3423C70.6932 74.1122 69.7141 75.2408 69.7141 75.2408C69.1984 75.779 68.7126 76.3096 68.2566 76.8403C65.4837 80.0916 63.8917 83.298 63.4731 86.8109C62.9873 90.8993 63.6824 97.2748 63.6824 97.2748C63.6824 97.2748 63.6824 97.3271 63.6974 97.4093H62.0231C61.6943 94.8531 61.3878 90.4434 61.9783 86.7436C62.8378 81.3472 66.5151 77.1168 67.4345 76.3769C68.3314 75.6593 70.6783 73.6638 71.8741 73.3349L71.8816 73.3423Z" fill="url(#paint17_linear_649_1287)"/>
<path d="M62.3147 65.6812C62.225 66.8771 62.4044 70.1881 61.7616 70.7412C61.1188 71.2943 59.8332 72.6696 58.5402 73.2227C57.2546 73.7758 55.685 73.2227 55.3188 74.7848C54.9526 76.3469 54.3995 77.3634 54.3995 79.202C54.3995 81.0407 54.3098 86.1007 54.3098 86.1007L53.4652 84.0603C53.5997 82.3786 53.7193 80.4652 53.9137 78.8507C53.9585 78.4695 53.9959 78.2453 54.0706 77.7894C54.3247 76.2049 54.4966 75.6817 54.6312 75.3379C54.8031 74.9044 54.9077 74.5979 55.1992 74.3064C55.6626 73.8356 56.1709 73.6338 56.3652 73.559C57.4863 73.1479 60.1172 72.1913 61.0665 70.4871C61.3131 70.0387 61.3953 69.3361 61.5523 67.9309C61.627 67.2433 61.5897 67.2134 61.7018 64.7992C61.7391 64.0219 61.7616 63.2371 61.784 62.4598C61.8139 61.4807 61.8288 60.9799 61.7093 60.367C61.627 59.9634 61.5672 59.657 61.3729 59.3207C61.1038 58.8573 60.7002 58.5508 59.7435 58.1024C58.0992 57.3325 57.1948 57.2503 56.0588 56.4057C55.857 56.2562 55.6327 56.0694 55.4608 55.7704C55.0273 55.038 55.2067 54.2008 55.259 53.8944C55.259 53.8794 55.259 53.8645 55.2665 53.8495C55.2889 54.5372 55.401 55.1127 55.6925 55.3668C56.5221 56.0993 57.1649 56.9289 58.5477 57.3923C59.9304 57.8557 61.0291 57.6688 61.6719 59.2309C62.3147 60.793 62.4118 64.4779 62.3147 65.6737V65.6812Z" fill="url(#paint18_linear_649_1287)"/>
<path d="M37.7471 97.3718H62.397C62.8529 97.3718 63.1444 96.8859 62.9351 96.4749L49.945 70.8384C49.8104 70.5768 49.4442 70.5917 49.3321 70.8533L37.7471 97.3718Z" fill="url(#paint19_linear_649_1287)"/>
<path d="M49.7652 70.674L47.2913 97.3644C49.3616 97.3644 51.432 97.3719 53.5098 97.3793C52.2616 88.4776 51.0134 79.5758 49.7652 70.674Z" fill="url(#paint20_linear_649_1287)"/>
<path d="M49.773 70.674L48.6219 97.3718H43.7861L49.773 70.674Z" fill="url(#paint21_linear_649_1287)"/>
<path d="M49.7653 70.674C50.2361 79.5758 50.707 88.4775 51.1779 97.3718C52.7923 97.3718 54.4067 97.3718 56.0212 97.3644C53.9359 88.4701 51.8506 79.5683 49.7727 70.674H49.7653Z" fill="url(#paint22_linear_649_1287)"/>
<path d="M58.9362 49.5668C58.9362 49.5668 58.8913 49.4771 58.854 49.3799C57.8449 46.7266 56.4174 42.7578 55.1542 40.4259C54.6684 39.5289 53.9359 38.3705 52.8148 37.1223C52.8073 37.0699 52.7924 37.0251 52.7849 36.9728C53.7042 36.8906 54.5115 36.9578 55.072 37.1297C56.5968 39.4692 57.6207 42.5784 57.1274 41.263C56.7089 40.1493 55.3336 38.5947 55.1692 38.7218C55.1169 38.7666 55.2888 39.0282 55.6326 39.7158C56.0586 40.5828 56.3053 41.248 56.7911 42.5784C57.9122 45.6204 58.9885 49.5518 58.9362 49.5743V49.5668Z" fill="url(#paint23_linear_649_1287)"/>
<path d="M59.8332 44.4322C59.8332 44.4322 60.8124 46.5773 61.4253 48.7224C62.0381 50.8675 62.2848 53.0126 63.6974 53.5657C65.11 54.1188 65.9696 54.1786 65.9696 54.1786C65.9696 54.1786 63.9441 54.5448 62.4716 53.5059C60.9992 52.467 60.9992 53.0126 61.7392 53.5657C62.4791 54.1188 63.6376 54.6046 62.6585 54.3654C61.6794 54.1262 60.8198 53.6927 60.5134 52.4669C60.207 51.2412 59.9603 48.1095 59.2876 46.2708C58.615 44.4322 56.709 41.3678 57.3892 41.9807C58.0619 42.5935 59.1681 44.6788 59.4745 45.2319C59.7809 45.785 59.3549 43.9464 58.9812 43.0868C58.615 42.2273 59.8407 44.4397 59.8407 44.4397L59.8332 44.4322Z" fill="url(#paint24_linear_649_1287)"/>
<path d="M68.8846 57.1457C69.8039 58.1697 70.3943 59.1338 70.768 59.8439C71.4632 61.1593 71.7771 62.3029 72.0163 63.1774C72.1508 63.6632 72.1732 63.8277 72.4273 65.0161C73.2943 69.097 73.4289 69.224 73.242 69.7173C73.0327 70.2854 72.0835 71.0103 70.1925 72.4603C69.8039 72.7593 69.0789 73.3049 68.6304 73.6338C67.9054 74.1645 67.6065 74.3588 67.0609 74.7923C64.8111 76.5861 63.4807 78.3724 62.6436 79.516C60.1771 83.0363 59.7361 86.8557 59.8856 86.893C59.9604 86.9154 60.1397 86.0484 61.1637 83.724C61.7467 82.401 62.0531 81.706 62.5838 80.8016C63.4657 79.3067 64.3851 78.2454 64.9382 77.6549C66.0294 76.4815 66.9936 75.7639 68.0475 74.9791C69.1761 74.1346 70.2748 73.4395 71.2389 72.834C71.9266 72.4005 72.5469 71.8624 73.2644 71.4663C73.3018 71.4439 73.4289 71.3766 73.5709 71.242C73.7577 71.0627 73.8624 70.8609 73.9147 70.7338C74.266 70.0536 74.2137 69.3735 74.1838 69.0372C74.0268 67.4751 73.3766 65.5542 72.8982 63.9696C72.6217 63.0578 72.2106 61.6751 72.3152 61.6377C72.4049 61.6003 72.8683 62.5346 73.2046 63.3941C74.0642 65.599 74.0567 67.2433 74.1688 67.2284C74.2959 67.2209 74.4155 65.1356 73.8773 62.6168C73.7577 62.0563 73.683 61.69 73.5111 61.1893C73.4065 60.8828 72.5394 58.4163 70.2 56.5926C69.8637 56.331 69.5423 56.1142 69.5049 56.1516C69.4376 56.2264 70.6111 57.0785 71.5454 58.5733C72.2479 59.6944 72.6815 60.965 72.6441 60.9874C72.6291 60.9874 72.5619 60.8753 72.532 60.823C72.0536 60.0158 70.9923 58.8274 69.8562 57.5942C68.6155 56.2413 67.9876 55.5686 67.9353 55.6135C67.8979 55.6434 68.0325 55.9349 68.8995 57.1681L68.8846 57.1457Z" fill="url(#paint25_linear_649_1287)"/>
<path d="M55.3412 51.869C55.2216 50.2546 54.7806 48.7598 54.6834 48.3113C54.3322 46.6371 53.9958 45.9046 53.8762 45.0002C53.9809 45.3067 54.093 45.6131 54.2201 45.9046C54.7731 47.1902 55.3262 49.2157 55.4159 50.2322C55.4458 50.576 55.3935 51.1889 55.3412 51.8765V51.869Z" fill="url(#paint26_linear_649_1287)"/>
<path d="M89.1471 96.2283C89.1471 96.4974 89.1321 96.8562 89.1246 97.2075C88.878 97.2075 88.6014 97.2 88.3025 97.2075C88.3324 96.8711 88.3623 96.3853 88.3697 95.8023C88.4146 93.5077 88.1306 91.9008 87.8167 90.2116C87.4429 88.2085 87.2038 87.76 86.8226 87.4162C86.5087 87.1322 85.993 86.8108 85.3875 86.4446C84.8718 86.1307 84.3785 85.8541 84.1842 85.7495C83.5115 85.3833 83.0406 85.1216 82.4726 84.5984C82.4278 84.5536 82.3904 84.5162 82.3381 84.4639C82.1363 84.2397 81.3066 83.126 81.2319 82.0273C81.1945 81.4443 81.2992 81.123 81.2169 80.2485C81.187 79.9495 81.1273 79.6132 80.9852 79.1946C80.3873 77.3485 78.9971 75.9134 78.2123 74.7549C77.2257 73.3049 76.8221 70.973 76.2242 66.1596C75.8056 62.7962 76.0224 61.989 75.1404 60.681C74.4827 59.7093 73.7203 59.0815 72.943 58.5733C73.0028 58.5957 74.8489 59.4104 75.3646 60.1653C75.8878 60.9351 76.2541 61.6377 76.3737 63.4764C76.4932 65.315 76.6502 66.9145 76.9566 68.7232C77.2631 70.532 77.6592 72.7743 78.1525 73.6263C78.6458 74.4859 79.9015 76.6011 80.4247 77.0944C80.9479 77.5877 81.5907 78.933 81.6803 80.2559C81.77 81.5714 81.2169 82.8645 82.0466 83.6567C82.8762 84.4565 84.2216 85.6224 85.0811 85.8616C85.9406 86.1082 87.2561 86.6613 87.5625 87.5508C87.869 88.4402 88.2651 89.2998 88.4819 91.2281C88.6986 93.1565 89.1246 95.4585 89.1246 96.2283H89.1471Z" fill="url(#paint27_linear_649_1287)"/>
</g>
<defs>
<filter id="filter0_d_649_1287" x="0.692934" y="0.394587" width="125.412" height="133.383" filterUnits="userSpaceOnUse" color-interpolation-filters="sRGB">
<feFlood flood-opacity="0" result="BackgroundImageFix"/>
<feColorMatrix in="SourceAlpha" type="matrix" values="0 0 0 0 0 0 0 0 0 0 0 0 0 0 0 0 0 0 127 0" result="hardAlpha"/>
<feOffset dx="3.95608" dy="2.96706"/>
<feGaussianBlur stdDeviation="5.93413"/>
<feColorMatrix type="matrix" values="0 0 0 0 0 0 0 0 0 0 0 0 0 0 0 0 0 0 0.1 0"/>
<feBlend mode="normal" in2="BackgroundImageFix" result="effect1_dropShadow_649_1287"/>
<feBlend mode="normal" in="SourceGraphic" in2="effect1_dropShadow_649_1287" result="shape"/>
</filter>
<linearGradient id="paint0_linear_649_1287" x1="56.5446" y1="77.5652" x2="62.549" y2="-33.0448" gradientUnits="userSpaceOnUse">
<stop offset="0.126378" stop-color="#FBC60C"/>
<stop offset="1" stop-color="white"/>
</linearGradient>
<linearGradient id="paint1_linear_649_1287" x1="107.504" y1="122.104" x2="-151.111" y2="163.75" gradientUnits="userSpaceOnUse">
<stop stop-color="#6CC6EF"/>
<stop offset="0.28" stop-color="#5793CF"/>
<stop offset="0.61" stop-color="#415EAE"/>
<stop offset="0.86" stop-color="#333D99"/>
<stop offset="1" stop-color="#2E3192"/>
</linearGradient>
<linearGradient id="paint2_linear_649_1287" x1="89.8798" y1="112.148" x2="-12.7261" y2="99.3524" gradientUnits="userSpaceOnUse">
<stop stop-color="#6CC6EF"/>
<stop offset="0.28" stop-color="#5793CF"/>
<stop offset="0.61" stop-color="#415EAE"/>
<stop offset="0.86" stop-color="#333D99"/>
<stop offset="1" stop-color="#2E3192"/>
</linearGradient>
<linearGradient id="paint3_linear_649_1287" x1="95.4777" y1="58.5733" x2="95.2012" y2="83.0813" gradientUnits="userSpaceOnUse">
<stop offset="0.06" stop-color="#B6D55C"/>
<stop offset="0.23" stop-color="#B2D35C"/>
<stop offset="0.38" stop-color="#A7CD5E"/>
<stop offset="0.53" stop-color="#95C362"/>
<stop offset="0.67" stop-color="#7BB667"/>
<stop offset="0.81" stop-color="#5AA46E"/>
<stop offset="0.94" stop-color="#318F76"/>
<stop offset="1" stop-color="#1E857B"/>
</linearGradient>
<linearGradient id="paint4_linear_649_1287" x1="35.5046" y1="39.2599" x2="35.6092" y2="76.1302" gradientUnits="userSpaceOnUse">
<stop offset="0.06" stop-color="#B6D55C"/>
<stop offset="0.18" stop-color="#ACD05D"/>
<stop offset="0.37" stop-color="#93C263"/>
<stop offset="0.62" stop-color="#69AC6B"/>
<stop offset="0.91" stop-color="#308E77"/>
<stop offset="1" stop-color="#1E857B"/>
</linearGradient>
<linearGradient id="paint5_linear_649_1287" x1="79.6848" y1="53.1094" x2="66.7992" y2="92.8946" gradientUnits="userSpaceOnUse">
<stop stop-color="#8D989E"/>
<stop offset="0.37" stop-color="#8D989E"/>
<stop offset="0.55" stop-color="#828E92"/>
<stop offset="0.85" stop-color="#647374"/>
<stop offset="1" stop-color="#556564"/>
</linearGradient>
<linearGradient id="paint6_linear_649_1287" x1="39.623" y1="65.3823" x2="89.461" y2="65.3823" gradientUnits="userSpaceOnUse">
<stop stop-color="#788A8A"/>
<stop offset="0.42" stop-color="#7E8D92"/>
<stop offset="1" stop-color="#818F96"/>
</linearGradient>
<linearGradient id="paint7_linear_649_1287" x1="25.5865" y1="55.8376" x2="25.9004" y2="83.9332" gradientUnits="userSpaceOnUse">
<stop offset="0.06" stop-color="#B6D55C"/>
<stop offset="0.23" stop-color="#B2D35C"/>
<stop offset="0.38" stop-color="#A7CD5E"/>
<stop offset="0.53" stop-color="#95C362"/>
<stop offset="0.67" stop-color="#7BB667"/>
<stop offset="0.81" stop-color="#5AA46E"/>
<stop offset="0.94" stop-color="#318F76"/>
<stop offset="1" stop-color="#1E857B"/>
</linearGradient>
<linearGradient id="paint8_linear_649_1287" x1="82.1064" y1="53.4459" x2="50.8866" y2="80.7043" gradientUnits="userSpaceOnUse">
<stop offset="0.32" stop-color="#B2BEBB"/>
<stop offset="0.42" stop-color="#A6B3B2"/>
<stop offset="0.59" stop-color="#8B9A9F"/>
</linearGradient>
<linearGradient id="paint9_linear_649_1287" x1="72.4348" y1="60.4792" x2="24.2635" y2="80.8912" gradientUnits="userSpaceOnUse">
<stop offset="0.06" stop-color="#DEEBEC"/>
<stop offset="0.1" stop-color="#CFDCDC"/>
<stop offset="0.22" stop-color="#A4B2AF"/>
<stop offset="0.33" stop-color="#83908A"/>
<stop offset="0.44" stop-color="#6A7871"/>
<stop offset="0.54" stop-color="#5C6A61"/>
<stop offset="0.62" stop-color="#57655C"/>
</linearGradient>
<linearGradient id="paint10_linear_649_1287" x1="58.5101" y1="48.8941" x2="71.7918" y2="48.8941" gradientUnits="userSpaceOnUse">
<stop stop-color="#DEEBEC"/>
<stop offset="0.4" stop-color="#C2CECF"/>
<stop offset="0.6" stop-color="#B6C2C4"/>
<stop offset="0.95" stop-color="#99A4A8"/>
<stop offset="1" stop-color="#95A0A4"/>
</linearGradient>
<linearGradient id="paint11_linear_649_1287" x1="86.053" y1="98.8741" x2="74.5726" y2="53.0871" gradientUnits="userSpaceOnUse">
<stop stop-color="#7BC9EC"/>
<stop offset="1" stop-color="#CAEBFC"/>
</linearGradient>
<linearGradient id="paint12_linear_649_1287" x1="55.782" y1="68.5064" x2="74.5647" y2="59.1786" gradientUnits="userSpaceOnUse">
<stop stop-color="#7BC9EC"/>
<stop offset="1" stop-color="#CAEBFC"/>
</linearGradient>
<linearGradient id="paint13_linear_649_1287" x1="62.9502" y1="90.9665" x2="62.0608" y2="36.8159" gradientUnits="userSpaceOnUse">
<stop stop-color="#CAEBFC"/>
<stop offset="0.69" stop-color="#62B9E0"/>
<stop offset="0.75" stop-color="#65BAE0"/>
<stop offset="0.79" stop-color="#70BFE3"/>
<stop offset="0.84" stop-color="#81C8E8"/>
<stop offset="0.88" stop-color="#9BD4EF"/>
<stop offset="0.93" stop-color="#BBE3F8"/>
<stop offset="0.94" stop-color="#CAEBFC"/>
</linearGradient>
<linearGradient id="paint14_linear_649_1287" x1="56.4399" y1="97.5662" x2="55.9093" y2="41.7563" gradientUnits="userSpaceOnUse">
<stop stop-color="#36A9E0"/>
<stop offset="0.02" stop-color="#3CABE1"/>
<stop offset="0.13" stop-color="#5CBBE8"/>
<stop offset="0.25" stop-color="#76C7EE"/>
<stop offset="0.38" stop-color="#8BD1F2"/>
<stop offset="0.53" stop-color="#99D8F5"/>
<stop offset="0.71" stop-color="#A2DCF7"/>
<stop offset="1" stop-color="#A5DEF8"/>
</linearGradient>
<linearGradient id="paint15_linear_649_1287" x1="34.8172" y1="70.6889" x2="34.9666" y2="96.886" gradientUnits="userSpaceOnUse">
<stop stop-color="#FBB03C"/>
<stop offset="0.31" stop-color="#F09E36"/>
<stop offset="0.93" stop-color="#D67128"/>
<stop offset="1" stop-color="#D36C27"/>
</linearGradient>
<linearGradient id="paint16_linear_649_1287" x1="94.663" y1="50.4787" x2="76.7548" y2="71.5186" gradientUnits="userSpaceOnUse">
<stop stop-color="#DEEBEC"/>
<stop offset="0.4" stop-color="#C2CECF"/>
<stop offset="0.6" stop-color="#B6C2C4"/>
<stop offset="0.95" stop-color="#99A4A8"/>
<stop offset="1" stop-color="#95A0A4"/>
</linearGradient>
<linearGradient id="paint17_linear_649_1287" x1="69.3777" y1="74.0524" x2="61.6644" y2="94.7858" gradientUnits="userSpaceOnUse">
<stop stop-color="#CAEBFC"/>
<stop offset="0.28" stop-color="#74CEF5"/>
<stop offset="0.41" stop-color="#71CAF2"/>
<stop offset="0.53" stop-color="#69BFEC"/>
<stop offset="0.64" stop-color="#5BAEE0"/>
<stop offset="0.66" stop-color="#58AADE"/>
</linearGradient>
<linearGradient id="paint18_linear_649_1287" x1="60.2892" y1="57.6539" x2="51.223" y2="82.0273" gradientUnits="userSpaceOnUse">
<stop stop-color="#CAEBFC"/>
<stop offset="0.28" stop-color="#74CEF5"/>
<stop offset="0.41" stop-color="#71CAF2"/>
<stop offset="0.53" stop-color="#69BFEC"/>
<stop offset="0.64" stop-color="#5BAEE0"/>
<stop offset="0.66" stop-color="#58AADE"/>
</linearGradient>
<linearGradient id="paint19_linear_649_1287" x1="40.1089" y1="80.5324" x2="60.364" y2="99.7859" gradientUnits="userSpaceOnUse">
<stop stop-color="#FBB03C"/>
<stop offset="0.24" stop-color="#F4A438"/>
<stop offset="0.67" stop-color="#E3872F"/>
<stop offset="1" stop-color="#D36C27"/>
</linearGradient>
<linearGradient id="paint20_linear_649_1287" x1="47.2913" y1="84.0229" x2="53.5098" y2="84.0229" gradientUnits="userSpaceOnUse">
<stop stop-color="#736458"/>
<stop offset="0.45" stop-color="#675A50"/>
<stop offset="1" stop-color="#544842"/>
</linearGradient>
<linearGradient id="paint21_linear_649_1287" x1="41.6859" y1="79.1796" x2="54.4144" y2="91.2729" gradientUnits="userSpaceOnUse">
<stop offset="0.58" stop-color="#FBB03C"/>
<stop offset="0.68" stop-color="#F4A438"/>
<stop offset="0.86" stop-color="#E3872F"/>
<stop offset="1" stop-color="#D36C27"/>
</linearGradient>
<linearGradient id="paint22_linear_649_1287" x1="57.9121" y1="79.2469" x2="45.3256" y2="91.2056" gradientUnits="userSpaceOnUse">
<stop offset="0.53" stop-color="#FBB03C"/>
<stop offset="0.64" stop-color="#F4A438"/>
<stop offset="0.84" stop-color="#E3872F"/>
<stop offset="1" stop-color="#D36C27"/>
</linearGradient>
<linearGradient id="paint23_linear_649_1287" x1="58.9586" y1="49.6415" x2="54.1079" y2="36.8831" gradientUnits="userSpaceOnUse">
<stop stop-color="#62B9E0"/>
<stop offset="0.22" stop-color="#65BAE0"/>
<stop offset="0.4" stop-color="#6FBFE3"/>
<stop offset="0.56" stop-color="#80C7E8"/>
<stop offset="0.72" stop-color="#98D3EE"/>
<stop offset="0.87" stop-color="#B7E1F6"/>
<stop offset="0.94" stop-color="#CAEBFC"/>
</linearGradient>
<linearGradient id="paint24_linear_649_1287" x1="57.2322" y1="48.1618" x2="65.9621" y2="48.1618" gradientUnits="userSpaceOnUse">
<stop stop-color="#62B9E0"/>
<stop offset="0.18" stop-color="#66BBE1"/>
<stop offset="0.38" stop-color="#74C2E5"/>
<stop offset="0.6" stop-color="#8CCDEB"/>
<stop offset="0.83" stop-color="#ACDCF4"/>
<stop offset="1" stop-color="#CAEBFC"/>
</linearGradient>
<linearGradient id="paint25_linear_649_1287" x1="66.2611" y1="74.5307" x2="76.6353" y2="49.2455" gradientUnits="userSpaceOnUse">
<stop stop-color="#86D5F7"/>
<stop offset="0.37" stop-color="#87D5F7"/>
<stop offset="0.51" stop-color="#8ED7F7"/>
<stop offset="0.61" stop-color="#9ADBF8"/>
<stop offset="0.69" stop-color="#ABE1F9"/>
<stop offset="0.76" stop-color="#C1E8FB"/>
<stop offset="0.78" stop-color="#CAEBFC"/>
</linearGradient>
<linearGradient id="paint26_linear_649_1287" x1="55.5205" y1="45.9868" x2="53.7641" y2="50.7105" gradientUnits="userSpaceOnUse">
<stop stop-color="#CAEBFC"/>
<stop offset="0.28" stop-color="#74CEF5"/>
<stop offset="0.41" stop-color="#71CAF2"/>
<stop offset="0.53" stop-color="#69BFEC"/>
<stop offset="0.64" stop-color="#5BAEE0"/>
<stop offset="0.66" stop-color="#58AADE"/>
</linearGradient>
<linearGradient id="paint27_linear_649_1287" x1="85.7314" y1="65.2627" x2="76.5754" y2="89.8827" gradientUnits="userSpaceOnUse">
<stop stop-color="#CAEBFC"/>
<stop offset="0.28" stop-color="#74CEF5"/>
<stop offset="0.41" stop-color="#71CAF2"/>
<stop offset="0.53" stop-color="#69BFEC"/>
<stop offset="0.64" stop-color="#5BAEE0"/>
<stop offset="0.66" stop-color="#58AADE"/>
</linearGradient>
</defs>
</svg>
