<svg width="36" height="35" viewBox="0 0 36 35" fill="none" xmlns="http://www.w3.org/2000/svg">
<g clip-path="url(#clip0_1550_53)">
<path d="M14.3294 20.3938H3.30823C2.63527 20.3938 2.08972 20.9393 2.08972 21.6123V32.6334C2.08972 33.3064 2.63527 33.8519 3.30823 33.8519H14.3294C15.0023 33.8519 15.5479 33.3064 15.5479 32.6334V21.6123C15.5479 20.9393 15.0023 20.3938 14.3294 20.3938Z" stroke="#132758" stroke-width="2.5" stroke-linecap="round" stroke-linejoin="round"/>
<path d="M32.8798 20.3938H21.8586C21.1857 20.3938 20.6401 20.9393 20.6401 21.6123V32.6334C20.6401 33.3064 21.1857 33.8519 21.8586 33.8519H32.8798C33.5527 33.8519 34.0983 33.3064 34.0983 32.6334V21.6123C34.0983 20.9393 33.5527 20.3938 32.8798 20.3938Z" stroke="#132758" stroke-width="2.5" stroke-linecap="round" stroke-linejoin="round"/>
<path d="M32.8798 2.11617H21.8586C21.1857 2.11617 20.6401 2.66171 20.6401 3.33467V14.3558C20.6401 15.0288 21.1857 15.5743 21.8586 15.5743H32.8798C33.5527 15.5743 34.0983 15.0288 34.0983 14.3558V3.33467C34.0983 2.66171 33.5527 2.11617 32.8798 2.11617Z" stroke="#132758" stroke-width="2.5" stroke-linecap="round" stroke-linejoin="round"/>
<path d="M7.84581 3.19826L6.42725 4.77141C5.97258 5.27155 5.29058 5.48979 4.63586 5.35339L4.37215 5.29883C3.19911 5.05331 2.08972 5.95355 2.08972 7.15387V14.3558C2.08972 15.0287 2.63532 15.5743 3.30823 15.5743H14.3294C15.0023 15.5743 15.5479 15.0287 15.5479 14.3558V6.72648C15.5479 6.0172 15.1478 5.37157 14.5203 5.04421L10.1191 2.77997C9.3553 2.38896 8.42778 2.56173 7.84581 3.19826Z" stroke="#132758" stroke-width="2.5" stroke-linecap="round" stroke-linejoin="round"/>
</g>
<defs>
<clipPath id="clip0_1550_53">
<rect width="34.2819" height="34" fill="white" transform="translate(0.953003 0.979492)"/>
</clipPath>
</defs>
</svg>
