<svg width="33" height="35" viewBox="0 0 33 35" fill="none" xmlns="http://www.w3.org/2000/svg">
<g clip-path="url(#clip0_1550_17)">
<path d="M29.8056 22.0589H3.19446V33.9874H29.8056V22.0589Z" stroke="#132758" stroke-width="2.5" stroke-linecap="round" stroke-linejoin="round"/>
<path d="M15.7818 2.43187L11.2501 7.45568C10.9167 7.8287 10.4088 7.98743 9.92466 7.88425L5.6945 6.99536C4.82942 6.81282 4.01196 7.47949 4.01196 8.36044V11.7176H28.9802V8.90012C28.9802 8.37631 28.6866 7.90012 28.2183 7.65409L17.4643 2.13028C16.9009 1.83663 16.2104 1.96362 15.7897 2.43981L15.7818 2.43187Z" stroke="#132758" stroke-width="2.5" stroke-linecap="round" stroke-linejoin="round"/>
<path d="M20.6707 26.2097H12.3215V33.9874H20.6707V26.2097Z" stroke="#132758" stroke-width="2.5" stroke-linecap="round" stroke-linejoin="round"/>
<path d="M5.6072 11.7255H27.3929C29.6469 11.7255 31.4802 13.5589 31.4802 15.8128V22.0589H1.5199V15.8128C1.5199 13.5589 3.35323 11.7255 5.6072 11.7255Z" stroke="#132758" stroke-width="2.5" stroke-linecap="round" stroke-linejoin="round"/>
<path d="M12.8771 11.7255H20.1231C22.5914 11.7255 24.5914 13.7255 24.5914 16.1938V22.0589H8.40881V16.1938C8.40881 13.7255 10.4088 11.7255 12.8771 11.7255Z" stroke="#132758" stroke-width="2.5" stroke-linecap="round" stroke-linejoin="round"/>
<path d="M16.4961 21.0668V11.9557" stroke="#132758" stroke-width="2.5" stroke-linecap="round" stroke-linejoin="round"/>
</g>
<defs>
<clipPath id="clip0_1550_17">
<rect width="31.9444" height="34" fill="white" transform="translate(0.527832 0.979492)"/>
</clipPath>
</defs>
</svg>
