<svg width="40" height="35" viewBox="0 0 40 35" fill="none" xmlns="http://www.w3.org/2000/svg">
<g clip-path="url(#clip0_1550_34)">
<path d="M9.04688 23.2753L14.0035 20.6432C14.3291 20.4714 14.7 20.3809 15.0708 20.3809H24.5047C24.8756 20.3809 25.2464 20.4714 25.572 20.6432L30.5287 23.2753" stroke="#132758" stroke-width="2.5" stroke-linecap="round" stroke-linejoin="round"/>
<path d="M18.6164 2.86084L15.6859 6.10798C15.1432 6.71399 14.3201 6.9763 13.5241 6.81349L11.6609 6.42455C10.286 6.13511 8.98354 7.14815 8.92023 8.55012L8.05191 27.038C8.01573 27.7978 8.35944 28.5304 8.9745 28.9827L14.9623 33.3876C15.3512 33.677 15.8306 33.8308 16.31 33.8308H23.2655C23.754 33.8308 24.2243 33.6861 24.6132 33.3966L30.6191 28.9827C31.2341 28.5304 31.5869 27.7978 31.5507 27.029L30.601 8.38731C30.5558 7.57326 30.0854 6.84967 29.3709 6.47882L21.348 2.36337C20.4254 1.89303 19.3038 2.09202 18.6074 2.86084H18.6164Z" stroke="#132758" stroke-width="2.5" stroke-linecap="round" stroke-linejoin="round"/>
<path d="M31.6231 17.6765L35.3677 19.178C36.8692 19.7749 38.4792 18.59 38.3435 16.98L38.036 13.2264C37.9094 11.7249 36.9506 10.4224 35.5486 9.86165L30.8181 7.97125L31.6141 17.6765H31.6231Z" stroke="#132758" stroke-width="2.5" stroke-linecap="round" stroke-linejoin="round"/>
<path d="M8.76646 7.9622L4.03595 9.8526C2.63398 10.4134 1.67521 11.7159 1.54858 13.2173L1.24105 16.971C1.10538 18.581 2.71538 19.7659 4.21684 19.1689L7.96146 17.6674L8.75741 7.9622H8.76646Z" stroke="#132758" stroke-width="2.5" stroke-linecap="round" stroke-linejoin="round"/>
<path d="M25.0836 12.0957V15.2072" stroke="#132758" stroke-width="2.5" stroke-linecap="round" stroke-linejoin="round"/>
<path d="M14.51 12.0957V15.2072" stroke="#132758" stroke-width="2.5" stroke-linecap="round" stroke-linejoin="round"/>
</g>
<defs>
<clipPath id="clip0_1550_34">
<rect width="39.3727" height="34" fill="white" transform="translate(0.110474 0.979492)"/>
</clipPath>
</defs>
</svg>
