<svg width="110" height="142" viewBox="0 0 110 142" fill="none" xmlns="http://www.w3.org/2000/svg">
<g filter="url(#filter0_d_650_77)">
<mask id="mask0_650_77" style="mask-type:luminance" maskUnits="userSpaceOnUse" x="13" y="9" width="78" height="120">
<path d="M38.622 12.7879L13.2529 28.1286L16.0421 106.493L50.0449 128.231H59.1365L88.2848 106.333L90.9249 30.4494L65.0235 9.06189L38.622 12.7879Z" fill="white"/>
</mask>
<g mask="url(#mask0_650_77)">
<path d="M38.6217 12.7878L13.2526 28.1284L16.0418 106.492L50.0446 128.231H59.1362L88.2845 106.333L90.9246 30.4492L65.0232 9.06177L38.6217 12.7878Z" fill="url(#paint0_linear_650_77)"/>
<path d="M-6.74043 146.51H104.477V93.8027L-6.74043 93.8027V146.51Z" fill="url(#paint1_linear_650_77)"/>
</g>
<path d="M64.2146 76.7055C61.436 82.1455 58.6575 87.5855 55.8683 93.0255L35.3218 97.6884L32.7243 92.0461L27.1352 79.9312C25.698 76.3755 23.4518 69.4663 24.0479 60.5984C24.6548 51.6452 27.8804 45.0448 29.7967 41.7127C30.5632 40.3606 31.3723 38.7105 32.0855 36.773C32.8627 34.6438 33.3204 32.6956 33.5866 31.0562C33.4695 30.9178 32.7455 30.0342 32.9159 28.7886C33.0543 27.7879 33.693 27.1917 33.874 27.0321C34.8747 26.5211 36.5249 25.8291 38.686 25.5842C40.8151 25.35 42.561 25.6587 43.6469 25.9249C43.8172 25.9675 44.9244 26.2975 45.4779 27.4366C45.9889 28.4905 45.6589 29.4806 45.595 29.6616C46.2444 31.0349 47.1281 32.6211 48.3204 34.2819C49.6299 36.1236 50.9819 37.5821 52.1636 38.7105C54.8889 41.3613 60.2544 47.3017 63.1075 56.6488C63.4482 57.7666 63.7249 58.8524 63.9591 59.9277C65.5666 67.3052 64.8109 73.4372 64.204 76.6736L64.2146 76.7055Z" fill="url(#paint2_linear_650_77)"/>
<path d="M38.8884 25.7864C39.5484 26.9362 40.251 28.384 40.8259 30.098C41.5498 32.2591 41.8692 34.2286 41.9969 35.8255C42.0395 36.3471 42.146 36.8581 42.3376 37.3478C42.987 39.0405 43.6257 40.7438 44.2751 42.4365C44.6264 43.3734 45.1161 44.2463 45.7336 45.0341C46.6172 46.1626 47.9906 48.1746 48.8742 50.7083C50.2688 54.7112 54.1651 62.7807 53.8457 71.4038C53.2921 75.2257 53.0153 79.7395 53.4731 84.7537C53.6115 86.2228 55.3467 89.7998 55.5703 91.1412C54.197 92.1632 51.6314 93.281 50.258 94.303L44.6583 75.2257L40.8046 54.6154L40.1233 40.3499L38.5157 25.861C38.4944 25.6268 38.8351 25.5522 38.899 25.7864H38.8884Z" fill="#FEDDA4"/>
<path d="M38.739 25.9354C38.6538 25.6267 38.196 25.7012 38.2067 26.0206C38.2599 27.3087 38.6751 31.0667 38.6857 32.7381C38.6857 36.6345 38.196 39.2427 37.7169 42.7026C37.323 45.5238 36.8653 49.5053 36.6098 54.4343C36.5885 54.8814 36.5459 55.3179 36.4714 55.7544C35.822 59.5763 35.4281 64.5159 36.0882 70.1795C37.5147 82.3903 43.0824 91.1092 46.3081 95.4207C47.6282 93.7493 50.3749 95.0801 51.695 93.4087C50.5133 89.5868 48.2137 83.3697 47.5856 81.0276C45.8077 74.3101 44.69 68.8488 43.5296 63.1852C43.0079 60.6089 42.5714 58.3946 42.2521 56.7019C42.1456 56.127 42.0711 55.5521 42.0178 54.9666C41.411 47.44 40.8042 39.9028 40.1974 32.3762C40.1655 31.9503 40.0909 31.5245 39.9632 31.1093L38.7283 25.9461L38.739 25.9354Z" fill="url(#paint3_linear_650_77)"/>
<path d="M43.9665 48.1427C44.5015 48.1427 44.9352 47.709 44.9352 47.174C44.9352 46.6389 44.5015 46.2052 43.9665 46.2052C43.4315 46.2052 42.9977 46.6389 42.9977 47.174C42.9977 47.709 43.4315 48.1427 43.9665 48.1427Z" fill="#3F2F15"/>
<path d="M44.5625 53.4443C45.0975 53.4443 45.5313 53.0106 45.5313 52.4755C45.5313 51.9405 45.0975 51.5068 44.5625 51.5068C44.0275 51.5068 43.5938 51.9405 43.5938 52.4755C43.5938 53.0106 44.0275 53.4443 44.5625 53.4443Z" fill="#3F2F15"/>
<path d="M44.8503 57.3513C45.3853 57.3513 45.8191 56.9175 45.8191 56.3825C45.8191 55.8475 45.3853 55.4137 44.8503 55.4137C44.3152 55.4137 43.8815 55.8475 43.8815 56.3825C43.8815 56.9175 44.3152 57.3513 44.8503 57.3513Z" fill="#3F2F15"/>
<path d="M47.8731 53.6787C48.4081 53.6787 48.8419 53.2449 48.8419 52.7099C48.8419 52.1749 48.4081 51.7411 47.8731 51.7411C47.3381 51.7411 46.9044 52.1749 46.9044 52.7099C46.9044 53.2449 47.3381 53.6787 47.8731 53.6787Z" fill="#3F2F15"/>
<path d="M48.214 56.7552C48.7491 56.7552 49.1827 56.3215 49.1827 55.7864C49.1827 55.2514 48.7491 54.8177 48.214 54.8177C47.679 54.8177 47.2452 55.2514 47.2452 55.7864C47.2452 56.3215 47.679 56.7552 48.214 56.7552Z" fill="#3F2F15"/>
<path d="M51.8654 61.993C52.4004 61.993 52.8342 61.5592 52.8342 61.0242C52.8342 60.4891 52.4004 60.0554 51.8654 60.0554C51.3304 60.0554 50.8967 60.4891 50.8967 61.0242C50.8967 61.5592 51.3304 61.993 51.8654 61.993Z" fill="#3F2F15"/>
<path d="M48.757 60.9497C49.2921 60.9497 49.7257 60.5159 49.7257 59.9809C49.7257 59.4459 49.2921 59.0121 48.757 59.0121C48.222 59.0121 47.7882 59.4459 47.7882 59.9809C47.7882 60.5159 48.222 60.9497 48.757 60.9497Z" fill="#3F2F15"/>
<path d="M45.3825 61.5459C45.9175 61.5459 46.3513 61.1122 46.3513 60.5772C46.3513 60.0421 45.9175 59.6084 45.3825 59.6084C44.8475 59.6084 44.4137 60.0421 44.4137 60.5772C44.4137 61.1122 44.8475 61.5459 45.3825 61.5459Z" fill="#3F2F15"/>
<path d="M47.3624 65.0057C47.8974 65.0057 48.3312 64.572 48.3312 64.037C48.3312 63.5019 47.8974 63.0682 47.3624 63.0682C46.8273 63.0682 46.3936 63.5019 46.3936 64.037C46.3936 64.572 46.8273 65.0057 47.3624 65.0057Z" fill="#3F2F15"/>
<path d="M50.4179 64.9419C50.9529 64.9419 51.3867 64.5082 51.3867 63.9731C51.3867 63.4381 50.9529 63.0044 50.4179 63.0044C49.8829 63.0044 49.4491 63.4381 49.4491 63.9731C49.4491 64.5082 49.8829 64.9419 50.4179 64.9419Z" fill="#3F2F15"/>
<path d="M51.3439 85.4671C51.879 85.4671 52.3127 85.0333 52.3127 84.4983C52.3127 83.9632 51.879 83.5295 51.3439 83.5295C50.8089 83.5295 50.3751 83.9632 50.3751 84.4983C50.3751 85.0333 50.8089 85.4671 51.3439 85.4671Z" fill="#3F2F15"/>
<path d="M51.3653 69.1576C51.9003 69.1576 52.3341 68.7239 52.3341 68.1889C52.3341 67.6538 51.9003 67.2201 51.3653 67.2201C50.8303 67.2201 50.3965 67.6538 50.3965 68.1889C50.3965 68.7239 50.8303 69.1576 51.3653 69.1576Z" fill="#3F2F15"/>
<path d="M49.4598 72.628C49.9948 72.628 50.4286 72.1943 50.4286 71.6592C50.4286 71.1242 49.9948 70.6905 49.4598 70.6905C48.9247 70.6905 48.4911 71.1242 48.4911 71.6592C48.4911 72.1943 48.9247 72.628 49.4598 72.628Z" fill="#3F2F15"/>
<path d="M52.6321 72.8518C53.1672 72.8518 53.6009 72.418 53.6009 71.883C53.6009 71.3479 53.1672 70.9142 52.6321 70.9142C52.0971 70.9142 51.6635 71.3479 51.6635 71.883C51.6635 72.418 52.0971 72.8518 52.6321 72.8518Z" fill="#3F2F15"/>
<path d="M51.8339 76.397C52.3689 76.397 52.8027 75.9632 52.8027 75.4282C52.8027 74.8931 52.3689 74.4594 51.8339 74.4594C51.2989 74.4594 50.8652 74.8931 50.8652 75.4282C50.8652 75.9632 51.2989 76.397 51.8339 76.397Z" fill="#3F2F15"/>
<path d="M48.5762 75.4811C49.1113 75.4811 49.545 75.0473 49.545 74.5123C49.545 73.9773 49.1113 73.5435 48.5762 73.5435C48.0412 73.5435 47.6074 73.9773 47.6074 74.5123C47.6074 75.0473 48.0412 75.4811 48.5762 75.4811Z" fill="#3F2F15"/>
<path d="M49.6725 79.5692C50.2076 79.5692 50.6412 79.1354 50.6412 78.6004C50.6412 78.0654 50.2076 77.6317 49.6725 77.6317C49.1375 77.6317 48.7037 78.0654 48.7037 78.6004C48.7037 79.1354 49.1375 79.5692 49.6725 79.5692Z" fill="#3F2F15"/>
<path d="M49.7363 82.6244C50.2713 82.6244 50.7051 82.1907 50.7051 81.6557C50.7051 81.1206 50.2713 80.6869 49.7363 80.6869C49.2012 80.6869 48.7676 81.1206 48.7676 81.6557C48.7676 82.1907 49.2012 82.6244 49.7363 82.6244Z" fill="#3F2F15"/>
<path d="M52.4832 81.0274C53.0182 81.0274 53.4519 80.5937 53.4519 80.0586C53.4519 79.5236 53.0182 79.0899 52.4832 79.0899C51.9482 79.0899 51.5144 79.5236 51.5144 80.0586C51.5144 80.5937 51.9482 81.0274 52.4832 81.0274Z" fill="#3F2F15"/>
<path d="M47.3624 69.0194C47.8974 69.0194 48.3312 68.5857 48.3312 68.0506C48.3312 67.5156 47.8974 67.0819 47.3624 67.0819C46.8273 67.0819 46.3936 67.5156 46.3936 68.0506C46.3936 68.5857 46.8273 69.0194 47.3624 69.0194Z" fill="#3F2F15"/>
<path d="M53.0897 66.3684C53.6247 66.3684 54.0585 65.9347 54.0585 65.3997C54.0585 64.8646 53.6247 64.4309 53.0897 64.4309C52.5546 64.4309 52.1208 64.8646 52.1208 65.3997C52.1208 65.9347 52.5546 66.3684 53.0897 66.3684Z" fill="#3F2F15"/>
<path d="M46.5854 50.2612C47.1204 50.2612 47.5542 49.8275 47.5542 49.2925C47.5542 48.7574 47.1204 48.3237 46.5854 48.3237C46.0503 48.3237 45.6166 48.7574 45.6166 49.2925C45.6166 49.8275 46.0503 50.2612 46.5854 50.2612Z" fill="#3F2F15"/>
<path opacity="0.29" d="M64.2147 76.7054C61.4362 82.1455 58.6577 87.5855 55.8684 93.0255L35.322 97.6884L32.7244 92.0461C38.5477 90.1192 46.383 87.3406 50.2794 85.1369C56.4859 81.6345 63.1182 62.472 63.9699 59.9489C65.5774 67.3265 64.8215 73.4585 64.2147 76.6948V76.7054Z" fill="url(#paint4_linear_650_77)"/>
<path opacity="0.18" d="M45.9357 32.5574C46.6596 33.8775 49.9279 38.6361 54.2714 42.7135C56.3899 44.6936 58.9981 48.409 58.2742 49.3139C57.5503 50.2188 55.2828 46.3757 53.1217 43.4587C50.9606 40.5524 44.0088 33.3239 44.1685 31.4076C44.3282 29.502 45.2012 31.2373 45.9357 32.5574Z" fill="#FEDDA4"/>
<path opacity="0.29" d="M32.011 39.1896C29.2005 45.0767 25.4958 49.9419 24.676 61.7375C23.8563 73.533 30.7655 84.3811 30.7655 84.3811C30.7655 84.3811 25.4852 67.9333 26.9117 59.4912C28.5405 49.8354 32.4901 41.6594 33.5547 37.6885C34.8641 32.7808 33.6611 33.856 33.6611 33.856L32.011 39.1896Z" fill="#FEDDA4"/>
<path d="M11.5816 103.065C11.1451 102.969 10.7086 102.841 10.2828 102.692C9.64403 102.468 8.98405 102.16 8.61144 101.585C8.12173 100.829 8.28136 99.8388 8.15361 98.9446C8.07909 98.4762 7.91944 98.0184 7.85556 97.55C7.66394 96.166 8.31334 94.7927 9.05855 93.6217C7.67459 92.2377 7.12097 90.0979 7.55745 88.1923C7.98328 86.2974 9.346 84.6473 11.0706 83.7636C12.1139 83.2314 13.4339 82.9865 14.4134 83.6252C14.2963 81.5812 15.4141 79.5798 17.0323 78.3343C18.693 77.0674 20.8222 76.5245 22.9088 76.4819C24.0692 76.4606 25.2615 76.5884 26.3048 77.11C27.4439 77.6742 28.3913 78.7708 28.4552 80.0695C29.0407 80.176 29.6475 80.1228 30.2437 80.1121C31.138 80.0908 32.0429 80.1441 32.8946 80.3996C33.7462 80.6551 34.5447 81.1448 35.077 81.8581C35.3537 82.22 35.5454 82.6458 35.737 83.061C36.0564 83.7424 36.3757 84.4237 36.6951 85.105C37.6638 85.1689 38.6539 85.2434 39.5588 85.5841C40.4637 85.9248 41.326 86.6061 41.6454 87.5323C41.7945 87.9687 41.8264 88.4372 41.8051 88.8949C41.8051 89.1611 41.7732 89.4272 41.6774 89.6827C41.4538 90.2682 40.847 90.7367 40.8895 91.3648V91.5777C41.5922 93.4088 41.9222 95.3783 41.8797 97.3264C41.869 97.9439 41.8157 98.572 41.5709 99.1469C41.2409 99.8921 40.6128 100.467 39.9528 100.946C38.8137 101.787 37.5042 102.447 36.1096 102.703C34.7788 102.947 33.3523 102.788 32.1706 102.149C32.2558 103.501 32.1387 104.928 31.3616 106.035C30.957 106.62 30.3928 107.078 29.8073 107.483C27.8058 108.898 25.4424 109.899 22.9939 109.91C22.1209 109.91 21.2161 109.782 20.5028 109.282C19.1721 108.345 18.9485 106.471 18.0543 105.109C16.9684 105.332 15.8293 105.332 14.7434 105.109C14.243 105.002 13.7321 104.842 13.3275 104.523C12.923 104.204 12.6355 103.725 12.6462 103.224C12.2949 103.182 11.9329 103.118 11.5816 103.033V103.065Z" fill="url(#paint5_radial_650_77)"/>
<path d="M33.7569 97.4755C33.3098 98.6465 33.3843 100.052 32.5646 100.989C31.8087 101.862 30.5312 102.043 29.3708 102.085C28.615 102.117 27.8484 102.106 27.1352 101.851C26.5922 101.659 26.1026 101.319 25.6341 100.999C23.5476 102.351 20.8967 102.798 18.4801 102.234C17.49 102 16.4148 101.478 16.1593 100.488C15.9464 99.7111 16.3297 98.8914 16.3297 98.0823C14.9032 97.8374 13.6363 96.8474 13.0401 95.5273C12.923 95.2824 12.8379 95.0163 12.6569 94.814C12.4652 94.6011 12.1671 94.4521 12.082 94.1859C12.0394 94.0369 12.0607 93.8878 12.082 93.7388C12.2949 92.4719 12.5185 91.1519 13.253 90.1086C13.6469 89.555 14.158 89.0972 14.669 88.6394C14.5412 87.1277 15.297 85.5628 16.5639 84.7218C17.8627 83.8595 19.6512 83.7849 21.0138 84.5514C21.3864 83.6572 22.2381 83.0291 23.1536 82.7523C24.0692 82.4755 24.9954 82.4862 25.9109 82.6139C27.2417 82.7949 28.6895 83.3059 29.275 84.5089C29.5944 85.1583 29.605 85.9141 29.7541 86.6167C30.4035 86.7977 31.0635 86.9893 31.6597 87.3087C32.2558 87.6281 32.8414 88.1178 33.1394 88.7459C33.6079 89.7147 33.4056 90.8644 33.2459 91.9077C34.0762 92.4506 34.9811 93.1 35.1834 94.0688C35.2366 94.3243 35.2367 94.5905 35.226 94.8566C35.226 95.2718 35.1941 95.7189 34.9918 96.0809C34.6831 96.6238 34.0337 96.9113 33.7463 97.4755H33.7143H33.7569Z" fill="url(#paint6_radial_650_77)"/>
<path d="M27.1455 87.2023C26.6771 87.0852 26.1554 87.1171 25.6977 87.2874C24.9525 86.6593 24.0475 86.1377 23.0681 86.0845C22.0887 86.0312 21.0987 86.4784 20.6941 87.33C20.6089 87.511 20.5451 87.7133 20.4173 87.8623C20.0873 88.2456 19.4912 88.1923 18.9908 88.2669C17.9795 88.4159 17.1065 89.2782 16.9681 90.3002C16.8403 91.1732 17.2129 92.0568 17.149 92.9297C17.1171 93.3236 17.0106 93.7069 16.9574 94.0901C16.9042 94.4734 16.9361 94.8992 17.149 95.2292C17.4365 95.6444 18.0327 95.8148 18.4904 95.6018C18.5756 95.9319 18.2562 96.2832 18.384 96.6025C18.4372 96.7303 18.5649 96.8261 18.6927 96.89C19.3634 97.2413 20.1618 97.1881 20.9177 97.1242C20.8219 97.6991 21.1093 98.3059 21.6203 98.5933C22.291 98.9766 23.1426 98.7637 23.8559 98.4549C24.3243 98.2633 24.7715 98.0291 25.2079 97.7736C25.5486 97.5713 25.8786 97.3478 26.1235 97.039C26.3683 96.7303 26.5068 96.3364 26.4322 95.9638C26.9539 95.8573 27.2839 96.3683 27.7097 96.6025C28.4124 96.9964 29.3491 96.5813 29.775 95.9106C30.2008 95.2399 30.2434 94.3776 30.1902 93.5791C30.1795 93.3449 30.1583 93.1001 30.2328 92.8765C30.318 92.6104 30.5308 92.3975 30.6586 92.1526C30.9993 91.5351 30.8183 90.726 30.3605 90.1938C29.9028 89.6615 29.2214 89.374 28.5294 89.2356C28.6891 88.5543 28.3165 87.7985 27.7203 87.4258C27.5394 87.3194 27.3478 87.2342 27.1455 87.181V87.2023Z" fill="url(#paint7_radial_650_77)"/>
<path d="M27.3907 91.9716C27.7314 91.5352 27.7314 90.9071 27.5184 90.3961C27.3055 89.8851 26.901 89.4805 26.4752 89.1292C25.9535 88.7034 25.3361 88.3414 24.6654 88.3627C24.2076 88.384 23.7711 88.5756 23.356 88.7779C22.5256 89.1611 21.6952 89.555 20.982 90.1406C20.2687 90.7261 19.6938 91.5139 19.566 92.4188C19.5235 92.7062 19.5341 93.0149 19.6299 93.2917C19.9386 94.1434 21.0458 94.6012 21.1309 95.5061C21.1629 95.8361 21.0671 96.2193 21.2907 96.4429C21.3652 96.5174 21.4716 96.56 21.5675 96.6026C22.0891 96.7942 22.664 96.8581 23.2069 96.7729C23.6647 96.6984 24.1544 96.4961 24.346 96.0703C24.4631 95.8041 24.4631 95.4741 24.6547 95.2505C24.9315 94.9312 25.4213 95.0057 25.8364 95.0164C26.4539 95.0164 27.0607 94.8247 27.5504 94.4521C27.7314 94.3137 27.9123 94.1327 27.9869 93.9092C28.0933 93.6004 27.9869 93.2598 27.8059 92.9936C27.6249 92.7275 27.3588 92.5359 27.0926 92.3442L27.3907 91.9716Z" fill="url(#paint8_radial_650_77)"/>
<path d="M25.3999 92.5573C25.6554 92.0037 24.8676 91.003 24.2821 90.8326C24.2288 90.7581 24.165 90.673 24.0905 90.5878C23.4091 89.8532 22.781 90.9391 22.3232 91.9292C22.1848 92.0143 22.0358 92.1101 21.8868 92.2485C21.1096 92.9618 22.3658 93.6325 23.3984 94.0903C23.4943 94.0583 23.5794 94.037 23.6539 94.0157C24.2927 94.6439 26.0067 93.047 25.4105 92.5573H25.3999Z" fill="url(#paint9_radial_650_77)"/>
<path d="M64.3211 114.487C64.3211 114.487 64.2572 114.509 64.2252 114.509" stroke="#6E5841" stroke-width="0.28809" stroke-miterlimit="10"/>
<path d="M67.4509 60.2577C67.3231 60.5132 67.1954 60.8113 67.057 61.1519" stroke="#6E5841" stroke-width="0.29917" stroke-miterlimit="10"/>
<path d="M33.267 102.373C33.267 102.373 28.998 106.663 27.5928 105.641C27.5715 105.62 27.5395 105.609 27.5182 105.588C27.135 104.991 26.5282 103.81 26.805 102.511C27.0286 101.425 27.7844 100.648 28.6041 100.073C29.36 99.9879 30.8185 99.8389 30.9995 99.9879C31.2337 100.19 33.2777 102.383 33.2777 102.383L33.267 102.373Z" fill="url(#paint10_linear_650_77)"/>
<path d="M59.541 93.9201C53.6113 100.403 33.267 102.373 33.267 102.373C33.267 102.373 31.223 100.18 30.9888 99.9775C30.8185 99.8285 29.3494 99.9775 28.5935 100.063C29.0193 99.7646 29.4559 99.5198 29.8391 99.3175C34.321 96.9541 37.0569 97.1883 41.7092 95.6128C42.5502 95.3253 42.7524 95.2295 48.5118 92.3551C51.631 90.8008 54.3139 88.512 56.3153 85.6695C56.6879 85.1372 57.0604 84.573 57.433 83.9769C58.6041 82.0713 60.9782 78.1323 61.915 72.6923C62.4579 69.5198 62.1917 67.7207 63.4479 64.1437C63.9164 62.8236 64.4273 61.7058 64.8744 60.8328C64.917 60.7583 64.9384 60.6944 64.9597 60.6199C66.0136 59.5234 67.5573 59.8215 68.9625 62.0465C68.3344 80.2721 65.4601 87.4474 59.5303 93.9307L59.541 93.9201Z" fill="url(#paint11_radial_650_77)"/>
<path d="M78.874 74.9595C78.6611 76.748 78.3205 78.7175 77.7456 80.7935C77.1601 82.9333 76.351 85.2008 75.2225 87.511C67.5363 103.256 51.3226 108.579 47.2346 109.793C45.2758 110.325 41.1346 111.155 36.1523 109.92C32.3624 108.984 29.6158 107.216 27.9976 105.96C27.8486 105.843 27.7101 105.737 27.5824 105.63C27.8166 105.801 28.1254 105.822 28.4873 105.747C28.9132 105.651 29.4029 105.417 29.9032 105.109C31.5214 104.108 33.2566 102.362 33.2566 102.362C33.2566 102.362 53.6009 100.392 59.5306 93.9091C65.4603 87.4258 68.3347 80.2505 68.9628 62.0249C67.5575 59.7999 66.0139 59.5125 64.9599 60.5983C65.1196 60.1406 65.0557 59.6189 64.7576 59.2144C64.0656 58.2669 63.2992 56.9788 62.7137 55.3712C62.3092 54.2641 62.0855 53.2314 61.9471 52.3585C61.8726 51.8581 62.043 51.3578 62.4049 51.0171C62.6604 50.7829 63.0011 50.5487 63.4482 50.3996C64.2466 50.1441 64.9812 50.3145 65.4816 50.538C65.0877 50.719 64.6192 50.9745 63.9592 51.1448C62.16 51.6239 66.5142 59.1824 67.3553 59.5337C68.0472 59.8212 69.4951 58.9908 70.4213 57.9688C70.4958 58.0327 70.5916 58.0966 70.6768 58.1498C72.1991 59.0228 75.0948 61.0348 77.0856 64.7715C79.4809 69.2747 79.0763 73.5117 78.874 74.9595Z" fill="url(#paint12_linear_650_77)"/>
<path d="M70.421 57.9689C69.5055 58.9909 68.047 59.8213 67.355 59.5338C66.5246 59.1825 62.1598 51.624 63.9589 51.1449C64.619 50.9746 65.0874 50.7191 65.4813 50.5381C65.5878 50.5807 65.673 50.6233 65.7581 50.6659C66.003 50.8043 66.2052 50.9959 66.3436 51.2407C67.5465 53.306 68.7389 55.3713 69.9419 57.426C70.059 57.6389 70.2187 57.8199 70.3997 57.9583L70.421 57.9689Z" fill="url(#paint13_linear_650_77)"/>
<path d="M77.7559 80.7935C77.1704 82.9333 76.3613 85.2009 75.2329 87.511C67.5466 103.256 51.333 108.579 47.245 109.793C45.2861 110.325 41.1449 111.155 36.1626 109.92C32.3727 108.984 29.6261 107.216 28.0079 105.96C28.1676 105.896 28.338 105.822 28.4977 105.747C28.9448 105.545 29.4132 105.321 29.9135 105.109C31.8936 104.246 34.3315 103.427 37.8979 104.14C44.0618 105.375 60.4777 99.626 65.1405 92.4294C68.1426 87.7984 73.966 83.3698 77.7559 80.7935Z" fill="url(#paint14_linear_650_77)"/>
<path d="M48.2354 106.365C48.2354 106.365 45.0842 111.528 43.466 110.857C43.4341 110.857 43.4128 110.836 43.3809 110.815C42.8699 110.315 42.0075 109.314 41.9649 107.983C41.933 106.876 42.4866 105.95 43.1467 105.194C43.8599 104.938 45.2545 104.449 45.4567 104.555C45.7335 104.694 48.2248 106.354 48.2248 106.354L48.2354 106.365Z" fill="url(#paint15_linear_650_77)"/>
<path d="M71.8368 92.0568C67.5679 99.7324 48.2351 106.365 48.2351 106.365C48.2351 106.365 45.7439 104.704 45.4671 104.566C45.2648 104.459 43.8703 104.949 43.157 105.204C43.4976 104.821 43.8703 104.48 44.2003 104.193C48.0115 100.861 50.7263 100.446 54.8888 97.8481C55.634 97.3797 55.8042 97.2307 60.7545 93.1001C63.4266 90.8645 65.5132 88.022 66.8014 84.7857C67.0462 84.1789 67.2805 83.5401 67.4934 82.8801C68.196 80.7509 69.5906 76.3755 69.2393 70.8609C69.0371 67.6459 68.3556 65.9532 68.7495 62.1952C68.8986 60.8006 69.1329 59.5977 69.3777 58.6395C69.399 58.565 69.4096 58.4905 69.4202 58.4053C70.1974 57.0959 71.7624 57.032 73.6467 58.8631C77.2557 76.7375 76.1165 84.3812 71.8582 92.0674L71.8368 92.0568Z" fill="url(#paint16_radial_650_77)"/>
<path d="M85.6127 82.1882C85.4317 82.9867 85.2294 83.7638 85.0058 84.5303C80.4387 100.105 67.0675 108.313 63.5438 110.346C61.7659 111.315 57.9228 113.093 52.7915 113.04C48.6822 112.997 45.4992 111.805 43.6681 110.953C43.6042 110.921 43.5297 110.889 43.4658 110.857C43.5616 110.9 43.6787 110.921 43.7852 110.921C43.9981 110.921 44.2217 110.847 44.4665 110.719C46.1166 109.835 48.2352 106.376 48.2352 106.376C48.2352 106.376 67.5679 99.7432 71.8369 92.0676C76.0952 84.3919 77.2344 76.7376 73.6255 58.8632C71.7412 57.0321 70.1761 57.096 69.399 58.4055C69.4416 57.9157 69.2606 57.4367 68.8773 57.1067C67.9831 56.3402 66.9398 55.2756 65.9924 53.8384C65.343 52.8483 64.8852 51.9009 64.5552 51.0811C64.3742 50.6127 64.4168 50.0804 64.6936 49.6652C64.8852 49.3778 65.162 49.0691 65.5665 48.8242C66.2904 48.3877 67.0356 48.3877 67.5679 48.4835C67.2166 48.7497 66.8227 49.101 66.2265 49.431C64.5871 50.3146 70.5807 56.6595 71.475 56.8086C72.2096 56.9257 73.4338 55.7866 74.0938 54.573C74.1896 54.6155 74.2855 54.6581 74.3813 54.6901C76.0633 55.1904 79.3529 56.4679 82.1528 59.651C85.5275 63.4729 86.113 67.6886 86.2514 69.1471C86.6772 72.7667 86.7198 77.2592 85.6127 82.2095V82.1882Z" fill="url(#paint17_linear_650_77)"/>
<path d="M74.1046 54.5624C73.4445 55.7654 72.2203 56.9151 71.4858 56.798C70.5915 56.649 64.5978 50.3041 66.2373 49.4205C66.8335 49.1011 67.238 48.7391 67.5787 48.473C67.6851 48.4943 67.7916 48.5156 67.8768 48.5369C68.1429 48.6114 68.3878 48.7604 68.5795 48.9521C70.2189 50.6767 71.869 52.4119 73.5191 54.1366C73.6788 54.3069 73.881 54.4559 74.0939 54.5518L74.1046 54.5624Z" fill="url(#paint18_linear_650_77)"/>
<path d="M85.0168 84.5301C80.4497 100.105 67.0785 108.313 63.5548 110.346C61.7769 111.315 57.9338 113.093 52.8025 113.04C48.6932 112.997 45.5102 111.805 43.6791 110.953C43.7217 110.942 43.7536 110.932 43.7962 110.921C43.9984 110.857 44.222 110.793 44.4775 110.719C46.298 110.165 51.6954 109.984 56.9864 108.366C64.0552 106.205 70.1765 97.2093 75.0736 91.8119C77.8628 88.7352 81.2482 86.2654 85.0168 84.5408V84.5301Z" fill="url(#paint19_linear_650_77)"/>
<path d="M84.2498 89.1612C81.8651 97.614 64.5657 108.505 64.5657 108.505C64.5657 108.505 61.7551 107.461 61.4571 107.387C61.2335 107.334 59.988 108.121 59.3599 108.537C59.6047 108.079 59.8815 107.664 60.137 107.312C63.0752 103.192 65.6303 102.17 69.0902 98.6785C69.7076 98.0504 69.846 97.8695 73.7104 92.7169C75.797 89.9277 77.1809 86.6807 77.6813 83.2314C77.7771 82.5821 77.8622 81.9114 77.9155 81.2194C78.1071 78.9944 78.4584 74.4061 76.8509 69.1257C75.9141 66.0491 74.8708 64.5587 74.3811 60.8007C74.2001 59.4061 74.1576 58.1818 74.1682 57.1917C74.1682 57.1066 74.1682 57.0321 74.1469 56.9575C74.5941 55.5097 76.1057 55.0839 78.3626 56.4359C85.9744 73.0008 86.6238 80.7084 84.2392 89.1612H84.2498Z" fill="url(#paint20_radial_650_77)"/>
<path d="M80.3749 108.867C78.8632 110.219 75.5417 112.827 70.5275 113.955C66.365 114.892 62.8945 114.402 60.9569 113.966C61.3934 114.04 61.8405 113.721 62.2663 113.21C62.9264 112.412 63.5438 111.123 63.959 110.101C64.3316 109.197 64.5659 108.494 64.5659 108.494C64.5659 108.494 72.0072 103.81 77.7986 98.1994C80.8433 95.2611 83.4303 92.0567 84.25 89.1504C84.8142 87.1597 85.208 85.2115 85.3784 83.1781C85.9426 76.5777 84.1967 69.1043 78.3841 56.4571C78.3841 56.4464 78.3841 56.4358 78.3735 56.4251C78.1499 56.2868 77.937 56.1696 77.7241 56.0738C75.8291 55.1689 74.5623 55.648 74.1578 56.9468C74.0939 56.4677 73.7958 56.0313 73.3593 55.8077C73.3274 55.7864 73.2848 55.7758 73.2529 55.7545C72.2309 55.2115 71.0065 54.4344 69.8035 53.2953C68.9412 52.4862 68.2813 51.6665 67.7703 50.9425C67.4828 50.5274 67.3976 50.0057 67.5786 49.5373C67.685 49.2499 67.8554 48.9305 68.1215 48.6324C68.1535 48.5898 68.196 48.5579 68.228 48.5153C68.8241 47.9298 69.5587 47.7594 70.1016 47.7275C69.8248 48.0682 69.5161 48.5047 69.0157 48.9518C68.9306 49.0263 68.8668 49.1221 68.8455 49.2286C68.6645 50.1122 70.6978 51.8687 72.6247 53.1995C74.0619 54.1895 75.4458 54.9454 75.8078 54.9134C76.553 54.8602 77.4792 53.4656 77.8412 52.1455C77.937 52.1668 78.0435 52.1775 78.1499 52.1881C79.8959 52.2946 83.3876 52.7736 86.8475 55.2328C91.01 58.1817 92.5537 62.1526 93.0115 63.5366C93.6715 65.357 94.289 67.4436 94.7254 69.7537C95.1087 71.7977 95.3642 74.0227 95.3855 76.3967C95.5771 93.9198 83.4728 105.95 80.3642 108.867H80.3749Z" fill="url(#paint21_linear_650_77)"/>
<path d="M77.8519 52.1562C77.49 53.4869 76.5638 54.8815 75.8185 54.9241C74.9136 54.988 67.6213 50.1867 69.0265 48.9518C69.5375 48.5047 69.8462 48.0682 70.1124 47.7275C70.2295 47.7275 70.3254 47.7275 70.4212 47.7275C70.698 47.7275 70.9747 47.8233 71.2089 47.9724C73.2104 49.2818 75.2011 50.5806 77.2026 51.89C77.4048 52.0178 77.6284 52.1136 77.8519 52.1668V52.1562Z" fill="url(#paint22_linear_650_77)"/>
<path d="M80.375 108.867C78.8633 110.219 75.5418 112.827 70.5276 113.955C66.3651 114.892 62.8945 114.402 60.957 113.966C60.9251 113.966 60.9038 113.966 60.8719 113.945C60.8187 113.913 60.7654 113.881 60.7122 113.838C60.9251 113.476 58.7852 111.07 59.6901 111.092C59.7433 111.092 64.4063 111.656 64.4595 111.666C66.6951 111.826 71.9009 111.251 82.9832 100.382C92.4367 91.1093 94.7575 69.7432 94.7575 69.7432C95.1408 71.7872 95.3963 74.0121 95.4175 76.3862C95.6092 93.9092 83.5049 105.939 80.3963 108.856L80.375 108.867Z" fill="url(#paint23_linear_650_77)"/>
<path d="M64.5659 108.505C64.5659 108.505 64.3316 109.207 63.959 110.112C63.5332 111.134 62.9264 112.412 62.2664 113.221C61.8405 113.732 61.3934 114.051 60.957 113.977C60.925 113.977 60.9038 113.976 60.8718 113.955C60.8186 113.923 60.7654 113.891 60.7121 113.849C60.2118 113.529 59.5198 112.986 59.1046 112.167C58.9981 111.964 58.913 111.752 58.8491 111.517C58.5617 110.442 58.8917 109.409 59.3601 108.536C59.9882 108.121 61.2337 107.323 61.4573 107.387C61.7554 107.461 64.5659 108.505 64.5659 108.505Z" fill="url(#paint24_linear_650_77)"/>
<path opacity="0.15" d="M74.7538 56.2229C77.0853 55.5415 79.5232 56.7977 81.6843 63.6749C83.8454 70.5521 87.1882 79.5585 84.9951 86.8509C82.8021 94.1433 80.6836 95.3144 80.6836 95.3144C80.6836 95.3144 87.2521 82.0816 82.5253 70.5734C77.7986 59.0759 78.4799 57.9156 76.2123 57.7665C73.9448 57.6175 74.7538 56.2229 74.7538 56.2229Z" fill="#FEDDA4"/>
<path opacity="0.15" d="M66.5672 59.8532C64.4486 60.9071 62.4365 65.6871 62.6494 67.7524C62.8624 69.8177 61.7232 77.653 58.3591 82.8269C54.9951 88.0008 55.1973 88.6076 56.3684 87.2556C57.5394 85.8929 61.1909 81.8262 62.362 75.3003C63.533 68.7744 64.2783 63.3025 65.5346 62.5466C66.7908 61.7907 66.5672 59.8532 66.5672 59.8532Z" fill="#FEDDA4"/>
<path opacity="0.15" d="M69.8782 69.3385C68.8669 64.8247 68.1322 59.1398 71.1343 58.1391C72.1776 57.7878 72.9762 58.384 73.3594 59.8531C73.7427 61.3222 72.5503 58.4798 71.0919 58.8524C69.6334 59.225 69.4311 63.7814 69.9102 65.4954C70.3892 67.2094 69.8782 69.3385 69.8782 69.3385Z" fill="#FEDDA4"/>
<path opacity="0.19" d="M31.8727 99.2426C35.322 97.6989 39.4951 96.7728 40.9217 96.8686C42.3482 96.9644 36.7804 99.4661 39.0587 99.4981C41.3369 99.5407 48.6824 97.5286 46.6704 98.8274C44.6583 100.126 35.5988 102.5 33.8741 101.414C32.1495 100.328 31.8621 99.2319 31.8621 99.2319L31.8727 99.2426Z" fill="#FEDDA4"/>
<path opacity="0.19" d="M53.6114 99.3171C50.7264 101.042 44.9776 102.564 46.6596 104.235C48.3417 105.918 55.2721 103.033 57.561 101.148C59.8498 99.2639 53.1111 103.001 52.4617 101.872C51.8123 100.744 55.4957 99.6791 53.6007 99.3065L53.6114 99.3171Z" fill="#FEDDA4"/>
<path opacity="0.19" d="M64.4489 104.033C63.7463 105.545 65.3006 105.652 66.5568 104.779C67.8236 103.906 66.5781 107.909 64.2041 107.493C61.8301 107.089 61.7129 107.078 62.2985 105.556C62.884 104.033 64.4489 104.023 64.4489 104.023V104.033Z" fill="#FEDDA4"/>
</g>
<circle cx="59.3876" cy="21.9528" r="6.6492" fill="url(#paint25_linear_650_77)"/>
<path d="M17.0008 25.4185C19.6601 22.875 22.2641 24.3587 23.2336 25.4185C26.0591 25.4185 26.4885 27.4056 26.35 28.3992C28.5107 28.3992 28.4968 30.1214 28.2198 30.9825H7.44385C7.94247 28.5979 11.2528 28.2667 12.8456 28.3992C12.5132 25.3787 15.4772 25.1536 17.0008 25.4185Z" fill="url(#paint26_linear_650_77)"/>
<path d="M74.6393 34.8204C76.8554 32.6022 79.0253 33.8962 79.8333 34.8204C82.1879 34.8204 82.5457 36.5534 82.4303 37.4199C84.2309 37.4199 84.2193 38.9218 83.9885 39.6727H66.6752C67.0907 37.5932 69.8493 37.3043 71.1766 37.4199C70.8996 34.7857 73.3697 34.5894 74.6393 34.8204Z" fill="url(#paint27_linear_650_77)"/>
<defs>
<filter id="filter0_d_650_77" x="0.158538" y="0.902445" width="109.767" height="140.928" filterUnits="userSpaceOnUse" color-interpolation-filters="sRGB">
<feFlood flood-opacity="0" result="BackgroundImageFix"/>
<feColorMatrix in="SourceAlpha" type="matrix" values="0 0 0 0 0 0 0 0 0 0 0 0 0 0 0 0 0 0 127 0" result="hardAlpha"/>
<feOffset dx="3.62642" dy="2.71981"/>
<feGaussianBlur stdDeviation="5.43963"/>
<feColorMatrix type="matrix" values="0 0 0 0 0 0 0 0 0 0 0 0 0 0 0 0 0 0 0.1 0"/>
<feBlend mode="normal" in2="BackgroundImageFix" result="effect1_dropShadow_650_77"/>
<feBlend mode="normal" in="SourceGraphic" in2="effect1_dropShadow_650_77" result="shape"/>
</filter>
<linearGradient id="paint0_linear_650_77" x1="52.0886" y1="9.06177" x2="52.0886" y2="128.231" gradientUnits="userSpaceOnUse">
<stop stop-color="#ADE6FF"/>
<stop offset="1" stop-color="#388FF3"/>
</linearGradient>
<linearGradient id="paint1_linear_650_77" x1="48.8734" y1="93.8134" x2="48.8734" y2="146.521" gradientUnits="userSpaceOnUse">
<stop stop-color="#6A3B18"/>
<stop offset="0.62" stop-color="#8B5524"/>
</linearGradient>
<linearGradient id="paint2_linear_650_77" x1="49.3863" y1="97.4775" x2="38.0657" y2="25.9986" gradientUnits="userSpaceOnUse">
<stop offset="0.13" stop-color="#FCAF17"/>
<stop offset="0.19" stop-color="#FBAB1B"/>
<stop offset="0.26" stop-color="#F99F28"/>
<stop offset="0.32" stop-color="#F78F3C"/>
<stop offset="0.5" stop-color="#F7913A"/>
<stop offset="0.61" stop-color="#F89A34"/>
<stop offset="0.7" stop-color="#FAA82A"/>
<stop offset="0.72" stop-color="#FBAE27"/>
<stop offset="0.81" stop-color="#F6B02B"/>
<stop offset="0.9" stop-color="#EAB738"/>
<stop offset="0.99" stop-color="#D6C34E"/>
<stop offset="1" stop-color="#D4C551"/>
</linearGradient>
<linearGradient id="paint3_linear_650_77" x1="47.2887" y1="26.4177" x2="42.4901" y2="95.2142" gradientUnits="userSpaceOnUse">
<stop stop-color="#F15B22"/>
<stop offset="0.34" stop-color="#F15D21"/>
<stop offset="0.55" stop-color="#F26621"/>
<stop offset="0.73" stop-color="#F37420"/>
<stop offset="0.89" stop-color="#F6891F"/>
</linearGradient>
<linearGradient id="paint4_linear_650_77" x1="33.7387" y1="77.7852" x2="64.2925" y2="79.9164" gradientUnits="userSpaceOnUse">
<stop stop-color="#F15B22"/>
<stop offset="0.34" stop-color="#F15D21"/>
<stop offset="0.55" stop-color="#F26621"/>
<stop offset="0.73" stop-color="#F37420"/>
<stop offset="0.89" stop-color="#F6891F"/>
</linearGradient>
<radialGradient id="paint5_radial_650_77" cx="0" cy="0" r="1" gradientUnits="userSpaceOnUse" gradientTransform="translate(24.6673 93.3948) rotate(3.98999) scale(17.0972 17.0972)">
<stop offset="0.13" stop-color="#FFFCE9"/>
<stop offset="0.29" stop-color="#DCDAD2"/>
<stop offset="0.4" stop-color="#C7C6C5"/>
<stop offset="0.56" stop-color="#C9C8C4"/>
<stop offset="0.65" stop-color="#D2CFC3"/>
<stop offset="0.72" stop-color="#DEDAC1"/>
<stop offset="0.81" stop-color="#E1DDC5"/>
<stop offset="0.9" stop-color="#ECE8D2"/>
<stop offset="1" stop-color="#FFFCE9"/>
</radialGradient>
<radialGradient id="paint6_radial_650_77" cx="0" cy="0" r="1" gradientUnits="userSpaceOnUse" gradientTransform="translate(23.8127 92.6416) rotate(3.98999) scale(10.8907 10.8907)">
<stop offset="0.13" stop-color="#FFFCE9"/>
<stop offset="0.29" stop-color="#DCDAD2"/>
<stop offset="0.4" stop-color="#C7C6C5"/>
<stop offset="0.56" stop-color="#C9C8C4"/>
<stop offset="0.65" stop-color="#D2CFC3"/>
<stop offset="0.72" stop-color="#DEDAC1"/>
<stop offset="0.81" stop-color="#E1DDC5"/>
<stop offset="0.9" stop-color="#ECE8D2"/>
<stop offset="1" stop-color="#FFFCE9"/>
</radialGradient>
<radialGradient id="paint7_radial_650_77" cx="0" cy="0" r="1" gradientUnits="userSpaceOnUse" gradientTransform="translate(23.7949 92.587) rotate(3.99) scale(6.67494 6.67494)">
<stop offset="0.13" stop-color="#FFFCE9"/>
<stop offset="0.29" stop-color="#DCDAD2"/>
<stop offset="0.4" stop-color="#C7C6C5"/>
<stop offset="0.56" stop-color="#C9C8C4"/>
<stop offset="0.65" stop-color="#D2CFC3"/>
<stop offset="0.72" stop-color="#DEDAC1"/>
<stop offset="0.81" stop-color="#E1DDC5"/>
<stop offset="0.9" stop-color="#ECE8D2"/>
<stop offset="1" stop-color="#FFFCE9"/>
</radialGradient>
<radialGradient id="paint8_radial_650_77" cx="0" cy="0" r="1" gradientUnits="userSpaceOnUse" gradientTransform="translate(23.8325 92.6644) rotate(3.99001) scale(4.27961 4.27962)">
<stop offset="0.13" stop-color="#FFFCE9"/>
<stop offset="0.29" stop-color="#DCDAD2"/>
<stop offset="0.4" stop-color="#C7C6C5"/>
<stop offset="0.56" stop-color="#C9C8C4"/>
<stop offset="0.65" stop-color="#D2CFC3"/>
<stop offset="0.72" stop-color="#DEDAC1"/>
<stop offset="0.81" stop-color="#E1DDC5"/>
<stop offset="0.9" stop-color="#ECE8D2"/>
<stop offset="1" stop-color="#FFFCE9"/>
</radialGradient>
<radialGradient id="paint9_radial_650_77" cx="0" cy="0" r="1" gradientUnits="userSpaceOnUse" gradientTransform="translate(23.643 92.3204) rotate(3.99) scale(1.91625 1.91625)">
<stop offset="0.13" stop-color="#FFFCE9"/>
<stop offset="0.29" stop-color="#DCDAD2"/>
<stop offset="0.4" stop-color="#C7C6C5"/>
<stop offset="0.56" stop-color="#C9C8C4"/>
<stop offset="0.65" stop-color="#D2CFC3"/>
<stop offset="0.72" stop-color="#DEDAC1"/>
<stop offset="0.81" stop-color="#E1DDC5"/>
<stop offset="0.9" stop-color="#ECE8D2"/>
<stop offset="1" stop-color="#FFFCE9"/>
</radialGradient>
<linearGradient id="paint10_linear_650_77" x1="26.7276" y1="102.66" x2="33.2075" y2="103.022" gradientUnits="userSpaceOnUse">
<stop stop-color="#CF8829"/>
<stop offset="0.01" stop-color="#CB8628"/>
<stop offset="0.14" stop-color="#AF7827"/>
<stop offset="0.28" stop-color="#9A6C26"/>
<stop offset="0.43" stop-color="#8A6525"/>
<stop offset="0.6" stop-color="#816025"/>
<stop offset="0.85" stop-color="#7F5F25"/>
</linearGradient>
<radialGradient id="paint11_radial_650_77" cx="0" cy="0" r="1" gradientUnits="userSpaceOnUse" gradientTransform="translate(52.7396 82.978) rotate(30.64) scale(34.1518 34.1518)">
<stop offset="0.16" stop-color="#FFC856"/>
<stop offset="0.53" stop-color="#FAC044"/>
<stop offset="1" stop-color="#F2B429"/>
</radialGradient>
<linearGradient id="paint12_linear_650_77" x1="52.3477" y1="114.385" x2="54.9819" y2="47.0918" gradientUnits="userSpaceOnUse">
<stop stop-color="#CF8829"/>
<stop offset="0.25" stop-color="#DD9929"/>
<stop offset="0.61" stop-color="#ECAD29"/>
<stop offset="0.85" stop-color="#F2B429"/>
</linearGradient>
<linearGradient id="paint13_linear_650_77" x1="62.6367" y1="54.8013" x2="71.8123" y2="55.3118" gradientUnits="userSpaceOnUse">
<stop offset="0.15" stop-color="#F2B429"/>
<stop offset="0.39" stop-color="#ECAD29"/>
<stop offset="0.75" stop-color="#DD9929"/>
<stop offset="1" stop-color="#CF8829"/>
</linearGradient>
<linearGradient id="paint14_linear_650_77" x1="40.8907" y1="116.307" x2="65.554" y2="71.6165" gradientUnits="userSpaceOnUse">
<stop offset="0.16" stop-color="#CF8829"/>
<stop offset="0.31" stop-color="#DD9929"/>
<stop offset="0.53" stop-color="#ECAD29"/>
<stop offset="0.68" stop-color="#F2B429"/>
</linearGradient>
<linearGradient id="paint15_linear_650_77" x1="41.9549" y1="108.118" x2="48.3424" y2="106.969" gradientUnits="userSpaceOnUse">
<stop stop-color="#CF8829"/>
<stop offset="0.01" stop-color="#CB8628"/>
<stop offset="0.14" stop-color="#AF7827"/>
<stop offset="0.28" stop-color="#9A6C26"/>
<stop offset="0.43" stop-color="#8A6525"/>
<stop offset="0.6" stop-color="#816025"/>
<stop offset="0.85" stop-color="#7F5F25"/>
</linearGradient>
<radialGradient id="paint16_radial_650_77" cx="0" cy="0" r="1" gradientUnits="userSpaceOnUse" gradientTransform="translate(62.7014 82.9462) rotate(17.25) scale(34.1519 34.1518)">
<stop offset="0.16" stop-color="#FFC856"/>
<stop offset="0.53" stop-color="#FAC044"/>
<stop offset="1" stop-color="#F2B429"/>
</radialGradient>
<linearGradient id="paint17_linear_650_77" x1="64.0691" y1="117.081" x2="66.8704" y2="45.4027" gradientUnits="userSpaceOnUse">
<stop stop-color="#CF8829"/>
<stop offset="0.25" stop-color="#DD9929"/>
<stop offset="0.61" stop-color="#ECAD29"/>
<stop offset="0.85" stop-color="#F2B429"/>
</linearGradient>
<linearGradient id="paint18_linear_650_77" x1="65.8046" y1="53.2439" x2="74.8489" y2="51.6156" gradientUnits="userSpaceOnUse">
<stop offset="0.15" stop-color="#F2B429"/>
<stop offset="0.39" stop-color="#ECAD29"/>
<stop offset="0.75" stop-color="#DD9929"/>
<stop offset="1" stop-color="#CF8829"/>
</linearGradient>
<linearGradient id="paint19_linear_650_77" x1="63.6809" y1="115.154" x2="64.9612" y2="82.4175" gradientUnits="userSpaceOnUse">
<stop offset="0.16" stop-color="#CF8829"/>
<stop offset="0.31" stop-color="#DD9929"/>
<stop offset="0.53" stop-color="#ECAD29"/>
<stop offset="0.68" stop-color="#F2B429"/>
</linearGradient>
<radialGradient id="paint20_radial_650_77" cx="0" cy="0" r="1" gradientUnits="userSpaceOnUse" gradientTransform="translate(73.3186 82.5417) rotate(3.99) scale(34.1518 34.1518)">
<stop offset="0.16" stop-color="#FFC856"/>
<stop offset="0.53" stop-color="#FAC044"/>
<stop offset="1" stop-color="#F2B429"/>
</radialGradient>
<linearGradient id="paint21_linear_650_77" x1="77.2989" y1="118.655" x2="80.1728" y2="45.0178" gradientUnits="userSpaceOnUse">
<stop stop-color="#CF8829"/>
<stop offset="0.25" stop-color="#DD9929"/>
<stop offset="0.61" stop-color="#ECAD29"/>
<stop offset="0.85" stop-color="#F2B429"/>
</linearGradient>
<linearGradient id="paint22_linear_650_77" x1="69.5369" y1="52.92" x2="77.9561" y2="49.2599" gradientUnits="userSpaceOnUse">
<stop offset="0.15" stop-color="#F2B429"/>
<stop offset="0.39" stop-color="#ECAD29"/>
<stop offset="0.75" stop-color="#DD9929"/>
<stop offset="1" stop-color="#CF8829"/>
</linearGradient>
<linearGradient id="paint23_linear_650_77" x1="74.9526" y1="95.6858" x2="128.829" y2="71.1317" gradientUnits="userSpaceOnUse">
<stop offset="0.16" stop-color="#CF8829"/>
<stop offset="0.31" stop-color="#DD9929"/>
<stop offset="0.53" stop-color="#ECAD29"/>
<stop offset="0.68" stop-color="#F2B429"/>
</linearGradient>
<linearGradient id="paint24_linear_650_77" x1="58.9095" y1="111.801" x2="64.8524" y2="109.217" gradientUnits="userSpaceOnUse">
<stop stop-color="#CF8829"/>
<stop offset="0.01" stop-color="#CB8628"/>
<stop offset="0.14" stop-color="#AF7827"/>
<stop offset="0.28" stop-color="#9A6C26"/>
<stop offset="0.43" stop-color="#8A6525"/>
<stop offset="0.6" stop-color="#816025"/>
<stop offset="0.85" stop-color="#7F5F25"/>
</linearGradient>
<linearGradient id="paint25_linear_650_77" x1="71.4393" y1="32.7577" x2="62.5986" y2="31.5264" gradientUnits="userSpaceOnUse">
<stop stop-color="#6BC6EF"/>
<stop offset="1" stop-color="white"/>
</linearGradient>
<linearGradient id="paint26_linear_650_77" x1="31.1284" y1="36.5331" x2="27.5262" y2="25.683" gradientUnits="userSpaceOnUse">
<stop stop-color="#6BC6EF"/>
<stop offset="1" stop-color="white"/>
</linearGradient>
<linearGradient id="paint27_linear_650_77" x1="71.942" y1="55.2706" x2="76.6626" y2="35.879" gradientUnits="userSpaceOnUse">
<stop stop-color="#6BC6EF"/>
<stop offset="1" stop-color="white"/>
</linearGradient>
</defs>
</svg>
