<svg width="130" height="138" viewBox="0 0 130 138" fill="none" xmlns="http://www.w3.org/2000/svg">
<path d="M60.2544 122.432L98.6851 93.0096L97.609 23.8142L70.439 3.4561L36.2906 3.52268L16.1211 34.4426L19.283 94.6072L54.0415 121.822L60.2544 122.432Z" fill="url(#paint0_linear_653_95)"/>
<g filter="url(#filter0_d_653_95)">
<mask id="mask0_653_95" style="mask-type:luminance" maskUnits="userSpaceOnUse" x="16" y="3" width="83" height="120">
<path d="M60.2548 122.432L98.6856 93.0096L97.6095 23.8142L70.4395 3.45612L36.2911 3.5227L16.1216 34.4426L19.2835 94.6072L54.042 121.822L60.2548 122.432Z" fill="white"/>
</mask>
<g mask="url(#mask0_653_95)">
<path d="M10.0747 157.312H113.862L113.862 89.6258L10.0747 89.6258L10.0747 157.312Z" fill="url(#paint1_linear_653_95)"/>
<path d="M60.9811 121.622L81.9459 89.6979H103.864L60.9811 121.622Z" fill="url(#paint2_linear_653_95)"/>
</g>
<path d="M25.7071 43.296C21.8684 43.3293 18.0409 43.3515 14.2022 43.3847C12.1831 43.3958 10.4745 44.6828 10.1861 46.3913C9.53152 50.3742 8.86587 54.357 8.2113 58.3399C8.06707 59.1942 8.05597 60.0484 8.16691 60.9027C8.63288 64.5638 9.09883 68.225 9.56479 71.875C9.78668 73.6501 11.5285 74.9925 13.6142 74.9925L28.1478 75.0369C29.4791 75.0369 30.7439 74.4822 31.5094 73.5502C32.6188 72.2078 33.7283 70.8543 34.8266 69.5119C35.5034 68.6909 35.7363 67.6702 35.459 66.6939C33.5508 59.7933 31.6314 52.8815 29.7232 45.9808C29.2794 44.3943 27.6153 43.2738 25.7071 43.2849V43.296Z" fill="url(#paint3_linear_653_95)"/>
<path d="M29.8117 67.3596C29.734 67.6481 29.5344 67.8811 29.2903 68.0364C28.6912 68.4136 28.0921 68.8019 27.5041 69.1791C26.4501 69.8559 25.4073 70.5437 24.3644 71.2316C23.3326 71.9194 22.3008 72.6183 21.2691 73.3173V91.9558C21.2691 92.5881 20.7476 93.0541 20.1375 93.0874C19.5273 93.1096 19.0058 92.5438 19.0058 91.9558V62.1675C18.673 61.8569 18.3402 61.5462 18.0073 61.2356C16.5873 59.9153 15.1561 58.6062 13.736 57.286C13.5141 57.0863 13.4143 56.7756 13.4032 56.4872C13.3921 56.1876 13.5363 55.8992 13.736 55.6884C13.9246 55.4776 14.2575 55.3556 14.5348 55.3556C14.8344 55.3556 15.1117 55.4887 15.3336 55.6884C15.733 56.0545 16.1324 56.4317 16.5429 56.7978C17.3639 57.5633 18.1959 58.3177 19.0169 59.0833V52.3046C19.0169 51.6722 19.5384 51.2063 20.1485 51.173C20.7587 51.1508 21.2802 51.7166 21.2802 52.3046V70.577C21.4799 70.4439 21.6796 70.3107 21.8793 70.1665C22.9221 69.4676 23.9539 68.7797 25.0079 68.103C26.0507 67.4151 27.1047 66.7383 28.1697 66.0727C28.4249 65.9063 28.7467 65.8952 29.0462 65.9618C29.3347 66.0283 29.5676 66.2391 29.723 66.4832C29.8006 66.6163 29.845 66.7494 29.8561 66.9048C29.8894 67.0601 29.8783 67.2043 29.8339 67.3596H29.8117Z" fill="#905C24"/>
<path d="M82.5544 30.9034L71.7374 51.8939C71.1716 53.0033 71.105 54.2459 71.571 55.3886L75.5095 65.1627C75.9088 66.1501 76.6744 67.0044 77.695 67.5924L89.8877 74.5596C90.5312 74.9258 91.2634 75.1809 92.0289 75.2919L93.6598 75.5359C94.98 75.7356 96.3446 75.5248 97.4984 74.9368L106.108 70.5546C107.372 69.9111 108.293 68.8571 108.67 67.6368L113.585 51.439C113.896 50.4073 113.796 49.3089 113.308 48.3215L104.255 30.4264C103.301 28.5514 102.169 26.743 100.86 25.0234L98.4747 21.8837C96.2891 19.0214 91.4076 18.9659 89.1555 21.7839C87.9462 23.2816 86.748 24.7904 85.5387 26.2882C84.3295 27.7859 83.3753 29.2726 82.5544 30.8701V30.9034Z" fill="url(#paint4_linear_653_95)"/>
<path d="M107.05 53.1143C106.962 53.4361 106.729 53.7245 106.451 53.902C105.564 54.4346 104.687 54.9782 103.811 55.5218C102.258 56.487 100.704 57.4633 99.1623 58.4396C97.8532 59.2717 96.5551 60.1149 95.2571 60.958V91.6672C95.2571 92.3994 94.658 92.9541 93.9369 92.9874C93.2268 93.0207 92.6166 92.355 92.6166 91.6672V68.4023C91.8178 67.9364 91.0302 67.4704 90.2314 67.0044C88.5117 65.9838 86.8032 64.9631 85.0947 63.9202C83.3973 62.8774 81.6998 61.8345 80.0135 60.7694C79.7139 60.5808 79.5142 60.3146 79.4144 59.9817C79.3034 59.6378 79.3811 59.2717 79.5475 58.9722C79.6252 58.8168 79.7472 58.6948 79.8914 58.606C80.0135 58.4951 80.1688 58.4063 80.3352 58.3731C80.5127 58.3176 80.6902 58.3065 80.8567 58.3509C81.0342 58.3509 81.2006 58.4063 81.3448 58.5062C82.2878 59.1053 83.2419 59.6933 84.185 60.2813C85.8824 61.3352 87.5909 62.367 89.2994 63.3988C90.3978 64.0644 91.5072 64.719 92.6166 65.3625V60.6918C92.5945 60.6252 92.5834 60.5476 92.5834 60.481C92.539 60.3035 92.5501 60.126 92.6056 59.9596C92.6056 59.9485 92.6056 59.9374 92.6056 59.9263V49.3423C92.4724 49.2757 92.3504 49.1869 92.2283 49.0871C91.7624 48.6544 91.2964 48.2217 90.8305 47.8002C89.9984 47.0346 89.1774 46.2691 88.3453 45.5036C87.5133 44.7381 86.6923 43.9726 85.8602 43.2071C85.605 42.963 85.4941 42.6191 85.4719 42.2752C85.4608 41.9202 85.6272 41.5984 85.8602 41.3433C85.9822 41.2101 86.1154 41.1214 86.2818 41.0659C86.4371 40.9882 86.6035 40.9439 86.7921 40.955C87.1471 40.955 87.4689 41.1103 87.7241 41.3433C88.19 41.7759 88.656 42.2086 89.1219 42.6302C89.954 43.3957 90.775 44.1612 91.6071 44.9267C91.9399 45.2374 92.2727 45.5369 92.6056 45.8476V35.0749C92.6056 34.3427 93.2046 33.788 93.9258 33.7547C94.6358 33.7215 95.246 34.3871 95.246 35.0749V57.8405C95.4235 57.7185 95.6121 57.6076 95.7896 57.4855C97.3207 56.4981 98.8628 55.5107 100.416 54.5455C101.969 53.5692 103.533 52.604 105.109 51.6499C105.42 51.4613 105.786 51.4391 106.118 51.5168C106.451 51.5944 106.729 51.8385 106.906 52.1158C107.006 52.2712 107.05 52.4265 107.061 52.604C107.106 52.7815 107.095 52.959 107.039 53.1254L107.05 53.1143Z" fill="#905C24"/>
<path d="M90.0544 68.0252H61.2313V87.0409H90.0544V68.0252Z" fill="#C59C6D"/>
<path d="M42.9143 39.6236C42.9143 39.6236 30.8437 52.8369 29.4236 53.6801C28.5583 54.2015 22.9778 57.8405 21.4579 58.2731C21.2027 58.3508 21.2471 58.7502 21.5134 58.7613C22.9667 58.7058 24.4201 58.6614 25.8734 58.606C23.588 61.1466 21.2915 63.6872 19.006 66.2389C18.8396 66.4164 18.9617 66.727 19.1836 66.727L63.9714 66.7825L42.9143 39.6347V39.6236Z" fill="#533928"/>
<path d="M59.9663 68.2469H29.5123V87.2515H59.9663V68.2469Z" fill="#C59C6D"/>
<path d="M88.9671 67.5036H73.5792V89.0377H88.9671V67.5036Z" fill="url(#paint5_linear_653_95)"/>
<path d="M60.2105 67.1043H44.39V88.6384H60.2105V67.1043Z" fill="url(#paint6_linear_653_95)"/>
<path d="M29.7566 58.6946H28.1036C27.8033 58.6946 27.5599 58.938 27.5599 59.2382V92.3215C27.5599 92.6217 27.8033 92.8651 28.1036 92.8651H29.7566C30.0569 92.8651 30.3002 92.6217 30.3002 92.3215V59.2382C30.3002 58.938 30.0569 58.6946 29.7566 58.6946Z" fill="#9C6235"/>
<path d="M57.8579 67.0485H31.9416C31.2648 67.0485 30.6657 66.6269 30.4327 65.9946C30.2663 65.5286 30.0999 65.0737 29.9224 64.6078C29.7005 64.0087 29.4786 63.4096 29.2567 62.7994C29.0126 62.1448 29.2234 61.4126 29.7671 60.9799C33.7943 57.7959 37.8105 54.6229 41.8377 51.4388C42.226 51.1392 42.7142 51.0283 43.169 51.1282C43.3909 51.1725 43.6017 51.2724 43.7903 51.4055C46.7192 53.5578 49.7812 55.9875 52.9209 58.7167C55.0843 60.5916 57.0924 62.4555 58.9674 64.2749C59.9991 65.2845 59.2891 67.0374 57.8468 67.0374L57.8579 67.0485Z" fill="url(#paint7_linear_653_95)"/>
<path d="M43.5462 57.5629C43.4242 58.5947 43.2356 59.3491 42.814 60.0481C42.4368 60.6915 41.9819 61.1242 41.7268 61.3572C41.1942 61.8564 40.6173 62.2558 39.9073 62.6109C36.9007 64.1308 33.761 64.4858 33.761 64.4858C32.4075 64.6411 31.0651 64.6522 29.9224 64.6189C29.7005 64.0198 29.4786 63.4207 29.2567 62.8106C29.0126 62.156 29.2234 61.4238 29.7671 60.9911C33.7943 57.807 37.8105 54.634 41.8377 51.45C42.226 51.1504 42.7142 51.0395 43.169 51.1393C43.3354 52.6703 43.6905 56.2871 43.5351 57.5629H43.5462Z" fill="url(#paint8_linear_653_95)"/>
<path d="M34.7151 47.0345C34.4378 47.2009 33.9496 47.2896 33.3838 47.2674C33.2174 47.2674 33.0399 47.2452 32.8513 47.212C31.7529 47.0345 30.932 46.5241 30.9985 46.0582C30.9985 45.9472 31.0207 45.8252 31.0762 45.7253L32.3853 43.1071L32.8957 42.0975C33.1397 41.6204 33.761 41.576 34.1382 41.8423C34.2935 41.9533 34.4045 42.1197 34.4378 42.3416L34.6042 43.4621L35.0258 46.3577C35.0702 46.6573 34.9148 46.9457 34.7151 47.0345Z" fill="url(#paint9_linear_653_95)"/>
<path d="M34.7152 47.0343C34.4379 47.2007 33.9497 47.2895 33.3839 47.2673C33.8166 47.1009 34.2715 46.768 34.3713 46.5573C34.4933 46.2688 34.2604 42.8296 34.2715 42.3747C34.2715 42.1417 34.2049 41.9642 34.1494 41.8422C34.3047 41.9531 34.4157 42.1195 34.449 42.3414L34.6154 43.4619L35.037 46.3576C35.0814 46.6571 34.926 46.9455 34.7263 47.0343H34.7152Z" fill="#C59C6D"/>
<path d="M32.0303 46.5461C32.0303 46.5461 31.1649 45.8028 27.7479 47.0454C24.3308 48.2879 22.1564 49.0423 22.6667 49.7302C23.177 50.418 27.1377 52.2375 29.5119 51.8936C31.8861 51.5496 33.1619 49.6192 33.1619 49.6192C33.1619 49.6192 33.8387 47.001 32.0303 46.5461Z" fill="url(#paint10_linear_653_95)"/>
<path d="M43.3131 47.7113V54.1571C43.3131 58.2176 40.0181 61.5126 35.9575 61.5126H26.9156V52.6593C26.9156 48.5212 30.2661 45.1707 34.4043 45.1707H40.7614C40.9278 45.1707 41.1053 45.1929 41.2606 45.215C42.4255 45.448 43.302 46.4798 43.302 47.7113H43.3131Z" fill="url(#paint11_linear_653_95)"/>
<path d="M42.3813 46.5242C44.1009 46.5685 45.521 46.8237 46.5416 47.0678C48.3167 47.4894 47.8064 47.6225 50.3026 48.4435C51.2678 49.1868 51.5896 49.1202 51.6561 49.3421C51.7449 49.5862 51.5674 49.8525 51.4675 49.9967C50.9017 50.8399 48.2058 53.0143 44.822 52.3376C44.0121 52.1823 42.6253 51.8827 41.6158 50.5736C41.2718 50.1298 41.0611 49.6971 40.939 49.3865C40.8724 49.1868 40.706 48.621 40.8946 47.9775C41.2164 46.8459 42.3147 46.5463 42.3813 46.5242Z" fill="url(#paint12_linear_653_95)"/>
<path d="M42.3482 46.4687C42.3482 46.4687 43.2024 45.7365 46.5973 46.9569C49.9922 48.1662 52.1445 48.8984 51.6341 49.5751C51.0018 50.4183 48.3058 52.2711 44.8555 51.672C44.0345 51.5277 42.6144 51.2615 41.5827 50.0966C41.2276 49.6972 41.0168 49.3089 40.8948 49.0315C40.8282 48.854 40.6618 48.3437 40.8504 47.7668C41.1833 46.7572 42.3038 46.4798 42.3704 46.4687H42.3482Z" fill="url(#paint13_linear_653_95)"/>
<path d="M42.5254 46.7017C42.2259 46.8459 41.7266 46.8903 41.1497 46.8126C40.9722 46.7904 40.7947 46.7572 40.6172 46.7128C39.5188 46.4354 38.7311 45.8474 38.8421 45.4037C38.8421 45.2927 38.8865 45.1818 38.953 45.0708L40.5284 42.5968L41.1386 41.6427C41.4271 41.1878 42.0594 41.1989 42.4256 41.5095C42.5698 41.6316 42.6696 41.8091 42.6918 42.031L42.7584 43.1515L42.9137 46.0693C42.9248 46.3689 42.7473 46.6462 42.5365 46.7128L42.5254 46.7017Z" fill="url(#paint14_linear_653_95)"/>
<path d="M42.5256 46.7017C42.2261 46.8459 41.7268 46.8903 41.1499 46.8126C41.6048 46.6906 42.104 46.4021 42.215 46.1913C42.3592 45.914 42.4479 42.4858 42.5034 42.031C42.5256 41.798 42.4812 41.6094 42.4258 41.4984C42.57 41.6205 42.6698 41.798 42.692 42.0199L42.7586 43.1404L42.9139 46.0582C42.925 46.3577 42.7475 46.6351 42.5367 46.7017H42.5256Z" fill="#C59C6D"/>
<path d="M38.3095 51.1394C38.3095 51.1394 38.365 51.1505 38.3983 51.1727C38.4537 51.2171 38.4759 51.2948 38.4537 51.4168C38.4205 51.5721 38.3206 51.6387 38.2429 51.672C37.8325 51.8495 37.4109 52.027 37.0337 51.9715C37.0004 51.9715 36.9671 51.9604 36.9449 51.9382C36.9116 51.9161 36.9005 51.8717 36.9005 51.8606C36.8783 51.7829 36.9116 51.6609 36.9782 51.5721C37.2445 51.1616 38.132 51.1173 38.3095 51.1394Z" fill="#765239"/>
<path d="M38.2207 51.4611H38.254C38.2318 51.4611 38.1874 51.4279 38.1763 51.4168C38.1209 51.3613 38.1431 51.3613 38.1542 51.3946C38.1209 51.3169 38.132 51.3391 38.1431 51.3724C38.132 51.2947 38.1431 51.328 38.1431 51.3502C38.1542 51.3169 38.1431 51.4168 38.1431 51.3502C38.1431 51.3502 38.132 51.4168 38.1431 51.3724C38.1653 51.3169 38.1431 51.3946 38.132 51.3946C38.1209 51.3835 38.1874 51.3391 38.1431 51.3724L38.1209 51.3946C38.1542 51.3391 38.1763 51.3613 38.1431 51.3724C38.1431 51.3724 38.1209 51.3724 38.1209 51.3835C38.0987 51.3946 38.0654 51.4057 38.0432 51.4168C38.0099 51.4279 37.9877 51.439 37.9545 51.4501C37.7991 51.5166 37.6438 51.5721 37.4774 51.6165C37.4441 51.6165 37.3997 51.6387 37.3665 51.6387C37.3554 51.6387 37.3332 51.6387 37.311 51.6387C37.3776 51.6387 37.3332 51.6387 37.311 51.6387C37.2777 51.6387 37.2444 51.6387 37.2 51.6387C37.1778 51.6387 37.078 51.6387 37.0669 51.6387L37.1335 51.6608C37.1668 51.683 37.2111 51.7274 37.2222 51.7718C37.2222 51.7385 37.2333 51.794 37.2222 51.8162V51.7718C37.2444 51.7829 37.2111 51.8384 37.2222 51.794C37.2222 51.794 37.2222 51.7496 37.2333 51.7496C37.2111 51.7607 37.2111 51.794 37.2333 51.7607C37.2333 51.7385 37.2555 51.7274 37.2666 51.7052C37.2888 51.6608 37.2111 51.7718 37.2666 51.7052C37.2777 51.6941 37.2999 51.6719 37.311 51.6608C37.311 51.6608 37.3332 51.6498 37.3332 51.6387C37.3332 51.6387 37.2666 51.683 37.311 51.6608C37.3332 51.6498 37.3554 51.6276 37.3776 51.6165C37.3997 51.6054 37.4219 51.5943 37.433 51.5832C37.5329 51.5499 37.4552 51.5721 37.433 51.5832C37.4774 51.5721 37.5329 51.5499 37.5772 51.5277C37.6771 51.4944 37.7769 51.4722 37.8768 51.4611C37.8879 51.4611 37.899 51.4611 37.9101 51.4611C37.9655 51.4611 37.9101 51.4611 37.8768 51.4611C37.899 51.4611 37.9323 51.4611 37.9545 51.4611C37.9988 51.4611 38.0432 51.4611 38.0876 51.4611C38.1209 51.4611 38.1653 51.4611 38.1985 51.4611C38.3539 51.4722 38.2429 51.4611 38.1985 51.4611C38.2873 51.4722 38.3649 51.4722 38.4537 51.4279C38.5203 51.3835 38.5868 51.3058 38.609 51.2282C38.6423 51.0729 38.5646 50.851 38.376 50.8288C38.1431 50.7955 37.9101 50.8288 37.6771 50.8621C37.3776 50.9175 37.0891 51.0174 36.8561 51.206C36.723 51.3169 36.6231 51.4722 36.5788 51.6387C36.5122 51.916 36.6231 52.2267 36.9338 52.2932C37.3776 52.382 37.8324 52.1934 38.2318 52.0269C38.3539 51.9715 38.4537 51.9382 38.5535 51.8495C38.6423 51.7718 38.7089 51.6497 38.7421 51.5277C38.8198 51.2393 38.6978 50.8842 38.376 50.8177C38.2096 50.7844 38.0099 50.8621 37.9766 51.0507C37.9434 51.206 38.021 51.4168 38.2096 51.4501L38.2207 51.4611Z" fill="#765239"/>
<path d="M30.51 51.0062C30.4435 50.9064 30.3769 50.8065 30.2992 50.7288C30.2216 50.6512 30.1217 50.5735 30.033 50.4959C29.9664 50.4515 29.8998 50.4071 29.8333 50.3738C29.7334 50.3295 29.6225 50.274 29.5115 50.2518C29.334 50.2074 29.1565 50.2185 28.9901 50.3073C28.8681 50.3738 28.7793 50.4959 28.746 50.629C28.7017 50.7843 28.7349 50.9286 28.8015 51.0728C28.8237 51.1061 28.8459 51.1393 28.8681 51.1726C28.9125 51.2392 28.9568 51.2947 29.0123 51.3501C29.09 51.4278 29.1898 51.5055 29.2786 51.5609C29.4894 51.683 29.7445 51.7606 29.9886 51.7384C30.1217 51.7384 30.2327 51.6941 30.3214 51.5942C30.3991 51.5165 30.4657 51.3723 30.4657 51.2614C30.4657 51.1504 30.4213 51.0062 30.3214 50.9286C30.2216 50.8509 30.1106 50.7843 29.9886 50.7843C29.9331 50.7843 29.8887 50.7843 29.8333 50.7843L29.9553 50.8065C29.8887 50.8065 29.8222 50.7732 29.7556 50.751L29.8666 50.7954C29.8 50.7621 29.7334 50.7289 29.6669 50.6845L29.7667 50.7621C29.7112 50.7178 29.6558 50.6623 29.6114 50.6068L29.689 50.7067C29.689 50.7067 29.6336 50.629 29.6114 50.5846L29.6558 50.6956C29.6558 50.6956 29.6558 50.6734 29.6558 50.6623L29.678 50.7843C29.678 50.7843 29.6669 50.8509 29.6558 50.8953C29.6558 50.8953 29.6558 50.8842 29.6558 50.8731L29.6114 50.984V50.9729L29.5337 51.0728C29.5337 51.0728 29.5337 51.0728 29.5448 51.0617L29.445 51.1394C29.445 51.1394 29.4561 51.1393 29.4672 51.1282L29.3562 51.1726C29.3562 51.1726 29.3784 51.1726 29.4006 51.1726L29.2786 51.1948C29.2786 51.1948 29.3118 51.1948 29.334 51.1948L29.212 51.1726C29.2897 51.1726 29.3562 51.2059 29.4228 51.2392L29.3118 51.1948C29.4006 51.2392 29.4894 51.2836 29.567 51.3501L29.4672 51.2725C29.5448 51.339 29.6225 51.4056 29.689 51.4833L29.6114 51.3834C29.6114 51.3834 29.6669 51.45 29.689 51.4833C29.7556 51.5831 29.8555 51.6719 29.9775 51.7052C30.0995 51.7384 30.2438 51.7274 30.3436 51.6608C30.4435 51.5942 30.5322 51.4944 30.5655 51.3723C30.5988 51.2503 30.5877 51.1172 30.5211 51.0062H30.51Z" fill="#765239"/>
<path d="M37.0115 57.1301V58.4281C37.0115 60.7025 35.1698 62.533 32.9066 62.533H27.0821C26.5385 62.533 26.0281 62.4332 25.551 62.2335C24.0422 61.6233 22.9772 60.1478 22.9772 58.4171V57.119C22.9772 54.8447 24.8188 53.0141 27.0821 53.0141H32.9066C33.2505 53.0141 33.5723 53.0585 33.894 53.1361C35.6913 53.5799 37.0115 55.1997 37.0115 57.1301Z" fill="url(#paint15_linear_653_95)"/>
<path d="M37.0116 57.1302V58.4283C37.0116 60.7026 35.1699 62.5332 32.9067 62.5332H27.0822C26.5385 62.5332 26.0282 62.4333 25.5511 62.2336C27.5148 62.3446 31.0761 61.9119 32.2632 61.7677C33.6833 61.6013 35.0257 60.5473 35.3918 59.8594C35.7579 59.1716 35.7912 56.1983 35.4584 54.9557C35.2587 54.1902 34.471 53.5357 33.8941 53.1363C35.6914 53.58 37.0116 55.1998 37.0116 57.1302Z" fill="url(#paint16_linear_653_95)"/>
<path d="M27.7702 57.9846L27.7147 57.4521C27.7147 57.3523 27.7036 57.2524 27.6814 57.1637C27.637 57.0194 27.5483 56.8974 27.393 56.853C27.3264 56.8308 27.2487 56.8308 27.1711 56.853C27.0712 56.8752 27.0047 56.9418 26.9492 57.0194C26.8937 57.086 26.8715 57.1747 26.8604 57.2635C26.8272 57.4632 26.8161 57.674 26.8604 57.8737C26.9159 58.1621 27.1933 58.384 27.4928 58.3064C27.6481 58.262 27.7591 58.0845 27.7036 57.9292C27.6481 57.7738 27.4928 57.674 27.3264 57.7184C27.3264 57.7184 27.3153 57.7184 27.3042 57.7184H27.3819C27.3819 57.7184 27.3597 57.7184 27.3486 57.7184H27.4263C27.4263 57.7184 27.393 57.7184 27.3819 57.7184L27.4595 57.7517C27.4595 57.7517 27.4263 57.7406 27.4152 57.7295L27.4817 57.7738C27.4817 57.7738 27.4484 57.7406 27.4373 57.7295L27.4817 57.796C27.4817 57.796 27.4595 57.7628 27.4484 57.7406L27.4817 57.8182C27.4817 57.8182 27.4595 57.7406 27.4484 57.6962V57.7738C27.4484 57.6518 27.4484 57.5187 27.4595 57.3855V57.4632C27.4595 57.4632 27.4595 57.3634 27.4817 57.319L27.4484 57.3966C27.4484 57.3966 27.4595 57.3633 27.4706 57.3523L27.4263 57.4188C27.4263 57.4188 27.4262 57.4188 27.4373 57.4077L27.3708 57.4521C27.3708 57.4521 27.3819 57.4521 27.393 57.441L27.3153 57.4743C27.3153 57.4743 27.3264 57.4743 27.3375 57.4743H27.2598C27.2598 57.4743 27.2709 57.4743 27.282 57.4854H27.2044C27.2044 57.4854 27.2155 57.4854 27.2266 57.4854L27.1489 57.4521H27.16L27.0934 57.4077C27.0934 57.4077 27.1045 57.4188 27.1156 57.4299L27.0712 57.3634C27.0712 57.3634 27.0712 57.3855 27.0823 57.3966L27.049 57.319C27.049 57.319 27.0712 57.3744 27.0712 57.4077V57.3301C27.0823 57.5631 27.1045 57.7849 27.1378 58.0179C27.1378 58.1067 27.1711 58.1732 27.2266 58.2398C27.282 58.2953 27.3708 58.3286 27.4484 58.3286C27.5261 58.3286 27.6149 58.2953 27.6703 58.2398C27.7258 58.1843 27.7702 58.1067 27.7591 58.0179L27.7702 57.9846Z" fill="#765239"/>
<path d="M31.8531 57.9847L31.7976 57.4521C31.7976 57.3523 31.7865 57.2524 31.7643 57.1637C31.7199 57.0195 31.6312 56.8974 31.4759 56.853C31.4093 56.8308 31.3316 56.8308 31.254 56.853C31.1541 56.8752 31.0876 56.9418 31.0321 57.0194C30.9766 57.086 30.9544 57.1748 30.9433 57.2635C30.91 57.4632 30.899 57.674 30.9433 57.8737C30.9988 58.1622 31.2762 58.3841 31.5757 58.3064C31.731 58.262 31.842 58.0845 31.7865 57.9292C31.731 57.7739 31.5757 57.674 31.4093 57.7184C31.4093 57.7184 31.3982 57.7184 31.3871 57.7184H31.4648C31.4648 57.7184 31.4426 57.7184 31.4315 57.7184H31.5092C31.5092 57.7184 31.4759 57.7184 31.4648 57.7184L31.5424 57.7517C31.5424 57.7517 31.5091 57.7406 31.498 57.7295L31.5646 57.7739C31.5646 57.7739 31.5313 57.7406 31.5202 57.7295L31.5646 57.7961C31.5646 57.7961 31.5424 57.7628 31.5313 57.7406L31.5646 57.8182C31.5646 57.8182 31.5424 57.7406 31.5313 57.6962V57.7739C31.5313 57.6518 31.5313 57.5187 31.5424 57.3856V57.4632C31.5424 57.4632 31.5424 57.3634 31.5646 57.319L31.5313 57.3967C31.5313 57.3967 31.5424 57.3634 31.5535 57.3523L31.5092 57.4188C31.5092 57.4188 31.5091 57.4188 31.5202 57.4078L31.4537 57.4521C31.4537 57.4521 31.4648 57.4521 31.4759 57.441L31.3982 57.4743C31.3982 57.4743 31.4093 57.4743 31.4204 57.4743H31.3427C31.3427 57.4743 31.3538 57.4743 31.3649 57.4854H31.2873C31.2873 57.4854 31.2984 57.4854 31.3094 57.4854L31.2318 57.4521H31.2429L31.1763 57.4078C31.1763 57.4078 31.1874 57.4189 31.1985 57.4299L31.1541 57.3634C31.1541 57.3634 31.1541 57.3856 31.1652 57.3967L31.1319 57.319C31.1319 57.319 31.1541 57.3745 31.1541 57.4078V57.3301C31.1652 57.5631 31.1874 57.785 31.2207 58.0179C31.2207 58.1067 31.254 58.1733 31.3094 58.2398C31.3649 58.2953 31.4537 58.3286 31.5313 58.3286C31.609 58.3286 31.6977 58.2953 31.7532 58.2398C31.8087 58.1844 31.8531 58.1067 31.842 58.0179L31.8531 57.9847Z" fill="#765239"/>
<path d="M57.9916 66.7493H45.577C45.577 66.7493 45.4328 64.8743 45.1776 62.6998C44.9336 60.5142 45.222 55.9988 45.222 55.9988L53.8645 58.5505L54.4303 59.6711L57.9916 66.7604V66.7493Z" fill="url(#paint17_linear_653_95)"/>
<path d="M57.9915 66.7492H51.2461C50.1589 66.0613 49.238 65.196 48.2284 64.2418C46.8306 62.9216 45.9208 59.438 45.8099 58.029C45.7877 57.7627 45.7766 57.4632 45.7655 57.1636C45.7655 57.0083 45.7766 56.9196 45.7766 56.9196L53.82 59.2938L54.4413 59.6599L58.0026 66.7492H57.9915Z" fill="#99734B"/>
<path d="M90.709 58.7501H89.056C88.7557 58.7501 88.5123 58.9935 88.5123 59.2937V92.377C88.5123 92.6773 88.7557 92.9207 89.056 92.9207H90.709C91.0092 92.9207 91.2526 92.6773 91.2526 92.377V59.2937C91.2526 58.9935 91.0092 58.7501 90.709 58.7501Z" fill="#9C6235"/>
<path d="M61.5864 58.5838H59.9334C59.6332 58.5838 59.3898 58.8272 59.3898 59.1274V92.2107C59.3898 92.5109 59.6332 92.7543 59.9334 92.7543H61.5864C61.8867 92.7543 62.1301 92.5109 62.1301 92.2107V59.1274C62.1301 58.8272 61.8867 58.5838 61.5864 58.5838Z" fill="#9C6235"/>
<path d="M90.0654 86.4638H28.8913C28.4808 86.4638 28.1479 86.7966 28.1479 87.2071V88.4608C28.1479 88.8713 28.4808 89.2041 28.8913 89.2041H90.0654C90.476 89.2041 90.8088 88.8713 90.8088 88.4608V87.2071C90.8088 86.7966 90.476 86.4638 90.0654 86.4638Z" fill="#9C6235"/>
<path d="M90.021 65.5955H28.8468C28.4363 65.5955 28.1035 65.9283 28.1035 66.3388V67.5925C28.1035 68.003 28.4363 68.3358 28.8468 68.3358H90.021C90.4315 68.3358 90.7643 68.003 90.7643 67.5925V66.3388C90.7643 65.9283 90.4315 65.5955 90.021 65.5955Z" fill="#9C6235"/>
<path d="M91.2523 62.3226V92.366C91.2523 92.6656 91.0082 92.9097 90.7087 92.9097H89.0667C88.7672 92.9097 88.5231 92.6656 88.5231 92.366V89.2042H73.6123V86.4639H88.5231V68.3357H73.6123V65.5954H88.5231V62.3226H91.2634H91.2523Z" fill="url(#paint18_linear_653_95)"/>
<path d="M62.1075 62.3114V92.3549C62.1075 92.6544 61.8635 92.8985 61.5639 92.8985H59.9219C59.6224 92.8985 59.3783 92.6544 59.3783 92.3549V89.193H44.4675V86.4527H59.3783V68.3246H44.4675V65.5843H59.3783V62.3114H62.1186H62.1075Z" fill="url(#paint19_linear_653_95)"/>
<path d="M100.971 67.4259C100.971 67.4259 100.849 67.5035 100.849 67.559C100.827 67.559 100.805 67.5701 100.771 67.5701H90.3094C90.3094 67.5701 90.2095 67.5479 90.1651 67.5146C89.2887 67.0819 87.2695 66.0945 86.504 65.795C86.382 65.7506 86.149 65.6508 86.0935 65.7284C86.0491 65.795 86.2045 65.9947 86.4042 66.2277C86.626 66.4828 86.9256 66.8379 87.3139 67.2483C87.3804 67.4037 87.2806 67.5812 87.1253 67.5812H78.7602C77.9836 67.5812 77.2069 67.5812 76.4303 67.5812C76.3305 67.3926 76.1974 67.093 76.0642 66.7269C75.9533 66.4274 75.8978 66.2388 75.8645 66.2388C75.7536 66.261 75.9644 67.8031 75.7314 67.8474C75.687 67.8474 75.6315 67.8031 75.5983 67.7587C75.0768 67.1374 74.8217 66.8268 74.389 66.2499C73.9563 65.6619 73.8675 65.673 73.8454 65.6951C73.801 65.7173 73.801 65.795 73.8232 66.2721C73.8232 66.5161 73.8454 66.8046 73.8454 67.0597C73.8454 67.3593 73.8454 67.5368 73.8232 67.6145C73.8232 67.6256 73.8121 67.6366 73.801 67.6477C73.5458 67.792 72.5584 66.616 72.4253 66.4607C72.0259 65.9836 71.8151 65.6397 71.7042 65.6841C71.6376 65.7173 71.6598 65.8948 71.7042 66.4939C71.7263 66.8268 71.7374 67.093 71.7485 67.2594C71.7485 67.2816 71.7596 67.3926 71.682 67.4924C71.6154 67.5701 71.5266 67.5923 71.5045 67.5923H64.4152L62.984 67.5701L42.8478 39.6567C43.0142 39.6235 43.1806 39.6124 43.347 39.6124H72.503C72.503 39.6124 72.5695 39.6124 72.5917 39.6345C75.8978 42.5745 80.5907 46.0693 86.7037 48.8539C90.2983 50.4959 93.6488 51.5499 96.5555 52.2488C96.6331 52.2932 96.6886 52.3819 96.6775 52.4707C96.6775 52.5595 96.622 52.6482 96.5222 52.6704C95.4128 53.1474 94.0038 53.6356 92.3285 53.9573C90.7531 54.268 89.3442 54.3456 88.1903 54.3234C88.1127 54.3456 88.0572 54.4122 88.0461 54.4899C88.0461 54.4899 88.0239 54.5897 88.1127 54.7118C88.3568 55.0557 101.082 67.1929 100.982 67.4259H100.971Z" fill="#755138"/>
<path d="M100.971 67.4259C100.971 67.4259 100.849 67.5035 100.849 67.559C100.827 67.559 100.805 67.5701 100.772 67.5701H90.3096C90.3096 67.5701 90.2097 67.5479 90.1653 67.5146C89.2889 67.0819 87.2697 66.0945 86.5042 65.795C86.3822 65.7506 86.1492 65.6508 86.0937 65.7284C86.0493 65.795 86.2046 65.9947 86.4043 66.2277C86.6262 66.4828 86.9258 66.8379 87.3141 67.2483C87.3806 67.4037 87.2808 67.5812 87.1255 67.5812H78.7604C77.9837 67.5812 77.2071 67.5812 76.4305 67.5812C76.3307 67.3926 76.1976 67.093 76.0644 66.7269C75.9535 66.4274 75.898 66.2388 75.8647 66.2388C75.7538 66.261 75.9646 67.8031 75.7316 67.8474C75.6872 67.8474 75.6317 67.8031 75.5985 67.7587C75.077 67.1374 74.8219 66.8268 74.3892 66.2499C73.9565 65.6619 73.8677 65.673 73.8456 65.6951C73.8012 65.7173 73.8012 65.795 73.8234 66.2721C73.8234 66.5161 73.8456 66.8046 73.8456 67.0597C73.8456 67.3593 73.8456 67.5368 73.8234 67.6145L52.733 39.6124H72.492C72.492 39.6124 72.5586 39.6124 72.5808 39.6345C75.8869 42.5745 80.5798 46.0693 86.6928 48.8539C90.2874 50.4959 93.6379 51.5499 96.5446 52.2488C96.6222 52.2932 96.6777 52.3819 96.6666 52.4707C96.6666 52.5595 96.6111 52.6482 96.5113 52.6704C95.4019 53.1474 93.9929 53.6356 92.3176 53.9573C90.7422 54.268 89.3332 54.3456 88.1794 54.3234C88.1018 54.3456 88.0463 54.4122 88.0352 54.4899C88.0352 54.4899 88.013 54.5897 88.1018 54.7118C88.3459 55.0557 101.071 67.1929 100.971 67.4259Z" fill="url(#paint20_linear_653_95)"/>
<path d="M56.1283 52.8923C56.1283 52.8923 59.0128 53.4359 60.1888 54.7784C61.4424 56.2095 62.1747 58.3729 62.2967 58.3174C62.3189 58.3174 62.2967 58.1954 62.2856 58.1067C62.3411 58.1621 62.4631 58.2953 62.4853 58.4839C62.5297 58.8722 62.1414 59.1384 62.1081 59.1606C61.8529 59.327 61.5645 59.3048 61.4424 59.2937C60.4661 59.1939 59.2347 58.7945 58.7021 58.617C58.1585 58.4728 57.0047 58.0956 55.9951 57.086C54.5529 55.6437 54.3864 53.9241 54.3643 53.4359C54.4419 53.325 54.7082 53.0143 55.1852 52.8812C55.629 52.7481 56.0062 52.859 56.1283 52.9034V52.8923Z" fill="url(#paint21_linear_653_95)"/>
<path d="M56.3502 52.6594C56.3502 52.6594 59.2347 53.2031 60.4107 54.5455C61.5978 55.8879 62.5186 58.0846 62.5186 58.0846C62.5408 58.1844 62.6185 58.6726 62.3189 58.9277C62.1192 59.0941 61.853 59.0831 61.6533 59.0609C60.677 58.961 59.4455 58.5616 58.913 58.3841C58.3693 58.2399 57.2155 57.8627 56.2059 56.8531C54.7637 55.4108 54.5973 53.6912 54.5751 53.2031C54.5751 53.2031 54.6195 52.6594 55.3961 52.6483C56.1727 52.6262 56.3391 52.6705 56.3391 52.6705L56.3502 52.6594Z" fill="url(#paint22_linear_653_95)"/>
<path d="M59.09 62.0231C58.8459 61.1245 58.4243 60.2369 58.2912 58.9944C58.036 56.8199 59.2231 56.0544 57.1706 53.5249C54.7854 51.2727 52.034 52.4154 49.5266 52.1492C46.4091 52.2712 45.9875 54.9116 45.9875 57.5632C45.9875 63.421 48.75 61.0801 50.8358 63.4987C52.034 64.9298 53.687 67.6369 55.4954 67.7589C56.1833 67.9142 57.4924 67.6147 58.0249 66.7937C59.2231 65.1517 59.3673 63.9313 59.09 62.0009V62.0231Z" fill="url(#paint23_linear_653_95)"/>
<path d="M47.1197 52.8924C46.3098 52.9257 43.9689 53.1032 42.3935 54.4123C41.9498 54.7784 40.8292 55.8546 40.4631 56.487C40.3855 56.6201 40.1969 56.9862 39.8308 57.3634C39.6643 57.5298 39.6311 57.5409 39.5645 57.6297C39.3093 58.018 39.4092 58.6725 39.631 58.9832C40.2412 59.8153 42.5156 59.1274 43.7803 58.7391C45.156 58.3175 45.9326 58.0845 46.7758 57.4078C48.3179 56.1763 48.8061 54.49 48.9725 53.7356C48.9725 53.7356 48.9725 53.5913 48.8948 53.4249C48.7506 53.1698 48.4732 53.081 48.1737 53.0033C47.9518 52.9368 47.5968 52.8702 47.1308 52.8924H47.1197Z" fill="url(#paint24_linear_653_95)"/>
<path d="M51.7683 59.3268L51.1026 59.1493C50.803 59.0717 50.6144 58.7721 50.7032 58.4837C50.7808 58.1952 51.0915 58.0177 51.4021 58.0954L52.0678 58.2729C52.3674 58.3505 52.556 58.6501 52.4672 58.9386C52.3895 59.227 52.0789 59.4045 51.7683 59.3268Z" fill="#714D33"/>
<path d="M57.6593 59.1719L57.9699 58.9611C58.2029 58.8058 58.2584 58.4952 58.0919 58.2622C57.9255 58.0403 57.6038 57.9848 57.3708 58.1402L57.0602 58.351C56.8272 58.5063 56.7717 58.8169 56.9381 59.0499C57.1045 59.2718 57.4263 59.3273 57.6593 59.1719Z" fill="#714D33"/>
<path d="M56.3393 63.6429C56.3393 63.6429 56.062 63.4765 56.0176 63.188C56.0176 63.1658 55.9732 62.8552 56.1396 62.7442C56.3504 62.6 56.8053 62.8441 57.0161 62.955C57.2047 63.0549 57.3378 63.1547 57.4265 63.0993C57.482 63.066 57.4709 63.0105 57.5375 62.8441C57.6041 62.6777 57.6706 62.5224 57.7927 62.478C57.8814 62.4447 58.0035 62.478 58.07 62.5446C58.2475 62.6888 58.2032 62.9994 58.1588 63.2435C58.1477 63.3433 58.1255 63.4654 58.0589 63.6207C57.9924 63.776 57.8703 64.0423 57.6263 64.1421C57.36 64.2531 57.0604 64.0978 56.7276 63.9202C56.539 63.8204 56.4059 63.7205 56.3171 63.6429H56.3393Z" fill="#714D33"/>
<path d="M57.3599 63.2988C57.7593 64.2529 57.7815 65.329 57.4154 66.2942C57.3821 66.383 57.5264 66.4163 57.5596 66.3386C57.9368 65.3512 57.9147 64.2418 57.5042 63.2655C57.4709 63.1767 57.3266 63.2211 57.3599 63.3099V63.2988Z" fill="#714D33"/>
<path d="M54.3866 65.8393C54.2757 65.8393 54.198 65.7838 54.1869 65.6729L54.0982 65.7617C54.198 65.7949 54.2646 65.8504 54.3312 65.917L54.3977 65.7949C54.3977 65.7949 54.3312 65.7727 54.2979 65.7617C54.2202 65.7395 54.1758 65.8504 54.2424 65.8948C54.309 65.9392 54.3755 65.9725 54.4532 65.9946C54.5309 66.0168 54.5752 65.9059 54.5087 65.8615L54.4421 65.8171L54.3645 65.9392C55.1743 66.3718 56.2061 66.5494 57.1158 66.4939C57.8814 66.4495 58.7134 66.0501 58.7689 65.1958C58.7689 65.1071 58.6247 65.1071 58.6247 65.1958C58.5692 66.1278 57.5374 66.3829 56.7719 66.3496C56.0064 66.3164 55.1522 66.1943 54.4421 65.806C54.3645 65.7617 54.2868 65.8837 54.3645 65.9281L54.431 65.9724L54.4865 65.8393C54.4199 65.8171 54.3644 65.7949 54.309 65.7506L54.2535 65.8837C54.2535 65.8837 54.3201 65.9059 54.3534 65.917C54.4199 65.9392 54.4754 65.8504 54.4199 65.7949C54.3312 65.7062 54.2424 65.6396 54.1204 65.5952C54.0649 65.5731 54.0205 65.6396 54.0316 65.684C54.0649 65.8504 54.198 65.9503 54.3755 65.9503C54.4643 65.9503 54.4754 65.806 54.3755 65.806L54.3866 65.8393Z" fill="#714D33"/>
<path d="M47.1752 52.5374C47.1752 52.5374 43.9024 52.7371 42.3824 54.0573C40.8625 55.3775 39.4979 57.674 39.4979 57.674C39.4203 57.9847 39.3759 58.3619 39.5867 58.6392C40.208 59.4824 42.6154 58.7502 43.7914 58.3952C45.1782 57.9736 45.9659 57.7295 46.8202 57.0528C48.3845 55.8102 48.8726 54.1349 49.0501 53.3805C49.0501 53.3805 49.0501 53.2363 48.9614 53.0699C48.8172 52.8147 48.5287 52.726 48.2292 52.6483C48.0073 52.5817 47.6412 52.5152 47.1752 52.5374Z" fill="#C59C6D"/>
</g>
<circle cx="50.3548" cy="8.04398" r="7.44672" fill="url(#paint25_linear_653_95)"/>
<path d="M28.9684 22.5542C33.1864 18.3322 37.3165 20.795 38.8543 22.5542C43.3359 22.5542 44.0169 25.8526 43.7972 27.5018C47.2243 27.5018 47.2024 30.3604 46.763 31.7897H13.8099C14.6008 27.8316 19.8513 27.2819 22.3778 27.5018C21.8505 22.4881 26.5518 22.1144 28.9684 22.5542Z" fill="url(#paint26_linear_653_95)"/>
<path d="M69.6476 18.4038C72.1296 15.9196 74.5598 17.3687 75.4646 18.4038C78.1017 18.4038 78.5024 20.3447 78.3731 21.3151C80.3897 21.3151 80.3767 22.9971 80.1182 23.8381H60.7283C61.1936 21.5091 64.2831 21.1857 65.7697 21.3151C65.4594 18.365 68.2257 18.1451 69.6476 18.4038Z" fill="url(#paint27_linear_653_95)"/>
<defs>
<filter id="filter0_d_653_95" x="0.180117" y="10.8021" width="129.407" height="126.465" filterUnits="userSpaceOnUse" color-interpolation-filters="sRGB">
<feFlood flood-opacity="0" result="BackgroundImageFix"/>
<feColorMatrix in="SourceAlpha" type="matrix" values="0 0 0 0 0 0 0 0 0 0 0 0 0 0 0 0 0 0 127 0" result="hardAlpha"/>
<feOffset dx="3.95608" dy="2.96706"/>
<feGaussianBlur stdDeviation="5.93413"/>
<feColorMatrix type="matrix" values="0 0 0 0 0 0 0 0 0 0 0 0 0 0 0 0 0 0 0.1 0"/>
<feBlend mode="normal" in2="BackgroundImageFix" result="effect1_dropShadow_653_95"/>
<feBlend mode="normal" in="SourceGraphic" in2="effect1_dropShadow_653_95" result="shape"/>
</filter>
<linearGradient id="paint0_linear_653_95" x1="57.4031" y1="3.4561" x2="57.4031" y2="122.432" gradientUnits="userSpaceOnUse">
<stop stop-color="#ADE6FF"/>
<stop offset="1" stop-color="#388FF3"/>
</linearGradient>
<linearGradient id="paint1_linear_653_95" x1="61.9684" y1="157.312" x2="61.9684" y2="89.6258" gradientUnits="userSpaceOnUse">
<stop stop-color="#887F3C"/>
<stop offset="0.905" stop-color="#756C29"/>
</linearGradient>
<linearGradient id="paint2_linear_653_95" x1="81.7077" y1="91.6038" x2="81.7077" y2="121.622" gradientUnits="userSpaceOnUse">
<stop stop-color="#524620"/>
<stop offset="1" stop-color="#524620" stop-opacity="0"/>
</linearGradient>
<linearGradient id="paint3_linear_653_95" x1="21.8129" y1="55.411" x2="21.8462" y2="82.8917" gradientUnits="userSpaceOnUse">
<stop offset="0.06" stop-color="#B6D55C"/>
<stop offset="1" stop-color="#1E857B"/>
</linearGradient>
<linearGradient id="paint4_linear_653_95" x1="92.4727" y1="36.8722" x2="92.5947" y2="80.7725" gradientUnits="userSpaceOnUse">
<stop offset="0.06" stop-color="#B6D55C"/>
<stop offset="0.18" stop-color="#ACD05D"/>
<stop offset="0.37" stop-color="#93C263"/>
<stop offset="0.62" stop-color="#69AC6B"/>
<stop offset="0.91" stop-color="#308E77"/>
<stop offset="1" stop-color="#1E857B"/>
</linearGradient>
<linearGradient id="paint5_linear_653_95" x1="75.8314" y1="86.0422" x2="89.2555" y2="66.849" gradientUnits="userSpaceOnUse">
<stop stop-color="#C59C6D"/>
<stop offset="0.2" stop-color="#BF9769"/>
<stop offset="0.43" stop-color="#B18A5D"/>
<stop offset="0.69" stop-color="#99744A"/>
<stop offset="0.94" stop-color="#7A5832"/>
</linearGradient>
<linearGradient id="paint6_linear_653_95" x1="46.8086" y1="85.7206" x2="60.3548" y2="66.3499" gradientUnits="userSpaceOnUse">
<stop stop-color="#C59C6D"/>
<stop offset="0.2" stop-color="#BF9769"/>
<stop offset="0.43" stop-color="#B18A5D"/>
<stop offset="0.69" stop-color="#99744A"/>
<stop offset="0.94" stop-color="#7A5832"/>
</linearGradient>
<linearGradient id="paint7_linear_653_95" x1="44.2563" y1="59.8039" x2="44.7333" y2="90.1026" gradientUnits="userSpaceOnUse">
<stop stop-color="#E6D4C1"/>
<stop offset="0.48" stop-color="#B18E69"/>
</linearGradient>
<linearGradient id="paint8_linear_653_95" x1="29.168" y1="57.8625" x2="43.5906" y2="57.8625" gradientUnits="userSpaceOnUse">
<stop stop-color="#D0B89E"/>
<stop offset="0.41" stop-color="#BF9A70"/>
<stop offset="1" stop-color="#A87332"/>
</linearGradient>
<linearGradient id="paint9_linear_653_95" x1="31.8246" y1="42.4852" x2="34.3095" y2="47.2377" gradientUnits="userSpaceOnUse">
<stop stop-color="#C59C6D"/>
<stop offset="1" stop-color="#A87332"/>
</linearGradient>
<linearGradient id="paint10_linear_653_95" x1="22.589" y1="49.1311" x2="33.284" y2="49.1311" gradientUnits="userSpaceOnUse">
<stop offset="0.35" stop-color="#DFC3A7"/>
<stop offset="1" stop-color="#D5AB7F"/>
</linearGradient>
<linearGradient id="paint11_linear_653_95" x1="28.5243" y1="49.9745" x2="42.6363" y2="58.3618" gradientUnits="userSpaceOnUse">
<stop offset="0.35" stop-color="#E6D4C1"/>
<stop offset="0.38" stop-color="#E5D1BD"/>
<stop offset="1" stop-color="#D5AB7F"/>
</linearGradient>
<linearGradient id="paint12_linear_653_95" x1="40.8059" y1="49.4863" x2="51.6783" y2="49.4863" gradientUnits="userSpaceOnUse">
<stop stop-color="#C59C6D"/>
<stop offset="1" stop-color="#A87332"/>
</linearGradient>
<linearGradient id="paint13_linear_653_95" x1="40.7506" y1="49.0204" x2="51.7118" y2="49.0204" gradientUnits="userSpaceOnUse">
<stop offset="0.35" stop-color="#DFC3A7"/>
<stop offset="1" stop-color="#D5AB7F"/>
</linearGradient>
<linearGradient id="paint14_linear_653_95" x1="40.0181" y1="41.9533" x2="42.0483" y2="46.9014" gradientUnits="userSpaceOnUse">
<stop stop-color="#C59C6D"/>
<stop offset="1" stop-color="#A87332"/>
</linearGradient>
<linearGradient id="paint15_linear_653_95" x1="22.9661" y1="57.7736" x2="37.0115" y2="57.7736" gradientUnits="userSpaceOnUse">
<stop offset="0.35" stop-color="#E6D4C1"/>
<stop offset="0.39" stop-color="#E5D1BD"/>
<stop offset="1" stop-color="#D5AB7F"/>
</linearGradient>
<linearGradient id="paint16_linear_653_95" x1="25.5401" y1="57.8403" x2="37.0116" y2="57.8403" gradientUnits="userSpaceOnUse">
<stop stop-color="#D5AB7F"/>
<stop offset="1" stop-color="#D5AB7F"/>
</linearGradient>
<linearGradient id="paint17_linear_653_95" x1="45.0889" y1="61.3685" x2="57.9916" y2="61.3685" gradientUnits="userSpaceOnUse">
<stop stop-color="#AB7F54"/>
<stop offset="1" stop-color="#AC885E"/>
</linearGradient>
<linearGradient id="paint18_linear_653_95" x1="80.4464" y1="73.3504" x2="91.6628" y2="86.9742" gradientUnits="userSpaceOnUse">
<stop stop-color="#864D22"/>
<stop offset="0.17" stop-color="#8D5328"/>
<stop offset="0.57" stop-color="#985E31"/>
<stop offset="1" stop-color="#9C6235"/>
</linearGradient>
<linearGradient id="paint19_linear_653_95" x1="51.3016" y1="73.3392" x2="62.518" y2="86.9631" gradientUnits="userSpaceOnUse">
<stop stop-color="#864D22"/>
<stop offset="0.17" stop-color="#8D5328"/>
<stop offset="0.57" stop-color="#985E31"/>
<stop offset="1" stop-color="#9C6235"/>
</linearGradient>
<linearGradient id="paint20_linear_653_95" x1="78.0281" y1="42.2306" x2="73.6459" y2="84.3336" gradientUnits="userSpaceOnUse">
<stop offset="0.08" stop-color="#755138"/>
<stop offset="0.17" stop-color="#6B4A32"/>
<stop offset="0.51" stop-color="#4E3422"/>
<stop offset="0.79" stop-color="#3C2618"/>
<stop offset="1" stop-color="#362215"/>
</linearGradient>
<linearGradient id="paint21_linear_653_95" x1="59.5897" y1="54.5343" x2="54.8191" y2="60.9135" gradientUnits="userSpaceOnUse">
<stop offset="0.19" stop-color="#C59C6D"/>
<stop offset="1" stop-color="#A87332"/>
</linearGradient>
<linearGradient id="paint22_linear_653_95" x1="54.5862" y1="55.8546" x2="62.5519" y2="55.8546" gradientUnits="userSpaceOnUse">
<stop stop-color="#C59C6D"/>
<stop offset="1" stop-color="#B37F45"/>
</linearGradient>
<linearGradient id="paint23_linear_653_95" x1="53.1434" y1="56.0211" x2="51.5347" y2="68.5244" gradientUnits="userSpaceOnUse">
<stop stop-color="#C59C6D"/>
<stop offset="1" stop-color="#B37F45"/>
</linearGradient>
<linearGradient id="paint24_linear_653_95" x1="39.048" y1="56.1629" x2="48.6255" y2="56.178" gradientUnits="userSpaceOnUse">
<stop stop-color="#C59C6D"/>
<stop offset="1" stop-color="#A87332"/>
</linearGradient>
<linearGradient id="paint25_linear_653_95" x1="63.852" y1="20.1449" x2="53.951" y2="18.7659" gradientUnits="userSpaceOnUse">
<stop stop-color="#6BC6EF"/>
<stop offset="1" stop-color="white"/>
</linearGradient>
<linearGradient id="paint26_linear_653_95" x1="51.3764" y1="41.0031" x2="45.1775" y2="23.1617" gradientUnits="userSpaceOnUse">
<stop stop-color="#6BC6EF"/>
<stop offset="1" stop-color="white"/>
</linearGradient>
<linearGradient id="paint27_linear_653_95" x1="66.6268" y1="41.3069" x2="71.9137" y2="19.5894" gradientUnits="userSpaceOnUse">
<stop stop-color="#6BC6EF"/>
<stop offset="1" stop-color="white"/>
</linearGradient>
</defs>
</svg>
