<svg width="64" height="86" viewBox="0 0 64 86" fill="none" xmlns="http://www.w3.org/2000/svg">
<path d="M24.835 4.5897L2.7705 60.2928C2.57274 60.7926 2.7751 61.3628 3.24573 61.625L42.095 83.2817C42.535 83.527 43.0869 83.4335 43.4211 83.0563L61.5764 62.5754C61.7818 62.344 61.8769 62.0358 61.8385 61.7277L55.3601 10.6956C55.3095 10.3017 55.0458 9.96593 54.6733 9.82643L36.3877 2.94632C35.894 2.76083 35.3376 2.96165 35.077 3.42002L33.0917 6.91066C32.7912 7.43955 32.1106 7.61278 31.594 7.29238L26.3986 4.07308C25.8299 3.72049 25.0818 3.96883 24.835 4.5897Z" stroke="#6BC6EF" stroke-width="3.91882" stroke-miterlimit="10"/>
<path d="M2.42407 61.1683L55.2773 10.0565" stroke="#6BC6EF" stroke-width="3.91882" stroke-miterlimit="10"/>
<path d="M43.3267 82.9684C47.613 78.4372 49.8173 75.4981 49.8173 75.4981C49.776 75.1976 46.021 38.3918 46.021 38.3918L55.5731 14.7565" stroke="#6BC6EF" stroke-width="3.91882" stroke-miterlimit="10"/>
<path d="M29.8559 76.1106L27.9249 36.4326" stroke="#6BC6EF" stroke-width="3.91882" stroke-miterlimit="10"/>
</svg>
