<svg width="38" height="38" viewBox="0 0 38 38" fill="none" xmlns="http://www.w3.org/2000/svg">
<path d="M26.9167 3.1665H11.0834C6.71116 3.1665 3.16675 6.71092 3.16675 11.0832V26.9165C3.16675 31.2888 6.71116 34.8332 11.0834 34.8332H26.9167C31.289 34.8332 34.8334 31.2888 34.8334 26.9165V11.0832C34.8334 6.71092 31.289 3.1665 26.9167 3.1665Z" stroke="white" stroke-width="3.16667" stroke-linecap="round" stroke-linejoin="round"/>
<path d="M25.3333 18.002C25.5287 19.3197 25.3036 20.6655 24.6901 21.8479C24.0765 23.0304 23.1058 23.9892 21.9159 24.5882C20.7259 25.1871 19.3775 25.3955 18.0623 25.1839C16.7471 24.9723 15.5321 24.3513 14.5901 23.4093C13.6481 22.4674 13.0272 21.2524 12.8156 19.9372C12.6039 18.622 12.8124 17.2735 13.4113 16.0836C14.0102 14.8937 14.9691 13.9229 16.1515 13.3094C17.3339 12.6958 18.6797 12.4708 19.9974 12.6662C21.3416 12.8655 22.586 13.4918 23.5468 14.4527C24.5076 15.4135 25.134 16.6579 25.3333 18.002Z" stroke="white" stroke-width="3.16667" stroke-linecap="round" stroke-linejoin="round"/>
<path d="M27.7083 10.2915H27.7241" stroke="white" stroke-width="3.16667" stroke-linecap="round" stroke-linejoin="round"/>
</svg>
