<svg width="127" height="135" viewBox="0 0 127 135" fill="none" xmlns="http://www.w3.org/2000/svg">
<g filter="url(#filter0_d_649_169)">
<mask id="mask0_649_169" style="mask-type:luminance" maskUnits="userSpaceOnUse" x="20" y="9" width="81" height="111">
<path d="M55.766 118.909L20.54 98.1084L20.6372 37.3955L38.6201 9.85303L58.8528 14.4048L84.3324 13.3958L100.82 39.3313L98.197 96.2548L62.7917 119.5L55.766 118.909Z" fill="white"/>
</mask>
<g mask="url(#mask0_649_169)">
<path d="M55.766 118.909L20.54 98.1084L20.6372 37.3955L38.6201 9.85303L58.8528 14.4048L84.3324 13.3958L100.82 39.3313L98.197 96.2548L62.7917 119.5L55.766 118.909Z" fill="url(#paint0_linear_649_169)"/>
<path d="M108.788 97.4358H6.81738V163.941H108.788V97.4358Z" fill="url(#paint1_linear_649_169)"/>
<path d="M41.0943 96.6883L55.7661 118.909L17.8046 110.62L15.3008 97.8318L39.7414 95.9558" fill="url(#paint2_linear_649_169)"/>
</g>
<path d="M106.628 64.2428L100.275 59.8256C99.281 59.1379 97.9282 58.9585 96.7398 59.3696L85.9171 63.1067C85.0352 63.4131 84.3401 64.0036 83.9813 64.7585L80.7525 71.5003C80.3489 72.3449 80.4161 73.309 80.9318 74.1088L84.1981 79.1314C84.4223 79.4827 84.7287 79.7891 85.1024 80.0358L89.4524 82.9582C90.0803 83.3842 90.8576 83.6085 91.6573 83.601L98.4215 83.5412C98.9297 83.5412 99.438 83.4366 99.9014 83.2497L105.627 80.9177C106.441 80.5889 107.077 79.9984 107.398 79.2809L110.163 73.1222C110.477 72.4271 110.477 71.6497 110.163 70.9546L107.689 65.5059C107.465 65.0201 107.107 64.5866 106.628 64.2578V64.2428Z" fill="url(#paint3_linear_649_169)"/>
<path d="M104.632 74.8712C104.58 75.073 104.438 75.2374 104.266 75.3495C103.691 75.7158 103.108 76.0745 102.532 76.4333C101.501 77.0686 100.469 77.6965 99.4304 78.3243C98.4961 78.8849 97.5544 79.4379 96.6127 79.991V94.1397C96.6127 94.5882 96.2464 94.917 95.8129 94.9394C95.3794 94.9619 95.0132 94.5583 95.0132 94.1397V75.4691C94.632 75.2225 94.2508 74.9759 93.8696 74.7292C92.9353 74.1238 91.9936 73.5258 91.0518 72.9354C90.1101 72.3449 89.1609 71.7545 88.2042 71.179C88.0248 71.0668 87.9052 70.9024 87.8379 70.7006C87.7707 70.4913 87.823 70.2671 87.9202 70.0877C88.0098 69.9158 88.2116 69.7738 88.3985 69.7215C88.5928 69.6692 88.8395 69.699 89.0114 69.8037C89.5495 70.1326 90.0802 70.4614 90.6183 70.7903C91.5676 71.3733 92.5093 71.9712 93.4511 72.5692C93.9743 72.9055 94.49 73.2343 95.0132 73.5707V66.1114C95.0132 65.663 95.3794 65.3341 95.8129 65.3117C96.2464 65.2893 96.6127 65.6929 96.6127 66.1114V69.587C97.4498 68.8171 98.2869 68.0398 99.124 67.2699C99.2884 67.1204 99.4753 67.0457 99.692 67.0382C99.9088 67.0307 100.103 67.1354 100.26 67.2699C100.41 67.4045 100.492 67.6362 100.492 67.838C100.492 68.0398 100.402 68.264 100.26 68.406C99.976 68.6676 99.6845 68.9367 99.4005 69.1983C98.4737 70.0578 97.5469 70.9099 96.6201 71.7694V74.8338C96.6201 74.8338 96.6201 74.8488 96.6201 74.8563C96.665 74.9983 96.6575 75.1478 96.6201 75.2898V78.1449C96.8369 78.0179 97.0536 77.8908 97.2704 77.7637C98.3168 77.1434 99.3557 76.523 100.387 75.8877C101.419 75.2599 102.45 74.6246 103.474 73.9743C103.661 73.8622 103.885 73.8473 104.087 73.8921C104.289 73.9369 104.453 74.0864 104.565 74.2583C104.677 74.4302 104.7 74.6844 104.647 74.8712H104.632Z" fill="#905C24"/>
<path d="M27.2896 34.8018L18.201 52.426C17.7226 53.3528 17.6703 54.4066 18.059 55.3633L21.3701 63.5775C21.7064 64.4071 22.3492 65.1246 23.2087 65.6179L33.4484 71.4702C33.994 71.7841 34.5994 71.9934 35.2422 72.0906L36.6174 72.2999C37.7311 72.4643 38.8746 72.2924 39.8463 71.7916L47.0813 68.1143C48.1501 67.5687 48.92 66.6942 49.2339 65.6628L53.3671 52.0597C53.6287 51.1927 53.5465 50.2734 53.1279 49.4438L45.5267 34.4131C44.727 32.8361 43.7777 31.3188 42.679 29.8763L40.6759 27.2454C38.8447 24.8387 34.7489 24.8013 32.843 27.1632C31.8265 28.4263 30.8175 29.6894 29.801 30.9526C28.8293 32.1634 27.9847 33.4564 27.2896 34.8018Z" fill="url(#paint4_linear_649_169)"/>
<path d="M47.8737 53.4576C47.799 53.7266 47.6047 53.9733 47.3655 54.1153C46.6255 54.5638 45.8856 55.0197 45.1456 55.4756C43.8377 56.2828 42.5371 57.0975 41.2441 57.9271C40.1454 58.6297 39.0542 59.3323 37.9704 60.0423V85.8284C37.9704 86.4487 37.4622 86.9046 36.8642 86.9345C36.2663 86.9644 35.758 86.4113 35.758 85.8284V66.2908C35.0854 65.9021 34.4202 65.506 33.755 65.1099C32.3124 64.2578 30.8774 63.3983 29.4498 62.5238C28.0222 61.6493 26.5947 60.7674 25.1746 59.8779C24.9204 59.721 24.756 59.4967 24.6663 59.2202C24.5766 58.9362 24.6439 58.6223 24.7784 58.3681C24.8457 58.2411 24.9429 58.1364 25.0625 58.0617C25.1671 57.9645 25.2942 57.8973 25.4362 57.8674C25.5857 57.8225 25.7277 57.815 25.8771 57.8449C26.0266 57.8449 26.1612 57.8972 26.2882 57.9795C27.0805 58.4802 27.8802 58.9735 28.68 59.4743C30.1001 60.3563 31.5351 61.2233 32.9627 62.0828C33.8895 62.6359 34.8163 63.189 35.7506 63.7346V59.8106C35.7356 59.7509 35.7207 59.6911 35.7207 59.6313C35.6908 59.4818 35.6908 59.3398 35.7431 59.1903C35.7431 59.1828 35.7431 59.1679 35.7506 59.1604V50.2736C35.6384 50.2212 35.5338 50.1465 35.4367 50.0568C35.048 49.6981 34.6519 49.3318 34.2632 48.9731C32.873 47.6875 31.4828 46.4019 30.0851 45.1164C29.8684 44.9146 29.7712 44.6231 29.7637 44.339C29.7488 44.0475 29.8908 43.771 30.0851 43.5617C30.1823 43.4571 30.3019 43.3749 30.4439 43.33C30.5784 43.2628 30.7204 43.2254 30.8699 43.2329C31.1614 43.2329 31.438 43.3599 31.6472 43.5543C32.0359 43.913 32.432 44.2793 32.8207 44.638C33.7998 45.5424 34.7715 46.4393 35.7431 47.3437V38.2924C35.7431 37.6721 36.2513 37.2161 36.8493 37.1862C37.4472 37.1563 37.9555 37.7094 37.9555 38.2924V57.4114C38.1124 57.3142 38.2619 57.2096 38.4189 57.1125C39.7119 56.2828 41.0049 55.4532 42.3055 54.6385C43.6134 53.8163 44.9214 53.0091 46.2444 52.2019C46.4985 52.045 46.8049 52.0225 47.0964 52.0898C47.3804 52.1571 47.6046 52.3588 47.7541 52.598C47.8364 52.7251 47.8812 52.8597 47.8887 53.0091C47.9186 53.1586 47.9186 53.3006 47.8663 53.4501L47.8737 53.4576Z" fill="#905C24"/>
<path d="M99.3932 92.8612L98.5561 97.712L94.6172 97.7494L90.5213 97.7793L52.5598 97.7569L51.8423 38.0379L57.3882 39.1441L58.6289 38.9199L61.6186 38.3818L61.7232 38.2771L64.8549 35.0781L65.0119 34.9212L72.6355 34.7119L73.7492 42.1264L76.2381 43.2325L76.9332 47.0444L75.9616 48.7111L77.561 54.257L80.0499 56.7533L80.4012 61.8134L82.5463 63.3381L83.1742 67.0752L86.6347 69.5043L87.1205 77.4719L91.0071 78.7873L93.5708 82.5991L93.496 86.553L95.0955 86.8296L97.3826 89.8118L99.3932 92.8612Z" fill="url(#paint5_linear_649_169)"/>
<path d="M89.5795 97.8169H51.8497C47.8137 87.0316 39.2034 63.8691 39.7714 63.9662C40.5114 64.0858 45.4145 52.3139 45.4145 52.3139L46.2142 35.0336L46.5356 34.3609L46.6851 34.0544L49.2263 34.4282C50.7435 36.4238 52.2833 38.5764 52.2833 38.5764L54.4881 44.7127L57.433 55.8791L67.4932 59.9301L70.9314 70.85L71.5443 76.366L78.0468 76.8592C78.0468 76.8592 78.9662 77.659 79.2128 77.7785C79.4595 77.8981 80.6852 79.7443 80.6852 79.7443L81.0515 81.7698L81.9708 85.6339L85.4089 87.4726L87.3746 88.8852L88.2342 92.0767L88.6602 95.328L89.587 97.8393L89.5795 97.8169Z" fill="url(#paint6_linear_649_169)"/>
<path d="M13.0512 62.262L20.3385 57.1945C21.4746 56.4022 23.0293 56.2004 24.3896 56.6713L36.7968 60.954C37.8058 61.3053 38.6055 61.9854 39.0166 62.845L42.7163 70.5733C43.1797 71.545 43.105 72.6437 42.507 73.563L38.7625 79.3181C38.5009 79.7217 38.1496 80.073 37.731 80.357L32.7382 83.7054C32.0207 84.1913 31.1238 84.4454 30.2045 84.4379L22.4463 84.3707C21.8633 84.3707 21.2803 84.2511 20.7571 84.0343L14.1947 81.3586C13.2605 80.9774 12.5355 80.3047 12.1618 79.4825L8.9927 72.4269C8.63394 71.6272 8.63394 70.7377 8.9927 69.938L11.8329 63.6895C12.087 63.129 12.5056 62.6357 13.0512 62.262Z" fill="url(#paint7_linear_649_169)"/>
<path d="M34.5917 69.654C34.5319 69.8782 34.3675 70.0801 34.1731 70.1997C33.5528 70.5734 32.9399 70.9545 32.327 71.3357C31.2433 72.0084 30.1595 72.6886 29.0907 73.3687C28.1863 73.9442 27.2819 74.5272 26.3775 75.1177V96.5163C26.3775 97.032 25.959 97.4132 25.4582 97.4357C24.9649 97.4581 24.5389 96.9947 24.5389 96.5163V80.2973C23.9858 79.9759 23.4252 79.647 22.8721 79.3182C21.6763 78.6081 20.4879 77.8981 19.2995 77.1731C18.1111 76.4481 16.9302 75.7156 15.7567 74.9756C15.5474 74.8411 15.4129 74.6617 15.3381 74.43C15.2634 74.1909 15.3157 73.9367 15.4278 73.7275C15.5325 73.5257 15.7642 73.3612 15.9734 73.3089C16.1977 73.2491 16.4817 73.279 16.676 73.3986C17.3412 73.8172 17.999 74.2283 18.6642 74.6393C19.8451 75.3718 21.026 76.0893 22.2144 76.7993C22.9843 77.2628 23.7541 77.7187 24.5239 78.1746V74.9159C24.4716 74.7514 24.4716 74.5571 24.5239 74.4002C24.5239 74.3927 24.5239 74.3852 24.5239 74.3777V70.8648C24.2848 70.6406 24.0456 70.4239 23.8064 70.1997C22.6554 69.1308 21.5044 68.0695 20.3533 67.0082C20.174 66.8437 20.0917 66.5971 20.0843 66.3579C20.0693 66.1113 20.1889 65.887 20.3533 65.7077C20.5103 65.5357 20.7794 65.4386 21.0036 65.4386C21.2502 65.4386 21.4745 65.5432 21.6538 65.7077C21.9827 66.0141 22.3116 66.313 22.6404 66.6195C23.2683 67.2025 23.9036 67.7855 24.5314 68.3685V64.3847C24.5314 63.869 24.95 63.4878 25.4507 63.4654C25.944 63.443 26.3701 63.8989 26.3701 64.3847V72.9352C26.4971 72.853 26.6317 72.7633 26.7587 72.6811C27.8275 71.9934 28.9038 71.3058 29.9801 70.6256C31.0639 69.9455 32.1476 69.2729 33.2389 68.6151C33.4556 68.4881 33.7097 68.4656 33.9489 68.5254C34.1806 68.5777 34.3675 68.7496 34.4945 68.944C34.6216 69.1383 34.644 69.4298 34.5842 69.654H34.5917Z" fill="#905C24"/>
<path d="M90.4839 97.7869H86.7095C86.5151 97.2787 86.3058 96.6508 86.1339 95.9557C85.6406 93.99 87.113 93.5042 87.113 93.5042L86.1339 89.8269L83.802 89.3336L80.4909 88.8403L76.3203 90.3127L77.5461 88.1078C77.5461 88.1078 75.3412 87.1287 72.5159 88.1078C69.6981 89.087 68.8386 91.0527 68.8386 91.0527L68.719 87.9883L72.643 86.2692L79.5118 86.0225L81.3504 84.0568C81.3504 84.0568 80.8571 83.1973 80.2442 82.5844C79.6314 81.9715 79.751 78.9071 79.751 78.9071L79.1381 79.8862L76.9332 78.1671L75.5804 78.0476V79.4004L71.1631 78.5409L68.3603 77.2179L66.7458 76.4556L68.8311 73.3911L68.8087 73.2491L68.6294 72.0159L68.293 69.669L67.9641 67.3819L64.0402 59.9002L50.6688 58.9211L52.8737 56.1033L55.3253 55.4904C55.1235 54.018 54.9142 52.5456 54.7124 51.0732C53.7333 50.6247 52.7467 50.1763 51.7675 49.7203L51.1547 48.1283L46.984 46.043L53.4866 42.8515L51.4013 38.4343L48.3369 37.8214L46.5132 34.3384L46.6627 34.032L52.3431 34.8616L52.8812 37.4776L52.8961 37.5299L53.0606 38.3296C53.0606 38.3296 53.0606 38.3446 53.0606 38.352L53.2474 39.2564L53.2698 39.3686L53.2998 39.533L53.3222 39.6451C53.3296 39.69 53.3446 39.7348 53.3521 39.7796L53.8528 42.2088L53.8678 42.276L56.8575 45.0564L57.6722 45.8113L58.0608 48.8982L58.7858 54.6832L68.5621 58.5399L68.6294 58.5623L68.6592 58.6595L71.9479 69.1234L72.7925 71.7991L75.0497 73.2043L78.6896 75.469L81.3953 79.7666L81.6718 83.6458L87.2177 86.9718L89.019 93.7658L90.2672 95.2905L90.4764 97.7869H90.4839Z" fill="url(#paint8_linear_649_169)"/>
<path d="M36.9838 97.787L38.0227 69.5121C38.0227 69.5121 34.4874 59.7359 34.764 59.5341C35.0405 59.3248 38.8523 52.74 38.8523 52.74L40.0333 43.1058L43.2247 41.2372L46.2219 35.0112L46.5433 34.3385L46.5956 34.2339L48.9799 38.9202L46.775 44.4436L45.6688 45.5498L47.2608 48.248L48.6137 51.9253L49.6899 55.3336L46.4013 56.4622C46.4386 58.0093 46.4835 59.549 46.5209 61.0961C47.4402 60.9765 48.3595 60.8495 49.2788 60.7299C50.6915 61.0961 52.0966 61.4624 53.5092 61.8361L50.8111 62.7256L51.551 66.2832L49.8319 69.5943L50.9381 72.6588L57.6873 73.6379L51.3118 75.6036L52.6647 78.7951L58.1881 79.0417L55.1237 81.2466L52.9188 83.4515L56.2299 86.3963L65.184 83.3319L68.3755 84.8043L66.2901 85.2976L59.0551 86.8896L60.5275 90.567L63.1061 93.1455L69.6087 93.5118L72.6731 94.4909L70.954 96.3295L75.0051 97.4358L75.0948 97.802H37.0137L36.9838 97.787Z" fill="url(#paint9_linear_649_169)"/>
<path d="M71.9104 56.0884V60.6252L65.5349 53.3902L63.0834 52.1644L62.2238 45.4152L61.9772 42.3508L58.6362 38.9201L61.6259 38.382L61.7305 38.2773C63.1207 39.2864 64.6829 40.5121 64.6829 40.5121L65.5424 44.4361L68.4872 49.7129L69.4663 52.1644L66.5215 48.9729L64.8025 47.3809L66.0282 51.7982L70.1988 54.0031L68.973 54.3693L71.9179 56.0884H71.9104Z" fill="url(#paint10_linear_649_169)"/>
<path d="M92.8984 97.7122C92.8835 97.7794 92.719 97.8243 91.7922 97.8317C90.9776 97.8317 90.3348 97.8018 89.8714 97.7869C89.6995 97.7869 89.4827 97.7719 89.2361 97.7719C88.9894 97.7719 88.7129 97.7645 88.4139 97.7719C88.4438 97.4356 88.4737 96.9498 88.4812 96.3668C88.526 94.0722 88.242 92.4653 87.9281 90.7761C87.5544 88.773 87.3152 88.3246 86.934 87.9807C86.6201 87.6967 86.1044 87.3753 85.499 87.0091C84.9832 86.6952 84.4899 86.4187 84.2956 86.314C83.6229 85.9478 83.1521 85.6861 82.584 85.163C82.5392 85.1181 82.5018 85.0807 82.4495 85.0284C82.2477 84.8042 81.418 83.6905 81.3433 82.5918C81.3059 82.0088 81.4106 81.6874 81.3284 80.813C81.2985 80.514 81.2387 80.1777 81.0967 79.7591C80.4987 77.913 79.1085 76.4779 78.3237 75.3194C77.3371 73.8694 76.9335 71.5375 76.3356 66.7241C75.917 63.3607 76.1338 62.5535 75.2518 61.2455C74.5941 60.2739 73.8317 59.646 73.0544 59.1378C72.5387 58.8014 72.023 58.5174 71.5297 58.2185C70.5879 57.6504 69.3098 56.761 67.9346 55.3484C70.4982 56.3425 72.4116 57.3739 73.4281 58.0764C73.5402 58.1512 73.6449 58.1437 74.9753 59.2798C75.7601 59.9525 76.0142 60.2589 76.1338 60.4084C76.6121 61.0362 76.8289 61.5968 76.8737 61.7239C77.1877 62.5834 77.1578 63.3234 77.1503 63.57C77.098 65.3638 77.4717 67.905 77.7034 69.4596C78.1817 72.6586 78.7796 74.1833 79.7588 75.723C80.865 77.457 81.7768 77.6888 82.2103 79.4228C82.8157 81.8369 82.2327 82.4947 82.8606 83.6756C83.6155 85.1106 85.6559 85.8955 85.9997 86.03C86.3734 86.172 87.1134 86.4187 87.7338 87.1138C88.0327 87.4501 88.1971 87.7715 88.3093 88.0181C88.8997 89.2738 88.8997 90.081 89.2809 91.5758C89.2809 91.5758 89.7593 93.4519 90.5515 95.0439C90.6562 95.2606 90.8804 95.6792 91.0373 95.9707C91.3288 96.5163 91.4783 96.7854 91.568 96.8975C92.1211 97.5477 92.9134 97.5851 92.8835 97.7271L92.8984 97.7122Z" fill="url(#paint11_linear_649_169)"/>
<path d="M75.2662 73.406C75.2139 73.421 75.1616 73.406 75.0719 73.3911C74.9374 73.3612 74.7281 73.3014 74.3021 73.2416C74.3021 73.2416 74.2422 73.2341 74.1526 73.2192C73.4649 73.1295 72.6951 73.4508 72.0075 73.8993C70.8191 74.6691 69.8399 75.7978 69.8399 75.7978C69.3242 76.3359 68.8384 76.8666 68.3825 77.3973C65.6095 80.6485 64.0175 83.855 63.599 87.3678C63.1132 91.4562 63.8083 97.8317 63.8083 97.8317C63.8083 97.8317 63.8083 97.884 63.8232 97.9662H61.4016C59.2565 97.9662 57.1039 97.9662 54.9588 97.9588C55.2951 94.9242 55.8333 92.1738 56.4611 89.7671C57.8588 84.4155 59.7124 80.7606 60.7588 79.3929C62.9263 76.5601 65.5423 74.6019 65.5423 74.6019C66.1103 74.146 66.6111 73.7498 67.067 73.3985C67.523 73.0473 67.9265 72.7408 68.2853 72.4792C68.3825 72.4045 68.517 72.3148 68.659 72.2027C68.9804 71.956 69.3766 71.5973 69.7727 71.0816C69.9371 70.8723 70.0567 70.6854 70.1314 70.5584C70.1314 70.5584 70.1763 70.4761 70.2286 70.3341C70.2809 70.1996 70.3482 70.0127 70.4005 69.8184C70.7518 68.3684 70.0118 65.6702 70.0118 65.6702C69.7876 64.863 69.5634 64.0483 69.1224 62.8823C68.3376 60.8194 67.9415 59.788 67.0745 58.8762C66.3046 58.0615 65.5423 57.7326 64.1595 57.1421C61.0578 55.8043 59.3088 56.1556 58.5464 54.7878C58.367 54.4589 58.4493 54.4215 58.2699 53.263C58.2176 52.9267 57.7616 50.1687 56.4462 47.2313C55.7137 45.5945 55.3624 44.7724 54.899 44.1819C54.7495 43.995 54.5253 43.726 54.316 43.3747C54.2562 43.2775 54.2039 43.1803 54.1516 43.0682C54.0619 42.8813 53.9797 42.6796 53.9199 42.4554C53.9199 42.4329 53.9049 42.4105 53.8975 42.3881C53.8152 42.0816 53.7181 41.6257 53.6807 41.4388C53.5985 41.0576 53.5836 40.9082 53.4714 40.3252C53.449 40.1981 53.4266 40.086 53.4042 39.959C53.3967 39.9141 53.3892 39.8693 53.3743 39.8244C53.3743 39.7871 53.3593 39.7497 53.3519 39.7123C53.3444 39.66 53.3294 39.6077 53.322 39.5479C53.322 39.5105 53.307 39.4731 53.2995 39.4358C53.2995 39.4208 53.2995 39.4133 53.292 39.3984C53.2397 39.1517 53.1799 38.8603 53.1127 38.5314C53.1127 38.5314 53.1127 38.5164 53.1127 38.509C53.0678 38.3072 53.023 38.0904 52.9781 37.8587C52.9707 37.8064 52.9557 37.7615 52.9482 37.7092C52.9632 37.7092 52.9707 37.7092 52.9856 37.7092C53.89 37.6345 54.6748 37.7092 55.2279 37.8737C55.4745 37.9484 55.6763 38.0456 55.8109 38.1577C55.8781 38.2175 56.2817 38.5388 56.7003 39.0471C56.7526 39.1143 56.8124 39.1816 56.8722 39.2564C57.6196 40.1832 58.1129 40.7886 58.7183 41.7677C59.2864 42.6796 59.989 43.9726 60.5944 45.6319C61.0802 46.8427 61.3567 47.8517 61.5212 48.5393C61.5212 48.5393 62.3583 52.1344 62.5526 52.7623C62.6572 53.0837 62.7843 53.3901 62.7843 53.3901C62.7992 53.4349 62.8142 53.4648 62.8217 53.4872C62.8665 53.5769 63.0085 53.8161 64.025 54.1749C64.1147 54.2123 64.2343 54.2571 64.3688 54.2945C64.5034 54.3393 64.6603 54.3767 64.8322 54.4141C65.0266 54.4589 65.1686 54.4739 65.2134 54.4813C65.7516 54.5561 66.7232 54.8401 67.7247 55.2362C68.2853 55.453 68.8758 55.6922 69.5858 56.0883C70.5126 56.6115 72.5082 57.7775 73.8312 60.371C73.8461 60.3934 73.8835 60.4682 73.9358 60.5803C74.7879 62.3367 74.9822 64.1604 75.2438 66.5896C75.2886 66.9782 75.3484 67.7032 75.4008 68.2339C75.4381 68.6599 75.5203 69.6764 75.5727 70.947C75.6324 72.5241 75.5951 73.3163 75.2961 73.406H75.2662Z" fill="url(#paint12_linear_649_169)"/>
<path d="M71.9707 69.4298C71.8512 70.8125 71.2383 71.3581 70.0723 72.3148C69.8032 72.5316 69.3622 72.8529 68.8241 73.2491C67.0079 74.572 64.0855 76.6947 63.0465 78.2344C61.6937 80.23 60.2288 81.4558 59.3991 84.4604C58.5695 87.465 58.1435 89.4607 57.8669 91.2694C57.7174 92.256 57.0373 90.9704 56.4543 89.5952C57.852 84.2436 59.7056 80.5887 60.752 79.221C62.9195 76.3882 65.5354 74.43 65.5354 74.43C66.1035 73.9741 66.6043 73.578 67.0602 73.2267C67.5161 72.8754 67.9197 72.5689 68.2785 72.3073C68.3757 72.2326 68.5102 72.1429 68.6522 72.0308C68.9736 71.7841 69.3697 71.4254 69.7658 70.9097C69.9303 70.7004 70.0499 70.5136 70.1246 70.3865C70.1246 70.3865 70.1695 70.3042 70.2218 70.1622C70.2741 70.0277 70.3414 69.8408 70.3937 69.6465C70.745 68.1965 70.005 65.4983 70.005 65.4983C69.7808 64.6911 69.5566 63.8764 69.1156 62.7105C68.3308 60.6476 67.9347 59.6162 67.0677 58.7043C66.2978 57.8896 65.5354 57.5607 64.1527 56.9703C61.0509 55.6324 59.302 55.9837 58.5396 54.6159C58.3602 54.287 58.4424 54.2497 58.2631 53.0912C58.2107 52.7548 57.7548 49.9968 56.4394 47.0595C55.7069 45.4226 55.3556 44.6005 54.8922 44.01C54.7427 43.8231 54.5185 43.5541 54.3092 43.2028C54.2569 43.0982 54.1971 42.9935 54.1448 42.8963C54.0551 42.7095 53.9729 42.5077 53.9131 42.2835C53.9131 42.261 53.8981 42.2386 53.8906 42.2162C53.8084 41.9098 53.7113 41.4538 53.6739 41.267C53.5917 40.8858 53.5767 40.7363 53.4646 40.1533C53.4422 40.0263 53.4198 39.9142 53.3973 39.7871C53.3899 39.7423 53.3824 39.6974 53.3674 39.6526C53.3674 39.6152 53.3525 39.5778 53.345 39.5404C53.3375 39.4881 53.3226 39.4358 53.3151 39.376C53.3151 39.3386 53.3002 39.3013 53.2927 39.2639C53.2927 39.2489 53.2927 39.2415 53.2852 39.2265C53.2329 38.9799 53.1731 38.6884 53.1058 38.3595C53.1058 38.3595 53.1058 38.3446 53.1058 38.3371C53.061 38.1353 53.0162 37.9185 52.9713 37.6868C52.9638 37.6345 52.9489 37.5897 52.9414 37.5374C52.9564 37.5374 52.9638 37.5374 52.9788 37.5374C53.644 38.2549 54.952 39.7497 55.4079 40.8335C55.7368 41.6182 56.3496 43.3822 56.9177 45.0714C57.4185 46.5662 57.8744 47.9937 58.0463 48.629C58.0687 48.7187 58.0912 48.8159 58.121 48.9206C58.4873 50.4453 58.988 53.719 59.6757 54.5187C60.4081 55.3783 63.6295 55.5278 64.3022 55.9015C64.8553 56.2004 67.2022 56.8133 68.6223 58.5623C68.6522 58.5997 68.6896 58.6445 68.7195 58.6819C68.9885 59.0406 69.2277 59.4368 69.3996 59.8927C70.4086 62.5087 71.9184 67.4117 72.0081 69.1532C72.0081 69.2728 72.0081 69.3774 72.0081 69.4597L71.9707 69.4298Z" fill="url(#paint13_linear_649_169)"/>
<path d="M63.046 65.4162C62.7918 69.1309 62.8068 71.0219 61.5212 72.3897C60.3926 73.593 59.0697 74.1909 59.0697 74.1909C57.7841 74.7739 56.7452 74.7814 56.1622 75.7157C55.9978 75.9773 55.9305 76.2763 55.796 76.8742C55.4671 78.2943 55.4746 79.4229 55.4746 79.5574C55.4746 81.8669 55.1532 86.5383 54.8243 89.4458C54.3609 93.5566 53.2099 97.7646 53.2099 97.7646H49.5625C49.5625 97.7646 49.7493 97.4432 50.2576 96.5164C50.5715 95.9409 51.6478 93.8929 52.3803 91.6208C53.0828 89.4533 53.2772 87.7193 53.4267 86.3963C53.4865 85.8582 53.5388 85.2603 53.5911 84.6324C53.7256 82.9507 53.8452 81.0373 54.0395 79.4229C54.0844 79.0417 54.1218 78.8175 54.1965 78.3615C54.4506 76.777 54.6225 76.2538 54.7571 75.91C54.929 75.4765 55.0336 75.17 55.3251 74.8785C55.7885 74.4077 56.2967 74.2059 56.4911 74.1311C57.6122 73.72 60.2431 72.7634 61.1924 71.0592C61.439 70.6108 61.5212 69.9082 61.6782 68.5031C61.7529 67.8154 61.7156 67.7855 61.8277 65.3714C61.865 64.5941 61.8875 63.8093 61.9099 63.0319C61.9398 62.0528 61.9547 61.5521 61.8352 60.9392C61.7529 60.5356 61.6931 60.2291 61.4988 59.8928C61.2297 59.4294 60.8261 59.1229 59.8694 58.6745C58.2251 57.9046 57.3207 57.8224 56.1846 56.9779C55.9828 56.8284 55.7586 56.6415 55.5867 56.3425C55.1532 55.6101 55.3326 54.7729 55.3849 54.4665C55.3849 54.4515 55.3849 54.4366 55.3924 54.4216C55.5045 53.7789 55.512 53.0987 55.4671 52.4335C55.3475 50.8191 54.9065 49.3243 54.8094 48.8758C54.4581 47.2016 54.1218 46.4691 54.0022 45.5647C53.9573 45.2284 53.9424 44.8696 53.9723 44.4286C54.0171 43.5841 54.189 42.8964 54.3236 42.433C54.5328 42.3583 54.7944 42.291 54.8766 42.3957C54.9514 42.4928 54.8468 42.6872 54.8318 42.732C54.7346 42.9338 54.6973 43.2702 54.6973 43.6588C54.6973 44.7949 55.0187 46.3645 55.0187 46.3794C55.1756 46.94 55.3475 47.6127 55.512 48.3825C55.7138 49.3243 55.8707 50.0941 55.9604 51.0807C56.1772 53.5995 56.1772 55.3036 56.1772 55.3036C56.1772 55.4232 56.1772 55.6624 56.2968 55.9315C56.6107 56.6266 57.4478 56.8657 57.7318 56.9554C58.7034 57.2544 61.3792 58.2559 62.4256 59.2948C63.4047 60.274 63.2926 61.993 63.0609 65.4237L63.046 65.4162Z" fill="url(#paint14_linear_649_169)"/>
<path d="M49.8842 71.2236L49.376 82.9133L41.4309 96.2697L38.0077 97.9364H20.7423C20.3163 97.9364 20.0248 97.5029 20.1817 97.1068C23.5302 88.8553 26.8786 80.5963 30.2196 72.3448C30.4812 71.6945 31.109 71.2685 31.8116 71.2685C34.2856 71.2685 36.7521 71.2535 39.226 71.2535C42.7763 71.246 46.3265 71.2386 49.8768 71.2311L49.8842 71.2236Z" fill="url(#paint15_linear_649_169)"/>
<path d="M99.3931 92.8615L98.5635 97.7123L94.6246 97.7496L95.3421 95.5896L93.8697 94.3638L93.9893 91.1723C93.9893 91.1723 96.5679 90.3128 96.0746 90.0661C95.5813 89.8195 94.1089 88.96 93.496 88.8404C92.8831 88.7208 89.9383 90.9257 89.9383 90.9257L88.8321 88.7208L92.2702 85.903L89.5944 85.2677C89.5944 85.2677 90.6707 82.8386 90.6707 82.4724C90.6707 82.1061 89.5645 80.7533 89.5645 80.7533L87.7259 83.2048L86.1339 80.5066L82.9424 80.0134C82.9424 80.0134 85.8872 77.3151 86.0068 76.9489C86.1264 76.5827 85.7602 74.1311 85.7602 74.1311L84.1682 70.8201H81.2233C81.2233 70.8201 79.5043 69.101 79.138 68.8543C78.7718 68.6077 81.8362 67.5015 81.8362 67.5015L80.73 64.4371L77.6656 63.2113L79.5043 62.5984L78.2785 58.9211H75.087L78.2785 57.5683L76.4398 54.7505L74.1079 54.1376L73.7417 51.6861L70.0643 48.0088C70.0643 48.0088 71.4172 48.8683 71.903 48.8683C72.3888 48.8683 75.4607 48.6217 75.4607 48.6217L74.8478 45.5573L74.1154 44.4511L69.4515 45.3106C69.4515 45.3106 71.4172 43.2253 71.7834 43.1057C72.1497 42.9862 70.8043 37.4627 70.8043 37.4627C70.468 36.8498 70.1316 36.2444 69.7953 35.6315C68.151 35.4522 66.5066 35.2728 64.8623 35.1008L65.0193 34.9439L72.643 34.7346L73.7491 42.149L76.2455 43.2552L76.9406 47.0671L75.969 48.7338L77.561 54.2796L80.0574 56.776L80.4012 61.8361L82.5463 63.3608L83.1666 67.1054L86.6347 69.5345L87.1205 77.502L90.9996 78.8175L93.5632 82.6293L93.496 86.5832L95.088 86.8597L97.3751 89.8419L99.3857 92.8914L99.3931 92.8615Z" fill="url(#paint16_linear_649_169)"/>
<path d="M72.0003 73.8995C70.8119 74.6694 69.8327 75.798 69.8327 75.798C69.317 76.3361 68.8312 76.8668 68.3753 77.3975C65.6024 80.6488 64.0103 83.8552 63.5918 87.3681C63.1059 91.4564 63.801 97.8319 63.801 97.8319C63.801 97.8319 63.8011 97.8843 63.816 97.9665H62.1418C61.8129 95.4103 61.5065 91.0005 62.0969 87.3008C62.9565 81.9044 66.6338 77.674 67.5531 76.9341C68.45 76.2165 70.7969 74.221 71.9928 73.8921L72.0003 73.8995Z" fill="url(#paint17_linear_649_169)"/>
<path d="M62.4334 66.2384C62.3438 67.4342 62.5231 70.7453 61.8804 71.2984C61.2376 71.8515 59.952 73.2268 58.659 73.7799C57.3734 74.333 55.8038 73.7799 55.4376 75.342C55.0713 76.9041 54.5183 77.9206 54.5183 79.7592C54.5183 81.5979 54.4286 86.6579 54.4286 86.6579L53.584 84.6175C53.7185 82.9358 53.8381 81.0223 54.0324 79.4079C54.0773 79.0267 54.1147 78.8025 54.1894 78.3466C54.4435 76.7621 54.6154 76.2389 54.75 75.8951C54.9219 75.4616 55.0265 75.1551 55.318 74.8636C55.7814 74.3928 56.2897 74.191 56.484 74.1162C57.6051 73.7051 60.236 72.7484 61.1852 71.0443C61.4319 70.5959 61.5141 69.8933 61.6711 68.4881C61.7458 67.8005 61.7084 67.7706 61.8206 65.3564C61.8579 64.5791 61.8804 63.7943 61.9028 63.017C61.9327 62.0379 61.9476 61.5371 61.828 60.9242C61.7458 60.5206 61.686 60.2142 61.4917 59.8779C61.2226 59.4145 60.819 59.108 59.8623 58.6596C58.218 57.8897 57.3136 57.8075 56.1775 56.9629C55.9757 56.8134 55.7515 56.6266 55.5796 56.3276C55.1461 55.5951 55.3255 54.758 55.3778 54.4516C55.3778 54.4366 55.3778 54.4217 55.3853 54.4067C55.4077 55.0944 55.5198 55.6699 55.8113 55.924C56.6409 56.6565 57.2837 57.4861 58.6664 57.9495C60.0492 58.4129 61.1479 58.226 61.7906 59.7881C62.4334 61.3502 62.5306 65.0351 62.4334 66.2309V66.2384Z" fill="url(#paint18_linear_649_169)"/>
<path d="M37.8657 97.9288H62.5156C62.9716 97.9288 63.2631 97.443 63.0538 97.0319L50.0636 71.3954C49.9291 71.1338 49.5629 71.1488 49.4507 71.4104L37.8657 97.9288Z" fill="url(#paint19_linear_649_169)"/>
<path d="M49.8836 71.2312L47.4097 97.9216C49.48 97.9216 51.5504 97.929 53.6282 97.9365C52.38 89.0347 51.1318 80.133 49.8836 71.2312Z" fill="url(#paint20_linear_649_169)"/>
<path d="M49.8916 71.2312L48.7406 97.929H43.9048L49.8916 71.2312Z" fill="url(#paint21_linear_649_169)"/>
<path d="M49.8838 71.2312C50.3547 80.133 50.8255 89.0347 51.2964 97.929C52.9109 97.929 54.5253 97.929 56.1397 97.9216C54.0544 89.0273 51.9691 80.1255 49.8913 71.2312H49.8838Z" fill="url(#paint22_linear_649_169)"/>
<path d="M59.0546 50.1238C59.0546 50.1238 59.0097 50.0341 58.9724 49.9369C57.9634 47.2836 56.5358 43.3148 55.2727 40.9829C54.7868 40.086 54.0544 38.9275 52.9332 37.6793C52.9257 37.627 52.9108 37.5821 52.9033 37.5298C53.8226 37.4476 54.6299 37.5148 55.1904 37.6868C56.7152 40.0262 57.7391 43.1354 57.2458 41.82C56.8273 40.7063 55.452 39.1517 55.2876 39.2788C55.2353 39.3236 55.4072 39.5852 55.751 40.2728C56.177 41.1398 56.4237 41.805 56.9095 43.1354C58.0306 46.1774 59.1069 50.1089 59.0546 50.1313V50.1238Z" fill="url(#paint23_linear_649_169)"/>
<path d="M59.9518 44.9892C59.9518 44.9892 60.9309 47.1343 61.5438 49.2794C62.1567 51.4245 62.4033 53.5696 63.8159 54.1227C65.2286 54.6758 66.0881 54.7356 66.0881 54.7356C66.0881 54.7356 64.0626 55.1018 62.5902 54.0629C61.1177 53.024 61.1178 53.5696 61.8577 54.1227C62.5977 54.6758 63.7561 55.1617 62.777 54.9225C61.7979 54.6833 60.9384 54.2498 60.6319 53.024C60.3255 51.7982 60.0788 48.6666 59.4062 46.8279C58.7335 44.9893 56.8276 41.9248 57.5077 42.5377C58.1804 43.1506 59.2866 45.2359 59.593 45.789C59.8995 46.3421 59.4734 44.5034 59.0997 43.6439C58.7335 42.7844 59.9593 44.9967 59.9593 44.9967L59.9518 44.9892Z" fill="url(#paint24_linear_649_169)"/>
<path d="M69.003 57.7028C69.9223 58.7267 70.5127 59.6909 70.8865 60.4009C71.5816 61.7164 71.8955 62.86 72.1347 63.7345C72.2692 64.2203 72.2916 64.3847 72.5457 65.5731C73.4127 69.654 73.5473 69.7811 73.3604 70.2744C73.1511 70.8424 72.2019 71.5674 70.311 73.0174C69.9223 73.3164 69.1973 73.862 68.7488 74.1909C68.0238 74.7215 67.7249 74.9158 67.1793 75.3494C64.9295 77.1432 63.5991 78.9295 62.762 80.0731C60.2955 83.5934 59.8545 87.4127 60.004 87.4501C60.0788 87.4725 60.2581 86.6055 61.2821 84.281C61.8651 82.9581 62.1715 82.263 62.7022 81.3586C63.5842 79.8638 64.5035 78.8024 65.0566 78.212C66.1478 77.0385 67.112 76.321 68.1659 75.5362C69.2945 74.6916 70.3932 73.9965 71.3573 73.3911C72.045 72.9576 72.6653 72.4195 73.3828 72.0234C73.4202 72.0009 73.5473 71.9336 73.6893 71.7991C73.8761 71.6197 73.9808 71.4179 74.0331 71.2909C74.3844 70.6107 74.3321 69.9306 74.3022 69.5942C74.1452 68.0321 73.495 66.1112 73.0166 64.5267C72.7401 63.6149 72.329 62.2321 72.4336 62.1948C72.5233 62.1574 72.9867 63.0917 73.3231 63.9512C74.1826 66.1561 74.1751 67.8004 74.2872 67.7855C74.4143 67.778 74.5339 65.6927 73.9957 63.1739C73.8761 62.6133 73.8014 62.2471 73.6295 61.7463C73.5249 61.4399 72.6578 58.9734 70.3184 57.1497C69.9821 56.8881 69.6607 56.6713 69.6233 56.7087C69.556 56.7834 70.7295 57.6355 71.6638 59.1304C72.3664 60.2515 72.7999 61.5221 72.7625 61.5445C72.7475 61.5445 72.6803 61.4324 72.6504 61.3801C72.172 60.5728 71.1107 59.3845 69.9746 58.1512C68.7339 56.7984 68.106 56.1257 68.0537 56.1706C68.0164 56.2005 68.1509 56.492 69.0179 57.7252L69.003 57.7028Z" fill="url(#paint25_linear_649_169)"/>
<path d="M55.4596 52.4262C55.34 50.8117 54.899 49.3169 54.8019 48.8684C54.4506 47.1942 54.1142 46.4618 53.9946 45.5574C54.0993 45.8638 54.2114 46.1703 54.3385 46.4618C54.8915 47.7473 55.4446 49.7728 55.5343 50.7893C55.5642 51.1331 55.5119 51.746 55.4596 52.4337V52.4262Z" fill="url(#paint26_linear_649_169)"/>
<path d="M89.2656 96.7854C89.2656 97.0544 89.2506 97.4133 89.2432 97.7645C88.9965 97.7645 88.72 97.7571 88.421 97.7645C88.4509 97.4282 88.4808 96.9424 88.4883 96.3594C88.5331 94.0648 88.2491 92.4578 87.9352 90.7686C87.5615 88.7656 87.3223 88.3171 86.9411 87.9733C86.6272 87.6893 86.1115 87.3679 85.5061 87.0017C84.9903 86.6877 84.4971 86.4112 84.3027 86.3066C83.6301 85.9403 83.1592 85.6787 82.5911 85.1555C82.5463 85.1107 82.5089 85.0733 82.4566 85.021C82.2548 84.7968 81.4252 83.6831 81.3504 82.5844C81.313 82.0014 81.4177 81.68 81.3355 80.8056C81.3056 80.5066 81.2458 80.1702 81.1038 79.7517C80.5058 77.9055 79.1156 76.4705 78.3308 75.312C77.3442 73.862 76.9406 71.53 76.3427 66.7167C75.9241 63.3533 76.1409 62.546 75.2589 61.2381C74.6012 60.2664 73.8388 59.6386 73.0615 59.1304C73.1213 59.1528 74.9674 59.9674 75.4832 60.7223C76.0064 61.4922 76.3726 62.1948 76.4922 64.0334C76.6118 65.8721 76.7687 67.4716 77.0752 69.2803C77.3816 71.0891 77.7777 73.3313 78.271 74.1834C78.7643 75.0429 80.02 77.1581 80.5432 77.6514C81.0664 78.1447 81.7092 79.4901 81.7989 80.813C81.8886 82.1285 81.3355 83.4215 82.1651 84.2138C82.9947 85.0135 84.3401 86.1795 85.1996 86.4187C86.0592 86.6653 87.3746 87.2184 87.6811 88.1078C87.9875 88.9973 88.3836 89.8568 88.6004 91.7852C88.8172 93.7135 89.2432 96.0155 89.2432 96.7854H89.2656Z" fill="url(#paint27_linear_649_169)"/>
</g>
<circle cx="61.7903" cy="10.6004" r="8.96905" fill="url(#paint28_linear_649_169)"/>
<path d="M87.2028 23.77C90.5305 20.2234 93.7889 22.2923 95.0022 23.77C98.5379 23.77 99.0752 26.5408 98.9018 27.9262C101.606 27.9262 101.588 30.3276 101.242 31.5282H75.2437C75.8676 28.2033 80.01 27.7415 82.0032 27.9262C81.5872 23.7146 85.2962 23.4006 87.2028 23.77Z" fill="url(#paint29_linear_649_169)"/>
<defs>
<filter id="filter0_d_649_169" x="0.811464" y="0.951838" width="125.412" height="133.383" filterUnits="userSpaceOnUse" color-interpolation-filters="sRGB">
<feFlood flood-opacity="0" result="BackgroundImageFix"/>
<feColorMatrix in="SourceAlpha" type="matrix" values="0 0 0 0 0 0 0 0 0 0 0 0 0 0 0 0 0 0 127 0" result="hardAlpha"/>
<feOffset dx="3.95608" dy="2.96706"/>
<feGaussianBlur stdDeviation="5.93413"/>
<feColorMatrix type="matrix" values="0 0 0 0 0 0 0 0 0 0 0 0 0 0 0 0 0 0 0.1 0"/>
<feBlend mode="normal" in2="BackgroundImageFix" result="effect1_dropShadow_649_169"/>
<feBlend mode="normal" in="SourceGraphic" in2="effect1_dropShadow_649_169" result="shape"/>
</filter>
<linearGradient id="paint0_linear_649_169" x1="56.6627" y1="78.1225" x2="62.6672" y2="-32.4875" gradientUnits="userSpaceOnUse">
<stop offset="0.126378" stop-color="#FBC60C"/>
<stop offset="1" stop-color="white"/>
</linearGradient>
<linearGradient id="paint1_linear_649_169" x1="107.622" y1="122.661" x2="-150.993" y2="164.307" gradientUnits="userSpaceOnUse">
<stop stop-color="#6CC6EF"/>
<stop offset="0.28" stop-color="#5793CF"/>
<stop offset="0.61" stop-color="#415EAE"/>
<stop offset="0.86" stop-color="#333D99"/>
<stop offset="1" stop-color="#2E3192"/>
</linearGradient>
<linearGradient id="paint2_linear_649_169" x1="89.998" y1="112.706" x2="-12.6079" y2="99.9097" gradientUnits="userSpaceOnUse">
<stop stop-color="#6CC6EF"/>
<stop offset="0.28" stop-color="#5793CF"/>
<stop offset="0.61" stop-color="#415EAE"/>
<stop offset="0.86" stop-color="#333D99"/>
<stop offset="1" stop-color="#2E3192"/>
</linearGradient>
<linearGradient id="paint3_linear_649_169" x1="95.5962" y1="59.1304" x2="95.3197" y2="83.6384" gradientUnits="userSpaceOnUse">
<stop offset="0.06" stop-color="#B6D55C"/>
<stop offset="0.23" stop-color="#B2D35C"/>
<stop offset="0.38" stop-color="#A7CD5E"/>
<stop offset="0.53" stop-color="#95C362"/>
<stop offset="0.67" stop-color="#7BB667"/>
<stop offset="0.81" stop-color="#5AA46E"/>
<stop offset="0.94" stop-color="#318F76"/>
<stop offset="1" stop-color="#1E857B"/>
</linearGradient>
<linearGradient id="paint4_linear_649_169" x1="35.6234" y1="39.817" x2="35.728" y2="76.6873" gradientUnits="userSpaceOnUse">
<stop offset="0.06" stop-color="#B6D55C"/>
<stop offset="0.18" stop-color="#ACD05D"/>
<stop offset="0.37" stop-color="#93C263"/>
<stop offset="0.62" stop-color="#69AC6B"/>
<stop offset="0.91" stop-color="#308E77"/>
<stop offset="1" stop-color="#1E857B"/>
</linearGradient>
<linearGradient id="paint5_linear_649_169" x1="79.8033" y1="53.6665" x2="66.9178" y2="93.4517" gradientUnits="userSpaceOnUse">
<stop stop-color="#8D989E"/>
<stop offset="0.37" stop-color="#8D989E"/>
<stop offset="0.55" stop-color="#828E92"/>
<stop offset="0.85" stop-color="#647374"/>
<stop offset="1" stop-color="#556564"/>
</linearGradient>
<linearGradient id="paint6_linear_649_169" x1="39.7415" y1="65.9394" x2="89.5795" y2="65.9394" gradientUnits="userSpaceOnUse">
<stop stop-color="#788A8A"/>
<stop offset="0.42" stop-color="#7E8D92"/>
<stop offset="1" stop-color="#818F96"/>
</linearGradient>
<linearGradient id="paint7_linear_649_169" x1="25.705" y1="56.3947" x2="26.0189" y2="84.4903" gradientUnits="userSpaceOnUse">
<stop offset="0.06" stop-color="#B6D55C"/>
<stop offset="0.23" stop-color="#B2D35C"/>
<stop offset="0.38" stop-color="#A7CD5E"/>
<stop offset="0.53" stop-color="#95C362"/>
<stop offset="0.67" stop-color="#7BB667"/>
<stop offset="0.81" stop-color="#5AA46E"/>
<stop offset="0.94" stop-color="#318F76"/>
<stop offset="1" stop-color="#1E857B"/>
</linearGradient>
<linearGradient id="paint8_linear_649_169" x1="82.2249" y1="54.0031" x2="51.0052" y2="81.2615" gradientUnits="userSpaceOnUse">
<stop offset="0.32" stop-color="#B2BEBB"/>
<stop offset="0.42" stop-color="#A6B3B2"/>
<stop offset="0.59" stop-color="#8B9A9F"/>
</linearGradient>
<linearGradient id="paint9_linear_649_169" x1="72.5535" y1="61.0364" x2="24.3823" y2="81.4484" gradientUnits="userSpaceOnUse">
<stop offset="0.06" stop-color="#DEEBEC"/>
<stop offset="0.1" stop-color="#CFDCDC"/>
<stop offset="0.22" stop-color="#A4B2AF"/>
<stop offset="0.33" stop-color="#83908A"/>
<stop offset="0.44" stop-color="#6A7871"/>
<stop offset="0.54" stop-color="#5C6A61"/>
<stop offset="0.62" stop-color="#57655C"/>
</linearGradient>
<linearGradient id="paint10_linear_649_169" x1="58.6288" y1="49.4513" x2="71.9104" y2="49.4513" gradientUnits="userSpaceOnUse">
<stop stop-color="#DEEBEC"/>
<stop offset="0.4" stop-color="#C2CECF"/>
<stop offset="0.6" stop-color="#B6C2C4"/>
<stop offset="0.95" stop-color="#99A4A8"/>
<stop offset="1" stop-color="#95A0A4"/>
</linearGradient>
<linearGradient id="paint11_linear_649_169" x1="86.1716" y1="99.4312" x2="74.6913" y2="53.6443" gradientUnits="userSpaceOnUse">
<stop stop-color="#7BC9EC"/>
<stop offset="1" stop-color="#CAEBFC"/>
</linearGradient>
<linearGradient id="paint12_linear_649_169" x1="55.9006" y1="69.0635" x2="74.6832" y2="59.7357" gradientUnits="userSpaceOnUse">
<stop stop-color="#7BC9EC"/>
<stop offset="1" stop-color="#CAEBFC"/>
</linearGradient>
<linearGradient id="paint13_linear_649_169" x1="63.069" y1="91.5235" x2="62.1795" y2="37.3729" gradientUnits="userSpaceOnUse">
<stop stop-color="#CAEBFC"/>
<stop offset="0.69" stop-color="#62B9E0"/>
<stop offset="0.75" stop-color="#65BAE0"/>
<stop offset="0.79" stop-color="#70BFE3"/>
<stop offset="0.84" stop-color="#81C8E8"/>
<stop offset="0.88" stop-color="#9BD4EF"/>
<stop offset="0.93" stop-color="#BBE3F8"/>
<stop offset="0.94" stop-color="#CAEBFC"/>
</linearGradient>
<linearGradient id="paint14_linear_649_169" x1="56.5584" y1="98.1234" x2="56.0277" y2="42.3135" gradientUnits="userSpaceOnUse">
<stop stop-color="#36A9E0"/>
<stop offset="0.02" stop-color="#3CABE1"/>
<stop offset="0.13" stop-color="#5CBBE8"/>
<stop offset="0.25" stop-color="#76C7EE"/>
<stop offset="0.38" stop-color="#8BD1F2"/>
<stop offset="0.53" stop-color="#99D8F5"/>
<stop offset="0.71" stop-color="#A2DCF7"/>
<stop offset="1" stop-color="#A5DEF8"/>
</linearGradient>
<linearGradient id="paint15_linear_649_169" x1="34.9358" y1="71.2461" x2="35.0853" y2="97.4431" gradientUnits="userSpaceOnUse">
<stop stop-color="#FBB03C"/>
<stop offset="0.31" stop-color="#F09E36"/>
<stop offset="0.93" stop-color="#D67128"/>
<stop offset="1" stop-color="#D36C27"/>
</linearGradient>
<linearGradient id="paint16_linear_649_169" x1="94.7816" y1="51.0359" x2="76.8734" y2="72.0758" gradientUnits="userSpaceOnUse">
<stop stop-color="#DEEBEC"/>
<stop offset="0.4" stop-color="#C2CECF"/>
<stop offset="0.6" stop-color="#B6C2C4"/>
<stop offset="0.95" stop-color="#99A4A8"/>
<stop offset="1" stop-color="#95A0A4"/>
</linearGradient>
<linearGradient id="paint17_linear_649_169" x1="69.4964" y1="74.6096" x2="61.783" y2="95.343" gradientUnits="userSpaceOnUse">
<stop stop-color="#CAEBFC"/>
<stop offset="0.28" stop-color="#74CEF5"/>
<stop offset="0.41" stop-color="#71CAF2"/>
<stop offset="0.53" stop-color="#69BFEC"/>
<stop offset="0.64" stop-color="#5BAEE0"/>
<stop offset="0.66" stop-color="#58AADE"/>
</linearGradient>
<linearGradient id="paint18_linear_649_169" x1="60.4079" y1="58.2111" x2="51.3417" y2="82.5845" gradientUnits="userSpaceOnUse">
<stop stop-color="#CAEBFC"/>
<stop offset="0.28" stop-color="#74CEF5"/>
<stop offset="0.41" stop-color="#71CAF2"/>
<stop offset="0.53" stop-color="#69BFEC"/>
<stop offset="0.64" stop-color="#5BAEE0"/>
<stop offset="0.66" stop-color="#58AADE"/>
</linearGradient>
<linearGradient id="paint19_linear_649_169" x1="40.2276" y1="81.0895" x2="60.4827" y2="100.343" gradientUnits="userSpaceOnUse">
<stop stop-color="#FBB03C"/>
<stop offset="0.24" stop-color="#F4A438"/>
<stop offset="0.67" stop-color="#E3872F"/>
<stop offset="1" stop-color="#D36C27"/>
</linearGradient>
<linearGradient id="paint20_linear_649_169" x1="47.4097" y1="84.5801" x2="53.6282" y2="84.5801" gradientUnits="userSpaceOnUse">
<stop stop-color="#736458"/>
<stop offset="0.45" stop-color="#675A50"/>
<stop offset="1" stop-color="#544842"/>
</linearGradient>
<linearGradient id="paint21_linear_649_169" x1="41.8045" y1="79.7368" x2="54.5331" y2="91.8301" gradientUnits="userSpaceOnUse">
<stop offset="0.58" stop-color="#FBB03C"/>
<stop offset="0.68" stop-color="#F4A438"/>
<stop offset="0.86" stop-color="#E3872F"/>
<stop offset="1" stop-color="#D36C27"/>
</linearGradient>
<linearGradient id="paint22_linear_649_169" x1="58.0307" y1="79.8041" x2="45.4441" y2="91.7628" gradientUnits="userSpaceOnUse">
<stop offset="0.53" stop-color="#FBB03C"/>
<stop offset="0.64" stop-color="#F4A438"/>
<stop offset="0.84" stop-color="#E3872F"/>
<stop offset="1" stop-color="#D36C27"/>
</linearGradient>
<linearGradient id="paint23_linear_649_169" x1="59.077" y1="50.1985" x2="54.2263" y2="37.4401" gradientUnits="userSpaceOnUse">
<stop stop-color="#62B9E0"/>
<stop offset="0.22" stop-color="#65BAE0"/>
<stop offset="0.4" stop-color="#6FBFE3"/>
<stop offset="0.56" stop-color="#80C7E8"/>
<stop offset="0.72" stop-color="#98D3EE"/>
<stop offset="0.87" stop-color="#B7E1F6"/>
<stop offset="0.94" stop-color="#CAEBFC"/>
</linearGradient>
<linearGradient id="paint24_linear_649_169" x1="57.3508" y1="48.7189" x2="66.0806" y2="48.7189" gradientUnits="userSpaceOnUse">
<stop stop-color="#62B9E0"/>
<stop offset="0.18" stop-color="#66BBE1"/>
<stop offset="0.38" stop-color="#74C2E5"/>
<stop offset="0.6" stop-color="#8CCDEB"/>
<stop offset="0.83" stop-color="#ACDCF4"/>
<stop offset="1" stop-color="#CAEBFC"/>
</linearGradient>
<linearGradient id="paint25_linear_649_169" x1="66.3795" y1="75.0878" x2="76.7537" y2="49.8025" gradientUnits="userSpaceOnUse">
<stop stop-color="#86D5F7"/>
<stop offset="0.37" stop-color="#87D5F7"/>
<stop offset="0.51" stop-color="#8ED7F7"/>
<stop offset="0.61" stop-color="#9ADBF8"/>
<stop offset="0.69" stop-color="#ABE1F9"/>
<stop offset="0.76" stop-color="#C1E8FB"/>
<stop offset="0.78" stop-color="#CAEBFC"/>
</linearGradient>
<linearGradient id="paint26_linear_649_169" x1="55.639" y1="46.544" x2="53.8825" y2="51.2677" gradientUnits="userSpaceOnUse">
<stop stop-color="#CAEBFC"/>
<stop offset="0.28" stop-color="#74CEF5"/>
<stop offset="0.41" stop-color="#71CAF2"/>
<stop offset="0.53" stop-color="#69BFEC"/>
<stop offset="0.64" stop-color="#5BAEE0"/>
<stop offset="0.66" stop-color="#58AADE"/>
</linearGradient>
<linearGradient id="paint27_linear_649_169" x1="85.8499" y1="65.8198" x2="76.694" y2="90.4398" gradientUnits="userSpaceOnUse">
<stop stop-color="#CAEBFC"/>
<stop offset="0.28" stop-color="#74CEF5"/>
<stop offset="0.41" stop-color="#71CAF2"/>
<stop offset="0.53" stop-color="#69BFEC"/>
<stop offset="0.64" stop-color="#5BAEE0"/>
<stop offset="0.66" stop-color="#58AADE"/>
</linearGradient>
<linearGradient id="paint28_linear_649_169" x1="78.0467" y1="25.1751" x2="66.1217" y2="23.5141" gradientUnits="userSpaceOnUse">
<stop stop-color="#FBE70C"/>
<stop offset="1" stop-color="white"/>
</linearGradient>
<linearGradient id="paint29_linear_649_169" x1="104.881" y1="39.2678" x2="99.4156" y2="24.4932" gradientUnits="userSpaceOnUse">
<stop stop-color="#FBE70C"/>
<stop offset="1" stop-color="white"/>
</linearGradient>
</defs>
</svg>
