<svg width="138" height="86" viewBox="0 0 138 86" fill="none" xmlns="http://www.w3.org/2000/svg">
<path d="M76.8986 28.2452C76.9003 28.2452 76.9016 28.2437 76.9015 28.242L75.0649 8.91491C75.047 8.72659 75.1951 8.56375 75.3842 8.56375H78.4476C78.6159 8.56375 78.7557 8.69392 78.7676 8.86187L79.3848 17.5688L79.7386 24.6938C79.7471 24.8645 79.888 24.9987 80.059 24.9987H80.0949C80.2729 24.9987 80.4169 24.8538 80.4157 24.6758L80.3699 17.6007C80.3698 17.5795 80.3717 17.5583 80.3758 17.5375L82.0421 8.94857C82.0713 8.79777 82.2034 8.68887 82.357 8.68887H86.5502C86.7038 8.68887 86.8358 8.79777 86.8651 8.94857L88.5314 17.5375C88.5354 17.5583 88.5374 17.5795 88.5372 17.6007L88.4914 24.6758C88.4902 24.8538 88.6342 24.9987 88.8122 24.9987H88.8481C89.0191 24.9987 89.16 24.8645 89.1685 24.6938L89.5223 17.5688L90.1396 8.86187C90.1515 8.69392 90.2912 8.56375 90.4596 8.56375H93.5229C93.7121 8.56375 93.8602 8.72659 93.8423 8.91491L92.0329 27.9548C92.0173 28.1194 91.879 28.2452 91.7136 28.2452H86.2493C86.0924 28.2452 85.9586 28.1317 85.9328 27.977L85.0663 22.7594L84.7796 12.1257C84.7749 11.9519 84.6327 11.8135 84.4589 11.8135H84.445C84.2712 11.8135 84.129 11.9519 84.1243 12.1257L83.8376 22.7594L82.9711 27.977C82.9454 28.1317 82.8115 28.2452 82.6546 28.2452H76.8986Z" fill="#6BC6EF"/>
<path d="M94.0099 28.2452C93.8152 28.2452 93.6653 28.0732 93.6921 27.8803L96.3332 8.84048C96.3552 8.68186 96.4908 8.56375 96.6509 8.56375H101.899C102.059 8.56375 102.195 8.68185 102.217 8.84048L104.858 27.8803C104.884 28.0732 104.735 28.2452 104.54 28.2452H101.409C101.245 28.2452 101.107 28.1206 101.09 27.9568L100.732 24.4241C100.715 24.2603 100.577 24.1357 100.413 24.1357H98.1371C97.9725 24.1357 97.8346 24.2603 97.818 24.4241L97.4595 27.9568C97.4428 28.1206 97.3049 28.2452 97.1403 28.2452H94.0099ZM98.2296 20.5359C98.2104 20.7249 98.3588 20.8891 98.5488 20.8891H100.004C100.194 20.8891 100.342 20.7249 100.323 20.5359L99.9164 16.5358L99.6401 12.1143C99.6295 11.9452 99.4893 11.8135 99.3199 11.8135H99.233C99.0635 11.8135 98.9233 11.9452 98.9128 12.1143L98.6364 16.5358L98.2296 20.5359Z" fill="#6BC6EF"/>
<path d="M107.372 28.2452C107.37 28.2452 107.369 28.2438 107.369 28.242V23.5843C107.369 23.5585 107.366 23.5327 107.359 23.5076L103.777 8.96127C103.728 8.75907 103.881 8.56375 104.089 8.56375H107.185C107.335 8.56375 107.466 8.66825 107.498 8.8151L108.496 13.3131C108.499 13.3292 108.502 13.3456 108.503 13.3621L108.851 18.8179C108.862 18.9868 109.002 19.1183 109.171 19.1183H109.259C109.428 19.1183 109.568 18.9868 109.579 18.8179L109.927 13.3621C109.928 13.3456 109.931 13.3292 109.934 13.3131L110.932 8.8151C110.964 8.66825 111.094 8.56375 111.245 8.56375H114.341C114.549 8.56375 114.702 8.75907 114.653 8.96127L111.07 23.5076C111.064 23.5327 111.061 23.5585 111.061 23.5843V27.9244C111.061 28.1016 110.918 28.2452 110.74 28.2452H107.372Z" fill="#6BC6EF"/>
<path d="M75.6026 50.2044C75.6008 50.2044 75.5994 50.203 75.5994 50.2012V30.8438C75.5994 30.6666 75.743 30.523 75.9202 30.523H79.2116C79.39 30.523 79.5342 30.6686 79.5324 30.847L79.4875 35.2966L78.879 39.3326C78.8498 39.5266 79 39.7012 79.1963 39.7012H79.2414C79.3866 39.7012 79.5137 39.6037 79.5513 39.4635L80.6681 35.2966L82.3613 30.7322C82.408 30.6064 82.528 30.523 82.6621 30.523H85.999C86.2264 30.523 86.3816 30.7531 86.2964 30.964L83.2444 38.5132C83.2173 38.5804 83.2136 38.6547 83.2341 38.7242L86.5008 49.7928C86.5614 49.9984 86.4074 50.2044 86.1931 50.2044H83.1238C82.9805 50.2044 82.8546 50.1094 82.8153 49.9716L80.9789 43.532C80.8973 43.2459 80.504 43.2153 80.3792 43.4853L79.3952 45.6138C79.3757 45.656 79.3656 45.7019 79.3656 45.7484V49.8836C79.3656 50.0608 79.222 50.2044 79.0448 50.2044H75.6026Z" fill="#6BC6EF"/>
<path d="M87.443 50.2044C87.2483 50.2044 87.0984 50.0324 87.1252 49.8396L89.7663 30.7997C89.7883 30.6411 89.9239 30.523 90.084 30.523H95.3319C95.492 30.523 95.6276 30.6411 95.6496 30.7997L98.2907 49.8396C98.3174 50.0324 98.1676 50.2044 97.9729 50.2044H94.8425C94.6778 50.2044 94.5399 50.0798 94.5233 49.916L94.1648 46.3833C94.1482 46.2195 94.0103 46.0949 93.8456 46.0949H91.5702C91.4056 46.0949 91.2677 46.2195 91.2511 46.3833L90.8926 49.916C90.876 50.0798 90.738 50.2044 90.5734 50.2044H87.443ZM91.6595 42.4951C91.6403 42.6841 91.7887 42.8484 91.9787 42.8484H93.434C93.624 42.8484 93.7724 42.6841 93.7531 42.4951L93.3463 38.495L93.07 34.0735C93.0594 33.9045 92.9192 33.7727 92.7498 33.7727H92.6629C92.4934 33.7727 92.3532 33.9045 92.3427 34.0735L92.0663 38.495L91.6595 42.4951Z" fill="#6BC6EF"/>
<path d="M99.5699 50.2044V30.8438C99.5699 30.6666 99.7136 30.523 99.8908 30.523H102.938C103.116 30.523 103.259 30.6666 103.259 30.8438V46.6339C103.259 46.811 103.403 46.9547 103.58 46.9547H107.786C107.963 46.9547 108.107 47.0983 108.107 47.2755V49.8804C108.107 50.0576 107.963 50.2012 107.786 50.2012H99.5732C99.5714 50.2012 99.5699 50.2027 99.5699 50.2044Z" fill="#6BC6EF"/>
<path d="M109.091 50.2044C108.896 50.2044 108.746 50.0324 108.773 49.8396L111.414 30.7997C111.436 30.6411 111.572 30.523 111.732 30.523H116.98C117.14 30.523 117.276 30.6411 117.298 30.7997L119.939 49.8396C119.965 50.0324 119.816 50.2044 119.621 50.2044H116.49C116.326 50.2044 116.188 50.0798 116.171 49.916L115.813 46.3833C115.796 46.2195 115.658 46.0949 115.494 46.0949H113.218C113.054 46.0949 112.916 46.2195 112.899 46.3833L112.541 49.916C112.524 50.0798 112.386 50.2044 112.221 50.2044H109.091ZM113.307 42.4951C113.288 42.6841 113.437 42.8484 113.627 42.8484H115.082C115.272 42.8484 115.42 42.6841 115.401 42.4951L114.994 38.495L114.718 34.0735C114.707 33.9045 114.567 33.7727 114.398 33.7727H114.311C114.141 33.7727 114.001 33.9045 113.991 34.0735L113.714 38.495L113.307 42.4951Z" fill="#6BC6EF"/>
<path d="M121.539 50.2044C121.362 50.2044 121.218 50.0608 121.218 49.8836V30.8438C121.218 30.6666 121.362 30.523 121.539 30.523H126.888C127.039 30.523 127.169 30.6281 127.202 30.7755L128.764 37.9504C128.768 37.9691 128.77 37.9881 128.771 38.0072L129.08 46.6485C129.086 46.8211 129.227 46.9579 129.4 46.9579H129.419C129.592 46.9579 129.734 46.8206 129.739 46.6476L130.023 38.0082C130.024 37.9885 130.026 37.9688 130.031 37.9495L131.617 30.7745C131.65 30.6276 131.78 30.523 131.931 30.523H137.255C137.432 30.523 137.576 30.6666 137.576 30.8438V49.8836C137.576 50.0608 137.432 50.2044 137.255 50.2044H134.207C134.03 50.2044 133.887 50.0608 133.887 49.8836V44.154L134.575 34.1155C134.588 33.9301 134.441 33.7727 134.255 33.7727H134.226C134.061 33.7727 133.923 33.8981 133.907 34.0625L132.904 44.3755C132.903 44.3925 132.9 44.4094 132.895 44.4259L131.441 49.9683C131.404 50.1093 131.276 50.2076 131.13 50.2076H127.664C127.518 50.2076 127.39 50.1087 127.354 49.9671L125.921 44.425C125.917 44.4091 125.914 44.3928 125.912 44.3765L124.885 34.0618C124.868 33.8977 124.728 33.7727 124.563 33.7727C124.378 33.7727 124.228 33.9297 124.24 34.1148L124.907 44.154V49.8836C124.907 50.0608 124.764 50.2044 124.586 50.2044H121.539Z" fill="#6BC6EF"/>
<path d="M75.0315 62.877V54.9466H77.6172C78.4545 54.9466 79.1827 55.1167 79.8051 55.4535C80.4274 55.7903 80.9055 56.2555 81.2487 56.849C81.5888 57.4425 81.7588 58.129 81.7588 58.9086C81.7588 59.6881 81.5888 60.3683 81.2487 60.9682C80.9087 61.5681 80.4274 62.0364 79.8051 62.3733C79.1827 62.7101 78.4545 62.8802 77.6172 62.8802H75.0315V62.877ZM76.4783 61.6001H77.6493C78.1882 61.6001 78.6566 61.4879 79.048 61.2665C79.4426 61.0419 79.7473 60.7308 79.9687 60.3298C80.1901 59.9287 80.2991 59.454 80.2991 58.9086C80.2991 58.3632 80.1901 57.8788 79.9687 57.481C79.7473 57.0832 79.4426 56.7752 79.048 56.5539C78.6534 56.3325 78.1882 56.2234 77.6493 56.2234H76.4783V61.6001Z" fill="#6BC6EF"/>
<path d="M85.5379 63.0053C84.9412 63.0053 84.4215 62.8706 83.9724 62.6011C83.5265 62.3316 83.1768 61.9659 82.9298 61.504C82.6795 61.042 82.5576 60.5319 82.5576 59.9705C82.5576 59.4091 82.6827 58.8733 82.9362 58.421C83.1864 57.9719 83.5329 57.6126 83.9692 57.3527C84.4055 57.0929 84.8931 56.9581 85.432 56.9581C85.8876 56.9581 86.2854 57.0319 86.6286 57.1827C86.9719 57.3303 87.2671 57.5388 87.5077 57.7986C87.7483 58.0617 87.9343 58.3601 88.0627 58.6969C88.191 59.0337 88.2551 59.3963 88.2551 59.7876C88.2551 59.8871 88.2487 59.9897 88.2391 60.0956C88.2295 60.2015 88.2102 60.2945 88.1813 60.3715H83.7093V59.3064H87.3922L86.7313 59.8069C86.7955 59.4797 86.7794 59.1909 86.6832 58.9343C86.5869 58.6776 86.4298 58.4755 86.2148 58.328C85.9967 58.1804 85.7368 58.1034 85.432 58.1034C85.1273 58.1034 84.8835 58.1772 84.6557 58.3216C84.4279 58.4659 84.2579 58.6809 84.1392 58.96C84.0237 59.2391 83.9788 59.5791 84.0077 59.9769C83.9788 60.333 84.0269 60.6474 84.152 60.9201C84.2771 61.1928 84.46 61.4045 84.707 61.5521C84.9508 61.6996 85.2331 61.7766 85.5539 61.7766C85.8748 61.7766 86.1442 61.7093 86.3688 61.5745C86.5934 61.4398 86.7698 61.2601 86.8949 61.0324L88.0242 61.5874C87.9119 61.8633 87.7322 62.1103 87.4916 62.322C87.251 62.5337 86.9655 62.7006 86.6351 62.8225C86.3046 62.9444 85.9421 63.0021 85.5443 63.0021L85.5379 63.0053Z" fill="#6BC6EF"/>
<path d="M91.5113 63.0053C90.8953 63.0053 90.3564 62.8578 89.8976 62.5626C89.4389 62.2675 89.1245 61.8697 88.9545 61.366L89.9971 60.8655C90.1447 61.1928 90.3532 61.4462 90.6195 61.6323C90.8857 61.8183 91.1809 61.9082 91.5081 61.9082C91.7647 61.9082 91.9668 61.8504 92.1144 61.7381C92.262 61.6259 92.339 61.4751 92.339 61.2922C92.339 61.1799 92.3101 61.0837 92.2491 61.0099C92.1882 60.9361 92.108 60.872 92.0053 60.8174C91.9027 60.7629 91.7904 60.7212 91.6717 60.6827L90.7253 60.4164C90.2345 60.2753 89.8656 60.0571 89.6121 59.7684C89.3587 59.4797 89.2336 59.1332 89.2336 58.7354C89.2336 58.3793 89.3234 58.0713 89.5063 57.8051C89.6859 57.5388 89.9393 57.3303 90.2634 57.1827C90.5874 57.0351 90.9563 56.9581 91.3766 56.9581C91.9219 56.9581 92.4063 57.0897 92.8234 57.3527C93.2404 57.6158 93.5388 57.9847 93.7184 58.4595L92.6534 58.96C92.5539 58.6969 92.3871 58.4884 92.1529 58.3312C91.9187 58.174 91.6557 58.097 91.3637 58.097C91.1295 58.097 90.9435 58.1515 90.8087 58.2574C90.674 58.3633 90.6066 58.5012 90.6066 58.6712C90.6066 58.7771 90.6355 58.8701 90.6932 58.9471C90.751 59.0241 90.8312 59.0883 90.9338 59.1396C91.0365 59.1877 91.1552 59.2359 91.2899 59.2776L92.2171 59.5535C92.6919 59.6946 93.0608 59.9095 93.3174 60.1919C93.5773 60.4742 93.7056 60.8238 93.7056 61.2345C93.7056 61.5809 93.6126 61.8889 93.4297 62.1552C93.2436 62.4215 92.9902 62.63 92.663 62.7776C92.3358 62.9251 91.954 63.0021 91.5145 63.0021L91.5113 63.0053Z" fill="#6BC6EF"/>
<path d="M96.5351 63.0053C96.1308 63.0053 95.7779 62.938 95.4796 62.8032C95.1812 62.6685 94.9503 62.476 94.7867 62.2226C94.623 61.9691 94.5428 61.6772 94.5428 61.3435C94.5428 61.0099 94.6134 60.7372 94.7546 60.487C94.8957 60.2336 95.1171 60.025 95.4154 59.855C95.7138 59.685 96.0891 59.5631 96.5447 59.4925L98.4406 59.1845V60.2496L96.8109 60.5255C96.535 60.5768 96.3297 60.6634 96.195 60.7918C96.0603 60.9201 95.9929 61.0869 95.9929 61.2922C95.9929 61.4975 96.0699 61.6483 96.2207 61.767C96.3714 61.8857 96.5639 61.9435 96.7917 61.9435C97.0836 61.9435 97.3403 61.8825 97.5648 61.7574C97.7894 61.6323 97.9626 61.4622 98.0878 61.2409C98.2129 61.0195 98.2738 60.7789 98.2738 60.5159V59.0241C98.2738 58.7771 98.1776 58.5686 97.9819 58.4018C97.7862 58.2349 97.5296 58.1515 97.2087 58.1515C96.9104 58.1515 96.6473 58.2317 96.4164 58.3921C96.1854 58.5525 96.0185 58.7643 95.9095 59.0241L94.7706 58.4691C94.8829 58.1644 95.0625 57.8981 95.3096 57.6767C95.5534 57.4522 95.8421 57.2789 96.1757 57.1506C96.5094 57.0223 96.8719 56.9581 97.2601 56.9581C97.7349 56.9581 98.1551 57.0447 98.5176 57.218C98.8801 57.3912 99.1625 57.6318 99.3646 57.943C99.5667 58.251 99.6693 58.6103 99.6693 59.0241V62.877H98.3476V61.8857L98.646 61.8633C98.4984 62.1103 98.3187 62.3188 98.1134 62.4856C97.9081 62.6524 97.6739 62.7808 97.4108 62.8674C97.1478 62.954 96.8559 63.0021 96.5383 63.0021L96.5351 63.0053Z" fill="#6BC6EF"/>
<path d="M104.446 62.877L102.316 54.9466H103.869L105.54 61.706H105.136L106.881 54.9466H108.382L110.118 61.706H109.714L111.385 54.9466H112.941L110.811 62.877H109.149L107.391 56.2972H107.86L106.102 62.877H104.44H104.446Z" fill="#6BC6EF"/>
<path d="M113.708 56.4353V54.9435H115.103V56.4353H113.708ZM113.708 62.8771V57.0865H115.103V62.8771H113.708Z" fill="#6BC6EF"/>
<path d="M118.594 63.0053C117.978 63.0053 117.439 62.8578 116.98 62.5626C116.521 62.2675 116.207 61.8697 116.037 61.366L117.08 60.8655C117.227 61.1928 117.436 61.4462 117.702 61.6323C117.968 61.8183 118.263 61.9082 118.591 61.9082C118.847 61.9082 119.049 61.8504 119.197 61.7381C119.344 61.6259 119.421 61.4751 119.421 61.2922C119.421 61.1799 119.393 61.0837 119.332 61.0099C119.271 60.9361 119.191 60.872 119.088 60.8174C118.985 60.7629 118.873 60.7212 118.754 60.6827L117.808 60.4164C117.317 60.2753 116.948 60.0571 116.695 59.7684C116.441 59.4797 116.316 59.1332 116.316 58.7354C116.316 58.3793 116.406 58.0713 116.589 57.8051C116.768 57.5388 117.022 57.3303 117.346 57.1827C117.67 57.0351 118.039 56.9581 118.459 56.9581C119.004 56.9581 119.489 57.0897 119.906 57.3527C120.323 57.6158 120.621 57.9847 120.801 58.4595L119.736 58.96C119.636 58.6969 119.47 58.4884 119.235 58.3312C119.001 58.174 118.738 58.097 118.446 58.097C118.212 58.097 118.026 58.1515 117.891 58.2574C117.757 58.3633 117.689 58.5012 117.689 58.6712C117.689 58.7771 117.718 58.8701 117.776 58.9471C117.833 59.0241 117.914 59.0883 118.016 59.1396C118.119 59.1877 118.238 59.2359 118.372 59.2776L119.3 59.5535C119.774 59.6946 120.143 59.9095 120.4 60.1919C120.66 60.4742 120.788 60.8238 120.788 61.2345C120.788 61.5809 120.695 61.8889 120.512 62.1552C120.326 62.4215 120.073 62.63 119.746 62.7776C119.418 62.9251 119.037 63.0021 118.597 63.0021L118.594 63.0053Z" fill="#6BC6EF"/>
<path d="M123.618 63.0053C123.213 63.0053 122.86 62.938 122.562 62.8032C122.264 62.6685 122.033 62.476 121.869 62.2226C121.706 61.9691 121.625 61.6772 121.625 61.3435C121.625 61.0099 121.696 60.7372 121.837 60.487C121.978 60.2336 122.2 60.025 122.498 59.855C122.796 59.685 123.172 59.5631 123.627 59.4925L125.523 59.1845V60.2496L123.893 60.5255C123.618 60.5768 123.412 60.6634 123.278 60.7918C123.143 60.9201 123.075 61.0869 123.075 61.2922C123.075 61.4975 123.152 61.6483 123.303 61.767C123.454 61.8857 123.646 61.9435 123.874 61.9435C124.166 61.9435 124.423 61.8825 124.647 61.7574C124.872 61.6323 125.045 61.4622 125.17 61.2409C125.295 61.0195 125.356 60.7789 125.356 60.5159V59.0241C125.356 58.7771 125.26 58.5686 125.064 58.4018C124.869 58.2349 124.612 58.1515 124.291 58.1515C123.993 58.1515 123.73 58.2317 123.499 58.3921C123.268 58.5525 123.101 58.7643 122.992 59.0241L121.853 58.4691C121.965 58.1644 122.145 57.8981 122.392 57.6767C122.636 57.4522 122.925 57.2789 123.258 57.1506C123.592 57.0223 123.954 56.9581 124.343 56.9581C124.817 56.9581 125.238 57.0447 125.6 57.218C125.963 57.3912 126.245 57.6318 126.447 57.943C126.649 58.251 126.752 58.6103 126.752 59.0241V62.877H125.43V61.8857L125.728 61.8633C125.581 62.1103 125.401 62.3188 125.196 62.4856C124.991 62.6524 124.756 62.7808 124.493 62.8674C124.23 62.954 123.938 63.0021 123.621 63.0021L123.618 63.0053Z" fill="#6BC6EF"/>
<path d="M130.569 62.9412C129.915 62.9412 129.411 62.7615 129.052 62.4022C128.693 62.0429 128.513 61.5392 128.513 60.8848V58.3312H127.512V57.0865H127.618C127.9 57.0865 128.122 57.0127 128.279 56.8619C128.436 56.7111 128.513 56.4962 128.513 56.2139V55.7679H129.909V57.0865H131.24V58.3312H129.909V60.811C129.909 61.0035 129.944 61.1671 130.011 61.3018C130.079 61.4366 130.184 61.5392 130.332 61.6098C130.476 61.6804 130.662 61.7157 130.89 61.7157C130.938 61.7157 130.999 61.7125 131.067 61.7061C131.134 61.6996 131.201 61.6932 131.262 61.6836V62.877C131.163 62.8898 131.051 62.9059 130.922 62.9187C130.794 62.9315 130.678 62.9412 130.573 62.9412H130.569Z" fill="#6BC6EF"/>
<path d="M134.063 63.0053C133.659 63.0053 133.306 62.938 133.008 62.8032C132.709 62.6685 132.478 62.476 132.315 62.2226C132.151 61.9691 132.071 61.6772 132.071 61.3435C132.071 61.0099 132.141 60.7372 132.283 60.487C132.424 60.2336 132.645 60.025 132.943 59.855C133.242 59.685 133.617 59.5631 134.073 59.4925L135.969 59.1845V60.2496L134.339 60.5255C134.063 60.5768 133.858 60.6634 133.723 60.7918C133.588 60.9201 133.521 61.0869 133.521 61.2922C133.521 61.4975 133.598 61.6483 133.749 61.767C133.899 61.8857 134.092 61.9435 134.32 61.9435C134.612 61.9435 134.868 61.8825 135.093 61.7574C135.317 61.6323 135.491 61.4622 135.616 61.2409C135.741 61.0195 135.802 60.7789 135.802 60.5159V59.0241C135.802 58.7771 135.706 58.5686 135.51 58.4018C135.314 58.2349 135.058 58.1515 134.737 58.1515C134.438 58.1515 134.175 58.2317 133.944 58.3921C133.713 58.5525 133.547 58.7643 133.437 59.0241L132.299 58.4691C132.411 58.1644 132.591 57.8981 132.838 57.6767C133.081 57.4522 133.37 57.2789 133.704 57.1506C134.037 57.0223 134.4 56.9581 134.788 56.9581C135.263 56.9581 135.683 57.0447 136.046 57.218C136.408 57.3912 136.69 57.6318 136.893 57.943C137.095 58.251 137.197 58.6103 137.197 59.0241V62.877H135.876V61.8857L136.174 61.8633C136.026 62.1103 135.847 62.3188 135.641 62.4856C135.436 62.6524 135.202 62.7808 134.939 62.8674C134.676 62.954 134.384 63.0021 134.066 63.0021L134.063 63.0053Z" fill="#6BC6EF"/>
<path d="M24.835 4.5897L2.7705 60.2928C2.57274 60.7926 2.7751 61.3628 3.24573 61.625L42.095 83.2817C42.535 83.527 43.0869 83.4335 43.4211 83.0563L61.5764 62.5754C61.7818 62.344 61.8769 62.0358 61.8385 61.7277L55.3601 10.6956C55.3095 10.3017 55.0458 9.96593 54.6733 9.82643L36.3877 2.94632C35.894 2.76083 35.3376 2.96165 35.077 3.42002L33.0917 6.91066C32.7912 7.43955 32.1106 7.61278 31.594 7.29238L26.3986 4.07308C25.8299 3.72049 25.0818 3.96883 24.835 4.5897Z" stroke="#6BC6EF" stroke-width="3.91882" stroke-miterlimit="10"/>
<path d="M2.42407 61.1683L55.2773 10.0565" stroke="#6BC6EF" stroke-width="3.91882" stroke-miterlimit="10"/>
<path d="M43.3267 82.9684C47.613 78.4372 49.8173 75.4981 49.8173 75.4981C49.776 75.1976 46.021 38.3918 46.021 38.3918L55.5731 14.7565" stroke="#6BC6EF" stroke-width="3.91882" stroke-miterlimit="10"/>
<path d="M29.8559 76.1106L27.9249 36.4326" stroke="#6BC6EF" stroke-width="3.91882" stroke-miterlimit="10"/>
</svg>
